  0
SECTION
  2
HEADER
  9
$ANGBASE
  50
0.0
  9
$ANGDIR
  70
1
  9
$MEASUREMENT
  70
0
  0
ENDSEC
  0
SECTION
  2
TABLES
  0
TABLE
  2
LTYPE
  70
4
  0
LTYPE
  5
40F
  2
CONTINUOUS
  70
0
  3
Solid line
  72
65
  73
0
  40
0.0
  0
LTYPE
  5
410
  2
DASHDOT
 70
0
  3
Dash Dot ____ _ ____ _
 72
65
 73
4
 40
2.0
 49
1.25
 49
-0.25
 49
0.25
 49
-0.25
  0
LTYPE
  5
411
  2
DASHED
 70
0
  3
Dashed __ __ __ __ __
 72
65
 73
2
 40
0.75
 49
0.5
 49
-0.25
  0
LTYPE
  5
43B
  2
DOTTED
 70
0
  3
Dotted .  .  .  .
 72
65
 73
2
 40
0.2
 49
0.0
 49
-0.2
  0
ENDTAB
  0
TABLE
  2
STYLE
  70
4
  0
STYLE
  2
KICAD
  70
0
  40
0
  41
1
  42
1
  50
0
  71
0
  3
isocp.shx
  0
STYLE
  2
KICADB
  70
0
  40
0
  41
1
  42
1
  50
0
  71
0
  3
isocp.shx
  0
STYLE
  2
KICADI
  70
0
  40
0
  41
1
  42
1
  50
15
  71
0
  3
isocp.shx
  0
STYLE
  2
KICADBI
  70
0
  40
0
  41
1
  42
1
  50
15
  71
0
  3
isocp.shx
  0
ENDTAB
  0
TABLE
  2
LAYER
  70
1
  0
LAYER
  2
BLACK
  70
0
  62
7
  6
CONTINUOUS
  0
ENDTAB
  0
ENDSEC
  0
SECTION
  2
ENTITIES
0
LINE
8
BLACK
6
CONTINUOUS
10
4.7112
20
-3.44797
11
4.72256
21
-3.45023
0
LINE
8
BLACK
6
CONTINUOUS
10
4.72256
20
-3.45023
11
4.73353
21
-3.45396
0
LINE
8
BLACK
6
CONTINUOUS
10
4.73353
20
-3.45396
11
4.74393
21
-3.45908
0
LINE
8
BLACK
6
CONTINUOUS
10
4.74393
20
-3.45908
11
4.75356
21
-3.46552
0
LINE
8
BLACK
6
CONTINUOUS
10
4.75356
20
-3.46552
11
4.76227
21
-3.47316
0
LINE
8
BLACK
6
CONTINUOUS
10
4.76227
20
-3.47316
11
4.76991
21
-3.48187
0
LINE
8
BLACK
6
CONTINUOUS
10
4.76991
20
-3.48187
11
4.77635
21
-3.49151
0
LINE
8
BLACK
6
CONTINUOUS
10
4.77635
20
-3.49151
11
4.78147
21
-3.5019
0
LINE
8
BLACK
6
CONTINUOUS
10
4.78147
20
-3.5019
11
4.7852
21
-3.51287
0
LINE
8
BLACK
6
CONTINUOUS
10
4.7852
20
-3.51287
11
4.78746
21
-3.52424
0
LINE
8
BLACK
6
CONTINUOUS
10
4.78746
20
-3.52424
11
4.78822
21
-3.5358
0
LINE
8
BLACK
6
CONTINUOUS
10
4.78822
20
-3.5358
11
4.78746
21
-3.54736
0
LINE
8
BLACK
6
CONTINUOUS
10
4.78746
20
-3.54736
11
4.7852
21
-3.55872
0
LINE
8
BLACK
6
CONTINUOUS
10
4.7852
20
-3.55872
11
4.78147
21
-3.5697
0
LINE
8
BLACK
6
CONTINUOUS
10
4.78147
20
-3.5697
11
4.77635
21
-3.58009
0
LINE
8
BLACK
6
CONTINUOUS
10
4.77635
20
-3.58009
11
4.76991
21
-3.58972
0
LINE
8
BLACK
6
CONTINUOUS
10
4.76991
20
-3.58972
11
4.76227
21
-3.59844
0
LINE
8
BLACK
6
CONTINUOUS
10
4.76227
20
-3.59844
11
4.75356
21
-3.60608
0
LINE
8
BLACK
6
CONTINUOUS
10
4.75356
20
-3.60608
11
4.74393
21
-3.61251
0
LINE
8
BLACK
6
CONTINUOUS
10
4.74393
20
-3.61251
11
4.73353
21
-3.61764
0
LINE
8
BLACK
6
CONTINUOUS
10
4.73353
20
-3.61764
11
4.72256
21
-3.62136
0
LINE
8
BLACK
6
CONTINUOUS
10
4.72256
20
-3.62136
11
4.7112
21
-3.62362
0
LINE
8
BLACK
6
CONTINUOUS
10
4.7112
20
-3.62362
11
4.69963
21
-3.62438
0
LINE
8
BLACK
6
CONTINUOUS
10
4.69963
20
-3.62438
11
4.68807
21
-3.62362
0
LINE
8
BLACK
6
CONTINUOUS
10
4.68807
20
-3.62362
11
4.67671
21
-3.62136
0
LINE
8
BLACK
6
CONTINUOUS
10
4.67671
20
-3.62136
11
4.66574
21
-3.61764
0
LINE
8
BLACK
6
CONTINUOUS
10
4.66574
20
-3.61764
11
4.65534
21
-3.61251
0
LINE
8
BLACK
6
CONTINUOUS
10
4.65534
20
-3.61251
11
4.64571
21
-3.60608
0
LINE
8
BLACK
6
CONTINUOUS
10
4.64571
20
-3.60608
11
4.637
21
-3.59844
0
LINE
8
BLACK
6
CONTINUOUS
10
4.637
20
-3.59844
11
4.62936
21
-3.58972
0
LINE
8
BLACK
6
CONTINUOUS
10
4.62936
20
-3.58972
11
4.62292
21
-3.58009
0
LINE
8
BLACK
6
CONTINUOUS
10
4.62292
20
-3.58009
11
4.6178
21
-3.5697
0
LINE
8
BLACK
6
CONTINUOUS
10
4.6178
20
-3.5697
11
4.61407
21
-3.55872
0
LINE
8
BLACK
6
CONTINUOUS
10
4.61407
20
-3.55872
11
4.61181
21
-3.54736
0
LINE
8
BLACK
6
CONTINUOUS
10
4.61181
20
-3.54736
11
4.61105
21
-3.5358
0
LINE
8
BLACK
6
CONTINUOUS
10
4.61105
20
-3.5358
11
4.61181
21
-3.52424
0
LINE
8
BLACK
6
CONTINUOUS
10
4.61181
20
-3.52424
11
4.61407
21
-3.51287
0
LINE
8
BLACK
6
CONTINUOUS
10
4.61407
20
-3.51287
11
4.6178
21
-3.5019
0
LINE
8
BLACK
6
CONTINUOUS
10
4.6178
20
-3.5019
11
4.62292
21
-3.49151
0
LINE
8
BLACK
6
CONTINUOUS
10
4.62292
20
-3.49151
11
4.62936
21
-3.48187
0
LINE
8
BLACK
6
CONTINUOUS
10
4.62936
20
-3.48187
11
4.637
21
-3.47316
0
LINE
8
BLACK
6
CONTINUOUS
10
4.637
20
-3.47316
11
4.64571
21
-3.46552
0
LINE
8
BLACK
6
CONTINUOUS
10
4.64571
20
-3.46552
11
4.65534
21
-3.45908
0
LINE
8
BLACK
6
CONTINUOUS
10
4.65534
20
-3.45908
11
4.66574
21
-3.45396
0
LINE
8
BLACK
6
CONTINUOUS
10
4.66574
20
-3.45396
11
4.67671
21
-3.45023
0
LINE
8
BLACK
6
CONTINUOUS
10
4.67671
20
-3.45023
11
4.68807
21
-3.44797
0
LINE
8
BLACK
6
CONTINUOUS
10
4.68807
20
-3.44797
11
4.69963
21
-3.44722
0
LINE
8
BLACK
6
CONTINUOUS
10
4.69963
20
-3.44722
11
4.7112
21
-3.44797
0
LINE
8
BLACK
6
CONTINUOUS
10
6.35998
20
-3.55397
11
6.36637
21
-3.55682
0
LINE
8
BLACK
6
CONTINUOUS
10
6.36637
20
-3.55682
11
6.37203
21
-3.56093
0
LINE
8
BLACK
6
CONTINUOUS
10
6.37203
20
-3.56093
11
6.37671
21
-3.56613
0
LINE
8
BLACK
6
CONTINUOUS
10
6.37671
20
-3.56613
11
6.38021
21
-3.57219
0
LINE
8
BLACK
6
CONTINUOUS
10
6.38021
20
-3.57219
11
6.38237
21
-3.57884
0
LINE
8
BLACK
6
CONTINUOUS
10
6.38237
20
-3.57884
11
6.3831
21
-3.5858
0
LINE
8
BLACK
6
CONTINUOUS
10
6.3831
20
-3.5858
11
6.38237
21
-3.59276
0
LINE
8
BLACK
6
CONTINUOUS
10
6.38237
20
-3.59276
11
6.38021
21
-3.59941
0
LINE
8
BLACK
6
CONTINUOUS
10
6.38021
20
-3.59941
11
6.37671
21
-3.60547
0
LINE
8
BLACK
6
CONTINUOUS
10
6.37671
20
-3.60547
11
6.37203
21
-3.61067
0
LINE
8
BLACK
6
CONTINUOUS
10
6.37203
20
-3.61067
11
6.36637
21
-3.61478
0
LINE
8
BLACK
6
CONTINUOUS
10
6.36637
20
-3.61478
11
6.35998
21
-3.61762
0
LINE
8
BLACK
6
CONTINUOUS
10
6.35998
20
-3.61762
11
6.35313
21
-3.61908
0
LINE
8
BLACK
6
CONTINUOUS
10
6.35313
20
-3.61908
11
6.34614
21
-3.61908
0
LINE
8
BLACK
6
CONTINUOUS
10
6.34614
20
-3.61908
11
6.33929
21
-3.61762
0
LINE
8
BLACK
6
CONTINUOUS
10
6.33929
20
-3.61762
11
6.3329
21
-3.61478
0
LINE
8
BLACK
6
CONTINUOUS
10
6.3329
20
-3.61478
11
6.32724
21
-3.61067
0
LINE
8
BLACK
6
CONTINUOUS
10
6.32724
20
-3.61067
11
6.32256
21
-3.60547
0
LINE
8
BLACK
6
CONTINUOUS
10
6.32256
20
-3.60547
11
6.31906
21
-3.59941
0
LINE
8
BLACK
6
CONTINUOUS
10
6.31906
20
-3.59941
11
6.3169
21
-3.59276
0
LINE
8
BLACK
6
CONTINUOUS
10
6.3169
20
-3.59276
11
6.31617
21
-3.5858
0
LINE
8
BLACK
6
CONTINUOUS
10
6.31617
20
-3.5858
11
6.3169
21
-3.57884
0
LINE
8
BLACK
6
CONTINUOUS
10
6.3169
20
-3.57884
11
6.31906
21
-3.57219
0
LINE
8
BLACK
6
CONTINUOUS
10
6.31906
20
-3.57219
11
6.32256
21
-3.56613
0
LINE
8
BLACK
6
CONTINUOUS
10
6.32256
20
-3.56613
11
6.32724
21
-3.56093
0
LINE
8
BLACK
6
CONTINUOUS
10
6.32724
20
-3.56093
11
6.3329
21
-3.55682
0
LINE
8
BLACK
6
CONTINUOUS
10
6.3329
20
-3.55682
11
6.33929
21
-3.55397
0
LINE
8
BLACK
6
CONTINUOUS
10
6.33929
20
-3.55397
11
6.34614
21
-3.55252
0
LINE
8
BLACK
6
CONTINUOUS
10
6.34614
20
-3.55252
11
6.35313
21
-3.55252
0
LINE
8
BLACK
6
CONTINUOUS
10
6.35313
20
-3.55252
11
6.35998
21
-3.55397
0
LINE
8
BLACK
6
CONTINUOUS
10
6.25998
20
-3.55397
11
6.26637
21
-3.55682
0
LINE
8
BLACK
6
CONTINUOUS
10
6.26637
20
-3.55682
11
6.27203
21
-3.56093
0
LINE
8
BLACK
6
CONTINUOUS
10
6.27203
20
-3.56093
11
6.27671
21
-3.56613
0
LINE
8
BLACK
6
CONTINUOUS
10
6.27671
20
-3.56613
11
6.28021
21
-3.57219
0
LINE
8
BLACK
6
CONTINUOUS
10
6.28021
20
-3.57219
11
6.28237
21
-3.57884
0
LINE
8
BLACK
6
CONTINUOUS
10
6.28237
20
-3.57884
11
6.2831
21
-3.5858
0
LINE
8
BLACK
6
CONTINUOUS
10
6.2831
20
-3.5858
11
6.28237
21
-3.59276
0
LINE
8
BLACK
6
CONTINUOUS
10
6.28237
20
-3.59276
11
6.28021
21
-3.59941
0
LINE
8
BLACK
6
CONTINUOUS
10
6.28021
20
-3.59941
11
6.27671
21
-3.60547
0
LINE
8
BLACK
6
CONTINUOUS
10
6.27671
20
-3.60547
11
6.27203
21
-3.61067
0
LINE
8
BLACK
6
CONTINUOUS
10
6.27203
20
-3.61067
11
6.26637
21
-3.61478
0
LINE
8
BLACK
6
CONTINUOUS
10
6.26637
20
-3.61478
11
6.25998
21
-3.61762
0
LINE
8
BLACK
6
CONTINUOUS
10
6.25998
20
-3.61762
11
6.25313
21
-3.61908
0
LINE
8
BLACK
6
CONTINUOUS
10
6.25313
20
-3.61908
11
6.24614
21
-3.61908
0
LINE
8
BLACK
6
CONTINUOUS
10
6.24614
20
-3.61908
11
6.23929
21
-3.61762
0
LINE
8
BLACK
6
CONTINUOUS
10
6.23929
20
-3.61762
11
6.2329
21
-3.61478
0
LINE
8
BLACK
6
CONTINUOUS
10
6.2329
20
-3.61478
11
6.22724
21
-3.61067
0
LINE
8
BLACK
6
CONTINUOUS
10
6.22724
20
-3.61067
11
6.22256
21
-3.60547
0
LINE
8
BLACK
6
CONTINUOUS
10
6.22256
20
-3.60547
11
6.21906
21
-3.59941
0
LINE
8
BLACK
6
CONTINUOUS
10
6.21906
20
-3.59941
11
6.2169
21
-3.59276
0
LINE
8
BLACK
6
CONTINUOUS
10
6.2169
20
-3.59276
11
6.21617
21
-3.5858
0
LINE
8
BLACK
6
CONTINUOUS
10
6.21617
20
-3.5858
11
6.2169
21
-3.57884
0
LINE
8
BLACK
6
CONTINUOUS
10
6.2169
20
-3.57884
11
6.21906
21
-3.57219
0
LINE
8
BLACK
6
CONTINUOUS
10
6.21906
20
-3.57219
11
6.22256
21
-3.56613
0
LINE
8
BLACK
6
CONTINUOUS
10
6.22256
20
-3.56613
11
6.22724
21
-3.56093
0
LINE
8
BLACK
6
CONTINUOUS
10
6.22724
20
-3.56093
11
6.2329
21
-3.55682
0
LINE
8
BLACK
6
CONTINUOUS
10
6.2329
20
-3.55682
11
6.23929
21
-3.55397
0
LINE
8
BLACK
6
CONTINUOUS
10
6.23929
20
-3.55397
11
6.24614
21
-3.55252
0
LINE
8
BLACK
6
CONTINUOUS
10
6.24614
20
-3.55252
11
6.25313
21
-3.55252
0
LINE
8
BLACK
6
CONTINUOUS
10
6.25313
20
-3.55252
11
6.25998
21
-3.55397
0
LINE
8
BLACK
6
CONTINUOUS
10
6.15998
20
-3.55397
11
6.16637
21
-3.55682
0
LINE
8
BLACK
6
CONTINUOUS
10
6.16637
20
-3.55682
11
6.17203
21
-3.56093
0
LINE
8
BLACK
6
CONTINUOUS
10
6.17203
20
-3.56093
11
6.17671
21
-3.56613
0
LINE
8
BLACK
6
CONTINUOUS
10
6.17671
20
-3.56613
11
6.18021
21
-3.57219
0
LINE
8
BLACK
6
CONTINUOUS
10
6.18021
20
-3.57219
11
6.18237
21
-3.57884
0
LINE
8
BLACK
6
CONTINUOUS
10
6.18237
20
-3.57884
11
6.1831
21
-3.5858
0
LINE
8
BLACK
6
CONTINUOUS
10
6.1831
20
-3.5858
11
6.18237
21
-3.59276
0
LINE
8
BLACK
6
CONTINUOUS
10
6.18237
20
-3.59276
11
6.18021
21
-3.59941
0
LINE
8
BLACK
6
CONTINUOUS
10
6.18021
20
-3.59941
11
6.17671
21
-3.60547
0
LINE
8
BLACK
6
CONTINUOUS
10
6.17671
20
-3.60547
11
6.17203
21
-3.61067
0
LINE
8
BLACK
6
CONTINUOUS
10
6.17203
20
-3.61067
11
6.16637
21
-3.61478
0
LINE
8
BLACK
6
CONTINUOUS
10
6.16637
20
-3.61478
11
6.15998
21
-3.61762
0
LINE
8
BLACK
6
CONTINUOUS
10
6.15998
20
-3.61762
11
6.15313
21
-3.61908
0
LINE
8
BLACK
6
CONTINUOUS
10
6.15313
20
-3.61908
11
6.14614
21
-3.61908
0
LINE
8
BLACK
6
CONTINUOUS
10
6.14614
20
-3.61908
11
6.13929
21
-3.61762
0
LINE
8
BLACK
6
CONTINUOUS
10
6.13929
20
-3.61762
11
6.1329
21
-3.61478
0
LINE
8
BLACK
6
CONTINUOUS
10
6.1329
20
-3.61478
11
6.12724
21
-3.61067
0
LINE
8
BLACK
6
CONTINUOUS
10
6.12724
20
-3.61067
11
6.12256
21
-3.60547
0
LINE
8
BLACK
6
CONTINUOUS
10
6.12256
20
-3.60547
11
6.11906
21
-3.59941
0
LINE
8
BLACK
6
CONTINUOUS
10
6.11906
20
-3.59941
11
6.1169
21
-3.59276
0
LINE
8
BLACK
6
CONTINUOUS
10
6.1169
20
-3.59276
11
6.11617
21
-3.5858
0
LINE
8
BLACK
6
CONTINUOUS
10
6.11617
20
-3.5858
11
6.1169
21
-3.57884
0
LINE
8
BLACK
6
CONTINUOUS
10
6.1169
20
-3.57884
11
6.11906
21
-3.57219
0
LINE
8
BLACK
6
CONTINUOUS
10
6.11906
20
-3.57219
11
6.12256
21
-3.56613
0
LINE
8
BLACK
6
CONTINUOUS
10
6.12256
20
-3.56613
11
6.12724
21
-3.56093
0
LINE
8
BLACK
6
CONTINUOUS
10
6.12724
20
-3.56093
11
6.1329
21
-3.55682
0
LINE
8
BLACK
6
CONTINUOUS
10
6.1329
20
-3.55682
11
6.13929
21
-3.55397
0
LINE
8
BLACK
6
CONTINUOUS
10
6.13929
20
-3.55397
11
6.14614
21
-3.55252
0
LINE
8
BLACK
6
CONTINUOUS
10
6.14614
20
-3.55252
11
6.15313
21
-3.55252
0
LINE
8
BLACK
6
CONTINUOUS
10
6.15313
20
-3.55252
11
6.15998
21
-3.55397
0
LINE
8
BLACK
6
CONTINUOUS
10
6.05998
20
-3.55397
11
6.06637
21
-3.55682
0
LINE
8
BLACK
6
CONTINUOUS
10
6.06637
20
-3.55682
11
6.07203
21
-3.56093
0
LINE
8
BLACK
6
CONTINUOUS
10
6.07203
20
-3.56093
11
6.07671
21
-3.56613
0
LINE
8
BLACK
6
CONTINUOUS
10
6.07671
20
-3.56613
11
6.08021
21
-3.57219
0
LINE
8
BLACK
6
CONTINUOUS
10
6.08021
20
-3.57219
11
6.08237
21
-3.57884
0
LINE
8
BLACK
6
CONTINUOUS
10
6.08237
20
-3.57884
11
6.0831
21
-3.5858
0
LINE
8
BLACK
6
CONTINUOUS
10
6.0831
20
-3.5858
11
6.08237
21
-3.59276
0
LINE
8
BLACK
6
CONTINUOUS
10
6.08237
20
-3.59276
11
6.08021
21
-3.59941
0
LINE
8
BLACK
6
CONTINUOUS
10
6.08021
20
-3.59941
11
6.07671
21
-3.60547
0
LINE
8
BLACK
6
CONTINUOUS
10
6.07671
20
-3.60547
11
6.07203
21
-3.61067
0
LINE
8
BLACK
6
CONTINUOUS
10
6.07203
20
-3.61067
11
6.06637
21
-3.61478
0
LINE
8
BLACK
6
CONTINUOUS
10
6.06637
20
-3.61478
11
6.05998
21
-3.61762
0
LINE
8
BLACK
6
CONTINUOUS
10
6.05998
20
-3.61762
11
6.05313
21
-3.61908
0
LINE
8
BLACK
6
CONTINUOUS
10
6.05313
20
-3.61908
11
6.04614
21
-3.61908
0
LINE
8
BLACK
6
CONTINUOUS
10
6.04614
20
-3.61908
11
6.03929
21
-3.61762
0
LINE
8
BLACK
6
CONTINUOUS
10
6.03929
20
-3.61762
11
6.0329
21
-3.61478
0
LINE
8
BLACK
6
CONTINUOUS
10
6.0329
20
-3.61478
11
6.02724
21
-3.61067
0
LINE
8
BLACK
6
CONTINUOUS
10
6.02724
20
-3.61067
11
6.02256
21
-3.60547
0
LINE
8
BLACK
6
CONTINUOUS
10
6.02256
20
-3.60547
11
6.01906
21
-3.59941
0
LINE
8
BLACK
6
CONTINUOUS
10
6.01906
20
-3.59941
11
6.0169
21
-3.59276
0
LINE
8
BLACK
6
CONTINUOUS
10
6.0169
20
-3.59276
11
6.01617
21
-3.5858
0
LINE
8
BLACK
6
CONTINUOUS
10
6.01617
20
-3.5858
11
6.0169
21
-3.57884
0
LINE
8
BLACK
6
CONTINUOUS
10
6.0169
20
-3.57884
11
6.01906
21
-3.57219
0
LINE
8
BLACK
6
CONTINUOUS
10
6.01906
20
-3.57219
11
6.02256
21
-3.56613
0
LINE
8
BLACK
6
CONTINUOUS
10
6.02256
20
-3.56613
11
6.02724
21
-3.56093
0
LINE
8
BLACK
6
CONTINUOUS
10
6.02724
20
-3.56093
11
6.0329
21
-3.55682
0
LINE
8
BLACK
6
CONTINUOUS
10
6.0329
20
-3.55682
11
6.03929
21
-3.55397
0
LINE
8
BLACK
6
CONTINUOUS
10
6.03929
20
-3.55397
11
6.04614
21
-3.55252
0
LINE
8
BLACK
6
CONTINUOUS
10
6.04614
20
-3.55252
11
6.05313
21
-3.55252
0
LINE
8
BLACK
6
CONTINUOUS
10
6.05313
20
-3.55252
11
6.05998
21
-3.55397
0
LINE
8
BLACK
6
CONTINUOUS
10
5.95998
20
-3.55397
11
5.96637
21
-3.55682
0
LINE
8
BLACK
6
CONTINUOUS
10
5.96637
20
-3.55682
11
5.97203
21
-3.56093
0
LINE
8
BLACK
6
CONTINUOUS
10
5.97203
20
-3.56093
11
5.97671
21
-3.56613
0
LINE
8
BLACK
6
CONTINUOUS
10
5.97671
20
-3.56613
11
5.98021
21
-3.57219
0
LINE
8
BLACK
6
CONTINUOUS
10
5.98021
20
-3.57219
11
5.98237
21
-3.57884
0
LINE
8
BLACK
6
CONTINUOUS
10
5.98237
20
-3.57884
11
5.9831
21
-3.5858
0
LINE
8
BLACK
6
CONTINUOUS
10
5.9831
20
-3.5858
11
5.98237
21
-3.59276
0
LINE
8
BLACK
6
CONTINUOUS
10
5.98237
20
-3.59276
11
5.98021
21
-3.59941
0
LINE
8
BLACK
6
CONTINUOUS
10
5.98021
20
-3.59941
11
5.97671
21
-3.60547
0
LINE
8
BLACK
6
CONTINUOUS
10
5.97671
20
-3.60547
11
5.97203
21
-3.61067
0
LINE
8
BLACK
6
CONTINUOUS
10
5.97203
20
-3.61067
11
5.96637
21
-3.61478
0
LINE
8
BLACK
6
CONTINUOUS
10
5.96637
20
-3.61478
11
5.95998
21
-3.61762
0
LINE
8
BLACK
6
CONTINUOUS
10
5.95998
20
-3.61762
11
5.95313
21
-3.61908
0
LINE
8
BLACK
6
CONTINUOUS
10
5.95313
20
-3.61908
11
5.94614
21
-3.61908
0
LINE
8
BLACK
6
CONTINUOUS
10
5.94614
20
-3.61908
11
5.93929
21
-3.61762
0
LINE
8
BLACK
6
CONTINUOUS
10
5.93929
20
-3.61762
11
5.9329
21
-3.61478
0
LINE
8
BLACK
6
CONTINUOUS
10
5.9329
20
-3.61478
11
5.92724
21
-3.61067
0
LINE
8
BLACK
6
CONTINUOUS
10
5.92724
20
-3.61067
11
5.92256
21
-3.60547
0
LINE
8
BLACK
6
CONTINUOUS
10
5.92256
20
-3.60547
11
5.91906
21
-3.59941
0
LINE
8
BLACK
6
CONTINUOUS
10
5.91906
20
-3.59941
11
5.9169
21
-3.59276
0
LINE
8
BLACK
6
CONTINUOUS
10
5.9169
20
-3.59276
11
5.91617
21
-3.5858
0
LINE
8
BLACK
6
CONTINUOUS
10
5.91617
20
-3.5858
11
5.9169
21
-3.57884
0
LINE
8
BLACK
6
CONTINUOUS
10
5.9169
20
-3.57884
11
5.91906
21
-3.57219
0
LINE
8
BLACK
6
CONTINUOUS
10
5.91906
20
-3.57219
11
5.92256
21
-3.56613
0
LINE
8
BLACK
6
CONTINUOUS
10
5.92256
20
-3.56613
11
5.92724
21
-3.56093
0
LINE
8
BLACK
6
CONTINUOUS
10
5.92724
20
-3.56093
11
5.9329
21
-3.55682
0
LINE
8
BLACK
6
CONTINUOUS
10
5.9329
20
-3.55682
11
5.93929
21
-3.55397
0
LINE
8
BLACK
6
CONTINUOUS
10
5.93929
20
-3.55397
11
5.94614
21
-3.55252
0
LINE
8
BLACK
6
CONTINUOUS
10
5.94614
20
-3.55252
11
5.95313
21
-3.55252
0
LINE
8
BLACK
6
CONTINUOUS
10
5.95313
20
-3.55252
11
5.95998
21
-3.55397
0
LINE
8
BLACK
6
CONTINUOUS
10
5.85998
20
-3.55397
11
5.86637
21
-3.55682
0
LINE
8
BLACK
6
CONTINUOUS
10
5.86637
20
-3.55682
11
5.87203
21
-3.56093
0
LINE
8
BLACK
6
CONTINUOUS
10
5.87203
20
-3.56093
11
5.87671
21
-3.56613
0
LINE
8
BLACK
6
CONTINUOUS
10
5.87671
20
-3.56613
11
5.88021
21
-3.57219
0
LINE
8
BLACK
6
CONTINUOUS
10
5.88021
20
-3.57219
11
5.88237
21
-3.57884
0
LINE
8
BLACK
6
CONTINUOUS
10
5.88237
20
-3.57884
11
5.8831
21
-3.5858
0
LINE
8
BLACK
6
CONTINUOUS
10
5.8831
20
-3.5858
11
5.88237
21
-3.59276
0
LINE
8
BLACK
6
CONTINUOUS
10
5.88237
20
-3.59276
11
5.88021
21
-3.59941
0
LINE
8
BLACK
6
CONTINUOUS
10
5.88021
20
-3.59941
11
5.87671
21
-3.60547
0
LINE
8
BLACK
6
CONTINUOUS
10
5.87671
20
-3.60547
11
5.87203
21
-3.61067
0
LINE
8
BLACK
6
CONTINUOUS
10
5.87203
20
-3.61067
11
5.86637
21
-3.61478
0
LINE
8
BLACK
6
CONTINUOUS
10
5.86637
20
-3.61478
11
5.85998
21
-3.61762
0
LINE
8
BLACK
6
CONTINUOUS
10
5.85998
20
-3.61762
11
5.85313
21
-3.61908
0
LINE
8
BLACK
6
CONTINUOUS
10
5.85313
20
-3.61908
11
5.84614
21
-3.61908
0
LINE
8
BLACK
6
CONTINUOUS
10
5.84614
20
-3.61908
11
5.83929
21
-3.61762
0
LINE
8
BLACK
6
CONTINUOUS
10
5.83929
20
-3.61762
11
5.8329
21
-3.61478
0
LINE
8
BLACK
6
CONTINUOUS
10
5.8329
20
-3.61478
11
5.82724
21
-3.61067
0
LINE
8
BLACK
6
CONTINUOUS
10
5.82724
20
-3.61067
11
5.82256
21
-3.60547
0
LINE
8
BLACK
6
CONTINUOUS
10
5.82256
20
-3.60547
11
5.81906
21
-3.59941
0
LINE
8
BLACK
6
CONTINUOUS
10
5.81906
20
-3.59941
11
5.8169
21
-3.59276
0
LINE
8
BLACK
6
CONTINUOUS
10
5.8169
20
-3.59276
11
5.81617
21
-3.5858
0
LINE
8
BLACK
6
CONTINUOUS
10
5.81617
20
-3.5858
11
5.8169
21
-3.57884
0
LINE
8
BLACK
6
CONTINUOUS
10
5.8169
20
-3.57884
11
5.81906
21
-3.57219
0
LINE
8
BLACK
6
CONTINUOUS
10
5.81906
20
-3.57219
11
5.82256
21
-3.56613
0
LINE
8
BLACK
6
CONTINUOUS
10
5.82256
20
-3.56613
11
5.82724
21
-3.56093
0
LINE
8
BLACK
6
CONTINUOUS
10
5.82724
20
-3.56093
11
5.8329
21
-3.55682
0
LINE
8
BLACK
6
CONTINUOUS
10
5.8329
20
-3.55682
11
5.83929
21
-3.55397
0
LINE
8
BLACK
6
CONTINUOUS
10
5.83929
20
-3.55397
11
5.84614
21
-3.55252
0
LINE
8
BLACK
6
CONTINUOUS
10
5.84614
20
-3.55252
11
5.85313
21
-3.55252
0
LINE
8
BLACK
6
CONTINUOUS
10
5.85313
20
-3.55252
11
5.85998
21
-3.55397
0
LINE
8
BLACK
6
CONTINUOUS
10
5.75998
20
-3.55397
11
5.76637
21
-3.55682
0
LINE
8
BLACK
6
CONTINUOUS
10
5.76637
20
-3.55682
11
5.77203
21
-3.56093
0
LINE
8
BLACK
6
CONTINUOUS
10
5.77203
20
-3.56093
11
5.77671
21
-3.56613
0
LINE
8
BLACK
6
CONTINUOUS
10
5.77671
20
-3.56613
11
5.78021
21
-3.57219
0
LINE
8
BLACK
6
CONTINUOUS
10
5.78021
20
-3.57219
11
5.78237
21
-3.57884
0
LINE
8
BLACK
6
CONTINUOUS
10
5.78237
20
-3.57884
11
5.7831
21
-3.5858
0
LINE
8
BLACK
6
CONTINUOUS
10
5.7831
20
-3.5858
11
5.78237
21
-3.59276
0
LINE
8
BLACK
6
CONTINUOUS
10
5.78237
20
-3.59276
11
5.78021
21
-3.59941
0
LINE
8
BLACK
6
CONTINUOUS
10
5.78021
20
-3.59941
11
5.77671
21
-3.60547
0
LINE
8
BLACK
6
CONTINUOUS
10
5.77671
20
-3.60547
11
5.77203
21
-3.61067
0
LINE
8
BLACK
6
CONTINUOUS
10
5.77203
20
-3.61067
11
5.76637
21
-3.61478
0
LINE
8
BLACK
6
CONTINUOUS
10
5.76637
20
-3.61478
11
5.75998
21
-3.61762
0
LINE
8
BLACK
6
CONTINUOUS
10
5.75998
20
-3.61762
11
5.75313
21
-3.61908
0
LINE
8
BLACK
6
CONTINUOUS
10
5.75313
20
-3.61908
11
5.74614
21
-3.61908
0
LINE
8
BLACK
6
CONTINUOUS
10
5.74614
20
-3.61908
11
5.73929
21
-3.61762
0
LINE
8
BLACK
6
CONTINUOUS
10
5.73929
20
-3.61762
11
5.7329
21
-3.61478
0
LINE
8
BLACK
6
CONTINUOUS
10
5.7329
20
-3.61478
11
5.72724
21
-3.61067
0
LINE
8
BLACK
6
CONTINUOUS
10
5.72724
20
-3.61067
11
5.72256
21
-3.60547
0
LINE
8
BLACK
6
CONTINUOUS
10
5.72256
20
-3.60547
11
5.71906
21
-3.59941
0
LINE
8
BLACK
6
CONTINUOUS
10
5.71906
20
-3.59941
11
5.7169
21
-3.59276
0
LINE
8
BLACK
6
CONTINUOUS
10
5.7169
20
-3.59276
11
5.71617
21
-3.5858
0
LINE
8
BLACK
6
CONTINUOUS
10
5.71617
20
-3.5858
11
5.7169
21
-3.57884
0
LINE
8
BLACK
6
CONTINUOUS
10
5.7169
20
-3.57884
11
5.71906
21
-3.57219
0
LINE
8
BLACK
6
CONTINUOUS
10
5.71906
20
-3.57219
11
5.72256
21
-3.56613
0
LINE
8
BLACK
6
CONTINUOUS
10
5.72256
20
-3.56613
11
5.72724
21
-3.56093
0
LINE
8
BLACK
6
CONTINUOUS
10
5.72724
20
-3.56093
11
5.7329
21
-3.55682
0
LINE
8
BLACK
6
CONTINUOUS
10
5.7329
20
-3.55682
11
5.73929
21
-3.55397
0
LINE
8
BLACK
6
CONTINUOUS
10
5.73929
20
-3.55397
11
5.74614
21
-3.55252
0
LINE
8
BLACK
6
CONTINUOUS
10
5.74614
20
-3.55252
11
5.75313
21
-3.55252
0
LINE
8
BLACK
6
CONTINUOUS
10
5.75313
20
-3.55252
11
5.75998
21
-3.55397
0
LINE
8
BLACK
6
CONTINUOUS
10
5.65998
20
-3.55397
11
5.66637
21
-3.55682
0
LINE
8
BLACK
6
CONTINUOUS
10
5.66637
20
-3.55682
11
5.67203
21
-3.56093
0
LINE
8
BLACK
6
CONTINUOUS
10
5.67203
20
-3.56093
11
5.67671
21
-3.56613
0
LINE
8
BLACK
6
CONTINUOUS
10
5.67671
20
-3.56613
11
5.68021
21
-3.57219
0
LINE
8
BLACK
6
CONTINUOUS
10
5.68021
20
-3.57219
11
5.68237
21
-3.57884
0
LINE
8
BLACK
6
CONTINUOUS
10
5.68237
20
-3.57884
11
5.6831
21
-3.5858
0
LINE
8
BLACK
6
CONTINUOUS
10
5.6831
20
-3.5858
11
5.68237
21
-3.59276
0
LINE
8
BLACK
6
CONTINUOUS
10
5.68237
20
-3.59276
11
5.68021
21
-3.59941
0
LINE
8
BLACK
6
CONTINUOUS
10
5.68021
20
-3.59941
11
5.67671
21
-3.60547
0
LINE
8
BLACK
6
CONTINUOUS
10
5.67671
20
-3.60547
11
5.67203
21
-3.61067
0
LINE
8
BLACK
6
CONTINUOUS
10
5.67203
20
-3.61067
11
5.66637
21
-3.61478
0
LINE
8
BLACK
6
CONTINUOUS
10
5.66637
20
-3.61478
11
5.65998
21
-3.61762
0
LINE
8
BLACK
6
CONTINUOUS
10
5.65998
20
-3.61762
11
5.65313
21
-3.61908
0
LINE
8
BLACK
6
CONTINUOUS
10
5.65313
20
-3.61908
11
5.64614
21
-3.61908
0
LINE
8
BLACK
6
CONTINUOUS
10
5.64614
20
-3.61908
11
5.63929
21
-3.61762
0
LINE
8
BLACK
6
CONTINUOUS
10
5.63929
20
-3.61762
11
5.6329
21
-3.61478
0
LINE
8
BLACK
6
CONTINUOUS
10
5.6329
20
-3.61478
11
5.62724
21
-3.61067
0
LINE
8
BLACK
6
CONTINUOUS
10
5.62724
20
-3.61067
11
5.62256
21
-3.60547
0
LINE
8
BLACK
6
CONTINUOUS
10
5.62256
20
-3.60547
11
5.61906
21
-3.59941
0
LINE
8
BLACK
6
CONTINUOUS
10
5.61906
20
-3.59941
11
5.6169
21
-3.59276
0
LINE
8
BLACK
6
CONTINUOUS
10
5.6169
20
-3.59276
11
5.61617
21
-3.5858
0
LINE
8
BLACK
6
CONTINUOUS
10
5.61617
20
-3.5858
11
5.6169
21
-3.57884
0
LINE
8
BLACK
6
CONTINUOUS
10
5.6169
20
-3.57884
11
5.61906
21
-3.57219
0
LINE
8
BLACK
6
CONTINUOUS
10
5.61906
20
-3.57219
11
5.62256
21
-3.56613
0
LINE
8
BLACK
6
CONTINUOUS
10
5.62256
20
-3.56613
11
5.62724
21
-3.56093
0
LINE
8
BLACK
6
CONTINUOUS
10
5.62724
20
-3.56093
11
5.6329
21
-3.55682
0
LINE
8
BLACK
6
CONTINUOUS
10
5.6329
20
-3.55682
11
5.63929
21
-3.55397
0
LINE
8
BLACK
6
CONTINUOUS
10
5.63929
20
-3.55397
11
5.64614
21
-3.55252
0
LINE
8
BLACK
6
CONTINUOUS
10
5.64614
20
-3.55252
11
5.65313
21
-3.55252
0
LINE
8
BLACK
6
CONTINUOUS
10
5.65313
20
-3.55252
11
5.65998
21
-3.55397
0
LINE
8
BLACK
6
CONTINUOUS
10
5.55998
20
-3.55397
11
5.56637
21
-3.55682
0
LINE
8
BLACK
6
CONTINUOUS
10
5.56637
20
-3.55682
11
5.57203
21
-3.56093
0
LINE
8
BLACK
6
CONTINUOUS
10
5.57203
20
-3.56093
11
5.57671
21
-3.56613
0
LINE
8
BLACK
6
CONTINUOUS
10
5.57671
20
-3.56613
11
5.58021
21
-3.57219
0
LINE
8
BLACK
6
CONTINUOUS
10
5.58021
20
-3.57219
11
5.58237
21
-3.57884
0
LINE
8
BLACK
6
CONTINUOUS
10
5.58237
20
-3.57884
11
5.5831
21
-3.5858
0
LINE
8
BLACK
6
CONTINUOUS
10
5.5831
20
-3.5858
11
5.58237
21
-3.59276
0
LINE
8
BLACK
6
CONTINUOUS
10
5.58237
20
-3.59276
11
5.58021
21
-3.59941
0
LINE
8
BLACK
6
CONTINUOUS
10
5.58021
20
-3.59941
11
5.57671
21
-3.60547
0
LINE
8
BLACK
6
CONTINUOUS
10
5.57671
20
-3.60547
11
5.57203
21
-3.61067
0
LINE
8
BLACK
6
CONTINUOUS
10
5.57203
20
-3.61067
11
5.56637
21
-3.61478
0
LINE
8
BLACK
6
CONTINUOUS
10
5.56637
20
-3.61478
11
5.55998
21
-3.61762
0
LINE
8
BLACK
6
CONTINUOUS
10
5.55998
20
-3.61762
11
5.55313
21
-3.61908
0
LINE
8
BLACK
6
CONTINUOUS
10
5.55313
20
-3.61908
11
5.54614
21
-3.61908
0
LINE
8
BLACK
6
CONTINUOUS
10
5.54614
20
-3.61908
11
5.53929
21
-3.61762
0
LINE
8
BLACK
6
CONTINUOUS
10
5.53929
20
-3.61762
11
5.5329
21
-3.61478
0
LINE
8
BLACK
6
CONTINUOUS
10
5.5329
20
-3.61478
11
5.52724
21
-3.61067
0
LINE
8
BLACK
6
CONTINUOUS
10
5.52724
20
-3.61067
11
5.52256
21
-3.60547
0
LINE
8
BLACK
6
CONTINUOUS
10
5.52256
20
-3.60547
11
5.51906
21
-3.59941
0
LINE
8
BLACK
6
CONTINUOUS
10
5.51906
20
-3.59941
11
5.5169
21
-3.59276
0
LINE
8
BLACK
6
CONTINUOUS
10
5.5169
20
-3.59276
11
5.51617
21
-3.5858
0
LINE
8
BLACK
6
CONTINUOUS
10
5.51617
20
-3.5858
11
5.5169
21
-3.57884
0
LINE
8
BLACK
6
CONTINUOUS
10
5.5169
20
-3.57884
11
5.51906
21
-3.57219
0
LINE
8
BLACK
6
CONTINUOUS
10
5.51906
20
-3.57219
11
5.52256
21
-3.56613
0
LINE
8
BLACK
6
CONTINUOUS
10
5.52256
20
-3.56613
11
5.52724
21
-3.56093
0
LINE
8
BLACK
6
CONTINUOUS
10
5.52724
20
-3.56093
11
5.5329
21
-3.55682
0
LINE
8
BLACK
6
CONTINUOUS
10
5.5329
20
-3.55682
11
5.53929
21
-3.55397
0
LINE
8
BLACK
6
CONTINUOUS
10
5.53929
20
-3.55397
11
5.54614
21
-3.55252
0
LINE
8
BLACK
6
CONTINUOUS
10
5.54614
20
-3.55252
11
5.55313
21
-3.55252
0
LINE
8
BLACK
6
CONTINUOUS
10
5.55313
20
-3.55252
11
5.55998
21
-3.55397
0
LINE
8
BLACK
6
CONTINUOUS
10
5.45998
20
-3.55397
11
5.46637
21
-3.55682
0
LINE
8
BLACK
6
CONTINUOUS
10
5.46637
20
-3.55682
11
5.47203
21
-3.56093
0
LINE
8
BLACK
6
CONTINUOUS
10
5.47203
20
-3.56093
11
5.47671
21
-3.56613
0
LINE
8
BLACK
6
CONTINUOUS
10
5.47671
20
-3.56613
11
5.48021
21
-3.57219
0
LINE
8
BLACK
6
CONTINUOUS
10
5.48021
20
-3.57219
11
5.48237
21
-3.57884
0
LINE
8
BLACK
6
CONTINUOUS
10
5.48237
20
-3.57884
11
5.4831
21
-3.5858
0
LINE
8
BLACK
6
CONTINUOUS
10
5.4831
20
-3.5858
11
5.48237
21
-3.59276
0
LINE
8
BLACK
6
CONTINUOUS
10
5.48237
20
-3.59276
11
5.48021
21
-3.59941
0
LINE
8
BLACK
6
CONTINUOUS
10
5.48021
20
-3.59941
11
5.47671
21
-3.60547
0
LINE
8
BLACK
6
CONTINUOUS
10
5.47671
20
-3.60547
11
5.47203
21
-3.61067
0
LINE
8
BLACK
6
CONTINUOUS
10
5.47203
20
-3.61067
11
5.46637
21
-3.61478
0
LINE
8
BLACK
6
CONTINUOUS
10
5.46637
20
-3.61478
11
5.45998
21
-3.61762
0
LINE
8
BLACK
6
CONTINUOUS
10
5.45998
20
-3.61762
11
5.45313
21
-3.61908
0
LINE
8
BLACK
6
CONTINUOUS
10
5.45313
20
-3.61908
11
5.44614
21
-3.61908
0
LINE
8
BLACK
6
CONTINUOUS
10
5.44614
20
-3.61908
11
5.43929
21
-3.61762
0
LINE
8
BLACK
6
CONTINUOUS
10
5.43929
20
-3.61762
11
5.4329
21
-3.61478
0
LINE
8
BLACK
6
CONTINUOUS
10
5.4329
20
-3.61478
11
5.42724
21
-3.61067
0
LINE
8
BLACK
6
CONTINUOUS
10
5.42724
20
-3.61067
11
5.42256
21
-3.60547
0
LINE
8
BLACK
6
CONTINUOUS
10
5.42256
20
-3.60547
11
5.41906
21
-3.59941
0
LINE
8
BLACK
6
CONTINUOUS
10
5.41906
20
-3.59941
11
5.4169
21
-3.59276
0
LINE
8
BLACK
6
CONTINUOUS
10
5.4169
20
-3.59276
11
5.41617
21
-3.5858
0
LINE
8
BLACK
6
CONTINUOUS
10
5.41617
20
-3.5858
11
5.4169
21
-3.57884
0
LINE
8
BLACK
6
CONTINUOUS
10
5.4169
20
-3.57884
11
5.41906
21
-3.57219
0
LINE
8
BLACK
6
CONTINUOUS
10
5.41906
20
-3.57219
11
5.42256
21
-3.56613
0
LINE
8
BLACK
6
CONTINUOUS
10
5.42256
20
-3.56613
11
5.42724
21
-3.56093
0
LINE
8
BLACK
6
CONTINUOUS
10
5.42724
20
-3.56093
11
5.4329
21
-3.55682
0
LINE
8
BLACK
6
CONTINUOUS
10
5.4329
20
-3.55682
11
5.43929
21
-3.55397
0
LINE
8
BLACK
6
CONTINUOUS
10
5.43929
20
-3.55397
11
5.44614
21
-3.55252
0
LINE
8
BLACK
6
CONTINUOUS
10
5.44614
20
-3.55252
11
5.45313
21
-3.55252
0
LINE
8
BLACK
6
CONTINUOUS
10
5.45313
20
-3.55252
11
5.45998
21
-3.55397
0
LINE
8
BLACK
6
CONTINUOUS
10
5.35998
20
-3.55397
11
5.36637
21
-3.55682
0
LINE
8
BLACK
6
CONTINUOUS
10
5.36637
20
-3.55682
11
5.37203
21
-3.56093
0
LINE
8
BLACK
6
CONTINUOUS
10
5.37203
20
-3.56093
11
5.37671
21
-3.56613
0
LINE
8
BLACK
6
CONTINUOUS
10
5.37671
20
-3.56613
11
5.38021
21
-3.57219
0
LINE
8
BLACK
6
CONTINUOUS
10
5.38021
20
-3.57219
11
5.38237
21
-3.57884
0
LINE
8
BLACK
6
CONTINUOUS
10
5.38237
20
-3.57884
11
5.3831
21
-3.5858
0
LINE
8
BLACK
6
CONTINUOUS
10
5.3831
20
-3.5858
11
5.38237
21
-3.59276
0
LINE
8
BLACK
6
CONTINUOUS
10
5.38237
20
-3.59276
11
5.38021
21
-3.59941
0
LINE
8
BLACK
6
CONTINUOUS
10
5.38021
20
-3.59941
11
5.37671
21
-3.60547
0
LINE
8
BLACK
6
CONTINUOUS
10
5.37671
20
-3.60547
11
5.37203
21
-3.61067
0
LINE
8
BLACK
6
CONTINUOUS
10
5.37203
20
-3.61067
11
5.36637
21
-3.61478
0
LINE
8
BLACK
6
CONTINUOUS
10
5.36637
20
-3.61478
11
5.35998
21
-3.61762
0
LINE
8
BLACK
6
CONTINUOUS
10
5.35998
20
-3.61762
11
5.35313
21
-3.61908
0
LINE
8
BLACK
6
CONTINUOUS
10
5.35313
20
-3.61908
11
5.34614
21
-3.61908
0
LINE
8
BLACK
6
CONTINUOUS
10
5.34614
20
-3.61908
11
5.33929
21
-3.61762
0
LINE
8
BLACK
6
CONTINUOUS
10
5.33929
20
-3.61762
11
5.3329
21
-3.61478
0
LINE
8
BLACK
6
CONTINUOUS
10
5.3329
20
-3.61478
11
5.32724
21
-3.61067
0
LINE
8
BLACK
6
CONTINUOUS
10
5.32724
20
-3.61067
11
5.32256
21
-3.60547
0
LINE
8
BLACK
6
CONTINUOUS
10
5.32256
20
-3.60547
11
5.31906
21
-3.59941
0
LINE
8
BLACK
6
CONTINUOUS
10
5.31906
20
-3.59941
11
5.3169
21
-3.59276
0
LINE
8
BLACK
6
CONTINUOUS
10
5.3169
20
-3.59276
11
5.31617
21
-3.5858
0
LINE
8
BLACK
6
CONTINUOUS
10
5.31617
20
-3.5858
11
5.3169
21
-3.57884
0
LINE
8
BLACK
6
CONTINUOUS
10
5.3169
20
-3.57884
11
5.31906
21
-3.57219
0
LINE
8
BLACK
6
CONTINUOUS
10
5.31906
20
-3.57219
11
5.32256
21
-3.56613
0
LINE
8
BLACK
6
CONTINUOUS
10
5.32256
20
-3.56613
11
5.32724
21
-3.56093
0
LINE
8
BLACK
6
CONTINUOUS
10
5.32724
20
-3.56093
11
5.3329
21
-3.55682
0
LINE
8
BLACK
6
CONTINUOUS
10
5.3329
20
-3.55682
11
5.33929
21
-3.55397
0
LINE
8
BLACK
6
CONTINUOUS
10
5.33929
20
-3.55397
11
5.34614
21
-3.55252
0
LINE
8
BLACK
6
CONTINUOUS
10
5.34614
20
-3.55252
11
5.35313
21
-3.55252
0
LINE
8
BLACK
6
CONTINUOUS
10
5.35313
20
-3.55252
11
5.35998
21
-3.55397
0
LINE
8
BLACK
6
CONTINUOUS
10
5.25998
20
-3.55397
11
5.26637
21
-3.55682
0
LINE
8
BLACK
6
CONTINUOUS
10
5.26637
20
-3.55682
11
5.27203
21
-3.56093
0
LINE
8
BLACK
6
CONTINUOUS
10
5.27203
20
-3.56093
11
5.27671
21
-3.56613
0
LINE
8
BLACK
6
CONTINUOUS
10
5.27671
20
-3.56613
11
5.28021
21
-3.57219
0
LINE
8
BLACK
6
CONTINUOUS
10
5.28021
20
-3.57219
11
5.28237
21
-3.57884
0
LINE
8
BLACK
6
CONTINUOUS
10
5.28237
20
-3.57884
11
5.2831
21
-3.5858
0
LINE
8
BLACK
6
CONTINUOUS
10
5.2831
20
-3.5858
11
5.28237
21
-3.59276
0
LINE
8
BLACK
6
CONTINUOUS
10
5.28237
20
-3.59276
11
5.28021
21
-3.59941
0
LINE
8
BLACK
6
CONTINUOUS
10
5.28021
20
-3.59941
11
5.27671
21
-3.60547
0
LINE
8
BLACK
6
CONTINUOUS
10
5.27671
20
-3.60547
11
5.27203
21
-3.61067
0
LINE
8
BLACK
6
CONTINUOUS
10
5.27203
20
-3.61067
11
5.26637
21
-3.61478
0
LINE
8
BLACK
6
CONTINUOUS
10
5.26637
20
-3.61478
11
5.25998
21
-3.61762
0
LINE
8
BLACK
6
CONTINUOUS
10
5.25998
20
-3.61762
11
5.25313
21
-3.61908
0
LINE
8
BLACK
6
CONTINUOUS
10
5.25313
20
-3.61908
11
5.24614
21
-3.61908
0
LINE
8
BLACK
6
CONTINUOUS
10
5.24614
20
-3.61908
11
5.23929
21
-3.61762
0
LINE
8
BLACK
6
CONTINUOUS
10
5.23929
20
-3.61762
11
5.2329
21
-3.61478
0
LINE
8
BLACK
6
CONTINUOUS
10
5.2329
20
-3.61478
11
5.22724
21
-3.61067
0
LINE
8
BLACK
6
CONTINUOUS
10
5.22724
20
-3.61067
11
5.22256
21
-3.60547
0
LINE
8
BLACK
6
CONTINUOUS
10
5.22256
20
-3.60547
11
5.21906
21
-3.59941
0
LINE
8
BLACK
6
CONTINUOUS
10
5.21906
20
-3.59941
11
5.2169
21
-3.59276
0
LINE
8
BLACK
6
CONTINUOUS
10
5.2169
20
-3.59276
11
5.21617
21
-3.5858
0
LINE
8
BLACK
6
CONTINUOUS
10
5.21617
20
-3.5858
11
5.2169
21
-3.57884
0
LINE
8
BLACK
6
CONTINUOUS
10
5.2169
20
-3.57884
11
5.21906
21
-3.57219
0
LINE
8
BLACK
6
CONTINUOUS
10
5.21906
20
-3.57219
11
5.22256
21
-3.56613
0
LINE
8
BLACK
6
CONTINUOUS
10
5.22256
20
-3.56613
11
5.22724
21
-3.56093
0
LINE
8
BLACK
6
CONTINUOUS
10
5.22724
20
-3.56093
11
5.2329
21
-3.55682
0
LINE
8
BLACK
6
CONTINUOUS
10
5.2329
20
-3.55682
11
5.23929
21
-3.55397
0
LINE
8
BLACK
6
CONTINUOUS
10
5.23929
20
-3.55397
11
5.24614
21
-3.55252
0
LINE
8
BLACK
6
CONTINUOUS
10
5.24614
20
-3.55252
11
5.25313
21
-3.55252
0
LINE
8
BLACK
6
CONTINUOUS
10
5.25313
20
-3.55252
11
5.25998
21
-3.55397
0
LINE
8
BLACK
6
CONTINUOUS
10
5.15998
20
-3.55397
11
5.16637
21
-3.55682
0
LINE
8
BLACK
6
CONTINUOUS
10
5.16637
20
-3.55682
11
5.17203
21
-3.56093
0
LINE
8
BLACK
6
CONTINUOUS
10
5.17203
20
-3.56093
11
5.17671
21
-3.56613
0
LINE
8
BLACK
6
CONTINUOUS
10
5.17671
20
-3.56613
11
5.18021
21
-3.57219
0
LINE
8
BLACK
6
CONTINUOUS
10
5.18021
20
-3.57219
11
5.18237
21
-3.57884
0
LINE
8
BLACK
6
CONTINUOUS
10
5.18237
20
-3.57884
11
5.1831
21
-3.5858
0
LINE
8
BLACK
6
CONTINUOUS
10
5.1831
20
-3.5858
11
5.18237
21
-3.59276
0
LINE
8
BLACK
6
CONTINUOUS
10
5.18237
20
-3.59276
11
5.18021
21
-3.59941
0
LINE
8
BLACK
6
CONTINUOUS
10
5.18021
20
-3.59941
11
5.17671
21
-3.60547
0
LINE
8
BLACK
6
CONTINUOUS
10
5.17671
20
-3.60547
11
5.17203
21
-3.61067
0
LINE
8
BLACK
6
CONTINUOUS
10
5.17203
20
-3.61067
11
5.16637
21
-3.61478
0
LINE
8
BLACK
6
CONTINUOUS
10
5.16637
20
-3.61478
11
5.15998
21
-3.61762
0
LINE
8
BLACK
6
CONTINUOUS
10
5.15998
20
-3.61762
11
5.15313
21
-3.61908
0
LINE
8
BLACK
6
CONTINUOUS
10
5.15313
20
-3.61908
11
5.14614
21
-3.61908
0
LINE
8
BLACK
6
CONTINUOUS
10
5.14614
20
-3.61908
11
5.13929
21
-3.61762
0
LINE
8
BLACK
6
CONTINUOUS
10
5.13929
20
-3.61762
11
5.1329
21
-3.61478
0
LINE
8
BLACK
6
CONTINUOUS
10
5.1329
20
-3.61478
11
5.12724
21
-3.61067
0
LINE
8
BLACK
6
CONTINUOUS
10
5.12724
20
-3.61067
11
5.12256
21
-3.60547
0
LINE
8
BLACK
6
CONTINUOUS
10
5.12256
20
-3.60547
11
5.11906
21
-3.59941
0
LINE
8
BLACK
6
CONTINUOUS
10
5.11906
20
-3.59941
11
5.1169
21
-3.59276
0
LINE
8
BLACK
6
CONTINUOUS
10
5.1169
20
-3.59276
11
5.11617
21
-3.5858
0
LINE
8
BLACK
6
CONTINUOUS
10
5.11617
20
-3.5858
11
5.1169
21
-3.57884
0
LINE
8
BLACK
6
CONTINUOUS
10
5.1169
20
-3.57884
11
5.11906
21
-3.57219
0
LINE
8
BLACK
6
CONTINUOUS
10
5.11906
20
-3.57219
11
5.12256
21
-3.56613
0
LINE
8
BLACK
6
CONTINUOUS
10
5.12256
20
-3.56613
11
5.12724
21
-3.56093
0
LINE
8
BLACK
6
CONTINUOUS
10
5.12724
20
-3.56093
11
5.1329
21
-3.55682
0
LINE
8
BLACK
6
CONTINUOUS
10
5.1329
20
-3.55682
11
5.13929
21
-3.55397
0
LINE
8
BLACK
6
CONTINUOUS
10
5.13929
20
-3.55397
11
5.14614
21
-3.55252
0
LINE
8
BLACK
6
CONTINUOUS
10
5.14614
20
-3.55252
11
5.15313
21
-3.55252
0
LINE
8
BLACK
6
CONTINUOUS
10
5.15313
20
-3.55252
11
5.15998
21
-3.55397
0
LINE
8
BLACK
6
CONTINUOUS
10
5.05998
20
-3.55397
11
5.06637
21
-3.55682
0
LINE
8
BLACK
6
CONTINUOUS
10
5.06637
20
-3.55682
11
5.07203
21
-3.56093
0
LINE
8
BLACK
6
CONTINUOUS
10
5.07203
20
-3.56093
11
5.07671
21
-3.56613
0
LINE
8
BLACK
6
CONTINUOUS
10
5.07671
20
-3.56613
11
5.08021
21
-3.57219
0
LINE
8
BLACK
6
CONTINUOUS
10
5.08021
20
-3.57219
11
5.08237
21
-3.57884
0
LINE
8
BLACK
6
CONTINUOUS
10
5.08237
20
-3.57884
11
5.0831
21
-3.5858
0
LINE
8
BLACK
6
CONTINUOUS
10
5.0831
20
-3.5858
11
5.08237
21
-3.59276
0
LINE
8
BLACK
6
CONTINUOUS
10
5.08237
20
-3.59276
11
5.08021
21
-3.59941
0
LINE
8
BLACK
6
CONTINUOUS
10
5.08021
20
-3.59941
11
5.07671
21
-3.60547
0
LINE
8
BLACK
6
CONTINUOUS
10
5.07671
20
-3.60547
11
5.07203
21
-3.61067
0
LINE
8
BLACK
6
CONTINUOUS
10
5.07203
20
-3.61067
11
5.06637
21
-3.61478
0
LINE
8
BLACK
6
CONTINUOUS
10
5.06637
20
-3.61478
11
5.05998
21
-3.61762
0
LINE
8
BLACK
6
CONTINUOUS
10
5.05998
20
-3.61762
11
5.05313
21
-3.61908
0
LINE
8
BLACK
6
CONTINUOUS
10
5.05313
20
-3.61908
11
5.04614
21
-3.61908
0
LINE
8
BLACK
6
CONTINUOUS
10
5.04614
20
-3.61908
11
5.03929
21
-3.61762
0
LINE
8
BLACK
6
CONTINUOUS
10
5.03929
20
-3.61762
11
5.0329
21
-3.61478
0
LINE
8
BLACK
6
CONTINUOUS
10
5.0329
20
-3.61478
11
5.02724
21
-3.61067
0
LINE
8
BLACK
6
CONTINUOUS
10
5.02724
20
-3.61067
11
5.02256
21
-3.60547
0
LINE
8
BLACK
6
CONTINUOUS
10
5.02256
20
-3.60547
11
5.01906
21
-3.59941
0
LINE
8
BLACK
6
CONTINUOUS
10
5.01906
20
-3.59941
11
5.0169
21
-3.59276
0
LINE
8
BLACK
6
CONTINUOUS
10
5.0169
20
-3.59276
11
5.01617
21
-3.5858
0
LINE
8
BLACK
6
CONTINUOUS
10
5.01617
20
-3.5858
11
5.0169
21
-3.57884
0
LINE
8
BLACK
6
CONTINUOUS
10
5.0169
20
-3.57884
11
5.01906
21
-3.57219
0
LINE
8
BLACK
6
CONTINUOUS
10
5.01906
20
-3.57219
11
5.02256
21
-3.56613
0
LINE
8
BLACK
6
CONTINUOUS
10
5.02256
20
-3.56613
11
5.02724
21
-3.56093
0
LINE
8
BLACK
6
CONTINUOUS
10
5.02724
20
-3.56093
11
5.0329
21
-3.55682
0
LINE
8
BLACK
6
CONTINUOUS
10
5.0329
20
-3.55682
11
5.03929
21
-3.55397
0
LINE
8
BLACK
6
CONTINUOUS
10
5.03929
20
-3.55397
11
5.04614
21
-3.55252
0
LINE
8
BLACK
6
CONTINUOUS
10
5.04614
20
-3.55252
11
5.05313
21
-3.55252
0
LINE
8
BLACK
6
CONTINUOUS
10
5.05313
20
-3.55252
11
5.05998
21
-3.55397
0
LINE
8
BLACK
6
CONTINUOUS
10
4.95998
20
-3.55397
11
4.96637
21
-3.55682
0
LINE
8
BLACK
6
CONTINUOUS
10
4.96637
20
-3.55682
11
4.97203
21
-3.56093
0
LINE
8
BLACK
6
CONTINUOUS
10
4.97203
20
-3.56093
11
4.97671
21
-3.56613
0
LINE
8
BLACK
6
CONTINUOUS
10
4.97671
20
-3.56613
11
4.98021
21
-3.57219
0
LINE
8
BLACK
6
CONTINUOUS
10
4.98021
20
-3.57219
11
4.98237
21
-3.57884
0
LINE
8
BLACK
6
CONTINUOUS
10
4.98237
20
-3.57884
11
4.9831
21
-3.5858
0
LINE
8
BLACK
6
CONTINUOUS
10
4.9831
20
-3.5858
11
4.98237
21
-3.59276
0
LINE
8
BLACK
6
CONTINUOUS
10
4.98237
20
-3.59276
11
4.98021
21
-3.59941
0
LINE
8
BLACK
6
CONTINUOUS
10
4.98021
20
-3.59941
11
4.97671
21
-3.60547
0
LINE
8
BLACK
6
CONTINUOUS
10
4.97671
20
-3.60547
11
4.97203
21
-3.61067
0
LINE
8
BLACK
6
CONTINUOUS
10
4.97203
20
-3.61067
11
4.96637
21
-3.61478
0
LINE
8
BLACK
6
CONTINUOUS
10
4.96637
20
-3.61478
11
4.95998
21
-3.61762
0
LINE
8
BLACK
6
CONTINUOUS
10
4.95998
20
-3.61762
11
4.95313
21
-3.61908
0
LINE
8
BLACK
6
CONTINUOUS
10
4.95313
20
-3.61908
11
4.94614
21
-3.61908
0
LINE
8
BLACK
6
CONTINUOUS
10
4.94614
20
-3.61908
11
4.93929
21
-3.61762
0
LINE
8
BLACK
6
CONTINUOUS
10
4.93929
20
-3.61762
11
4.9329
21
-3.61478
0
LINE
8
BLACK
6
CONTINUOUS
10
4.9329
20
-3.61478
11
4.92724
21
-3.61067
0
LINE
8
BLACK
6
CONTINUOUS
10
4.92724
20
-3.61067
11
4.92256
21
-3.60547
0
LINE
8
BLACK
6
CONTINUOUS
10
4.92256
20
-3.60547
11
4.91906
21
-3.59941
0
LINE
8
BLACK
6
CONTINUOUS
10
4.91906
20
-3.59941
11
4.9169
21
-3.59276
0
LINE
8
BLACK
6
CONTINUOUS
10
4.9169
20
-3.59276
11
4.91617
21
-3.5858
0
LINE
8
BLACK
6
CONTINUOUS
10
4.91617
20
-3.5858
11
4.9169
21
-3.57884
0
LINE
8
BLACK
6
CONTINUOUS
10
4.9169
20
-3.57884
11
4.91906
21
-3.57219
0
LINE
8
BLACK
6
CONTINUOUS
10
4.91906
20
-3.57219
11
4.92256
21
-3.56613
0
LINE
8
BLACK
6
CONTINUOUS
10
4.92256
20
-3.56613
11
4.92724
21
-3.56093
0
LINE
8
BLACK
6
CONTINUOUS
10
4.92724
20
-3.56093
11
4.9329
21
-3.55682
0
LINE
8
BLACK
6
CONTINUOUS
10
4.9329
20
-3.55682
11
4.93929
21
-3.55397
0
LINE
8
BLACK
6
CONTINUOUS
10
4.93929
20
-3.55397
11
4.94614
21
-3.55252
0
LINE
8
BLACK
6
CONTINUOUS
10
4.94614
20
-3.55252
11
4.95313
21
-3.55252
0
LINE
8
BLACK
6
CONTINUOUS
10
4.95313
20
-3.55252
11
4.95998
21
-3.55397
0
LINE
8
BLACK
6
CONTINUOUS
10
4.85998
20
-3.55397
11
4.86637
21
-3.55682
0
LINE
8
BLACK
6
CONTINUOUS
10
4.86637
20
-3.55682
11
4.87203
21
-3.56093
0
LINE
8
BLACK
6
CONTINUOUS
10
4.87203
20
-3.56093
11
4.87671
21
-3.56613
0
LINE
8
BLACK
6
CONTINUOUS
10
4.87671
20
-3.56613
11
4.88021
21
-3.57219
0
LINE
8
BLACK
6
CONTINUOUS
10
4.88021
20
-3.57219
11
4.88237
21
-3.57884
0
LINE
8
BLACK
6
CONTINUOUS
10
4.88237
20
-3.57884
11
4.8831
21
-3.5858
0
LINE
8
BLACK
6
CONTINUOUS
10
4.8831
20
-3.5858
11
4.88237
21
-3.59276
0
LINE
8
BLACK
6
CONTINUOUS
10
4.88237
20
-3.59276
11
4.88021
21
-3.59941
0
LINE
8
BLACK
6
CONTINUOUS
10
4.88021
20
-3.59941
11
4.87671
21
-3.60547
0
LINE
8
BLACK
6
CONTINUOUS
10
4.87671
20
-3.60547
11
4.87203
21
-3.61067
0
LINE
8
BLACK
6
CONTINUOUS
10
4.87203
20
-3.61067
11
4.86637
21
-3.61478
0
LINE
8
BLACK
6
CONTINUOUS
10
4.86637
20
-3.61478
11
4.85998
21
-3.61762
0
LINE
8
BLACK
6
CONTINUOUS
10
4.85998
20
-3.61762
11
4.85313
21
-3.61908
0
LINE
8
BLACK
6
CONTINUOUS
10
4.85313
20
-3.61908
11
4.84614
21
-3.61908
0
LINE
8
BLACK
6
CONTINUOUS
10
4.84614
20
-3.61908
11
4.83929
21
-3.61762
0
LINE
8
BLACK
6
CONTINUOUS
10
4.83929
20
-3.61762
11
4.8329
21
-3.61478
0
LINE
8
BLACK
6
CONTINUOUS
10
4.8329
20
-3.61478
11
4.82724
21
-3.61067
0
LINE
8
BLACK
6
CONTINUOUS
10
4.82724
20
-3.61067
11
4.82256
21
-3.60547
0
LINE
8
BLACK
6
CONTINUOUS
10
4.82256
20
-3.60547
11
4.81906
21
-3.59941
0
LINE
8
BLACK
6
CONTINUOUS
10
4.81906
20
-3.59941
11
4.8169
21
-3.59276
0
LINE
8
BLACK
6
CONTINUOUS
10
4.8169
20
-3.59276
11
4.81617
21
-3.5858
0
LINE
8
BLACK
6
CONTINUOUS
10
4.81617
20
-3.5858
11
4.8169
21
-3.57884
0
LINE
8
BLACK
6
CONTINUOUS
10
4.8169
20
-3.57884
11
4.81906
21
-3.57219
0
LINE
8
BLACK
6
CONTINUOUS
10
4.81906
20
-3.57219
11
4.82256
21
-3.56613
0
LINE
8
BLACK
6
CONTINUOUS
10
4.82256
20
-3.56613
11
4.82724
21
-3.56093
0
LINE
8
BLACK
6
CONTINUOUS
10
4.82724
20
-3.56093
11
4.8329
21
-3.55682
0
LINE
8
BLACK
6
CONTINUOUS
10
4.8329
20
-3.55682
11
4.83929
21
-3.55397
0
LINE
8
BLACK
6
CONTINUOUS
10
4.83929
20
-3.55397
11
4.84614
21
-3.55252
0
LINE
8
BLACK
6
CONTINUOUS
10
4.84614
20
-3.55252
11
4.85313
21
-3.55252
0
LINE
8
BLACK
6
CONTINUOUS
10
4.85313
20
-3.55252
11
4.85998
21
-3.55397
0
LINE
8
BLACK
6
CONTINUOUS
10
6.51195
20
-3.51752
11
6.51969
21
-3.52052
0
LINE
8
BLACK
6
CONTINUOUS
10
6.51969
20
-3.52052
11
6.52675
21
-3.52489
0
LINE
8
BLACK
6
CONTINUOUS
10
6.52675
20
-3.52489
11
6.53289
21
-3.53048
0
LINE
8
BLACK
6
CONTINUOUS
10
6.53289
20
-3.53048
11
6.53789
21
-3.53711
0
LINE
8
BLACK
6
CONTINUOUS
10
6.53789
20
-3.53711
11
6.5416
21
-3.54454
0
LINE
8
BLACK
6
CONTINUOUS
10
6.5416
20
-3.54454
11
6.54387
21
-3.55253
0
LINE
8
BLACK
6
CONTINUOUS
10
6.54387
20
-3.55253
11
6.54463
21
-3.5608
0
LINE
8
BLACK
6
CONTINUOUS
10
6.54463
20
-3.5608
11
6.54387
21
-3.56907
0
LINE
8
BLACK
6
CONTINUOUS
10
6.54387
20
-3.56907
11
6.5416
21
-3.57705
0
LINE
8
BLACK
6
CONTINUOUS
10
6.5416
20
-3.57705
11
6.53789
21
-3.58449
0
LINE
8
BLACK
6
CONTINUOUS
10
6.53789
20
-3.58449
11
6.53289
21
-3.59111
0
LINE
8
BLACK
6
CONTINUOUS
10
6.53289
20
-3.59111
11
6.52675
21
-3.59671
0
LINE
8
BLACK
6
CONTINUOUS
10
6.52675
20
-3.59671
11
6.51969
21
-3.60108
0
LINE
8
BLACK
6
CONTINUOUS
10
6.51969
20
-3.60108
11
6.51195
21
-3.60408
0
LINE
8
BLACK
6
CONTINUOUS
10
6.51195
20
-3.60408
11
6.50379
21
-3.60561
0
LINE
8
BLACK
6
CONTINUOUS
10
6.50379
20
-3.60561
11
6.49548
21
-3.60561
0
LINE
8
BLACK
6
CONTINUOUS
10
6.49548
20
-3.60561
11
6.48732
21
-3.60408
0
LINE
8
BLACK
6
CONTINUOUS
10
6.48732
20
-3.60408
11
6.47958
21
-3.60108
0
LINE
8
BLACK
6
CONTINUOUS
10
6.47958
20
-3.60108
11
6.47252
21
-3.59671
0
LINE
8
BLACK
6
CONTINUOUS
10
6.47252
20
-3.59671
11
6.46638
21
-3.59111
0
LINE
8
BLACK
6
CONTINUOUS
10
6.46638
20
-3.59111
11
6.46138
21
-3.58449
0
LINE
8
BLACK
6
CONTINUOUS
10
6.46138
20
-3.58449
11
6.45767
21
-3.57705
0
LINE
8
BLACK
6
CONTINUOUS
10
6.45767
20
-3.57705
11
6.4554
21
-3.56907
0
LINE
8
BLACK
6
CONTINUOUS
10
6.4554
20
-3.56907
11
6.45463
21
-3.5608
0
LINE
8
BLACK
6
CONTINUOUS
10
6.45463
20
-3.5608
11
6.4554
21
-3.55253
0
LINE
8
BLACK
6
CONTINUOUS
10
6.4554
20
-3.55253
11
6.45767
21
-3.54454
0
LINE
8
BLACK
6
CONTINUOUS
10
6.45767
20
-3.54454
11
6.46138
21
-3.53711
0
LINE
8
BLACK
6
CONTINUOUS
10
6.46138
20
-3.53711
11
6.46638
21
-3.53048
0
LINE
8
BLACK
6
CONTINUOUS
10
6.46638
20
-3.53048
11
6.47252
21
-3.52489
0
LINE
8
BLACK
6
CONTINUOUS
10
6.47252
20
-3.52489
11
6.47958
21
-3.52052
0
LINE
8
BLACK
6
CONTINUOUS
10
6.47958
20
-3.52052
11
6.48732
21
-3.51752
0
LINE
8
BLACK
6
CONTINUOUS
10
6.48732
20
-3.51752
11
6.49548
21
-3.51599
0
LINE
8
BLACK
6
CONTINUOUS
10
6.49548
20
-3.51599
11
6.50379
21
-3.51599
0
LINE
8
BLACK
6
CONTINUOUS
10
6.50379
20
-3.51599
11
6.51195
21
-3.51752
0
LINE
8
BLACK
6
CONTINUOUS
10
6.3874
20
-3.4603
11
6.39019
21
-3.46217
0
LINE
8
BLACK
6
CONTINUOUS
10
6.39019
20
-3.46217
11
6.39206
21
-3.46496
0
LINE
8
BLACK
6
CONTINUOUS
10
6.39206
20
-3.46496
11
6.39272
21
-3.46826
0
LINE
8
BLACK
6
CONTINUOUS
10
6.39272
20
-3.46826
11
6.39272
21
-3.48844
0
LINE
8
BLACK
6
CONTINUOUS
10
6.39272
20
-3.48844
11
6.39206
21
-3.49173
0
LINE
8
BLACK
6
CONTINUOUS
10
6.39206
20
-3.49173
11
6.39019
21
-3.49452
0
LINE
8
BLACK
6
CONTINUOUS
10
6.39019
20
-3.49452
11
6.3874
21
-3.49639
0
LINE
8
BLACK
6
CONTINUOUS
10
6.3874
20
-3.49639
11
6.3841
21
-3.49705
0
LINE
8
BLACK
6
CONTINUOUS
10
6.3841
20
-3.49705
11
6.36688
21
-3.49705
0
LINE
8
BLACK
6
CONTINUOUS
10
6.36688
20
-3.49705
11
6.36358
21
-3.49639
0
LINE
8
BLACK
6
CONTINUOUS
10
6.36358
20
-3.49639
11
6.36079
21
-3.49452
0
LINE
8
BLACK
6
CONTINUOUS
10
6.36079
20
-3.49452
11
6.35892
21
-3.49173
0
LINE
8
BLACK
6
CONTINUOUS
10
6.35892
20
-3.49173
11
6.35827
21
-3.48844
0
LINE
8
BLACK
6
CONTINUOUS
10
6.35827
20
-3.48844
11
6.35827
21
-3.46826
0
LINE
8
BLACK
6
CONTINUOUS
10
6.35827
20
-3.46826
11
6.35892
21
-3.46496
0
LINE
8
BLACK
6
CONTINUOUS
10
6.35892
20
-3.46496
11
6.36079
21
-3.46217
0
LINE
8
BLACK
6
CONTINUOUS
10
6.36079
20
-3.46217
11
6.36358
21
-3.4603
0
LINE
8
BLACK
6
CONTINUOUS
10
6.36358
20
-3.4603
11
6.36688
21
-3.45965
0
LINE
8
BLACK
6
CONTINUOUS
10
6.36688
20
-3.45965
11
6.3841
21
-3.45965
0
LINE
8
BLACK
6
CONTINUOUS
10
6.3841
20
-3.45965
11
6.3874
21
-3.4603
0
LINE
8
BLACK
6
CONTINUOUS
10
6.32539
20
-3.4603
11
6.32819
21
-3.46217
0
LINE
8
BLACK
6
CONTINUOUS
10
6.32819
20
-3.46217
11
6.33005
21
-3.46496
0
LINE
8
BLACK
6
CONTINUOUS
10
6.33005
20
-3.46496
11
6.33071
21
-3.46826
0
LINE
8
BLACK
6
CONTINUOUS
10
6.33071
20
-3.46826
11
6.33071
21
-3.48844
0
LINE
8
BLACK
6
CONTINUOUS
10
6.33071
20
-3.48844
11
6.33005
21
-3.49173
0
LINE
8
BLACK
6
CONTINUOUS
10
6.33005
20
-3.49173
11
6.32819
21
-3.49452
0
LINE
8
BLACK
6
CONTINUOUS
10
6.32819
20
-3.49452
11
6.32539
21
-3.49639
0
LINE
8
BLACK
6
CONTINUOUS
10
6.32539
20
-3.49639
11
6.3221
21
-3.49705
0
LINE
8
BLACK
6
CONTINUOUS
10
6.3221
20
-3.49705
11
6.30487
21
-3.49705
0
LINE
8
BLACK
6
CONTINUOUS
10
6.30487
20
-3.49705
11
6.30158
21
-3.49639
0
LINE
8
BLACK
6
CONTINUOUS
10
6.30158
20
-3.49639
11
6.29878
21
-3.49452
0
LINE
8
BLACK
6
CONTINUOUS
10
6.29878
20
-3.49452
11
6.29692
21
-3.49173
0
LINE
8
BLACK
6
CONTINUOUS
10
6.29692
20
-3.49173
11
6.29626
21
-3.48844
0
LINE
8
BLACK
6
CONTINUOUS
10
6.29626
20
-3.48844
11
6.29626
21
-3.46826
0
LINE
8
BLACK
6
CONTINUOUS
10
6.29626
20
-3.46826
11
6.29692
21
-3.46496
0
LINE
8
BLACK
6
CONTINUOUS
10
6.29692
20
-3.46496
11
6.29878
21
-3.46217
0
LINE
8
BLACK
6
CONTINUOUS
10
6.29878
20
-3.46217
11
6.30158
21
-3.4603
0
LINE
8
BLACK
6
CONTINUOUS
10
6.30158
20
-3.4603
11
6.30487
21
-3.45965
0
LINE
8
BLACK
6
CONTINUOUS
10
6.30487
20
-3.45965
11
6.3221
21
-3.45965
0
LINE
8
BLACK
6
CONTINUOUS
10
6.3221
20
-3.45965
11
6.32539
21
-3.4603
0
LINE
8
BLACK
6
CONTINUOUS
10
6.2599
20
-3.46025
11
6.26246
21
-3.46195
0
LINE
8
BLACK
6
CONTINUOUS
10
6.26246
20
-3.46195
11
6.26416
21
-3.46451
0
LINE
8
BLACK
6
CONTINUOUS
10
6.26416
20
-3.46451
11
6.26476
21
-3.46752
0
LINE
8
BLACK
6
CONTINUOUS
10
6.26476
20
-3.46752
11
6.26476
21
-3.48917
0
LINE
8
BLACK
6
CONTINUOUS
10
6.26476
20
-3.48917
11
6.26416
21
-3.49219
0
LINE
8
BLACK
6
CONTINUOUS
10
6.26416
20
-3.49219
11
6.26246
21
-3.49474
0
LINE
8
BLACK
6
CONTINUOUS
10
6.26246
20
-3.49474
11
6.2599
21
-3.49645
0
LINE
8
BLACK
6
CONTINUOUS
10
6.2599
20
-3.49645
11
6.25689
21
-3.49705
0
LINE
8
BLACK
6
CONTINUOUS
10
6.25689
20
-3.49705
11
6.24114
21
-3.49705
0
LINE
8
BLACK
6
CONTINUOUS
10
6.24114
20
-3.49705
11
6.23813
21
-3.49645
0
LINE
8
BLACK
6
CONTINUOUS
10
6.23813
20
-3.49645
11
6.23557
21
-3.49474
0
LINE
8
BLACK
6
CONTINUOUS
10
6.23557
20
-3.49474
11
6.23387
21
-3.49219
0
LINE
8
BLACK
6
CONTINUOUS
10
6.23387
20
-3.49219
11
6.23327
21
-3.48917
0
LINE
8
BLACK
6
CONTINUOUS
10
6.23327
20
-3.48917
11
6.23327
21
-3.46752
0
LINE
8
BLACK
6
CONTINUOUS
10
6.23327
20
-3.46752
11
6.23387
21
-3.46451
0
LINE
8
BLACK
6
CONTINUOUS
10
6.23387
20
-3.46451
11
6.23557
21
-3.46195
0
LINE
8
BLACK
6
CONTINUOUS
10
6.23557
20
-3.46195
11
6.23813
21
-3.46025
0
LINE
8
BLACK
6
CONTINUOUS
10
6.23813
20
-3.46025
11
6.24114
21
-3.45965
0
LINE
8
BLACK
6
CONTINUOUS
10
6.24114
20
-3.45965
11
6.25689
21
-3.45965
0
LINE
8
BLACK
6
CONTINUOUS
10
6.25689
20
-3.45965
11
6.2599
21
-3.46025
0
LINE
8
BLACK
6
CONTINUOUS
10
6.19494
20
-3.46025
11
6.1975
21
-3.46195
0
LINE
8
BLACK
6
CONTINUOUS
10
6.1975
20
-3.46195
11
6.1992
21
-3.46451
0
LINE
8
BLACK
6
CONTINUOUS
10
6.1992
20
-3.46451
11
6.1998
21
-3.46752
0
LINE
8
BLACK
6
CONTINUOUS
10
6.1998
20
-3.46752
11
6.1998
21
-3.48917
0
LINE
8
BLACK
6
CONTINUOUS
10
6.1998
20
-3.48917
11
6.1992
21
-3.49219
0
LINE
8
BLACK
6
CONTINUOUS
10
6.1992
20
-3.49219
11
6.1975
21
-3.49474
0
LINE
8
BLACK
6
CONTINUOUS
10
6.1975
20
-3.49474
11
6.19494
21
-3.49645
0
LINE
8
BLACK
6
CONTINUOUS
10
6.19494
20
-3.49645
11
6.19193
21
-3.49705
0
LINE
8
BLACK
6
CONTINUOUS
10
6.19193
20
-3.49705
11
6.17618
21
-3.49705
0
LINE
8
BLACK
6
CONTINUOUS
10
6.17618
20
-3.49705
11
6.17317
21
-3.49645
0
LINE
8
BLACK
6
CONTINUOUS
10
6.17317
20
-3.49645
11
6.17061
21
-3.49474
0
LINE
8
BLACK
6
CONTINUOUS
10
6.17061
20
-3.49474
11
6.16891
21
-3.49219
0
LINE
8
BLACK
6
CONTINUOUS
10
6.16891
20
-3.49219
11
6.16831
21
-3.48917
0
LINE
8
BLACK
6
CONTINUOUS
10
6.16831
20
-3.48917
11
6.16831
21
-3.46752
0
LINE
8
BLACK
6
CONTINUOUS
10
6.16831
20
-3.46752
11
6.16891
21
-3.46451
0
LINE
8
BLACK
6
CONTINUOUS
10
6.16891
20
-3.46451
11
6.17061
21
-3.46195
0
LINE
8
BLACK
6
CONTINUOUS
10
6.17061
20
-3.46195
11
6.17317
21
-3.46025
0
LINE
8
BLACK
6
CONTINUOUS
10
6.17317
20
-3.46025
11
6.17618
21
-3.45965
0
LINE
8
BLACK
6
CONTINUOUS
10
6.17618
20
-3.45965
11
6.19193
21
-3.45965
0
LINE
8
BLACK
6
CONTINUOUS
10
6.19193
20
-3.45965
11
6.19494
21
-3.46025
0
LINE
8
BLACK
6
CONTINUOUS
10
5.15343
20
-3.48618
11
5.11799
21
-3.48618
0
LINE
8
BLACK
6
CONTINUOUS
10
5.11799
20
-3.48618
11
5.11799
21
-3.44681
0
LINE
8
BLACK
6
CONTINUOUS
10
5.11799
20
-3.44681
11
5.15343
21
-3.44681
0
LINE
8
BLACK
6
CONTINUOUS
10
5.15343
20
-3.44681
11
5.15343
21
-3.48618
0
LINE
8
BLACK
6
CONTINUOUS
10
4.99201
20
-3.48618
11
4.95657
21
-3.48618
0
LINE
8
BLACK
6
CONTINUOUS
10
4.95657
20
-3.48618
11
4.95657
21
-3.44681
0
LINE
8
BLACK
6
CONTINUOUS
10
4.95657
20
-3.44681
11
4.99201
21
-3.44681
0
LINE
8
BLACK
6
CONTINUOUS
10
4.99201
20
-3.44681
11
4.99201
21
-3.48618
0
LINE
8
BLACK
6
CONTINUOUS
10
4.92384
20
-3.45233
11
4.92639
21
-3.45404
0
LINE
8
BLACK
6
CONTINUOUS
10
4.92639
20
-3.45404
11
4.9281
21
-3.45659
0
LINE
8
BLACK
6
CONTINUOUS
10
4.9281
20
-3.45659
11
4.9287
21
-3.45961
0
LINE
8
BLACK
6
CONTINUOUS
10
4.9287
20
-3.45961
11
4.9287
21
-3.47535
0
LINE
8
BLACK
6
CONTINUOUS
10
4.9287
20
-3.47535
11
4.9281
21
-3.47837
0
LINE
8
BLACK
6
CONTINUOUS
10
4.9281
20
-3.47837
11
4.92639
21
-3.48092
0
LINE
8
BLACK
6
CONTINUOUS
10
4.92639
20
-3.48092
11
4.92384
21
-3.48263
0
LINE
8
BLACK
6
CONTINUOUS
10
4.92384
20
-3.48263
11
4.92083
21
-3.48323
0
LINE
8
BLACK
6
CONTINUOUS
10
4.92083
20
-3.48323
11
4.89917
21
-3.48323
0
LINE
8
BLACK
6
CONTINUOUS
10
4.89917
20
-3.48323
11
4.89616
21
-3.48263
0
LINE
8
BLACK
6
CONTINUOUS
10
4.89616
20
-3.48263
11
4.89361
21
-3.48092
0
LINE
8
BLACK
6
CONTINUOUS
10
4.89361
20
-3.48092
11
4.8919
21
-3.47837
0
LINE
8
BLACK
6
CONTINUOUS
10
4.8919
20
-3.47837
11
4.8913
21
-3.47535
0
LINE
8
BLACK
6
CONTINUOUS
10
4.8913
20
-3.47535
11
4.8913
21
-3.45961
0
LINE
8
BLACK
6
CONTINUOUS
10
4.8913
20
-3.45961
11
4.8919
21
-3.45659
0
LINE
8
BLACK
6
CONTINUOUS
10
4.8919
20
-3.45659
11
4.89361
21
-3.45404
0
LINE
8
BLACK
6
CONTINUOUS
10
4.89361
20
-3.45404
11
4.89616
21
-3.45233
0
LINE
8
BLACK
6
CONTINUOUS
10
4.89616
20
-3.45233
11
4.89917
21
-3.45173
0
LINE
8
BLACK
6
CONTINUOUS
10
4.89917
20
-3.45173
11
4.92083
21
-3.45173
0
LINE
8
BLACK
6
CONTINUOUS
10
4.92083
20
-3.45173
11
4.92384
21
-3.45233
0
LINE
8
BLACK
6
CONTINUOUS
10
5.95276
20
-3.46063
11
5.69685
21
-3.46063
0
LINE
8
BLACK
6
CONTINUOUS
10
5.69685
20
-3.46063
11
5.69685
21
-3.22441
0
LINE
8
BLACK
6
CONTINUOUS
10
5.69685
20
-3.22441
11
5.95276
21
-3.22441
0
LINE
8
BLACK
6
CONTINUOUS
10
5.95276
20
-3.22441
11
5.95276
21
-3.46063
0
LINE
8
BLACK
6
CONTINUOUS
10
5.6378
20
-3.46063
11
5.51969
21
-3.46063
0
LINE
8
BLACK
6
CONTINUOUS
10
5.51969
20
-3.46063
11
5.51969
21
-3.40551
0
LINE
8
BLACK
6
CONTINUOUS
10
5.51969
20
-3.40551
11
5.6378
21
-3.40551
0
LINE
8
BLACK
6
CONTINUOUS
10
5.6378
20
-3.40551
11
5.6378
21
-3.46063
0
LINE
8
BLACK
6
CONTINUOUS
10
5.48628
20
-3.41595
11
5.48884
21
-3.41766
0
LINE
8
BLACK
6
CONTINUOUS
10
5.48884
20
-3.41766
11
5.49054
21
-3.42022
0
LINE
8
BLACK
6
CONTINUOUS
10
5.49054
20
-3.42022
11
5.49114
21
-3.42323
0
LINE
8
BLACK
6
CONTINUOUS
10
5.49114
20
-3.42323
11
5.49114
21
-3.44488
0
LINE
8
BLACK
6
CONTINUOUS
10
5.49114
20
-3.44488
11
5.49054
21
-3.4479
0
LINE
8
BLACK
6
CONTINUOUS
10
5.49054
20
-3.4479
11
5.48884
21
-3.45045
0
LINE
8
BLACK
6
CONTINUOUS
10
5.48884
20
-3.45045
11
5.48628
21
-3.45216
0
LINE
8
BLACK
6
CONTINUOUS
10
5.48628
20
-3.45216
11
5.48327
21
-3.45276
0
LINE
8
BLACK
6
CONTINUOUS
10
5.48327
20
-3.45276
11
5.46752
21
-3.45276
0
LINE
8
BLACK
6
CONTINUOUS
10
5.46752
20
-3.45276
11
5.46451
21
-3.45216
0
LINE
8
BLACK
6
CONTINUOUS
10
5.46451
20
-3.45216
11
5.46195
21
-3.45045
0
LINE
8
BLACK
6
CONTINUOUS
10
5.46195
20
-3.45045
11
5.46025
21
-3.4479
0
LINE
8
BLACK
6
CONTINUOUS
10
5.46025
20
-3.4479
11
5.45965
21
-3.44488
0
LINE
8
BLACK
6
CONTINUOUS
10
5.45965
20
-3.44488
11
5.45965
21
-3.42323
0
LINE
8
BLACK
6
CONTINUOUS
10
5.45965
20
-3.42323
11
5.46025
21
-3.42022
0
LINE
8
BLACK
6
CONTINUOUS
10
5.46025
20
-3.42022
11
5.46195
21
-3.41766
0
LINE
8
BLACK
6
CONTINUOUS
10
5.46195
20
-3.41766
11
5.46451
21
-3.41595
0
LINE
8
BLACK
6
CONTINUOUS
10
5.46451
20
-3.41595
11
5.46752
21
-3.41535
0
LINE
8
BLACK
6
CONTINUOUS
10
5.46752
20
-3.41535
11
5.48327
21
-3.41535
0
LINE
8
BLACK
6
CONTINUOUS
10
5.48327
20
-3.41535
11
5.48628
21
-3.41595
0
LINE
8
BLACK
6
CONTINUOUS
10
5.42132
20
-3.41595
11
5.42387
21
-3.41766
0
LINE
8
BLACK
6
CONTINUOUS
10
5.42387
20
-3.41766
11
5.42558
21
-3.42022
0
LINE
8
BLACK
6
CONTINUOUS
10
5.42558
20
-3.42022
11
5.42618
21
-3.42323
0
LINE
8
BLACK
6
CONTINUOUS
10
5.42618
20
-3.42323
11
5.42618
21
-3.44488
0
LINE
8
BLACK
6
CONTINUOUS
10
5.42618
20
-3.44488
11
5.42558
21
-3.4479
0
LINE
8
BLACK
6
CONTINUOUS
10
5.42558
20
-3.4479
11
5.42387
21
-3.45045
0
LINE
8
BLACK
6
CONTINUOUS
10
5.42387
20
-3.45045
11
5.42132
21
-3.45216
0
LINE
8
BLACK
6
CONTINUOUS
10
5.42132
20
-3.45216
11
5.41831
21
-3.45276
0
LINE
8
BLACK
6
CONTINUOUS
10
5.41831
20
-3.45276
11
5.40256
21
-3.45276
0
LINE
8
BLACK
6
CONTINUOUS
10
5.40256
20
-3.45276
11
5.39955
21
-3.45216
0
LINE
8
BLACK
6
CONTINUOUS
10
5.39955
20
-3.45216
11
5.39699
21
-3.45045
0
LINE
8
BLACK
6
CONTINUOUS
10
5.39699
20
-3.45045
11
5.39528
21
-3.4479
0
LINE
8
BLACK
6
CONTINUOUS
10
5.39528
20
-3.4479
11
5.39469
21
-3.44488
0
LINE
8
BLACK
6
CONTINUOUS
10
5.39469
20
-3.44488
11
5.39469
21
-3.42323
0
LINE
8
BLACK
6
CONTINUOUS
10
5.39469
20
-3.42323
11
5.39528
21
-3.42022
0
LINE
8
BLACK
6
CONTINUOUS
10
5.39528
20
-3.42022
11
5.39699
21
-3.41766
0
LINE
8
BLACK
6
CONTINUOUS
10
5.39699
20
-3.41766
11
5.39955
21
-3.41595
0
LINE
8
BLACK
6
CONTINUOUS
10
5.39955
20
-3.41595
11
5.40256
21
-3.41535
0
LINE
8
BLACK
6
CONTINUOUS
10
5.40256
20
-3.41535
11
5.41831
21
-3.41535
0
LINE
8
BLACK
6
CONTINUOUS
10
5.41831
20
-3.41535
11
5.42132
21
-3.41595
0
LINE
8
BLACK
6
CONTINUOUS
10
6.23408
20
-3.29799
11
6.23727
21
-3.30013
0
LINE
8
BLACK
6
CONTINUOUS
10
6.23727
20
-3.30013
11
6.23941
21
-3.30332
0
LINE
8
BLACK
6
CONTINUOUS
10
6.23941
20
-3.30332
11
6.24016
21
-3.30709
0
LINE
8
BLACK
6
CONTINUOUS
10
6.24016
20
-3.30709
11
6.24016
21
-3.42126
0
LINE
8
BLACK
6
CONTINUOUS
10
6.24016
20
-3.42126
11
6.23941
21
-3.42503
0
LINE
8
BLACK
6
CONTINUOUS
10
6.23941
20
-3.42503
11
6.23727
21
-3.42822
0
LINE
8
BLACK
6
CONTINUOUS
10
6.23727
20
-3.42822
11
6.23408
21
-3.43035
0
LINE
8
BLACK
6
CONTINUOUS
10
6.23408
20
-3.43035
11
6.23031
21
-3.4311
0
LINE
8
BLACK
6
CONTINUOUS
10
6.23031
20
-3.4311
11
6.20571
21
-3.4311
0
LINE
8
BLACK
6
CONTINUOUS
10
6.20571
20
-3.4311
11
6.20194
21
-3.43035
0
LINE
8
BLACK
6
CONTINUOUS
10
6.20194
20
-3.43035
11
6.19875
21
-3.42822
0
LINE
8
BLACK
6
CONTINUOUS
10
6.19875
20
-3.42822
11
6.19662
21
-3.42503
0
LINE
8
BLACK
6
CONTINUOUS
10
6.19662
20
-3.42503
11
6.19587
21
-3.42126
0
LINE
8
BLACK
6
CONTINUOUS
10
6.19587
20
-3.42126
11
6.19587
21
-3.30709
0
LINE
8
BLACK
6
CONTINUOUS
10
6.19587
20
-3.30709
11
6.19662
21
-3.30332
0
LINE
8
BLACK
6
CONTINUOUS
10
6.19662
20
-3.30332
11
6.19875
21
-3.30013
0
LINE
8
BLACK
6
CONTINUOUS
10
6.19875
20
-3.30013
11
6.20194
21
-3.29799
0
LINE
8
BLACK
6
CONTINUOUS
10
6.20194
20
-3.29799
11
6.20571
21
-3.29724
0
LINE
8
BLACK
6
CONTINUOUS
10
6.20571
20
-3.29724
11
6.23031
21
-3.29724
0
LINE
8
BLACK
6
CONTINUOUS
10
6.23031
20
-3.29724
11
6.23408
21
-3.29799
0
LINE
8
BLACK
6
CONTINUOUS
10
6.06577
20
-3.29799
11
6.06897
21
-3.30013
0
LINE
8
BLACK
6
CONTINUOUS
10
6.06897
20
-3.30013
11
6.0711
21
-3.30332
0
LINE
8
BLACK
6
CONTINUOUS
10
6.0711
20
-3.30332
11
6.07185
21
-3.30709
0
LINE
8
BLACK
6
CONTINUOUS
10
6.07185
20
-3.30709
11
6.07185
21
-3.42126
0
LINE
8
BLACK
6
CONTINUOUS
10
6.07185
20
-3.42126
11
6.0711
21
-3.42503
0
LINE
8
BLACK
6
CONTINUOUS
10
6.0711
20
-3.42503
11
6.06897
21
-3.42822
0
LINE
8
BLACK
6
CONTINUOUS
10
6.06897
20
-3.42822
11
6.06577
21
-3.43035
0
LINE
8
BLACK
6
CONTINUOUS
10
6.06577
20
-3.43035
11
6.06201
21
-3.4311
0
LINE
8
BLACK
6
CONTINUOUS
10
6.06201
20
-3.4311
11
6.0374
21
-3.4311
0
LINE
8
BLACK
6
CONTINUOUS
10
6.0374
20
-3.4311
11
6.03364
21
-3.43035
0
LINE
8
BLACK
6
CONTINUOUS
10
6.03364
20
-3.43035
11
6.03044
21
-3.42822
0
LINE
8
BLACK
6
CONTINUOUS
10
6.03044
20
-3.42822
11
6.02831
21
-3.42503
0
LINE
8
BLACK
6
CONTINUOUS
10
6.02831
20
-3.42503
11
6.02756
21
-3.42126
0
LINE
8
BLACK
6
CONTINUOUS
10
6.02756
20
-3.42126
11
6.02756
21
-3.30709
0
LINE
8
BLACK
6
CONTINUOUS
10
6.02756
20
-3.30709
11
6.02831
21
-3.30332
0
LINE
8
BLACK
6
CONTINUOUS
10
6.02831
20
-3.30332
11
6.03044
21
-3.30013
0
LINE
8
BLACK
6
CONTINUOUS
10
6.03044
20
-3.30013
11
6.03364
21
-3.29799
0
LINE
8
BLACK
6
CONTINUOUS
10
6.03364
20
-3.29799
11
6.0374
21
-3.29724
0
LINE
8
BLACK
6
CONTINUOUS
10
6.0374
20
-3.29724
11
6.06201
21
-3.29724
0
LINE
8
BLACK
6
CONTINUOUS
10
6.06201
20
-3.29724
11
6.06577
21
-3.29799
0
LINE
8
BLACK
6
CONTINUOUS
10
5.15343
20
-3.42319
11
5.11799
21
-3.42319
0
LINE
8
BLACK
6
CONTINUOUS
10
5.11799
20
-3.42319
11
5.11799
21
-3.38382
0
LINE
8
BLACK
6
CONTINUOUS
10
5.11799
20
-3.38382
11
5.15343
21
-3.38382
0
LINE
8
BLACK
6
CONTINUOUS
10
5.15343
20
-3.38382
11
5.15343
21
-3.42319
0
LINE
8
BLACK
6
CONTINUOUS
10
4.99201
20
-3.42319
11
4.95657
21
-3.42319
0
LINE
8
BLACK
6
CONTINUOUS
10
4.95657
20
-3.42319
11
4.95657
21
-3.38382
0
LINE
8
BLACK
6
CONTINUOUS
10
4.95657
20
-3.38382
11
4.99201
21
-3.38382
0
LINE
8
BLACK
6
CONTINUOUS
10
4.99201
20
-3.38382
11
4.99201
21
-3.42319
0
LINE
8
BLACK
6
CONTINUOUS
10
4.92384
20
-3.38737
11
4.92639
21
-3.38908
0
LINE
8
BLACK
6
CONTINUOUS
10
4.92639
20
-3.38908
11
4.9281
21
-3.39163
0
LINE
8
BLACK
6
CONTINUOUS
10
4.9281
20
-3.39163
11
4.9287
21
-3.39465
0
LINE
8
BLACK
6
CONTINUOUS
10
4.9287
20
-3.39465
11
4.9287
21
-3.41039
0
LINE
8
BLACK
6
CONTINUOUS
10
4.9287
20
-3.41039
11
4.9281
21
-3.41341
0
LINE
8
BLACK
6
CONTINUOUS
10
4.9281
20
-3.41341
11
4.92639
21
-3.41596
0
LINE
8
BLACK
6
CONTINUOUS
10
4.92639
20
-3.41596
11
4.92384
21
-3.41767
0
LINE
8
BLACK
6
CONTINUOUS
10
4.92384
20
-3.41767
11
4.92083
21
-3.41827
0
LINE
8
BLACK
6
CONTINUOUS
10
4.92083
20
-3.41827
11
4.89917
21
-3.41827
0
LINE
8
BLACK
6
CONTINUOUS
10
4.89917
20
-3.41827
11
4.89616
21
-3.41767
0
LINE
8
BLACK
6
CONTINUOUS
10
4.89616
20
-3.41767
11
4.89361
21
-3.41596
0
LINE
8
BLACK
6
CONTINUOUS
10
4.89361
20
-3.41596
11
4.8919
21
-3.41341
0
LINE
8
BLACK
6
CONTINUOUS
10
4.8919
20
-3.41341
11
4.8913
21
-3.41039
0
LINE
8
BLACK
6
CONTINUOUS
10
4.8913
20
-3.41039
11
4.8913
21
-3.39465
0
LINE
8
BLACK
6
CONTINUOUS
10
4.8913
20
-3.39465
11
4.8919
21
-3.39163
0
LINE
8
BLACK
6
CONTINUOUS
10
4.8919
20
-3.39163
11
4.89361
21
-3.38908
0
LINE
8
BLACK
6
CONTINUOUS
10
4.89361
20
-3.38908
11
4.89616
21
-3.38737
0
LINE
8
BLACK
6
CONTINUOUS
10
4.89616
20
-3.38737
11
4.89917
21
-3.38677
0
LINE
8
BLACK
6
CONTINUOUS
10
4.89917
20
-3.38677
11
4.92083
21
-3.38677
0
LINE
8
BLACK
6
CONTINUOUS
10
4.92083
20
-3.38677
11
4.92384
21
-3.38737
0
LINE
8
BLACK
6
CONTINUOUS
10
5.48628
20
-3.3254
11
5.48884
21
-3.32711
0
LINE
8
BLACK
6
CONTINUOUS
10
5.48884
20
-3.32711
11
5.49054
21
-3.32966
0
LINE
8
BLACK
6
CONTINUOUS
10
5.49054
20
-3.32966
11
5.49114
21
-3.33268
0
LINE
8
BLACK
6
CONTINUOUS
10
5.49114
20
-3.33268
11
5.49114
21
-3.35433
0
LINE
8
BLACK
6
CONTINUOUS
10
5.49114
20
-3.35433
11
5.49054
21
-3.35734
0
LINE
8
BLACK
6
CONTINUOUS
10
5.49054
20
-3.35734
11
5.48884
21
-3.3599
0
LINE
8
BLACK
6
CONTINUOUS
10
5.48884
20
-3.3599
11
5.48628
21
-3.36161
0
LINE
8
BLACK
6
CONTINUOUS
10
5.48628
20
-3.36161
11
5.48327
21
-3.3622
0
LINE
8
BLACK
6
CONTINUOUS
10
5.48327
20
-3.3622
11
5.46752
21
-3.3622
0
LINE
8
BLACK
6
CONTINUOUS
10
5.46752
20
-3.3622
11
5.46451
21
-3.36161
0
LINE
8
BLACK
6
CONTINUOUS
10
5.46451
20
-3.36161
11
5.46195
21
-3.3599
0
LINE
8
BLACK
6
CONTINUOUS
10
5.46195
20
-3.3599
11
5.46025
21
-3.35734
0
LINE
8
BLACK
6
CONTINUOUS
10
5.46025
20
-3.35734
11
5.45965
21
-3.35433
0
LINE
8
BLACK
6
CONTINUOUS
10
5.45965
20
-3.35433
11
5.45965
21
-3.33268
0
LINE
8
BLACK
6
CONTINUOUS
10
5.45965
20
-3.33268
11
5.46025
21
-3.32966
0
LINE
8
BLACK
6
CONTINUOUS
10
5.46025
20
-3.32966
11
5.46195
21
-3.32711
0
LINE
8
BLACK
6
CONTINUOUS
10
5.46195
20
-3.32711
11
5.46451
21
-3.3254
0
LINE
8
BLACK
6
CONTINUOUS
10
5.46451
20
-3.3254
11
5.46752
21
-3.3248
0
LINE
8
BLACK
6
CONTINUOUS
10
5.46752
20
-3.3248
11
5.48327
21
-3.3248
0
LINE
8
BLACK
6
CONTINUOUS
10
5.48327
20
-3.3248
11
5.48628
21
-3.3254
0
LINE
8
BLACK
6
CONTINUOUS
10
5.42132
20
-3.3254
11
5.42387
21
-3.32711
0
LINE
8
BLACK
6
CONTINUOUS
10
5.42387
20
-3.32711
11
5.42558
21
-3.32966
0
LINE
8
BLACK
6
CONTINUOUS
10
5.42558
20
-3.32966
11
5.42618
21
-3.33268
0
LINE
8
BLACK
6
CONTINUOUS
10
5.42618
20
-3.33268
11
5.42618
21
-3.35433
0
LINE
8
BLACK
6
CONTINUOUS
10
5.42618
20
-3.35433
11
5.42558
21
-3.35734
0
LINE
8
BLACK
6
CONTINUOUS
10
5.42558
20
-3.35734
11
5.42387
21
-3.3599
0
LINE
8
BLACK
6
CONTINUOUS
10
5.42387
20
-3.3599
11
5.42132
21
-3.36161
0
LINE
8
BLACK
6
CONTINUOUS
10
5.42132
20
-3.36161
11
5.41831
21
-3.3622
0
LINE
8
BLACK
6
CONTINUOUS
10
5.41831
20
-3.3622
11
5.40256
21
-3.3622
0
LINE
8
BLACK
6
CONTINUOUS
10
5.40256
20
-3.3622
11
5.39955
21
-3.36161
0
LINE
8
BLACK
6
CONTINUOUS
10
5.39955
20
-3.36161
11
5.39699
21
-3.3599
0
LINE
8
BLACK
6
CONTINUOUS
10
5.39699
20
-3.3599
11
5.39528
21
-3.35734
0
LINE
8
BLACK
6
CONTINUOUS
10
5.39528
20
-3.35734
11
5.39469
21
-3.35433
0
LINE
8
BLACK
6
CONTINUOUS
10
5.39469
20
-3.35433
11
5.39469
21
-3.33268
0
LINE
8
BLACK
6
CONTINUOUS
10
5.39469
20
-3.33268
11
5.39528
21
-3.32966
0
LINE
8
BLACK
6
CONTINUOUS
10
5.39528
20
-3.32966
11
5.39699
21
-3.32711
0
LINE
8
BLACK
6
CONTINUOUS
10
5.39699
20
-3.32711
11
5.39955
21
-3.3254
0
LINE
8
BLACK
6
CONTINUOUS
10
5.39955
20
-3.3254
11
5.40256
21
-3.3248
0
LINE
8
BLACK
6
CONTINUOUS
10
5.40256
20
-3.3248
11
5.41831
21
-3.3248
0
LINE
8
BLACK
6
CONTINUOUS
10
5.41831
20
-3.3248
11
5.42132
21
-3.3254
0
LINE
8
BLACK
6
CONTINUOUS
10
6.45168
20
-3.28615
11
6.45888
21
-3.28833
0
LINE
8
BLACK
6
CONTINUOUS
10
6.45888
20
-3.28833
11
6.46551
21
-3.29188
0
LINE
8
BLACK
6
CONTINUOUS
10
6.46551
20
-3.29188
11
6.47133
21
-3.29665
0
LINE
8
BLACK
6
CONTINUOUS
10
6.47133
20
-3.29665
11
6.47611
21
-3.30247
0
LINE
8
BLACK
6
CONTINUOUS
10
6.47611
20
-3.30247
11
6.47965
21
-3.30911
0
LINE
8
BLACK
6
CONTINUOUS
10
6.47965
20
-3.30911
11
6.48184
21
-3.31631
0
LINE
8
BLACK
6
CONTINUOUS
10
6.48184
20
-3.31631
11
6.48257
21
-3.3238
0
LINE
8
BLACK
6
CONTINUOUS
10
6.48257
20
-3.3238
11
6.48184
21
-3.33128
0
LINE
8
BLACK
6
CONTINUOUS
10
6.48184
20
-3.33128
11
6.47965
21
-3.33848
0
LINE
8
BLACK
6
CONTINUOUS
10
6.47965
20
-3.33848
11
6.47611
21
-3.34512
0
LINE
8
BLACK
6
CONTINUOUS
10
6.47611
20
-3.34512
11
6.47133
21
-3.35094
0
LINE
8
BLACK
6
CONTINUOUS
10
6.47133
20
-3.35094
11
6.46551
21
-3.35571
0
LINE
8
BLACK
6
CONTINUOUS
10
6.46551
20
-3.35571
11
6.45888
21
-3.35926
0
LINE
8
BLACK
6
CONTINUOUS
10
6.45888
20
-3.35926
11
6.45168
21
-3.36144
0
LINE
8
BLACK
6
CONTINUOUS
10
6.45168
20
-3.36144
11
6.44419
21
-3.36218
0
LINE
8
BLACK
6
CONTINUOUS
10
6.44419
20
-3.36218
11
6.4367
21
-3.36144
0
LINE
8
BLACK
6
CONTINUOUS
10
6.4367
20
-3.36144
11
6.4295
21
-3.35926
0
LINE
8
BLACK
6
CONTINUOUS
10
6.4295
20
-3.35926
11
6.42286
21
-3.35571
0
LINE
8
BLACK
6
CONTINUOUS
10
6.42286
20
-3.35571
11
6.41705
21
-3.35094
0
LINE
8
BLACK
6
CONTINUOUS
10
6.41705
20
-3.35094
11
6.41227
21
-3.34512
0
LINE
8
BLACK
6
CONTINUOUS
10
6.41227
20
-3.34512
11
6.40873
21
-3.33848
0
LINE
8
BLACK
6
CONTINUOUS
10
6.40873
20
-3.33848
11
6.40654
21
-3.33128
0
LINE
8
BLACK
6
CONTINUOUS
10
6.40654
20
-3.33128
11
6.4058
21
-3.3238
0
LINE
8
BLACK
6
CONTINUOUS
10
6.4058
20
-3.3238
11
6.40654
21
-3.31631
0
LINE
8
BLACK
6
CONTINUOUS
10
6.40654
20
-3.31631
11
6.40873
21
-3.30911
0
LINE
8
BLACK
6
CONTINUOUS
10
6.40873
20
-3.30911
11
6.41227
21
-3.30247
0
LINE
8
BLACK
6
CONTINUOUS
10
6.41227
20
-3.30247
11
6.41705
21
-3.29665
0
LINE
8
BLACK
6
CONTINUOUS
10
6.41705
20
-3.29665
11
6.42286
21
-3.29188
0
LINE
8
BLACK
6
CONTINUOUS
10
6.42286
20
-3.29188
11
6.4295
21
-3.28833
0
LINE
8
BLACK
6
CONTINUOUS
10
6.4295
20
-3.28833
11
6.4367
21
-3.28615
0
LINE
8
BLACK
6
CONTINUOUS
10
6.4367
20
-3.28615
11
6.44419
21
-3.28541
0
LINE
8
BLACK
6
CONTINUOUS
10
6.44419
20
-3.28541
11
6.45168
21
-3.28615
0
LINE
8
BLACK
6
CONTINUOUS
10
5.12023
20
-3.33718
11
5.09504
21
-3.33718
0
LINE
8
BLACK
6
CONTINUOUS
10
5.09504
20
-3.33718
11
5.09504
21
-3.25844
0
LINE
8
BLACK
6
CONTINUOUS
10
5.09504
20
-3.25844
11
5.12023
21
-3.25844
0
LINE
8
BLACK
6
CONTINUOUS
10
5.12023
20
-3.25844
11
5.12023
21
-3.33718
0
LINE
8
BLACK
6
CONTINUOUS
10
5.02023
20
-3.33718
11
4.99504
21
-3.33718
0
LINE
8
BLACK
6
CONTINUOUS
10
4.99504
20
-3.33718
11
4.99504
21
-3.25844
0
LINE
8
BLACK
6
CONTINUOUS
10
4.99504
20
-3.25844
11
5.02023
21
-3.25844
0
LINE
8
BLACK
6
CONTINUOUS
10
5.02023
20
-3.25844
11
5.02023
21
-3.33718
0
LINE
8
BLACK
6
CONTINUOUS
10
4.76949
20
-3.22835
11
4.77669
21
-3.23054
0
LINE
8
BLACK
6
CONTINUOUS
10
4.77669
20
-3.23054
11
4.78333
21
-3.23408
0
LINE
8
BLACK
6
CONTINUOUS
10
4.78333
20
-3.23408
11
4.78914
21
-3.23886
0
LINE
8
BLACK
6
CONTINUOUS
10
4.78914
20
-3.23886
11
4.79392
21
-3.24467
0
LINE
8
BLACK
6
CONTINUOUS
10
4.79392
20
-3.24467
11
4.79746
21
-3.25131
0
LINE
8
BLACK
6
CONTINUOUS
10
4.79746
20
-3.25131
11
4.79965
21
-3.25851
0
LINE
8
BLACK
6
CONTINUOUS
10
4.79965
20
-3.25851
11
4.80039
21
-3.266
0
LINE
8
BLACK
6
CONTINUOUS
10
4.80039
20
-3.266
11
4.79965
21
-3.27349
0
LINE
8
BLACK
6
CONTINUOUS
10
4.79965
20
-3.27349
11
4.79746
21
-3.28069
0
LINE
8
BLACK
6
CONTINUOUS
10
4.79746
20
-3.28069
11
4.79392
21
-3.28733
0
LINE
8
BLACK
6
CONTINUOUS
10
4.79392
20
-3.28733
11
4.78914
21
-3.29314
0
LINE
8
BLACK
6
CONTINUOUS
10
4.78914
20
-3.29314
11
4.78333
21
-3.29792
0
LINE
8
BLACK
6
CONTINUOUS
10
4.78333
20
-3.29792
11
4.77669
21
-3.30146
0
LINE
8
BLACK
6
CONTINUOUS
10
4.77669
20
-3.30146
11
4.76949
21
-3.30365
0
LINE
8
BLACK
6
CONTINUOUS
10
4.76949
20
-3.30365
11
4.762
21
-3.30439
0
LINE
8
BLACK
6
CONTINUOUS
10
4.762
20
-3.30439
11
4.75451
21
-3.30365
0
LINE
8
BLACK
6
CONTINUOUS
10
4.75451
20
-3.30365
11
4.74731
21
-3.30146
0
LINE
8
BLACK
6
CONTINUOUS
10
4.74731
20
-3.30146
11
4.74067
21
-3.29792
0
LINE
8
BLACK
6
CONTINUOUS
10
4.74067
20
-3.29792
11
4.73486
21
-3.29314
0
LINE
8
BLACK
6
CONTINUOUS
10
4.73486
20
-3.29314
11
4.73008
21
-3.28733
0
LINE
8
BLACK
6
CONTINUOUS
10
4.73008
20
-3.28733
11
4.72654
21
-3.28069
0
LINE
8
BLACK
6
CONTINUOUS
10
4.72654
20
-3.28069
11
4.72435
21
-3.27349
0
LINE
8
BLACK
6
CONTINUOUS
10
4.72435
20
-3.27349
11
4.72361
21
-3.266
0
LINE
8
BLACK
6
CONTINUOUS
10
4.72361
20
-3.266
11
4.72435
21
-3.25851
0
LINE
8
BLACK
6
CONTINUOUS
10
4.72435
20
-3.25851
11
4.72654
21
-3.25131
0
LINE
8
BLACK
6
CONTINUOUS
10
4.72654
20
-3.25131
11
4.73008
21
-3.24467
0
LINE
8
BLACK
6
CONTINUOUS
10
4.73008
20
-3.24467
11
4.73486
21
-3.23886
0
LINE
8
BLACK
6
CONTINUOUS
10
4.73486
20
-3.23886
11
4.74067
21
-3.23408
0
LINE
8
BLACK
6
CONTINUOUS
10
4.74067
20
-3.23408
11
4.74731
21
-3.23054
0
LINE
8
BLACK
6
CONTINUOUS
10
4.74731
20
-3.23054
11
4.75451
21
-3.22835
0
LINE
8
BLACK
6
CONTINUOUS
10
4.75451
20
-3.22835
11
4.762
21
-3.22761
0
LINE
8
BLACK
6
CONTINUOUS
10
4.762
20
-3.22761
11
4.76949
21
-3.22835
0
LINE
8
BLACK
6
CONTINUOUS
10
5.6378
20
-3.27953
11
5.51969
21
-3.27953
0
LINE
8
BLACK
6
CONTINUOUS
10
5.51969
20
-3.27953
11
5.51969
21
-3.22441
0
LINE
8
BLACK
6
CONTINUOUS
10
5.51969
20
-3.22441
11
5.6378
21
-3.22441
0
LINE
8
BLACK
6
CONTINUOUS
10
5.6378
20
-3.22441
11
5.6378
21
-3.27953
0
LINE
8
BLACK
6
CONTINUOUS
10
6.2185
20
-3.25591
11
6.18307
21
-3.25591
0
LINE
8
BLACK
6
CONTINUOUS
10
6.18307
20
-3.25591
11
6.18307
21
-3.20866
0
LINE
8
BLACK
6
CONTINUOUS
10
6.18307
20
-3.20866
11
6.2185
21
-3.20866
0
LINE
8
BLACK
6
CONTINUOUS
10
6.2185
20
-3.20866
11
6.2185
21
-3.25591
0
LINE
8
BLACK
6
CONTINUOUS
10
6.08858
20
-3.25591
11
6.05315
21
-3.25591
0
LINE
8
BLACK
6
CONTINUOUS
10
6.05315
20
-3.25591
11
6.05315
21
-3.20866
0
LINE
8
BLACK
6
CONTINUOUS
10
6.05315
20
-3.20866
11
6.08858
21
-3.20866
0
LINE
8
BLACK
6
CONTINUOUS
10
6.08858
20
-3.20866
11
6.08858
21
-3.25591
0
LINE
8
BLACK
6
CONTINUOUS
10
6.45168
20
-3.14835
11
6.45888
21
-3.15054
0
LINE
8
BLACK
6
CONTINUOUS
10
6.45888
20
-3.15054
11
6.46551
21
-3.15408
0
LINE
8
BLACK
6
CONTINUOUS
10
6.46551
20
-3.15408
11
6.47133
21
-3.15886
0
LINE
8
BLACK
6
CONTINUOUS
10
6.47133
20
-3.15886
11
6.47611
21
-3.16467
0
LINE
8
BLACK
6
CONTINUOUS
10
6.47611
20
-3.16467
11
6.47965
21
-3.17131
0
LINE
8
BLACK
6
CONTINUOUS
10
6.47965
20
-3.17131
11
6.48184
21
-3.17851
0
LINE
8
BLACK
6
CONTINUOUS
10
6.48184
20
-3.17851
11
6.48257
21
-3.186
0
LINE
8
BLACK
6
CONTINUOUS
10
6.48257
20
-3.186
11
6.48184
21
-3.19349
0
LINE
8
BLACK
6
CONTINUOUS
10
6.48184
20
-3.19349
11
6.47965
21
-3.20069
0
LINE
8
BLACK
6
CONTINUOUS
10
6.47965
20
-3.20069
11
6.47611
21
-3.20733
0
LINE
8
BLACK
6
CONTINUOUS
10
6.47611
20
-3.20733
11
6.47133
21
-3.21314
0
LINE
8
BLACK
6
CONTINUOUS
10
6.47133
20
-3.21314
11
6.46551
21
-3.21792
0
LINE
8
BLACK
6
CONTINUOUS
10
6.46551
20
-3.21792
11
6.45888
21
-3.22146
0
LINE
8
BLACK
6
CONTINUOUS
10
6.45888
20
-3.22146
11
6.45168
21
-3.22365
0
LINE
8
BLACK
6
CONTINUOUS
10
6.45168
20
-3.22365
11
6.44419
21
-3.22439
0
LINE
8
BLACK
6
CONTINUOUS
10
6.44419
20
-3.22439
11
6.4367
21
-3.22365
0
LINE
8
BLACK
6
CONTINUOUS
10
6.4367
20
-3.22365
11
6.4295
21
-3.22146
0
LINE
8
BLACK
6
CONTINUOUS
10
6.4295
20
-3.22146
11
6.42286
21
-3.21792
0
LINE
8
BLACK
6
CONTINUOUS
10
6.42286
20
-3.21792
11
6.41705
21
-3.21314
0
LINE
8
BLACK
6
CONTINUOUS
10
6.41705
20
-3.21314
11
6.41227
21
-3.20733
0
LINE
8
BLACK
6
CONTINUOUS
10
6.41227
20
-3.20733
11
6.40873
21
-3.20069
0
LINE
8
BLACK
6
CONTINUOUS
10
6.40873
20
-3.20069
11
6.40654
21
-3.19349
0
LINE
8
BLACK
6
CONTINUOUS
10
6.40654
20
-3.19349
11
6.4058
21
-3.186
0
LINE
8
BLACK
6
CONTINUOUS
10
6.4058
20
-3.186
11
6.40654
21
-3.17851
0
LINE
8
BLACK
6
CONTINUOUS
10
6.40654
20
-3.17851
11
6.40873
21
-3.17131
0
LINE
8
BLACK
6
CONTINUOUS
10
6.40873
20
-3.17131
11
6.41227
21
-3.16467
0
LINE
8
BLACK
6
CONTINUOUS
10
6.41227
20
-3.16467
11
6.41705
21
-3.15886
0
LINE
8
BLACK
6
CONTINUOUS
10
6.41705
20
-3.15886
11
6.42286
21
-3.15408
0
LINE
8
BLACK
6
CONTINUOUS
10
6.42286
20
-3.15408
11
6.4295
21
-3.15054
0
LINE
8
BLACK
6
CONTINUOUS
10
6.4295
20
-3.15054
11
6.4367
21
-3.14835
0
LINE
8
BLACK
6
CONTINUOUS
10
6.4367
20
-3.14835
11
6.44419
21
-3.14761
0
LINE
8
BLACK
6
CONTINUOUS
10
6.44419
20
-3.14761
11
6.45168
21
-3.14835
0
LINE
8
BLACK
6
CONTINUOUS
10
4.76949
20
-3.09056
11
4.77669
21
-3.09274
0
LINE
8
BLACK
6
CONTINUOUS
10
4.77669
20
-3.09274
11
4.78333
21
-3.09629
0
LINE
8
BLACK
6
CONTINUOUS
10
4.78333
20
-3.09629
11
4.78914
21
-3.10106
0
LINE
8
BLACK
6
CONTINUOUS
10
4.78914
20
-3.10106
11
4.79392
21
-3.10688
0
LINE
8
BLACK
6
CONTINUOUS
10
4.79392
20
-3.10688
11
4.79746
21
-3.11352
0
LINE
8
BLACK
6
CONTINUOUS
10
4.79746
20
-3.11352
11
4.79965
21
-3.12072
0
LINE
8
BLACK
6
CONTINUOUS
10
4.79965
20
-3.12072
11
4.80039
21
-3.1282
0
LINE
8
BLACK
6
CONTINUOUS
10
4.80039
20
-3.1282
11
4.79965
21
-3.13569
0
LINE
8
BLACK
6
CONTINUOUS
10
4.79965
20
-3.13569
11
4.79746
21
-3.14289
0
LINE
8
BLACK
6
CONTINUOUS
10
4.79746
20
-3.14289
11
4.79392
21
-3.14953
0
LINE
8
BLACK
6
CONTINUOUS
10
4.79392
20
-3.14953
11
4.78914
21
-3.15535
0
LINE
8
BLACK
6
CONTINUOUS
10
4.78914
20
-3.15535
11
4.78333
21
-3.16012
0
LINE
8
BLACK
6
CONTINUOUS
10
4.78333
20
-3.16012
11
4.77669
21
-3.16367
0
LINE
8
BLACK
6
CONTINUOUS
10
4.77669
20
-3.16367
11
4.76949
21
-3.16585
0
LINE
8
BLACK
6
CONTINUOUS
10
4.76949
20
-3.16585
11
4.762
21
-3.16659
0
LINE
8
BLACK
6
CONTINUOUS
10
4.762
20
-3.16659
11
4.75451
21
-3.16585
0
LINE
8
BLACK
6
CONTINUOUS
10
4.75451
20
-3.16585
11
4.74731
21
-3.16367
0
LINE
8
BLACK
6
CONTINUOUS
10
4.74731
20
-3.16367
11
4.74067
21
-3.16012
0
LINE
8
BLACK
6
CONTINUOUS
10
4.74067
20
-3.16012
11
4.73486
21
-3.15535
0
LINE
8
BLACK
6
CONTINUOUS
10
4.73486
20
-3.15535
11
4.73008
21
-3.14953
0
LINE
8
BLACK
6
CONTINUOUS
10
4.73008
20
-3.14953
11
4.72654
21
-3.14289
0
LINE
8
BLACK
6
CONTINUOUS
10
4.72654
20
-3.14289
11
4.72435
21
-3.13569
0
LINE
8
BLACK
6
CONTINUOUS
10
4.72435
20
-3.13569
11
4.72361
21
-3.1282
0
LINE
8
BLACK
6
CONTINUOUS
10
4.72361
20
-3.1282
11
4.72435
21
-3.12072
0
LINE
8
BLACK
6
CONTINUOUS
10
4.72435
20
-3.12072
11
4.72654
21
-3.11352
0
LINE
8
BLACK
6
CONTINUOUS
10
4.72654
20
-3.11352
11
4.73008
21
-3.10688
0
LINE
8
BLACK
6
CONTINUOUS
10
4.73008
20
-3.10688
11
4.73486
21
-3.10106
0
LINE
8
BLACK
6
CONTINUOUS
10
4.73486
20
-3.10106
11
4.74067
21
-3.09629
0
LINE
8
BLACK
6
CONTINUOUS
10
4.74067
20
-3.09629
11
4.74731
21
-3.09274
0
LINE
8
BLACK
6
CONTINUOUS
10
4.74731
20
-3.09274
11
4.75451
21
-3.09056
0
LINE
8
BLACK
6
CONTINUOUS
10
4.75451
20
-3.09056
11
4.762
21
-3.08982
0
LINE
8
BLACK
6
CONTINUOUS
10
4.762
20
-3.08982
11
4.76949
21
-3.09056
0
LINE
8
BLACK
6
CONTINUOUS
10
6.21868
20
-3.15962
11
6.18324
21
-3.15962
0
LINE
8
BLACK
6
CONTINUOUS
10
6.18324
20
-3.15962
11
6.18324
21
-3.11238
0
LINE
8
BLACK
6
CONTINUOUS
10
6.18324
20
-3.11238
11
6.21868
21
-3.11238
0
LINE
8
BLACK
6
CONTINUOUS
10
6.21868
20
-3.11238
11
6.21868
21
-3.15962
0
LINE
8
BLACK
6
CONTINUOUS
10
6.08876
20
-3.15962
11
6.05332
21
-3.15962
0
LINE
8
BLACK
6
CONTINUOUS
10
6.05332
20
-3.15962
11
6.05332
21
-3.11238
0
LINE
8
BLACK
6
CONTINUOUS
10
6.05332
20
-3.11238
11
6.08876
21
-3.11238
0
LINE
8
BLACK
6
CONTINUOUS
10
6.08876
20
-3.11238
11
6.08876
21
-3.15962
0
LINE
8
BLACK
6
CONTINUOUS
10
5.95153
20
-3.14811
11
5.69562
21
-3.14811
0
LINE
8
BLACK
6
CONTINUOUS
10
5.69562
20
-3.14811
11
5.69562
21
-2.91189
0
LINE
8
BLACK
6
CONTINUOUS
10
5.69562
20
-2.91189
11
5.95153
21
-2.91189
0
LINE
8
BLACK
6
CONTINUOUS
10
5.95153
20
-2.91189
11
5.95153
21
-3.14811
0
LINE
8
BLACK
6
CONTINUOUS
10
5.63657
20
-3.14811
11
5.51846
21
-3.14811
0
LINE
8
BLACK
6
CONTINUOUS
10
5.51846
20
-3.14811
11
5.51846
21
-3.09299
0
LINE
8
BLACK
6
CONTINUOUS
10
5.51846
20
-3.09299
11
5.63657
21
-3.09299
0
LINE
8
BLACK
6
CONTINUOUS
10
5.63657
20
-3.09299
11
5.63657
21
-3.14811
0
LINE
8
BLACK
6
CONTINUOUS
10
5.48628
20
-3.10198
11
5.48884
21
-3.10368
0
LINE
8
BLACK
6
CONTINUOUS
10
5.48884
20
-3.10368
11
5.49054
21
-3.10624
0
LINE
8
BLACK
6
CONTINUOUS
10
5.49054
20
-3.10624
11
5.49114
21
-3.10925
0
LINE
8
BLACK
6
CONTINUOUS
10
5.49114
20
-3.10925
11
5.49114
21
-3.13091
0
LINE
8
BLACK
6
CONTINUOUS
10
5.49114
20
-3.13091
11
5.49054
21
-3.13392
0
LINE
8
BLACK
6
CONTINUOUS
10
5.49054
20
-3.13392
11
5.48884
21
-3.13647
0
LINE
8
BLACK
6
CONTINUOUS
10
5.48884
20
-3.13647
11
5.48628
21
-3.13818
0
LINE
8
BLACK
6
CONTINUOUS
10
5.48628
20
-3.13818
11
5.48327
21
-3.13878
0
LINE
8
BLACK
6
CONTINUOUS
10
5.48327
20
-3.13878
11
5.46752
21
-3.13878
0
LINE
8
BLACK
6
CONTINUOUS
10
5.46752
20
-3.13878
11
5.46451
21
-3.13818
0
LINE
8
BLACK
6
CONTINUOUS
10
5.46451
20
-3.13818
11
5.46195
21
-3.13647
0
LINE
8
BLACK
6
CONTINUOUS
10
5.46195
20
-3.13647
11
5.46025
21
-3.13392
0
LINE
8
BLACK
6
CONTINUOUS
10
5.46025
20
-3.13392
11
5.45965
21
-3.13091
0
LINE
8
BLACK
6
CONTINUOUS
10
5.45965
20
-3.13091
11
5.45965
21
-3.10925
0
LINE
8
BLACK
6
CONTINUOUS
10
5.45965
20
-3.10925
11
5.46025
21
-3.10624
0
LINE
8
BLACK
6
CONTINUOUS
10
5.46025
20
-3.10624
11
5.46195
21
-3.10368
0
LINE
8
BLACK
6
CONTINUOUS
10
5.46195
20
-3.10368
11
5.46451
21
-3.10198
0
LINE
8
BLACK
6
CONTINUOUS
10
5.46451
20
-3.10198
11
5.46752
21
-3.10138
0
LINE
8
BLACK
6
CONTINUOUS
10
5.46752
20
-3.10138
11
5.48327
21
-3.10138
0
LINE
8
BLACK
6
CONTINUOUS
10
5.48327
20
-3.10138
11
5.48628
21
-3.10198
0
LINE
8
BLACK
6
CONTINUOUS
10
5.42132
20
-3.10198
11
5.42387
21
-3.10368
0
LINE
8
BLACK
6
CONTINUOUS
10
5.42387
20
-3.10368
11
5.42558
21
-3.10624
0
LINE
8
BLACK
6
CONTINUOUS
10
5.42558
20
-3.10624
11
5.42618
21
-3.10925
0
LINE
8
BLACK
6
CONTINUOUS
10
5.42618
20
-3.10925
11
5.42618
21
-3.13091
0
LINE
8
BLACK
6
CONTINUOUS
10
5.42618
20
-3.13091
11
5.42558
21
-3.13392
0
LINE
8
BLACK
6
CONTINUOUS
10
5.42558
20
-3.13392
11
5.42387
21
-3.13647
0
LINE
8
BLACK
6
CONTINUOUS
10
5.42387
20
-3.13647
11
5.42132
21
-3.13818
0
LINE
8
BLACK
6
CONTINUOUS
10
5.42132
20
-3.13818
11
5.41831
21
-3.13878
0
LINE
8
BLACK
6
CONTINUOUS
10
5.41831
20
-3.13878
11
5.40256
21
-3.13878
0
LINE
8
BLACK
6
CONTINUOUS
10
5.40256
20
-3.13878
11
5.39955
21
-3.13818
0
LINE
8
BLACK
6
CONTINUOUS
10
5.39955
20
-3.13818
11
5.39699
21
-3.13647
0
LINE
8
BLACK
6
CONTINUOUS
10
5.39699
20
-3.13647
11
5.39528
21
-3.13392
0
LINE
8
BLACK
6
CONTINUOUS
10
5.39528
20
-3.13392
11
5.39469
21
-3.13091
0
LINE
8
BLACK
6
CONTINUOUS
10
5.39469
20
-3.13091
11
5.39469
21
-3.10925
0
LINE
8
BLACK
6
CONTINUOUS
10
5.39469
20
-3.10925
11
5.39528
21
-3.10624
0
LINE
8
BLACK
6
CONTINUOUS
10
5.39528
20
-3.10624
11
5.39699
21
-3.10368
0
LINE
8
BLACK
6
CONTINUOUS
10
5.39699
20
-3.10368
11
5.39955
21
-3.10198
0
LINE
8
BLACK
6
CONTINUOUS
10
5.39955
20
-3.10198
11
5.40256
21
-3.10138
0
LINE
8
BLACK
6
CONTINUOUS
10
5.40256
20
-3.10138
11
5.41831
21
-3.10138
0
LINE
8
BLACK
6
CONTINUOUS
10
5.41831
20
-3.10138
11
5.42132
21
-3.10198
0
LINE
8
BLACK
6
CONTINUOUS
10
5.12023
20
-3.08915
11
5.09504
21
-3.08915
0
LINE
8
BLACK
6
CONTINUOUS
10
5.09504
20
-3.08915
11
5.09504
21
-3.01041
0
LINE
8
BLACK
6
CONTINUOUS
10
5.09504
20
-3.01041
11
5.12023
21
-3.01041
0
LINE
8
BLACK
6
CONTINUOUS
10
5.12023
20
-3.01041
11
5.12023
21
-3.08915
0
LINE
8
BLACK
6
CONTINUOUS
10
5.02023
20
-3.08915
11
4.99504
21
-3.08915
0
LINE
8
BLACK
6
CONTINUOUS
10
4.99504
20
-3.08915
11
4.99504
21
-3.01041
0
LINE
8
BLACK
6
CONTINUOUS
10
4.99504
20
-3.01041
11
5.02023
21
-3.01041
0
LINE
8
BLACK
6
CONTINUOUS
10
5.02023
20
-3.01041
11
5.02023
21
-3.08915
0
LINE
8
BLACK
6
CONTINUOUS
10
6.45168
20
-3.01056
11
6.45888
21
-3.01274
0
LINE
8
BLACK
6
CONTINUOUS
10
6.45888
20
-3.01274
11
6.46551
21
-3.01629
0
LINE
8
BLACK
6
CONTINUOUS
10
6.46551
20
-3.01629
11
6.47133
21
-3.02106
0
LINE
8
BLACK
6
CONTINUOUS
10
6.47133
20
-3.02106
11
6.47611
21
-3.02688
0
LINE
8
BLACK
6
CONTINUOUS
10
6.47611
20
-3.02688
11
6.47965
21
-3.03352
0
LINE
8
BLACK
6
CONTINUOUS
10
6.47965
20
-3.03352
11
6.48184
21
-3.04072
0
LINE
8
BLACK
6
CONTINUOUS
10
6.48184
20
-3.04072
11
6.48257
21
-3.0482
0
LINE
8
BLACK
6
CONTINUOUS
10
6.48257
20
-3.0482
11
6.48184
21
-3.05569
0
LINE
8
BLACK
6
CONTINUOUS
10
6.48184
20
-3.05569
11
6.47965
21
-3.06289
0
LINE
8
BLACK
6
CONTINUOUS
10
6.47965
20
-3.06289
11
6.47611
21
-3.06953
0
LINE
8
BLACK
6
CONTINUOUS
10
6.47611
20
-3.06953
11
6.47133
21
-3.07535
0
LINE
8
BLACK
6
CONTINUOUS
10
6.47133
20
-3.07535
11
6.46551
21
-3.08012
0
LINE
8
BLACK
6
CONTINUOUS
10
6.46551
20
-3.08012
11
6.45888
21
-3.08367
0
LINE
8
BLACK
6
CONTINUOUS
10
6.45888
20
-3.08367
11
6.45168
21
-3.08585
0
LINE
8
BLACK
6
CONTINUOUS
10
6.45168
20
-3.08585
11
6.44419
21
-3.08659
0
LINE
8
BLACK
6
CONTINUOUS
10
6.44419
20
-3.08659
11
6.4367
21
-3.08585
0
LINE
8
BLACK
6
CONTINUOUS
10
6.4367
20
-3.08585
11
6.4295
21
-3.08367
0
LINE
8
BLACK
6
CONTINUOUS
10
6.4295
20
-3.08367
11
6.42286
21
-3.08012
0
LINE
8
BLACK
6
CONTINUOUS
10
6.42286
20
-3.08012
11
6.41705
21
-3.07535
0
LINE
8
BLACK
6
CONTINUOUS
10
6.41705
20
-3.07535
11
6.41227
21
-3.06953
0
LINE
8
BLACK
6
CONTINUOUS
10
6.41227
20
-3.06953
11
6.40873
21
-3.06289
0
LINE
8
BLACK
6
CONTINUOUS
10
6.40873
20
-3.06289
11
6.40654
21
-3.05569
0
LINE
8
BLACK
6
CONTINUOUS
10
6.40654
20
-3.05569
11
6.4058
21
-3.0482
0
LINE
8
BLACK
6
CONTINUOUS
10
6.4058
20
-3.0482
11
6.40654
21
-3.04072
0
LINE
8
BLACK
6
CONTINUOUS
10
6.40654
20
-3.04072
11
6.40873
21
-3.03352
0
LINE
8
BLACK
6
CONTINUOUS
10
6.40873
20
-3.03352
11
6.41227
21
-3.02688
0
LINE
8
BLACK
6
CONTINUOUS
10
6.41227
20
-3.02688
11
6.41705
21
-3.02106
0
LINE
8
BLACK
6
CONTINUOUS
10
6.41705
20
-3.02106
11
6.42286
21
-3.01629
0
LINE
8
BLACK
6
CONTINUOUS
10
6.42286
20
-3.01629
11
6.4295
21
-3.01274
0
LINE
8
BLACK
6
CONTINUOUS
10
6.4295
20
-3.01274
11
6.4367
21
-3.01056
0
LINE
8
BLACK
6
CONTINUOUS
10
6.4367
20
-3.01056
11
6.44419
21
-3.00982
0
LINE
8
BLACK
6
CONTINUOUS
10
6.44419
20
-3.00982
11
6.45168
21
-3.01056
0
LINE
8
BLACK
6
CONTINUOUS
10
6.2338
20
-2.93882
11
6.23699
21
-2.94095
0
LINE
8
BLACK
6
CONTINUOUS
10
6.23699
20
-2.94095
11
6.23913
21
-2.94415
0
LINE
8
BLACK
6
CONTINUOUS
10
6.23913
20
-2.94415
11
6.23988
21
-2.94791
0
LINE
8
BLACK
6
CONTINUOUS
10
6.23988
20
-2.94791
11
6.23988
21
-3.06209
0
LINE
8
BLACK
6
CONTINUOUS
10
6.23988
20
-3.06209
11
6.23913
21
-3.06585
0
LINE
8
BLACK
6
CONTINUOUS
10
6.23913
20
-3.06585
11
6.23699
21
-3.06905
0
LINE
8
BLACK
6
CONTINUOUS
10
6.23699
20
-3.06905
11
6.2338
21
-3.07118
0
LINE
8
BLACK
6
CONTINUOUS
10
6.2338
20
-3.07118
11
6.23003
21
-3.07193
0
LINE
8
BLACK
6
CONTINUOUS
10
6.23003
20
-3.07193
11
6.20543
21
-3.07193
0
LINE
8
BLACK
6
CONTINUOUS
10
6.20543
20
-3.07193
11
6.20166
21
-3.07118
0
LINE
8
BLACK
6
CONTINUOUS
10
6.20166
20
-3.07118
11
6.19847
21
-3.06905
0
LINE
8
BLACK
6
CONTINUOUS
10
6.19847
20
-3.06905
11
6.19633
21
-3.06585
0
LINE
8
BLACK
6
CONTINUOUS
10
6.19633
20
-3.06585
11
6.19558
21
-3.06209
0
LINE
8
BLACK
6
CONTINUOUS
10
6.19558
20
-3.06209
11
6.19558
21
-2.94791
0
LINE
8
BLACK
6
CONTINUOUS
10
6.19558
20
-2.94791
11
6.19633
21
-2.94415
0
LINE
8
BLACK
6
CONTINUOUS
10
6.19633
20
-2.94415
11
6.19847
21
-2.94095
0
LINE
8
BLACK
6
CONTINUOUS
10
6.19847
20
-2.94095
11
6.20166
21
-2.93882
0
LINE
8
BLACK
6
CONTINUOUS
10
6.20166
20
-2.93882
11
6.20543
21
-2.93807
0
LINE
8
BLACK
6
CONTINUOUS
10
6.20543
20
-2.93807
11
6.23003
21
-2.93807
0
LINE
8
BLACK
6
CONTINUOUS
10
6.23003
20
-2.93807
11
6.2338
21
-2.93882
0
LINE
8
BLACK
6
CONTINUOUS
10
6.06549
20
-2.93882
11
6.06869
21
-2.94095
0
LINE
8
BLACK
6
CONTINUOUS
10
6.06869
20
-2.94095
11
6.07082
21
-2.94415
0
LINE
8
BLACK
6
CONTINUOUS
10
6.07082
20
-2.94415
11
6.07157
21
-2.94791
0
LINE
8
BLACK
6
CONTINUOUS
10
6.07157
20
-2.94791
11
6.07157
21
-3.06209
0
LINE
8
BLACK
6
CONTINUOUS
10
6.07157
20
-3.06209
11
6.07082
21
-3.06585
0
LINE
8
BLACK
6
CONTINUOUS
10
6.07082
20
-3.06585
11
6.06869
21
-3.06905
0
LINE
8
BLACK
6
CONTINUOUS
10
6.06869
20
-3.06905
11
6.06549
21
-3.07118
0
LINE
8
BLACK
6
CONTINUOUS
10
6.06549
20
-3.07118
11
6.06173
21
-3.07193
0
LINE
8
BLACK
6
CONTINUOUS
10
6.06173
20
-3.07193
11
6.03712
21
-3.07193
0
LINE
8
BLACK
6
CONTINUOUS
10
6.03712
20
-3.07193
11
6.03335
21
-3.07118
0
LINE
8
BLACK
6
CONTINUOUS
10
6.03335
20
-3.07118
11
6.03016
21
-3.06905
0
LINE
8
BLACK
6
CONTINUOUS
10
6.03016
20
-3.06905
11
6.02803
21
-3.06585
0
LINE
8
BLACK
6
CONTINUOUS
10
6.02803
20
-3.06585
11
6.02728
21
-3.06209
0
LINE
8
BLACK
6
CONTINUOUS
10
6.02728
20
-3.06209
11
6.02728
21
-2.94791
0
LINE
8
BLACK
6
CONTINUOUS
10
6.02728
20
-2.94791
11
6.02803
21
-2.94415
0
LINE
8
BLACK
6
CONTINUOUS
10
6.02803
20
-2.94415
11
6.03016
21
-2.94095
0
LINE
8
BLACK
6
CONTINUOUS
10
6.03016
20
-2.94095
11
6.03335
21
-2.93882
0
LINE
8
BLACK
6
CONTINUOUS
10
6.03335
20
-2.93882
11
6.03712
21
-2.93807
0
LINE
8
BLACK
6
CONTINUOUS
10
6.03712
20
-2.93807
11
6.06173
21
-2.93807
0
LINE
8
BLACK
6
CONTINUOUS
10
6.06173
20
-2.93807
11
6.06549
21
-2.93882
0
LINE
8
BLACK
6
CONTINUOUS
10
5.4853
20
-3.01044
11
5.48785
21
-3.01215
0
LINE
8
BLACK
6
CONTINUOUS
10
5.48785
20
-3.01215
11
5.48956
21
-3.0147
0
LINE
8
BLACK
6
CONTINUOUS
10
5.48956
20
-3.0147
11
5.49016
21
-3.01772
0
LINE
8
BLACK
6
CONTINUOUS
10
5.49016
20
-3.01772
11
5.49016
21
-3.03937
0
LINE
8
BLACK
6
CONTINUOUS
10
5.49016
20
-3.03937
11
5.48956
21
-3.04238
0
LINE
8
BLACK
6
CONTINUOUS
10
5.48956
20
-3.04238
11
5.48785
21
-3.04494
0
LINE
8
BLACK
6
CONTINUOUS
10
5.48785
20
-3.04494
11
5.4853
21
-3.04664
0
LINE
8
BLACK
6
CONTINUOUS
10
5.4853
20
-3.04664
11
5.48228
21
-3.04724
0
LINE
8
BLACK
6
CONTINUOUS
10
5.48228
20
-3.04724
11
5.46654
21
-3.04724
0
LINE
8
BLACK
6
CONTINUOUS
10
5.46654
20
-3.04724
11
5.46352
21
-3.04664
0
LINE
8
BLACK
6
CONTINUOUS
10
5.46352
20
-3.04664
11
5.46097
21
-3.04494
0
LINE
8
BLACK
6
CONTINUOUS
10
5.46097
20
-3.04494
11
5.45926
21
-3.04238
0
LINE
8
BLACK
6
CONTINUOUS
10
5.45926
20
-3.04238
11
5.45866
21
-3.03937
0
LINE
8
BLACK
6
CONTINUOUS
10
5.45866
20
-3.03937
11
5.45866
21
-3.01772
0
LINE
8
BLACK
6
CONTINUOUS
10
5.45866
20
-3.01772
11
5.45926
21
-3.0147
0
LINE
8
BLACK
6
CONTINUOUS
10
5.45926
20
-3.0147
11
5.46097
21
-3.01215
0
LINE
8
BLACK
6
CONTINUOUS
10
5.46097
20
-3.01215
11
5.46352
21
-3.01044
0
LINE
8
BLACK
6
CONTINUOUS
10
5.46352
20
-3.01044
11
5.46654
21
-3.00984
0
LINE
8
BLACK
6
CONTINUOUS
10
5.46654
20
-3.00984
11
5.48228
21
-3.00984
0
LINE
8
BLACK
6
CONTINUOUS
10
5.48228
20
-3.00984
11
5.4853
21
-3.01044
0
LINE
8
BLACK
6
CONTINUOUS
10
5.42034
20
-3.01044
11
5.42289
21
-3.01215
0
LINE
8
BLACK
6
CONTINUOUS
10
5.42289
20
-3.01215
11
5.4246
21
-3.0147
0
LINE
8
BLACK
6
CONTINUOUS
10
5.4246
20
-3.0147
11
5.4252
21
-3.01772
0
LINE
8
BLACK
6
CONTINUOUS
10
5.4252
20
-3.01772
11
5.4252
21
-3.03937
0
LINE
8
BLACK
6
CONTINUOUS
10
5.4252
20
-3.03937
11
5.4246
21
-3.04238
0
LINE
8
BLACK
6
CONTINUOUS
10
5.4246
20
-3.04238
11
5.42289
21
-3.04494
0
LINE
8
BLACK
6
CONTINUOUS
10
5.42289
20
-3.04494
11
5.42034
21
-3.04664
0
LINE
8
BLACK
6
CONTINUOUS
10
5.42034
20
-3.04664
11
5.41732
21
-3.04724
0
LINE
8
BLACK
6
CONTINUOUS
10
5.41732
20
-3.04724
11
5.40157
21
-3.04724
0
LINE
8
BLACK
6
CONTINUOUS
10
5.40157
20
-3.04724
11
5.39856
21
-3.04664
0
LINE
8
BLACK
6
CONTINUOUS
10
5.39856
20
-3.04664
11
5.39601
21
-3.04494
0
LINE
8
BLACK
6
CONTINUOUS
10
5.39601
20
-3.04494
11
5.3943
21
-3.04238
0
LINE
8
BLACK
6
CONTINUOUS
10
5.3943
20
-3.04238
11
5.3937
21
-3.03937
0
LINE
8
BLACK
6
CONTINUOUS
10
5.3937
20
-3.03937
11
5.3937
21
-3.01772
0
LINE
8
BLACK
6
CONTINUOUS
10
5.3937
20
-3.01772
11
5.3943
21
-3.0147
0
LINE
8
BLACK
6
CONTINUOUS
10
5.3943
20
-3.0147
11
5.39601
21
-3.01215
0
LINE
8
BLACK
6
CONTINUOUS
10
5.39601
20
-3.01215
11
5.39856
21
-3.01044
0
LINE
8
BLACK
6
CONTINUOUS
10
5.39856
20
-3.01044
11
5.40157
21
-3.00984
0
LINE
8
BLACK
6
CONTINUOUS
10
5.40157
20
-3.00984
11
5.41732
21
-3.00984
0
LINE
8
BLACK
6
CONTINUOUS
10
5.41732
20
-3.00984
11
5.42034
21
-3.01044
0
LINE
8
BLACK
6
CONTINUOUS
10
5.35031
20
-2.99542
11
5.31488
21
-2.99542
0
LINE
8
BLACK
6
CONTINUOUS
10
5.31488
20
-2.99542
11
5.31488
21
-2.94818
0
LINE
8
BLACK
6
CONTINUOUS
10
5.31488
20
-2.94818
11
5.35031
21
-2.94818
0
LINE
8
BLACK
6
CONTINUOUS
10
5.35031
20
-2.94818
11
5.35031
21
-2.99542
0
LINE
8
BLACK
6
CONTINUOUS
10
5.22039
20
-2.99542
11
5.18496
21
-2.99542
0
LINE
8
BLACK
6
CONTINUOUS
10
5.18496
20
-2.99542
11
5.18496
21
-2.94818
0
LINE
8
BLACK
6
CONTINUOUS
10
5.18496
20
-2.94818
11
5.22039
21
-2.94818
0
LINE
8
BLACK
6
CONTINUOUS
10
5.22039
20
-2.94818
11
5.22039
21
-2.99542
0
LINE
8
BLACK
6
CONTINUOUS
10
5.63657
20
-2.96701
11
5.51846
21
-2.96701
0
LINE
8
BLACK
6
CONTINUOUS
10
5.51846
20
-2.96701
11
5.51846
21
-2.91189
0
LINE
8
BLACK
6
CONTINUOUS
10
5.51846
20
-2.91189
11
5.63657
21
-2.91189
0
LINE
8
BLACK
6
CONTINUOUS
10
5.63657
20
-2.91189
11
5.63657
21
-2.96701
0
LINE
8
BLACK
6
CONTINUOUS
10
4.7112
20
-2.74797
11
4.72256
21
-2.75023
0
LINE
8
BLACK
6
CONTINUOUS
10
4.72256
20
-2.75023
11
4.73353
21
-2.75396
0
LINE
8
BLACK
6
CONTINUOUS
10
4.73353
20
-2.75396
11
4.74393
21
-2.75908
0
LINE
8
BLACK
6
CONTINUOUS
10
4.74393
20
-2.75908
11
4.75356
21
-2.76552
0
LINE
8
BLACK
6
CONTINUOUS
10
4.75356
20
-2.76552
11
4.76227
21
-2.77316
0
LINE
8
BLACK
6
CONTINUOUS
10
4.76227
20
-2.77316
11
4.76991
21
-2.78187
0
LINE
8
BLACK
6
CONTINUOUS
10
4.76991
20
-2.78187
11
4.77635
21
-2.79151
0
LINE
8
BLACK
6
CONTINUOUS
10
4.77635
20
-2.79151
11
4.78147
21
-2.8019
0
LINE
8
BLACK
6
CONTINUOUS
10
4.78147
20
-2.8019
11
4.7852
21
-2.81287
0
LINE
8
BLACK
6
CONTINUOUS
10
4.7852
20
-2.81287
11
4.78746
21
-2.82424
0
LINE
8
BLACK
6
CONTINUOUS
10
4.78746
20
-2.82424
11
4.78822
21
-2.8358
0
LINE
8
BLACK
6
CONTINUOUS
10
4.78822
20
-2.8358
11
4.78746
21
-2.84736
0
LINE
8
BLACK
6
CONTINUOUS
10
4.78746
20
-2.84736
11
4.7852
21
-2.85872
0
LINE
8
BLACK
6
CONTINUOUS
10
4.7852
20
-2.85872
11
4.78147
21
-2.8697
0
LINE
8
BLACK
6
CONTINUOUS
10
4.78147
20
-2.8697
11
4.77635
21
-2.88009
0
LINE
8
BLACK
6
CONTINUOUS
10
4.77635
20
-2.88009
11
4.76991
21
-2.88972
0
LINE
8
BLACK
6
CONTINUOUS
10
4.76991
20
-2.88972
11
4.76227
21
-2.89844
0
LINE
8
BLACK
6
CONTINUOUS
10
4.76227
20
-2.89844
11
4.75356
21
-2.90608
0
LINE
8
BLACK
6
CONTINUOUS
10
4.75356
20
-2.90608
11
4.74393
21
-2.91251
0
LINE
8
BLACK
6
CONTINUOUS
10
4.74393
20
-2.91251
11
4.73353
21
-2.91764
0
LINE
8
BLACK
6
CONTINUOUS
10
4.73353
20
-2.91764
11
4.72256
21
-2.92136
0
LINE
8
BLACK
6
CONTINUOUS
10
4.72256
20
-2.92136
11
4.7112
21
-2.92362
0
LINE
8
BLACK
6
CONTINUOUS
10
4.7112
20
-2.92362
11
4.69963
21
-2.92438
0
LINE
8
BLACK
6
CONTINUOUS
10
4.69963
20
-2.92438
11
4.68807
21
-2.92362
0
LINE
8
BLACK
6
CONTINUOUS
10
4.68807
20
-2.92362
11
4.67671
21
-2.92136
0
LINE
8
BLACK
6
CONTINUOUS
10
4.67671
20
-2.92136
11
4.66574
21
-2.91764
0
LINE
8
BLACK
6
CONTINUOUS
10
4.66574
20
-2.91764
11
4.65534
21
-2.91251
0
LINE
8
BLACK
6
CONTINUOUS
10
4.65534
20
-2.91251
11
4.64571
21
-2.90608
0
LINE
8
BLACK
6
CONTINUOUS
10
4.64571
20
-2.90608
11
4.637
21
-2.89844
0
LINE
8
BLACK
6
CONTINUOUS
10
4.637
20
-2.89844
11
4.62936
21
-2.88972
0
LINE
8
BLACK
6
CONTINUOUS
10
4.62936
20
-2.88972
11
4.62292
21
-2.88009
0
LINE
8
BLACK
6
CONTINUOUS
10
4.62292
20
-2.88009
11
4.6178
21
-2.8697
0
LINE
8
BLACK
6
CONTINUOUS
10
4.6178
20
-2.8697
11
4.61407
21
-2.85872
0
LINE
8
BLACK
6
CONTINUOUS
10
4.61407
20
-2.85872
11
4.61181
21
-2.84736
0
LINE
8
BLACK
6
CONTINUOUS
10
4.61181
20
-2.84736
11
4.61105
21
-2.8358
0
LINE
8
BLACK
6
CONTINUOUS
10
4.61105
20
-2.8358
11
4.61181
21
-2.82424
0
LINE
8
BLACK
6
CONTINUOUS
10
4.61181
20
-2.82424
11
4.61407
21
-2.81287
0
LINE
8
BLACK
6
CONTINUOUS
10
4.61407
20
-2.81287
11
4.6178
21
-2.8019
0
LINE
8
BLACK
6
CONTINUOUS
10
4.6178
20
-2.8019
11
4.62292
21
-2.79151
0
LINE
8
BLACK
6
CONTINUOUS
10
4.62292
20
-2.79151
11
4.62936
21
-2.78187
0
LINE
8
BLACK
6
CONTINUOUS
10
4.62936
20
-2.78187
11
4.637
21
-2.77316
0
LINE
8
BLACK
6
CONTINUOUS
10
4.637
20
-2.77316
11
4.64571
21
-2.76552
0
LINE
8
BLACK
6
CONTINUOUS
10
4.64571
20
-2.76552
11
4.65534
21
-2.75908
0
LINE
8
BLACK
6
CONTINUOUS
10
4.65534
20
-2.75908
11
4.66574
21
-2.75396
0
LINE
8
BLACK
6
CONTINUOUS
10
4.66574
20
-2.75396
11
4.67671
21
-2.75023
0
LINE
8
BLACK
6
CONTINUOUS
10
4.67671
20
-2.75023
11
4.68807
21
-2.74797
0
LINE
8
BLACK
6
CONTINUOUS
10
4.68807
20
-2.74797
11
4.69963
21
-2.74722
0
LINE
8
BLACK
6
CONTINUOUS
10
4.69963
20
-2.74722
11
4.7112
21
-2.74797
0
LINE
8
BLACK
6
CONTINUOUS
10
5.27748
20
-2.8777
11
5.28004
21
-2.8794
0
LINE
8
BLACK
6
CONTINUOUS
10
5.28004
20
-2.8794
11
5.28174
21
-2.88196
0
LINE
8
BLACK
6
CONTINUOUS
10
5.28174
20
-2.88196
11
5.28234
21
-2.88497
0
LINE
8
BLACK
6
CONTINUOUS
10
5.28234
20
-2.88497
11
5.28234
21
-2.90662
0
LINE
8
BLACK
6
CONTINUOUS
10
5.28234
20
-2.90662
11
5.28174
21
-2.90964
0
LINE
8
BLACK
6
CONTINUOUS
10
5.28174
20
-2.90964
11
5.28004
21
-2.91219
0
LINE
8
BLACK
6
CONTINUOUS
10
5.28004
20
-2.91219
11
5.27748
21
-2.9139
0
LINE
8
BLACK
6
CONTINUOUS
10
5.27748
20
-2.9139
11
5.27447
21
-2.9145
0
LINE
8
BLACK
6
CONTINUOUS
10
5.27447
20
-2.9145
11
5.25872
21
-2.9145
0
LINE
8
BLACK
6
CONTINUOUS
10
5.25872
20
-2.9145
11
5.25571
21
-2.9139
0
LINE
8
BLACK
6
CONTINUOUS
10
5.25571
20
-2.9139
11
5.25315
21
-2.91219
0
LINE
8
BLACK
6
CONTINUOUS
10
5.25315
20
-2.91219
11
5.25145
21
-2.90964
0
LINE
8
BLACK
6
CONTINUOUS
10
5.25145
20
-2.90964
11
5.25085
21
-2.90662
0
LINE
8
BLACK
6
CONTINUOUS
10
5.25085
20
-2.90662
11
5.25085
21
-2.88497
0
LINE
8
BLACK
6
CONTINUOUS
10
5.25085
20
-2.88497
11
5.25145
21
-2.88196
0
LINE
8
BLACK
6
CONTINUOUS
10
5.25145
20
-2.88196
11
5.25315
21
-2.8794
0
LINE
8
BLACK
6
CONTINUOUS
10
5.25315
20
-2.8794
11
5.25571
21
-2.8777
0
LINE
8
BLACK
6
CONTINUOUS
10
5.25571
20
-2.8777
11
5.25872
21
-2.8771
0
LINE
8
BLACK
6
CONTINUOUS
10
5.25872
20
-2.8771
11
5.27447
21
-2.8771
0
LINE
8
BLACK
6
CONTINUOUS
10
5.27447
20
-2.8771
11
5.27748
21
-2.8777
0
LINE
8
BLACK
6
CONTINUOUS
10
5.21252
20
-2.8777
11
5.21508
21
-2.8794
0
LINE
8
BLACK
6
CONTINUOUS
10
5.21508
20
-2.8794
11
5.21678
21
-2.88196
0
LINE
8
BLACK
6
CONTINUOUS
10
5.21678
20
-2.88196
11
5.21738
21
-2.88497
0
LINE
8
BLACK
6
CONTINUOUS
10
5.21738
20
-2.88497
11
5.21738
21
-2.90662
0
LINE
8
BLACK
6
CONTINUOUS
10
5.21738
20
-2.90662
11
5.21678
21
-2.90964
0
LINE
8
BLACK
6
CONTINUOUS
10
5.21678
20
-2.90964
11
5.21508
21
-2.91219
0
LINE
8
BLACK
6
CONTINUOUS
10
5.21508
20
-2.91219
11
5.21252
21
-2.9139
0
LINE
8
BLACK
6
CONTINUOUS
10
5.21252
20
-2.9139
11
5.20951
21
-2.9145
0
LINE
8
BLACK
6
CONTINUOUS
10
5.20951
20
-2.9145
11
5.19376
21
-2.9145
0
LINE
8
BLACK
6
CONTINUOUS
10
5.19376
20
-2.9145
11
5.19075
21
-2.9139
0
LINE
8
BLACK
6
CONTINUOUS
10
5.19075
20
-2.9139
11
5.18819
21
-2.91219
0
LINE
8
BLACK
6
CONTINUOUS
10
5.18819
20
-2.91219
11
5.18649
21
-2.90964
0
LINE
8
BLACK
6
CONTINUOUS
10
5.18649
20
-2.90964
11
5.18589
21
-2.90662
0
LINE
8
BLACK
6
CONTINUOUS
10
5.18589
20
-2.90662
11
5.18589
21
-2.88497
0
LINE
8
BLACK
6
CONTINUOUS
10
5.18589
20
-2.88497
11
5.18649
21
-2.88196
0
LINE
8
BLACK
6
CONTINUOUS
10
5.18649
20
-2.88196
11
5.18819
21
-2.8794
0
LINE
8
BLACK
6
CONTINUOUS
10
5.18819
20
-2.8794
11
5.19075
21
-2.8777
0
LINE
8
BLACK
6
CONTINUOUS
10
5.19075
20
-2.8777
11
5.19376
21
-2.8771
0
LINE
8
BLACK
6
CONTINUOUS
10
5.19376
20
-2.8771
11
5.20951
21
-2.8771
0
LINE
8
BLACK
6
CONTINUOUS
10
5.20951
20
-2.8771
11
5.21252
21
-2.8777
0
LINE
8
BLACK
6
CONTINUOUS
10
6.38691
20
-2.87195
11
6.38971
21
-2.87382
0
LINE
8
BLACK
6
CONTINUOUS
10
6.38971
20
-2.87382
11
6.39157
21
-2.87662
0
LINE
8
BLACK
6
CONTINUOUS
10
6.39157
20
-2.87662
11
6.39223
21
-2.87991
0
LINE
8
BLACK
6
CONTINUOUS
10
6.39223
20
-2.87991
11
6.39223
21
-2.90009
0
LINE
8
BLACK
6
CONTINUOUS
10
6.39223
20
-2.90009
11
6.39157
21
-2.90338
0
LINE
8
BLACK
6
CONTINUOUS
10
6.39157
20
-2.90338
11
6.38971
21
-2.90618
0
LINE
8
BLACK
6
CONTINUOUS
10
6.38971
20
-2.90618
11
6.38691
21
-2.90805
0
LINE
8
BLACK
6
CONTINUOUS
10
6.38691
20
-2.90805
11
6.38362
21
-2.9087
0
LINE
8
BLACK
6
CONTINUOUS
10
6.38362
20
-2.9087
11
6.36639
21
-2.9087
0
LINE
8
BLACK
6
CONTINUOUS
10
6.36639
20
-2.9087
11
6.3631
21
-2.90805
0
LINE
8
BLACK
6
CONTINUOUS
10
6.3631
20
-2.90805
11
6.3603
21
-2.90618
0
LINE
8
BLACK
6
CONTINUOUS
10
6.3603
20
-2.90618
11
6.35844
21
-2.90338
0
LINE
8
BLACK
6
CONTINUOUS
10
6.35844
20
-2.90338
11
6.35778
21
-2.90009
0
LINE
8
BLACK
6
CONTINUOUS
10
6.35778
20
-2.90009
11
6.35778
21
-2.87991
0
LINE
8
BLACK
6
CONTINUOUS
10
6.35778
20
-2.87991
11
6.35844
21
-2.87662
0
LINE
8
BLACK
6
CONTINUOUS
10
6.35844
20
-2.87662
11
6.3603
21
-2.87382
0
LINE
8
BLACK
6
CONTINUOUS
10
6.3603
20
-2.87382
11
6.3631
21
-2.87195
0
LINE
8
BLACK
6
CONTINUOUS
10
6.3631
20
-2.87195
11
6.36639
21
-2.8713
0
LINE
8
BLACK
6
CONTINUOUS
10
6.36639
20
-2.8713
11
6.38362
21
-2.8713
0
LINE
8
BLACK
6
CONTINUOUS
10
6.38362
20
-2.8713
11
6.38691
21
-2.87195
0
LINE
8
BLACK
6
CONTINUOUS
10
6.3249
20
-2.87195
11
6.3277
21
-2.87382
0
LINE
8
BLACK
6
CONTINUOUS
10
6.3277
20
-2.87382
11
6.32956
21
-2.87662
0
LINE
8
BLACK
6
CONTINUOUS
10
6.32956
20
-2.87662
11
6.33022
21
-2.87991
0
LINE
8
BLACK
6
CONTINUOUS
10
6.33022
20
-2.87991
11
6.33022
21
-2.90009
0
LINE
8
BLACK
6
CONTINUOUS
10
6.33022
20
-2.90009
11
6.32956
21
-2.90338
0
LINE
8
BLACK
6
CONTINUOUS
10
6.32956
20
-2.90338
11
6.3277
21
-2.90618
0
LINE
8
BLACK
6
CONTINUOUS
10
6.3277
20
-2.90618
11
6.3249
21
-2.90805
0
LINE
8
BLACK
6
CONTINUOUS
10
6.3249
20
-2.90805
11
6.32161
21
-2.9087
0
LINE
8
BLACK
6
CONTINUOUS
10
6.32161
20
-2.9087
11
6.30438
21
-2.9087
0
LINE
8
BLACK
6
CONTINUOUS
10
6.30438
20
-2.9087
11
6.30109
21
-2.90805
0
LINE
8
BLACK
6
CONTINUOUS
10
6.30109
20
-2.90805
11
6.29829
21
-2.90618
0
LINE
8
BLACK
6
CONTINUOUS
10
6.29829
20
-2.90618
11
6.29643
21
-2.90338
0
LINE
8
BLACK
6
CONTINUOUS
10
6.29643
20
-2.90338
11
6.29577
21
-2.90009
0
LINE
8
BLACK
6
CONTINUOUS
10
6.29577
20
-2.90009
11
6.29577
21
-2.87991
0
LINE
8
BLACK
6
CONTINUOUS
10
6.29577
20
-2.87991
11
6.29643
21
-2.87662
0
LINE
8
BLACK
6
CONTINUOUS
10
6.29643
20
-2.87662
11
6.29829
21
-2.87382
0
LINE
8
BLACK
6
CONTINUOUS
10
6.29829
20
-2.87382
11
6.30109
21
-2.87195
0
LINE
8
BLACK
6
CONTINUOUS
10
6.30109
20
-2.87195
11
6.30438
21
-2.8713
0
LINE
8
BLACK
6
CONTINUOUS
10
6.30438
20
-2.8713
11
6.32161
21
-2.8713
0
LINE
8
BLACK
6
CONTINUOUS
10
6.32161
20
-2.8713
11
6.3249
21
-2.87195
0
LINE
8
BLACK
6
CONTINUOUS
10
6.25937
20
-2.8719
11
6.26192
21
-2.87361
0
LINE
8
BLACK
6
CONTINUOUS
10
6.26192
20
-2.87361
11
6.26363
21
-2.87616
0
LINE
8
BLACK
6
CONTINUOUS
10
6.26363
20
-2.87616
11
6.26423
21
-2.87917
0
LINE
8
BLACK
6
CONTINUOUS
10
6.26423
20
-2.87917
11
6.26423
21
-2.90083
0
LINE
8
BLACK
6
CONTINUOUS
10
6.26423
20
-2.90083
11
6.26363
21
-2.90384
0
LINE
8
BLACK
6
CONTINUOUS
10
6.26363
20
-2.90384
11
6.26192
21
-2.90639
0
LINE
8
BLACK
6
CONTINUOUS
10
6.26192
20
-2.90639
11
6.25937
21
-2.9081
0
LINE
8
BLACK
6
CONTINUOUS
10
6.25937
20
-2.9081
11
6.25635
21
-2.9087
0
LINE
8
BLACK
6
CONTINUOUS
10
6.25635
20
-2.9087
11
6.24061
21
-2.9087
0
LINE
8
BLACK
6
CONTINUOUS
10
6.24061
20
-2.9087
11
6.23759
21
-2.9081
0
LINE
8
BLACK
6
CONTINUOUS
10
6.23759
20
-2.9081
11
6.23504
21
-2.90639
0
LINE
8
BLACK
6
CONTINUOUS
10
6.23504
20
-2.90639
11
6.23333
21
-2.90384
0
LINE
8
BLACK
6
CONTINUOUS
10
6.23333
20
-2.90384
11
6.23273
21
-2.90083
0
LINE
8
BLACK
6
CONTINUOUS
10
6.23273
20
-2.90083
11
6.23273
21
-2.87917
0
LINE
8
BLACK
6
CONTINUOUS
10
6.23273
20
-2.87917
11
6.23333
21
-2.87616
0
LINE
8
BLACK
6
CONTINUOUS
10
6.23333
20
-2.87616
11
6.23504
21
-2.87361
0
LINE
8
BLACK
6
CONTINUOUS
10
6.23504
20
-2.87361
11
6.23759
21
-2.8719
0
LINE
8
BLACK
6
CONTINUOUS
10
6.23759
20
-2.8719
11
6.24061
21
-2.8713
0
LINE
8
BLACK
6
CONTINUOUS
10
6.24061
20
-2.8713
11
6.25635
21
-2.8713
0
LINE
8
BLACK
6
CONTINUOUS
10
6.25635
20
-2.8713
11
6.25937
21
-2.8719
0
LINE
8
BLACK
6
CONTINUOUS
10
6.19441
20
-2.8719
11
6.19696
21
-2.87361
0
LINE
8
BLACK
6
CONTINUOUS
10
6.19696
20
-2.87361
11
6.19867
21
-2.87616
0
LINE
8
BLACK
6
CONTINUOUS
10
6.19867
20
-2.87616
11
6.19927
21
-2.87917
0
LINE
8
BLACK
6
CONTINUOUS
10
6.19927
20
-2.87917
11
6.19927
21
-2.90083
0
LINE
8
BLACK
6
CONTINUOUS
10
6.19927
20
-2.90083
11
6.19867
21
-2.90384
0
LINE
8
BLACK
6
CONTINUOUS
10
6.19867
20
-2.90384
11
6.19696
21
-2.90639
0
LINE
8
BLACK
6
CONTINUOUS
10
6.19696
20
-2.90639
11
6.19441
21
-2.9081
0
LINE
8
BLACK
6
CONTINUOUS
10
6.19441
20
-2.9081
11
6.19139
21
-2.9087
0
LINE
8
BLACK
6
CONTINUOUS
10
6.19139
20
-2.9087
11
6.17565
21
-2.9087
0
LINE
8
BLACK
6
CONTINUOUS
10
6.17565
20
-2.9087
11
6.17263
21
-2.9081
0
LINE
8
BLACK
6
CONTINUOUS
10
6.17263
20
-2.9081
11
6.17008
21
-2.90639
0
LINE
8
BLACK
6
CONTINUOUS
10
6.17008
20
-2.90639
11
6.16837
21
-2.90384
0
LINE
8
BLACK
6
CONTINUOUS
10
6.16837
20
-2.90384
11
6.16777
21
-2.90083
0
LINE
8
BLACK
6
CONTINUOUS
10
6.16777
20
-2.90083
11
6.16777
21
-2.87917
0
LINE
8
BLACK
6
CONTINUOUS
10
6.16777
20
-2.87917
11
6.16837
21
-2.87616
0
LINE
8
BLACK
6
CONTINUOUS
10
6.16837
20
-2.87616
11
6.17008
21
-2.87361
0
LINE
8
BLACK
6
CONTINUOUS
10
6.17008
20
-2.87361
11
6.17263
21
-2.8719
0
LINE
8
BLACK
6
CONTINUOUS
10
6.17263
20
-2.8719
11
6.17565
21
-2.8713
0
LINE
8
BLACK
6
CONTINUOUS
10
6.17565
20
-2.8713
11
6.19139
21
-2.8713
0
LINE
8
BLACK
6
CONTINUOUS
10
6.19139
20
-2.8713
11
6.19441
21
-2.8719
0
LINE
8
BLACK
6
CONTINUOUS
10
5.08768
20
-2.82639
11
5.09507
21
-2.82863
0
LINE
8
BLACK
6
CONTINUOUS
10
5.09507
20
-2.82863
11
5.10187
21
-2.83226
0
LINE
8
BLACK
6
CONTINUOUS
10
5.10187
20
-2.83226
11
5.10784
21
-2.83716
0
LINE
8
BLACK
6
CONTINUOUS
10
5.10784
20
-2.83716
11
5.11274
21
-2.84313
0
LINE
8
BLACK
6
CONTINUOUS
10
5.11274
20
-2.84313
11
5.11637
21
-2.84993
0
LINE
8
BLACK
6
CONTINUOUS
10
5.11637
20
-2.84993
11
5.11861
21
-2.85732
0
LINE
8
BLACK
6
CONTINUOUS
10
5.11861
20
-2.85732
11
5.11937
21
-2.865
0
LINE
8
BLACK
6
CONTINUOUS
10
5.11937
20
-2.865
11
5.11861
21
-2.87268
0
LINE
8
BLACK
6
CONTINUOUS
10
5.11861
20
-2.87268
11
5.11637
21
-2.88007
0
LINE
8
BLACK
6
CONTINUOUS
10
5.11637
20
-2.88007
11
5.11274
21
-2.88687
0
LINE
8
BLACK
6
CONTINUOUS
10
5.11274
20
-2.88687
11
5.10784
21
-2.89284
0
LINE
8
BLACK
6
CONTINUOUS
10
5.10784
20
-2.89284
11
5.10187
21
-2.89774
0
LINE
8
BLACK
6
CONTINUOUS
10
5.10187
20
-2.89774
11
5.09507
21
-2.90137
0
LINE
8
BLACK
6
CONTINUOUS
10
5.09507
20
-2.90137
11
5.08768
21
-2.90361
0
LINE
8
BLACK
6
CONTINUOUS
10
5.08768
20
-2.90361
11
5.08
21
-2.90437
0
LINE
8
BLACK
6
CONTINUOUS
10
5.08
20
-2.90437
11
5.07232
21
-2.90361
0
LINE
8
BLACK
6
CONTINUOUS
10
5.07232
20
-2.90361
11
5.06493
21
-2.90137
0
LINE
8
BLACK
6
CONTINUOUS
10
5.06493
20
-2.90137
11
5.05813
21
-2.89774
0
LINE
8
BLACK
6
CONTINUOUS
10
5.05813
20
-2.89774
11
5.05216
21
-2.89284
0
LINE
8
BLACK
6
CONTINUOUS
10
5.05216
20
-2.89284
11
5.04726
21
-2.88687
0
LINE
8
BLACK
6
CONTINUOUS
10
5.04726
20
-2.88687
11
5.04363
21
-2.88007
0
LINE
8
BLACK
6
CONTINUOUS
10
5.04363
20
-2.88007
11
5.04139
21
-2.87268
0
LINE
8
BLACK
6
CONTINUOUS
10
5.04139
20
-2.87268
11
5.04063
21
-2.865
0
LINE
8
BLACK
6
CONTINUOUS
10
5.04063
20
-2.865
11
5.04139
21
-2.85732
0
LINE
8
BLACK
6
CONTINUOUS
10
5.04139
20
-2.85732
11
5.04363
21
-2.84993
0
LINE
8
BLACK
6
CONTINUOUS
10
5.04363
20
-2.84993
11
5.04726
21
-2.84313
0
LINE
8
BLACK
6
CONTINUOUS
10
5.04726
20
-2.84313
11
5.05216
21
-2.83716
0
LINE
8
BLACK
6
CONTINUOUS
10
5.05216
20
-2.83716
11
5.05813
21
-2.83226
0
LINE
8
BLACK
6
CONTINUOUS
10
5.05813
20
-2.83226
11
5.06493
21
-2.82863
0
LINE
8
BLACK
6
CONTINUOUS
10
5.06493
20
-2.82863
11
5.07232
21
-2.82639
0
LINE
8
BLACK
6
CONTINUOUS
10
5.07232
20
-2.82639
11
5.08
21
-2.82563
0
LINE
8
BLACK
6
CONTINUOUS
10
5.08
20
-2.82563
11
5.08768
21
-2.82639
0
LINE
8
BLACK
6
CONTINUOUS
10
4.98768
20
-2.82639
11
4.99507
21
-2.82863
0
LINE
8
BLACK
6
CONTINUOUS
10
4.99507
20
-2.82863
11
5.00187
21
-2.83226
0
LINE
8
BLACK
6
CONTINUOUS
10
5.00187
20
-2.83226
11
5.00784
21
-2.83716
0
LINE
8
BLACK
6
CONTINUOUS
10
5.00784
20
-2.83716
11
5.01274
21
-2.84313
0
LINE
8
BLACK
6
CONTINUOUS
10
5.01274
20
-2.84313
11
5.01637
21
-2.84993
0
LINE
8
BLACK
6
CONTINUOUS
10
5.01637
20
-2.84993
11
5.01861
21
-2.85732
0
LINE
8
BLACK
6
CONTINUOUS
10
5.01861
20
-2.85732
11
5.01937
21
-2.865
0
LINE
8
BLACK
6
CONTINUOUS
10
5.01937
20
-2.865
11
5.01861
21
-2.87268
0
LINE
8
BLACK
6
CONTINUOUS
10
5.01861
20
-2.87268
11
5.01637
21
-2.88007
0
LINE
8
BLACK
6
CONTINUOUS
10
5.01637
20
-2.88007
11
5.01274
21
-2.88687
0
LINE
8
BLACK
6
CONTINUOUS
10
5.01274
20
-2.88687
11
5.00784
21
-2.89284
0
LINE
8
BLACK
6
CONTINUOUS
10
5.00784
20
-2.89284
11
5.00187
21
-2.89774
0
LINE
8
BLACK
6
CONTINUOUS
10
5.00187
20
-2.89774
11
4.99507
21
-2.90137
0
LINE
8
BLACK
6
CONTINUOUS
10
4.99507
20
-2.90137
11
4.98768
21
-2.90361
0
LINE
8
BLACK
6
CONTINUOUS
10
4.98768
20
-2.90361
11
4.98
21
-2.90437
0
LINE
8
BLACK
6
CONTINUOUS
10
4.98
20
-2.90437
11
4.97232
21
-2.90361
0
LINE
8
BLACK
6
CONTINUOUS
10
4.97232
20
-2.90361
11
4.96493
21
-2.90137
0
LINE
8
BLACK
6
CONTINUOUS
10
4.96493
20
-2.90137
11
4.95813
21
-2.89774
0
LINE
8
BLACK
6
CONTINUOUS
10
4.95813
20
-2.89774
11
4.95216
21
-2.89284
0
LINE
8
BLACK
6
CONTINUOUS
10
4.95216
20
-2.89284
11
4.94726
21
-2.88687
0
LINE
8
BLACK
6
CONTINUOUS
10
4.94726
20
-2.88687
11
4.94363
21
-2.88007
0
LINE
8
BLACK
6
CONTINUOUS
10
4.94363
20
-2.88007
11
4.94139
21
-2.87268
0
LINE
8
BLACK
6
CONTINUOUS
10
4.94139
20
-2.87268
11
4.94063
21
-2.865
0
LINE
8
BLACK
6
CONTINUOUS
10
4.94063
20
-2.865
11
4.94139
21
-2.85732
0
LINE
8
BLACK
6
CONTINUOUS
10
4.94139
20
-2.85732
11
4.94363
21
-2.84993
0
LINE
8
BLACK
6
CONTINUOUS
10
4.94363
20
-2.84993
11
4.94726
21
-2.84313
0
LINE
8
BLACK
6
CONTINUOUS
10
4.94726
20
-2.84313
11
4.95216
21
-2.83716
0
LINE
8
BLACK
6
CONTINUOUS
10
4.95216
20
-2.83716
11
4.95813
21
-2.83226
0
LINE
8
BLACK
6
CONTINUOUS
10
4.95813
20
-2.83226
11
4.96493
21
-2.82863
0
LINE
8
BLACK
6
CONTINUOUS
10
4.96493
20
-2.82863
11
4.97232
21
-2.82639
0
LINE
8
BLACK
6
CONTINUOUS
10
4.97232
20
-2.82639
11
4.98
21
-2.82563
0
LINE
8
BLACK
6
CONTINUOUS
10
4.98
20
-2.82563
11
4.98768
21
-2.82639
0
LINE
8
BLACK
6
CONTINUOUS
10
4.87338
20
-2.84544
11
4.87618
21
-2.84731
0
LINE
8
BLACK
6
CONTINUOUS
10
4.87618
20
-2.84731
11
4.87805
21
-2.8501
0
LINE
8
BLACK
6
CONTINUOUS
10
4.87805
20
-2.8501
11
4.8787
21
-2.8534
0
LINE
8
BLACK
6
CONTINUOUS
10
4.8787
20
-2.8534
11
4.8787
21
-2.87062
0
LINE
8
BLACK
6
CONTINUOUS
10
4.8787
20
-2.87062
11
4.87805
21
-2.87392
0
LINE
8
BLACK
6
CONTINUOUS
10
4.87805
20
-2.87392
11
4.87618
21
-2.87671
0
LINE
8
BLACK
6
CONTINUOUS
10
4.87618
20
-2.87671
11
4.87338
21
-2.87858
0
LINE
8
BLACK
6
CONTINUOUS
10
4.87338
20
-2.87858
11
4.87009
21
-2.87923
0
LINE
8
BLACK
6
CONTINUOUS
10
4.87009
20
-2.87923
11
4.84991
21
-2.87923
0
LINE
8
BLACK
6
CONTINUOUS
10
4.84991
20
-2.87923
11
4.84662
21
-2.87858
0
LINE
8
BLACK
6
CONTINUOUS
10
4.84662
20
-2.87858
11
4.84382
21
-2.87671
0
LINE
8
BLACK
6
CONTINUOUS
10
4.84382
20
-2.87671
11
4.84195
21
-2.87392
0
LINE
8
BLACK
6
CONTINUOUS
10
4.84195
20
-2.87392
11
4.8413
21
-2.87062
0
LINE
8
BLACK
6
CONTINUOUS
10
4.8413
20
-2.87062
11
4.8413
21
-2.8534
0
LINE
8
BLACK
6
CONTINUOUS
10
4.8413
20
-2.8534
11
4.84195
21
-2.8501
0
LINE
8
BLACK
6
CONTINUOUS
10
4.84195
20
-2.8501
11
4.84382
21
-2.84731
0
LINE
8
BLACK
6
CONTINUOUS
10
4.84382
20
-2.84731
11
4.84662
21
-2.84544
0
LINE
8
BLACK
6
CONTINUOUS
10
4.84662
20
-2.84544
11
4.84991
21
-2.84478
0
LINE
8
BLACK
6
CONTINUOUS
10
4.84991
20
-2.84478
11
4.87009
21
-2.84478
0
LINE
8
BLACK
6
CONTINUOUS
10
4.87009
20
-2.84478
11
4.87338
21
-2.84544
0
LINE
8
BLACK
6
CONTINUOUS
10
6.51195
20
-2.76752
11
6.51969
21
-2.77052
0
LINE
8
BLACK
6
CONTINUOUS
10
6.51969
20
-2.77052
11
6.52675
21
-2.77489
0
LINE
8
BLACK
6
CONTINUOUS
10
6.52675
20
-2.77489
11
6.53289
21
-2.78048
0
LINE
8
BLACK
6
CONTINUOUS
10
6.53289
20
-2.78048
11
6.53789
21
-2.78711
0
LINE
8
BLACK
6
CONTINUOUS
10
6.53789
20
-2.78711
11
6.5416
21
-2.79454
0
LINE
8
BLACK
6
CONTINUOUS
10
6.5416
20
-2.79454
11
6.54387
21
-2.80253
0
LINE
8
BLACK
6
CONTINUOUS
10
6.54387
20
-2.80253
11
6.54463
21
-2.8108
0
LINE
8
BLACK
6
CONTINUOUS
10
6.54463
20
-2.8108
11
6.54387
21
-2.81907
0
LINE
8
BLACK
6
CONTINUOUS
10
6.54387
20
-2.81907
11
6.5416
21
-2.82705
0
LINE
8
BLACK
6
CONTINUOUS
10
6.5416
20
-2.82705
11
6.53789
21
-2.83449
0
LINE
8
BLACK
6
CONTINUOUS
10
6.53789
20
-2.83449
11
6.53289
21
-2.84111
0
LINE
8
BLACK
6
CONTINUOUS
10
6.53289
20
-2.84111
11
6.52675
21
-2.84671
0
LINE
8
BLACK
6
CONTINUOUS
10
6.52675
20
-2.84671
11
6.51969
21
-2.85108
0
LINE
8
BLACK
6
CONTINUOUS
10
6.51969
20
-2.85108
11
6.51195
21
-2.85408
0
LINE
8
BLACK
6
CONTINUOUS
10
6.51195
20
-2.85408
11
6.50379
21
-2.85561
0
LINE
8
BLACK
6
CONTINUOUS
10
6.50379
20
-2.85561
11
6.49548
21
-2.85561
0
LINE
8
BLACK
6
CONTINUOUS
10
6.49548
20
-2.85561
11
6.48732
21
-2.85408
0
LINE
8
BLACK
6
CONTINUOUS
10
6.48732
20
-2.85408
11
6.47958
21
-2.85108
0
LINE
8
BLACK
6
CONTINUOUS
10
6.47958
20
-2.85108
11
6.47252
21
-2.84671
0
LINE
8
BLACK
6
CONTINUOUS
10
6.47252
20
-2.84671
11
6.46638
21
-2.84111
0
LINE
8
BLACK
6
CONTINUOUS
10
6.46638
20
-2.84111
11
6.46138
21
-2.83449
0
LINE
8
BLACK
6
CONTINUOUS
10
6.46138
20
-2.83449
11
6.45767
21
-2.82705
0
LINE
8
BLACK
6
CONTINUOUS
10
6.45767
20
-2.82705
11
6.4554
21
-2.81907
0
LINE
8
BLACK
6
CONTINUOUS
10
6.4554
20
-2.81907
11
6.45463
21
-2.8108
0
LINE
8
BLACK
6
CONTINUOUS
10
6.45463
20
-2.8108
11
6.4554
21
-2.80253
0
LINE
8
BLACK
6
CONTINUOUS
10
6.4554
20
-2.80253
11
6.45767
21
-2.79454
0
LINE
8
BLACK
6
CONTINUOUS
10
6.45767
20
-2.79454
11
6.46138
21
-2.78711
0
LINE
8
BLACK
6
CONTINUOUS
10
6.46138
20
-2.78711
11
6.46638
21
-2.78048
0
LINE
8
BLACK
6
CONTINUOUS
10
6.46638
20
-2.78048
11
6.47252
21
-2.77489
0
LINE
8
BLACK
6
CONTINUOUS
10
6.47252
20
-2.77489
11
6.47958
21
-2.77052
0
LINE
8
BLACK
6
CONTINUOUS
10
6.47958
20
-2.77052
11
6.48732
21
-2.76752
0
LINE
8
BLACK
6
CONTINUOUS
10
6.48732
20
-2.76752
11
6.49548
21
-2.76599
0
LINE
8
BLACK
6
CONTINUOUS
10
6.49548
20
-2.76599
11
6.50379
21
-2.76599
0
LINE
8
BLACK
6
CONTINUOUS
10
6.50379
20
-2.76599
11
6.51195
21
-2.76752
0
LINE
8
BLACK
6
CONTINUOUS
10
6.35998
20
-2.75397
11
6.36637
21
-2.75682
0
LINE
8
BLACK
6
CONTINUOUS
10
6.36637
20
-2.75682
11
6.37203
21
-2.76093
0
LINE
8
BLACK
6
CONTINUOUS
10
6.37203
20
-2.76093
11
6.37671
21
-2.76613
0
LINE
8
BLACK
6
CONTINUOUS
10
6.37671
20
-2.76613
11
6.38021
21
-2.77219
0
LINE
8
BLACK
6
CONTINUOUS
10
6.38021
20
-2.77219
11
6.38237
21
-2.77884
0
LINE
8
BLACK
6
CONTINUOUS
10
6.38237
20
-2.77884
11
6.3831
21
-2.7858
0
LINE
8
BLACK
6
CONTINUOUS
10
6.3831
20
-2.7858
11
6.38237
21
-2.79276
0
LINE
8
BLACK
6
CONTINUOUS
10
6.38237
20
-2.79276
11
6.38021
21
-2.79941
0
LINE
8
BLACK
6
CONTINUOUS
10
6.38021
20
-2.79941
11
6.37671
21
-2.80547
0
LINE
8
BLACK
6
CONTINUOUS
10
6.37671
20
-2.80547
11
6.37203
21
-2.81067
0
LINE
8
BLACK
6
CONTINUOUS
10
6.37203
20
-2.81067
11
6.36637
21
-2.81478
0
LINE
8
BLACK
6
CONTINUOUS
10
6.36637
20
-2.81478
11
6.35998
21
-2.81762
0
LINE
8
BLACK
6
CONTINUOUS
10
6.35998
20
-2.81762
11
6.35313
21
-2.81908
0
LINE
8
BLACK
6
CONTINUOUS
10
6.35313
20
-2.81908
11
6.34614
21
-2.81908
0
LINE
8
BLACK
6
CONTINUOUS
10
6.34614
20
-2.81908
11
6.33929
21
-2.81762
0
LINE
8
BLACK
6
CONTINUOUS
10
6.33929
20
-2.81762
11
6.3329
21
-2.81478
0
LINE
8
BLACK
6
CONTINUOUS
10
6.3329
20
-2.81478
11
6.32724
21
-2.81067
0
LINE
8
BLACK
6
CONTINUOUS
10
6.32724
20
-2.81067
11
6.32256
21
-2.80547
0
LINE
8
BLACK
6
CONTINUOUS
10
6.32256
20
-2.80547
11
6.31906
21
-2.79941
0
LINE
8
BLACK
6
CONTINUOUS
10
6.31906
20
-2.79941
11
6.3169
21
-2.79276
0
LINE
8
BLACK
6
CONTINUOUS
10
6.3169
20
-2.79276
11
6.31617
21
-2.7858
0
LINE
8
BLACK
6
CONTINUOUS
10
6.31617
20
-2.7858
11
6.3169
21
-2.77884
0
LINE
8
BLACK
6
CONTINUOUS
10
6.3169
20
-2.77884
11
6.31906
21
-2.77219
0
LINE
8
BLACK
6
CONTINUOUS
10
6.31906
20
-2.77219
11
6.32256
21
-2.76613
0
LINE
8
BLACK
6
CONTINUOUS
10
6.32256
20
-2.76613
11
6.32724
21
-2.76093
0
LINE
8
BLACK
6
CONTINUOUS
10
6.32724
20
-2.76093
11
6.3329
21
-2.75682
0
LINE
8
BLACK
6
CONTINUOUS
10
6.3329
20
-2.75682
11
6.33929
21
-2.75397
0
LINE
8
BLACK
6
CONTINUOUS
10
6.33929
20
-2.75397
11
6.34614
21
-2.75252
0
LINE
8
BLACK
6
CONTINUOUS
10
6.34614
20
-2.75252
11
6.35313
21
-2.75252
0
LINE
8
BLACK
6
CONTINUOUS
10
6.35313
20
-2.75252
11
6.35998
21
-2.75397
0
LINE
8
BLACK
6
CONTINUOUS
10
6.25998
20
-2.75397
11
6.26637
21
-2.75682
0
LINE
8
BLACK
6
CONTINUOUS
10
6.26637
20
-2.75682
11
6.27203
21
-2.76093
0
LINE
8
BLACK
6
CONTINUOUS
10
6.27203
20
-2.76093
11
6.27671
21
-2.76613
0
LINE
8
BLACK
6
CONTINUOUS
10
6.27671
20
-2.76613
11
6.28021
21
-2.77219
0
LINE
8
BLACK
6
CONTINUOUS
10
6.28021
20
-2.77219
11
6.28237
21
-2.77884
0
LINE
8
BLACK
6
CONTINUOUS
10
6.28237
20
-2.77884
11
6.2831
21
-2.7858
0
LINE
8
BLACK
6
CONTINUOUS
10
6.2831
20
-2.7858
11
6.28237
21
-2.79276
0
LINE
8
BLACK
6
CONTINUOUS
10
6.28237
20
-2.79276
11
6.28021
21
-2.79941
0
LINE
8
BLACK
6
CONTINUOUS
10
6.28021
20
-2.79941
11
6.27671
21
-2.80547
0
LINE
8
BLACK
6
CONTINUOUS
10
6.27671
20
-2.80547
11
6.27203
21
-2.81067
0
LINE
8
BLACK
6
CONTINUOUS
10
6.27203
20
-2.81067
11
6.26637
21
-2.81478
0
LINE
8
BLACK
6
CONTINUOUS
10
6.26637
20
-2.81478
11
6.25998
21
-2.81762
0
LINE
8
BLACK
6
CONTINUOUS
10
6.25998
20
-2.81762
11
6.25313
21
-2.81908
0
LINE
8
BLACK
6
CONTINUOUS
10
6.25313
20
-2.81908
11
6.24614
21
-2.81908
0
LINE
8
BLACK
6
CONTINUOUS
10
6.24614
20
-2.81908
11
6.23929
21
-2.81762
0
LINE
8
BLACK
6
CONTINUOUS
10
6.23929
20
-2.81762
11
6.2329
21
-2.81478
0
LINE
8
BLACK
6
CONTINUOUS
10
6.2329
20
-2.81478
11
6.22724
21
-2.81067
0
LINE
8
BLACK
6
CONTINUOUS
10
6.22724
20
-2.81067
11
6.22256
21
-2.80547
0
LINE
8
BLACK
6
CONTINUOUS
10
6.22256
20
-2.80547
11
6.21906
21
-2.79941
0
LINE
8
BLACK
6
CONTINUOUS
10
6.21906
20
-2.79941
11
6.2169
21
-2.79276
0
LINE
8
BLACK
6
CONTINUOUS
10
6.2169
20
-2.79276
11
6.21617
21
-2.7858
0
LINE
8
BLACK
6
CONTINUOUS
10
6.21617
20
-2.7858
11
6.2169
21
-2.77884
0
LINE
8
BLACK
6
CONTINUOUS
10
6.2169
20
-2.77884
11
6.21906
21
-2.77219
0
LINE
8
BLACK
6
CONTINUOUS
10
6.21906
20
-2.77219
11
6.22256
21
-2.76613
0
LINE
8
BLACK
6
CONTINUOUS
10
6.22256
20
-2.76613
11
6.22724
21
-2.76093
0
LINE
8
BLACK
6
CONTINUOUS
10
6.22724
20
-2.76093
11
6.2329
21
-2.75682
0
LINE
8
BLACK
6
CONTINUOUS
10
6.2329
20
-2.75682
11
6.23929
21
-2.75397
0
LINE
8
BLACK
6
CONTINUOUS
10
6.23929
20
-2.75397
11
6.24614
21
-2.75252
0
LINE
8
BLACK
6
CONTINUOUS
10
6.24614
20
-2.75252
11
6.25313
21
-2.75252
0
LINE
8
BLACK
6
CONTINUOUS
10
6.25313
20
-2.75252
11
6.25998
21
-2.75397
0
LINE
8
BLACK
6
CONTINUOUS
10
6.15998
20
-2.75397
11
6.16637
21
-2.75682
0
LINE
8
BLACK
6
CONTINUOUS
10
6.16637
20
-2.75682
11
6.17203
21
-2.76093
0
LINE
8
BLACK
6
CONTINUOUS
10
6.17203
20
-2.76093
11
6.17671
21
-2.76613
0
LINE
8
BLACK
6
CONTINUOUS
10
6.17671
20
-2.76613
11
6.18021
21
-2.77219
0
LINE
8
BLACK
6
CONTINUOUS
10
6.18021
20
-2.77219
11
6.18237
21
-2.77884
0
LINE
8
BLACK
6
CONTINUOUS
10
6.18237
20
-2.77884
11
6.1831
21
-2.7858
0
LINE
8
BLACK
6
CONTINUOUS
10
6.1831
20
-2.7858
11
6.18237
21
-2.79276
0
LINE
8
BLACK
6
CONTINUOUS
10
6.18237
20
-2.79276
11
6.18021
21
-2.79941
0
LINE
8
BLACK
6
CONTINUOUS
10
6.18021
20
-2.79941
11
6.17671
21
-2.80547
0
LINE
8
BLACK
6
CONTINUOUS
10
6.17671
20
-2.80547
11
6.17203
21
-2.81067
0
LINE
8
BLACK
6
CONTINUOUS
10
6.17203
20
-2.81067
11
6.16637
21
-2.81478
0
LINE
8
BLACK
6
CONTINUOUS
10
6.16637
20
-2.81478
11
6.15998
21
-2.81762
0
LINE
8
BLACK
6
CONTINUOUS
10
6.15998
20
-2.81762
11
6.15313
21
-2.81908
0
LINE
8
BLACK
6
CONTINUOUS
10
6.15313
20
-2.81908
11
6.14614
21
-2.81908
0
LINE
8
BLACK
6
CONTINUOUS
10
6.14614
20
-2.81908
11
6.13929
21
-2.81762
0
LINE
8
BLACK
6
CONTINUOUS
10
6.13929
20
-2.81762
11
6.1329
21
-2.81478
0
LINE
8
BLACK
6
CONTINUOUS
10
6.1329
20
-2.81478
11
6.12724
21
-2.81067
0
LINE
8
BLACK
6
CONTINUOUS
10
6.12724
20
-2.81067
11
6.12256
21
-2.80547
0
LINE
8
BLACK
6
CONTINUOUS
10
6.12256
20
-2.80547
11
6.11906
21
-2.79941
0
LINE
8
BLACK
6
CONTINUOUS
10
6.11906
20
-2.79941
11
6.1169
21
-2.79276
0
LINE
8
BLACK
6
CONTINUOUS
10
6.1169
20
-2.79276
11
6.11617
21
-2.7858
0
LINE
8
BLACK
6
CONTINUOUS
10
6.11617
20
-2.7858
11
6.1169
21
-2.77884
0
LINE
8
BLACK
6
CONTINUOUS
10
6.1169
20
-2.77884
11
6.11906
21
-2.77219
0
LINE
8
BLACK
6
CONTINUOUS
10
6.11906
20
-2.77219
11
6.12256
21
-2.76613
0
LINE
8
BLACK
6
CONTINUOUS
10
6.12256
20
-2.76613
11
6.12724
21
-2.76093
0
LINE
8
BLACK
6
CONTINUOUS
10
6.12724
20
-2.76093
11
6.1329
21
-2.75682
0
LINE
8
BLACK
6
CONTINUOUS
10
6.1329
20
-2.75682
11
6.13929
21
-2.75397
0
LINE
8
BLACK
6
CONTINUOUS
10
6.13929
20
-2.75397
11
6.14614
21
-2.75252
0
LINE
8
BLACK
6
CONTINUOUS
10
6.14614
20
-2.75252
11
6.15313
21
-2.75252
0
LINE
8
BLACK
6
CONTINUOUS
10
6.15313
20
-2.75252
11
6.15998
21
-2.75397
0
LINE
8
BLACK
6
CONTINUOUS
10
6.05998
20
-2.75397
11
6.06637
21
-2.75682
0
LINE
8
BLACK
6
CONTINUOUS
10
6.06637
20
-2.75682
11
6.07203
21
-2.76093
0
LINE
8
BLACK
6
CONTINUOUS
10
6.07203
20
-2.76093
11
6.07671
21
-2.76613
0
LINE
8
BLACK
6
CONTINUOUS
10
6.07671
20
-2.76613
11
6.08021
21
-2.77219
0
LINE
8
BLACK
6
CONTINUOUS
10
6.08021
20
-2.77219
11
6.08237
21
-2.77884
0
LINE
8
BLACK
6
CONTINUOUS
10
6.08237
20
-2.77884
11
6.0831
21
-2.7858
0
LINE
8
BLACK
6
CONTINUOUS
10
6.0831
20
-2.7858
11
6.08237
21
-2.79276
0
LINE
8
BLACK
6
CONTINUOUS
10
6.08237
20
-2.79276
11
6.08021
21
-2.79941
0
LINE
8
BLACK
6
CONTINUOUS
10
6.08021
20
-2.79941
11
6.07671
21
-2.80547
0
LINE
8
BLACK
6
CONTINUOUS
10
6.07671
20
-2.80547
11
6.07203
21
-2.81067
0
LINE
8
BLACK
6
CONTINUOUS
10
6.07203
20
-2.81067
11
6.06637
21
-2.81478
0
LINE
8
BLACK
6
CONTINUOUS
10
6.06637
20
-2.81478
11
6.05998
21
-2.81762
0
LINE
8
BLACK
6
CONTINUOUS
10
6.05998
20
-2.81762
11
6.05313
21
-2.81908
0
LINE
8
BLACK
6
CONTINUOUS
10
6.05313
20
-2.81908
11
6.04614
21
-2.81908
0
LINE
8
BLACK
6
CONTINUOUS
10
6.04614
20
-2.81908
11
6.03929
21
-2.81762
0
LINE
8
BLACK
6
CONTINUOUS
10
6.03929
20
-2.81762
11
6.0329
21
-2.81478
0
LINE
8
BLACK
6
CONTINUOUS
10
6.0329
20
-2.81478
11
6.02724
21
-2.81067
0
LINE
8
BLACK
6
CONTINUOUS
10
6.02724
20
-2.81067
11
6.02256
21
-2.80547
0
LINE
8
BLACK
6
CONTINUOUS
10
6.02256
20
-2.80547
11
6.01906
21
-2.79941
0
LINE
8
BLACK
6
CONTINUOUS
10
6.01906
20
-2.79941
11
6.0169
21
-2.79276
0
LINE
8
BLACK
6
CONTINUOUS
10
6.0169
20
-2.79276
11
6.01617
21
-2.7858
0
LINE
8
BLACK
6
CONTINUOUS
10
6.01617
20
-2.7858
11
6.0169
21
-2.77884
0
LINE
8
BLACK
6
CONTINUOUS
10
6.0169
20
-2.77884
11
6.01906
21
-2.77219
0
LINE
8
BLACK
6
CONTINUOUS
10
6.01906
20
-2.77219
11
6.02256
21
-2.76613
0
LINE
8
BLACK
6
CONTINUOUS
10
6.02256
20
-2.76613
11
6.02724
21
-2.76093
0
LINE
8
BLACK
6
CONTINUOUS
10
6.02724
20
-2.76093
11
6.0329
21
-2.75682
0
LINE
8
BLACK
6
CONTINUOUS
10
6.0329
20
-2.75682
11
6.03929
21
-2.75397
0
LINE
8
BLACK
6
CONTINUOUS
10
6.03929
20
-2.75397
11
6.04614
21
-2.75252
0
LINE
8
BLACK
6
CONTINUOUS
10
6.04614
20
-2.75252
11
6.05313
21
-2.75252
0
LINE
8
BLACK
6
CONTINUOUS
10
6.05313
20
-2.75252
11
6.05998
21
-2.75397
0
LINE
8
BLACK
6
CONTINUOUS
10
5.95998
20
-2.75397
11
5.96637
21
-2.75682
0
LINE
8
BLACK
6
CONTINUOUS
10
5.96637
20
-2.75682
11
5.97203
21
-2.76093
0
LINE
8
BLACK
6
CONTINUOUS
10
5.97203
20
-2.76093
11
5.97671
21
-2.76613
0
LINE
8
BLACK
6
CONTINUOUS
10
5.97671
20
-2.76613
11
5.98021
21
-2.77219
0
LINE
8
BLACK
6
CONTINUOUS
10
5.98021
20
-2.77219
11
5.98237
21
-2.77884
0
LINE
8
BLACK
6
CONTINUOUS
10
5.98237
20
-2.77884
11
5.9831
21
-2.7858
0
LINE
8
BLACK
6
CONTINUOUS
10
5.9831
20
-2.7858
11
5.98237
21
-2.79276
0
LINE
8
BLACK
6
CONTINUOUS
10
5.98237
20
-2.79276
11
5.98021
21
-2.79941
0
LINE
8
BLACK
6
CONTINUOUS
10
5.98021
20
-2.79941
11
5.97671
21
-2.80547
0
LINE
8
BLACK
6
CONTINUOUS
10
5.97671
20
-2.80547
11
5.97203
21
-2.81067
0
LINE
8
BLACK
6
CONTINUOUS
10
5.97203
20
-2.81067
11
5.96637
21
-2.81478
0
LINE
8
BLACK
6
CONTINUOUS
10
5.96637
20
-2.81478
11
5.95998
21
-2.81762
0
LINE
8
BLACK
6
CONTINUOUS
10
5.95998
20
-2.81762
11
5.95313
21
-2.81908
0
LINE
8
BLACK
6
CONTINUOUS
10
5.95313
20
-2.81908
11
5.94614
21
-2.81908
0
LINE
8
BLACK
6
CONTINUOUS
10
5.94614
20
-2.81908
11
5.93929
21
-2.81762
0
LINE
8
BLACK
6
CONTINUOUS
10
5.93929
20
-2.81762
11
5.9329
21
-2.81478
0
LINE
8
BLACK
6
CONTINUOUS
10
5.9329
20
-2.81478
11
5.92724
21
-2.81067
0
LINE
8
BLACK
6
CONTINUOUS
10
5.92724
20
-2.81067
11
5.92256
21
-2.80547
0
LINE
8
BLACK
6
CONTINUOUS
10
5.92256
20
-2.80547
11
5.91906
21
-2.79941
0
LINE
8
BLACK
6
CONTINUOUS
10
5.91906
20
-2.79941
11
5.9169
21
-2.79276
0
LINE
8
BLACK
6
CONTINUOUS
10
5.9169
20
-2.79276
11
5.91617
21
-2.7858
0
LINE
8
BLACK
6
CONTINUOUS
10
5.91617
20
-2.7858
11
5.9169
21
-2.77884
0
LINE
8
BLACK
6
CONTINUOUS
10
5.9169
20
-2.77884
11
5.91906
21
-2.77219
0
LINE
8
BLACK
6
CONTINUOUS
10
5.91906
20
-2.77219
11
5.92256
21
-2.76613
0
LINE
8
BLACK
6
CONTINUOUS
10
5.92256
20
-2.76613
11
5.92724
21
-2.76093
0
LINE
8
BLACK
6
CONTINUOUS
10
5.92724
20
-2.76093
11
5.9329
21
-2.75682
0
LINE
8
BLACK
6
CONTINUOUS
10
5.9329
20
-2.75682
11
5.93929
21
-2.75397
0
LINE
8
BLACK
6
CONTINUOUS
10
5.93929
20
-2.75397
11
5.94614
21
-2.75252
0
LINE
8
BLACK
6
CONTINUOUS
10
5.94614
20
-2.75252
11
5.95313
21
-2.75252
0
LINE
8
BLACK
6
CONTINUOUS
10
5.95313
20
-2.75252
11
5.95998
21
-2.75397
0
LINE
8
BLACK
6
CONTINUOUS
10
5.85998
20
-2.75397
11
5.86637
21
-2.75682
0
LINE
8
BLACK
6
CONTINUOUS
10
5.86637
20
-2.75682
11
5.87203
21
-2.76093
0
LINE
8
BLACK
6
CONTINUOUS
10
5.87203
20
-2.76093
11
5.87671
21
-2.76613
0
LINE
8
BLACK
6
CONTINUOUS
10
5.87671
20
-2.76613
11
5.88021
21
-2.77219
0
LINE
8
BLACK
6
CONTINUOUS
10
5.88021
20
-2.77219
11
5.88237
21
-2.77884
0
LINE
8
BLACK
6
CONTINUOUS
10
5.88237
20
-2.77884
11
5.8831
21
-2.7858
0
LINE
8
BLACK
6
CONTINUOUS
10
5.8831
20
-2.7858
11
5.88237
21
-2.79276
0
LINE
8
BLACK
6
CONTINUOUS
10
5.88237
20
-2.79276
11
5.88021
21
-2.79941
0
LINE
8
BLACK
6
CONTINUOUS
10
5.88021
20
-2.79941
11
5.87671
21
-2.80547
0
LINE
8
BLACK
6
CONTINUOUS
10
5.87671
20
-2.80547
11
5.87203
21
-2.81067
0
LINE
8
BLACK
6
CONTINUOUS
10
5.87203
20
-2.81067
11
5.86637
21
-2.81478
0
LINE
8
BLACK
6
CONTINUOUS
10
5.86637
20
-2.81478
11
5.85998
21
-2.81762
0
LINE
8
BLACK
6
CONTINUOUS
10
5.85998
20
-2.81762
11
5.85313
21
-2.81908
0
LINE
8
BLACK
6
CONTINUOUS
10
5.85313
20
-2.81908
11
5.84614
21
-2.81908
0
LINE
8
BLACK
6
CONTINUOUS
10
5.84614
20
-2.81908
11
5.83929
21
-2.81762
0
LINE
8
BLACK
6
CONTINUOUS
10
5.83929
20
-2.81762
11
5.8329
21
-2.81478
0
LINE
8
BLACK
6
CONTINUOUS
10
5.8329
20
-2.81478
11
5.82724
21
-2.81067
0
LINE
8
BLACK
6
CONTINUOUS
10
5.82724
20
-2.81067
11
5.82256
21
-2.80547
0
LINE
8
BLACK
6
CONTINUOUS
10
5.82256
20
-2.80547
11
5.81906
21
-2.79941
0
LINE
8
BLACK
6
CONTINUOUS
10
5.81906
20
-2.79941
11
5.8169
21
-2.79276
0
LINE
8
BLACK
6
CONTINUOUS
10
5.8169
20
-2.79276
11
5.81617
21
-2.7858
0
LINE
8
BLACK
6
CONTINUOUS
10
5.81617
20
-2.7858
11
5.8169
21
-2.77884
0
LINE
8
BLACK
6
CONTINUOUS
10
5.8169
20
-2.77884
11
5.81906
21
-2.77219
0
LINE
8
BLACK
6
CONTINUOUS
10
5.81906
20
-2.77219
11
5.82256
21
-2.76613
0
LINE
8
BLACK
6
CONTINUOUS
10
5.82256
20
-2.76613
11
5.82724
21
-2.76093
0
LINE
8
BLACK
6
CONTINUOUS
10
5.82724
20
-2.76093
11
5.8329
21
-2.75682
0
LINE
8
BLACK
6
CONTINUOUS
10
5.8329
20
-2.75682
11
5.83929
21
-2.75397
0
LINE
8
BLACK
6
CONTINUOUS
10
5.83929
20
-2.75397
11
5.84614
21
-2.75252
0
LINE
8
BLACK
6
CONTINUOUS
10
5.84614
20
-2.75252
11
5.85313
21
-2.75252
0
LINE
8
BLACK
6
CONTINUOUS
10
5.85313
20
-2.75252
11
5.85998
21
-2.75397
0
LINE
8
BLACK
6
CONTINUOUS
10
5.75998
20
-2.75397
11
5.76637
21
-2.75682
0
LINE
8
BLACK
6
CONTINUOUS
10
5.76637
20
-2.75682
11
5.77203
21
-2.76093
0
LINE
8
BLACK
6
CONTINUOUS
10
5.77203
20
-2.76093
11
5.77671
21
-2.76613
0
LINE
8
BLACK
6
CONTINUOUS
10
5.77671
20
-2.76613
11
5.78021
21
-2.77219
0
LINE
8
BLACK
6
CONTINUOUS
10
5.78021
20
-2.77219
11
5.78237
21
-2.77884
0
LINE
8
BLACK
6
CONTINUOUS
10
5.78237
20
-2.77884
11
5.7831
21
-2.7858
0
LINE
8
BLACK
6
CONTINUOUS
10
5.7831
20
-2.7858
11
5.78237
21
-2.79276
0
LINE
8
BLACK
6
CONTINUOUS
10
5.78237
20
-2.79276
11
5.78021
21
-2.79941
0
LINE
8
BLACK
6
CONTINUOUS
10
5.78021
20
-2.79941
11
5.77671
21
-2.80547
0
LINE
8
BLACK
6
CONTINUOUS
10
5.77671
20
-2.80547
11
5.77203
21
-2.81067
0
LINE
8
BLACK
6
CONTINUOUS
10
5.77203
20
-2.81067
11
5.76637
21
-2.81478
0
LINE
8
BLACK
6
CONTINUOUS
10
5.76637
20
-2.81478
11
5.75998
21
-2.81762
0
LINE
8
BLACK
6
CONTINUOUS
10
5.75998
20
-2.81762
11
5.75313
21
-2.81908
0
LINE
8
BLACK
6
CONTINUOUS
10
5.75313
20
-2.81908
11
5.74614
21
-2.81908
0
LINE
8
BLACK
6
CONTINUOUS
10
5.74614
20
-2.81908
11
5.73929
21
-2.81762
0
LINE
8
BLACK
6
CONTINUOUS
10
5.73929
20
-2.81762
11
5.7329
21
-2.81478
0
LINE
8
BLACK
6
CONTINUOUS
10
5.7329
20
-2.81478
11
5.72724
21
-2.81067
0
LINE
8
BLACK
6
CONTINUOUS
10
5.72724
20
-2.81067
11
5.72256
21
-2.80547
0
LINE
8
BLACK
6
CONTINUOUS
10
5.72256
20
-2.80547
11
5.71906
21
-2.79941
0
LINE
8
BLACK
6
CONTINUOUS
10
5.71906
20
-2.79941
11
5.7169
21
-2.79276
0
LINE
8
BLACK
6
CONTINUOUS
10
5.7169
20
-2.79276
11
5.71617
21
-2.7858
0
LINE
8
BLACK
6
CONTINUOUS
10
5.71617
20
-2.7858
11
5.7169
21
-2.77884
0
LINE
8
BLACK
6
CONTINUOUS
10
5.7169
20
-2.77884
11
5.71906
21
-2.77219
0
LINE
8
BLACK
6
CONTINUOUS
10
5.71906
20
-2.77219
11
5.72256
21
-2.76613
0
LINE
8
BLACK
6
CONTINUOUS
10
5.72256
20
-2.76613
11
5.72724
21
-2.76093
0
LINE
8
BLACK
6
CONTINUOUS
10
5.72724
20
-2.76093
11
5.7329
21
-2.75682
0
LINE
8
BLACK
6
CONTINUOUS
10
5.7329
20
-2.75682
11
5.73929
21
-2.75397
0
LINE
8
BLACK
6
CONTINUOUS
10
5.73929
20
-2.75397
11
5.74614
21
-2.75252
0
LINE
8
BLACK
6
CONTINUOUS
10
5.74614
20
-2.75252
11
5.75313
21
-2.75252
0
LINE
8
BLACK
6
CONTINUOUS
10
5.75313
20
-2.75252
11
5.75998
21
-2.75397
0
LINE
8
BLACK
6
CONTINUOUS
10
5.65998
20
-2.75397
11
5.66637
21
-2.75682
0
LINE
8
BLACK
6
CONTINUOUS
10
5.66637
20
-2.75682
11
5.67203
21
-2.76093
0
LINE
8
BLACK
6
CONTINUOUS
10
5.67203
20
-2.76093
11
5.67671
21
-2.76613
0
LINE
8
BLACK
6
CONTINUOUS
10
5.67671
20
-2.76613
11
5.68021
21
-2.77219
0
LINE
8
BLACK
6
CONTINUOUS
10
5.68021
20
-2.77219
11
5.68237
21
-2.77884
0
LINE
8
BLACK
6
CONTINUOUS
10
5.68237
20
-2.77884
11
5.6831
21
-2.7858
0
LINE
8
BLACK
6
CONTINUOUS
10
5.6831
20
-2.7858
11
5.68237
21
-2.79276
0
LINE
8
BLACK
6
CONTINUOUS
10
5.68237
20
-2.79276
11
5.68021
21
-2.79941
0
LINE
8
BLACK
6
CONTINUOUS
10
5.68021
20
-2.79941
11
5.67671
21
-2.80547
0
LINE
8
BLACK
6
CONTINUOUS
10
5.67671
20
-2.80547
11
5.67203
21
-2.81067
0
LINE
8
BLACK
6
CONTINUOUS
10
5.67203
20
-2.81067
11
5.66637
21
-2.81478
0
LINE
8
BLACK
6
CONTINUOUS
10
5.66637
20
-2.81478
11
5.65998
21
-2.81762
0
LINE
8
BLACK
6
CONTINUOUS
10
5.65998
20
-2.81762
11
5.65313
21
-2.81908
0
LINE
8
BLACK
6
CONTINUOUS
10
5.65313
20
-2.81908
11
5.64614
21
-2.81908
0
LINE
8
BLACK
6
CONTINUOUS
10
5.64614
20
-2.81908
11
5.63929
21
-2.81762
0
LINE
8
BLACK
6
CONTINUOUS
10
5.63929
20
-2.81762
11
5.6329
21
-2.81478
0
LINE
8
BLACK
6
CONTINUOUS
10
5.6329
20
-2.81478
11
5.62724
21
-2.81067
0
LINE
8
BLACK
6
CONTINUOUS
10
5.62724
20
-2.81067
11
5.62256
21
-2.80547
0
LINE
8
BLACK
6
CONTINUOUS
10
5.62256
20
-2.80547
11
5.61906
21
-2.79941
0
LINE
8
BLACK
6
CONTINUOUS
10
5.61906
20
-2.79941
11
5.6169
21
-2.79276
0
LINE
8
BLACK
6
CONTINUOUS
10
5.6169
20
-2.79276
11
5.61617
21
-2.7858
0
LINE
8
BLACK
6
CONTINUOUS
10
5.61617
20
-2.7858
11
5.6169
21
-2.77884
0
LINE
8
BLACK
6
CONTINUOUS
10
5.6169
20
-2.77884
11
5.61906
21
-2.77219
0
LINE
8
BLACK
6
CONTINUOUS
10
5.61906
20
-2.77219
11
5.62256
21
-2.76613
0
LINE
8
BLACK
6
CONTINUOUS
10
5.62256
20
-2.76613
11
5.62724
21
-2.76093
0
LINE
8
BLACK
6
CONTINUOUS
10
5.62724
20
-2.76093
11
5.6329
21
-2.75682
0
LINE
8
BLACK
6
CONTINUOUS
10
5.6329
20
-2.75682
11
5.63929
21
-2.75397
0
LINE
8
BLACK
6
CONTINUOUS
10
5.63929
20
-2.75397
11
5.64614
21
-2.75252
0
LINE
8
BLACK
6
CONTINUOUS
10
5.64614
20
-2.75252
11
5.65313
21
-2.75252
0
LINE
8
BLACK
6
CONTINUOUS
10
5.65313
20
-2.75252
11
5.65998
21
-2.75397
0
LINE
8
BLACK
6
CONTINUOUS
10
5.55998
20
-2.75397
11
5.56637
21
-2.75682
0
LINE
8
BLACK
6
CONTINUOUS
10
5.56637
20
-2.75682
11
5.57203
21
-2.76093
0
LINE
8
BLACK
6
CONTINUOUS
10
5.57203
20
-2.76093
11
5.57671
21
-2.76613
0
LINE
8
BLACK
6
CONTINUOUS
10
5.57671
20
-2.76613
11
5.58021
21
-2.77219
0
LINE
8
BLACK
6
CONTINUOUS
10
5.58021
20
-2.77219
11
5.58237
21
-2.77884
0
LINE
8
BLACK
6
CONTINUOUS
10
5.58237
20
-2.77884
11
5.5831
21
-2.7858
0
LINE
8
BLACK
6
CONTINUOUS
10
5.5831
20
-2.7858
11
5.58237
21
-2.79276
0
LINE
8
BLACK
6
CONTINUOUS
10
5.58237
20
-2.79276
11
5.58021
21
-2.79941
0
LINE
8
BLACK
6
CONTINUOUS
10
5.58021
20
-2.79941
11
5.57671
21
-2.80547
0
LINE
8
BLACK
6
CONTINUOUS
10
5.57671
20
-2.80547
11
5.57203
21
-2.81067
0
LINE
8
BLACK
6
CONTINUOUS
10
5.57203
20
-2.81067
11
5.56637
21
-2.81478
0
LINE
8
BLACK
6
CONTINUOUS
10
5.56637
20
-2.81478
11
5.55998
21
-2.81762
0
LINE
8
BLACK
6
CONTINUOUS
10
5.55998
20
-2.81762
11
5.55313
21
-2.81908
0
LINE
8
BLACK
6
CONTINUOUS
10
5.55313
20
-2.81908
11
5.54614
21
-2.81908
0
LINE
8
BLACK
6
CONTINUOUS
10
5.54614
20
-2.81908
11
5.53929
21
-2.81762
0
LINE
8
BLACK
6
CONTINUOUS
10
5.53929
20
-2.81762
11
5.5329
21
-2.81478
0
LINE
8
BLACK
6
CONTINUOUS
10
5.5329
20
-2.81478
11
5.52724
21
-2.81067
0
LINE
8
BLACK
6
CONTINUOUS
10
5.52724
20
-2.81067
11
5.52256
21
-2.80547
0
LINE
8
BLACK
6
CONTINUOUS
10
5.52256
20
-2.80547
11
5.51906
21
-2.79941
0
LINE
8
BLACK
6
CONTINUOUS
10
5.51906
20
-2.79941
11
5.5169
21
-2.79276
0
LINE
8
BLACK
6
CONTINUOUS
10
5.5169
20
-2.79276
11
5.51617
21
-2.7858
0
LINE
8
BLACK
6
CONTINUOUS
10
5.51617
20
-2.7858
11
5.5169
21
-2.77884
0
LINE
8
BLACK
6
CONTINUOUS
10
5.5169
20
-2.77884
11
5.51906
21
-2.77219
0
LINE
8
BLACK
6
CONTINUOUS
10
5.51906
20
-2.77219
11
5.52256
21
-2.76613
0
LINE
8
BLACK
6
CONTINUOUS
10
5.52256
20
-2.76613
11
5.52724
21
-2.76093
0
LINE
8
BLACK
6
CONTINUOUS
10
5.52724
20
-2.76093
11
5.5329
21
-2.75682
0
LINE
8
BLACK
6
CONTINUOUS
10
5.5329
20
-2.75682
11
5.53929
21
-2.75397
0
LINE
8
BLACK
6
CONTINUOUS
10
5.53929
20
-2.75397
11
5.54614
21
-2.75252
0
LINE
8
BLACK
6
CONTINUOUS
10
5.54614
20
-2.75252
11
5.55313
21
-2.75252
0
LINE
8
BLACK
6
CONTINUOUS
10
5.55313
20
-2.75252
11
5.55998
21
-2.75397
0
LINE
8
BLACK
6
CONTINUOUS
10
5.45998
20
-2.75397
11
5.46637
21
-2.75682
0
LINE
8
BLACK
6
CONTINUOUS
10
5.46637
20
-2.75682
11
5.47203
21
-2.76093
0
LINE
8
BLACK
6
CONTINUOUS
10
5.47203
20
-2.76093
11
5.47671
21
-2.76613
0
LINE
8
BLACK
6
CONTINUOUS
10
5.47671
20
-2.76613
11
5.48021
21
-2.77219
0
LINE
8
BLACK
6
CONTINUOUS
10
5.48021
20
-2.77219
11
5.48237
21
-2.77884
0
LINE
8
BLACK
6
CONTINUOUS
10
5.48237
20
-2.77884
11
5.4831
21
-2.7858
0
LINE
8
BLACK
6
CONTINUOUS
10
5.4831
20
-2.7858
11
5.48237
21
-2.79276
0
LINE
8
BLACK
6
CONTINUOUS
10
5.48237
20
-2.79276
11
5.48021
21
-2.79941
0
LINE
8
BLACK
6
CONTINUOUS
10
5.48021
20
-2.79941
11
5.47671
21
-2.80547
0
LINE
8
BLACK
6
CONTINUOUS
10
5.47671
20
-2.80547
11
5.47203
21
-2.81067
0
LINE
8
BLACK
6
CONTINUOUS
10
5.47203
20
-2.81067
11
5.46637
21
-2.81478
0
LINE
8
BLACK
6
CONTINUOUS
10
5.46637
20
-2.81478
11
5.45998
21
-2.81762
0
LINE
8
BLACK
6
CONTINUOUS
10
5.45998
20
-2.81762
11
5.45313
21
-2.81908
0
LINE
8
BLACK
6
CONTINUOUS
10
5.45313
20
-2.81908
11
5.44614
21
-2.81908
0
LINE
8
BLACK
6
CONTINUOUS
10
5.44614
20
-2.81908
11
5.43929
21
-2.81762
0
LINE
8
BLACK
6
CONTINUOUS
10
5.43929
20
-2.81762
11
5.4329
21
-2.81478
0
LINE
8
BLACK
6
CONTINUOUS
10
5.4329
20
-2.81478
11
5.42724
21
-2.81067
0
LINE
8
BLACK
6
CONTINUOUS
10
5.42724
20
-2.81067
11
5.42256
21
-2.80547
0
LINE
8
BLACK
6
CONTINUOUS
10
5.42256
20
-2.80547
11
5.41906
21
-2.79941
0
LINE
8
BLACK
6
CONTINUOUS
10
5.41906
20
-2.79941
11
5.4169
21
-2.79276
0
LINE
8
BLACK
6
CONTINUOUS
10
5.4169
20
-2.79276
11
5.41617
21
-2.7858
0
LINE
8
BLACK
6
CONTINUOUS
10
5.41617
20
-2.7858
11
5.4169
21
-2.77884
0
LINE
8
BLACK
6
CONTINUOUS
10
5.4169
20
-2.77884
11
5.41906
21
-2.77219
0
LINE
8
BLACK
6
CONTINUOUS
10
5.41906
20
-2.77219
11
5.42256
21
-2.76613
0
LINE
8
BLACK
6
CONTINUOUS
10
5.42256
20
-2.76613
11
5.42724
21
-2.76093
0
LINE
8
BLACK
6
CONTINUOUS
10
5.42724
20
-2.76093
11
5.4329
21
-2.75682
0
LINE
8
BLACK
6
CONTINUOUS
10
5.4329
20
-2.75682
11
5.43929
21
-2.75397
0
LINE
8
BLACK
6
CONTINUOUS
10
5.43929
20
-2.75397
11
5.44614
21
-2.75252
0
LINE
8
BLACK
6
CONTINUOUS
10
5.44614
20
-2.75252
11
5.45313
21
-2.75252
0
LINE
8
BLACK
6
CONTINUOUS
10
5.45313
20
-2.75252
11
5.45998
21
-2.75397
0
LINE
8
BLACK
6
CONTINUOUS
10
5.35998
20
-2.75397
11
5.36637
21
-2.75682
0
LINE
8
BLACK
6
CONTINUOUS
10
5.36637
20
-2.75682
11
5.37203
21
-2.76093
0
LINE
8
BLACK
6
CONTINUOUS
10
5.37203
20
-2.76093
11
5.37671
21
-2.76613
0
LINE
8
BLACK
6
CONTINUOUS
10
5.37671
20
-2.76613
11
5.38021
21
-2.77219
0
LINE
8
BLACK
6
CONTINUOUS
10
5.38021
20
-2.77219
11
5.38237
21
-2.77884
0
LINE
8
BLACK
6
CONTINUOUS
10
5.38237
20
-2.77884
11
5.3831
21
-2.7858
0
LINE
8
BLACK
6
CONTINUOUS
10
5.3831
20
-2.7858
11
5.38237
21
-2.79276
0
LINE
8
BLACK
6
CONTINUOUS
10
5.38237
20
-2.79276
11
5.38021
21
-2.79941
0
LINE
8
BLACK
6
CONTINUOUS
10
5.38021
20
-2.79941
11
5.37671
21
-2.80547
0
LINE
8
BLACK
6
CONTINUOUS
10
5.37671
20
-2.80547
11
5.37203
21
-2.81067
0
LINE
8
BLACK
6
CONTINUOUS
10
5.37203
20
-2.81067
11
5.36637
21
-2.81478
0
LINE
8
BLACK
6
CONTINUOUS
10
5.36637
20
-2.81478
11
5.35998
21
-2.81762
0
LINE
8
BLACK
6
CONTINUOUS
10
5.35998
20
-2.81762
11
5.35313
21
-2.81908
0
LINE
8
BLACK
6
CONTINUOUS
10
5.35313
20
-2.81908
11
5.34614
21
-2.81908
0
LINE
8
BLACK
6
CONTINUOUS
10
5.34614
20
-2.81908
11
5.33929
21
-2.81762
0
LINE
8
BLACK
6
CONTINUOUS
10
5.33929
20
-2.81762
11
5.3329
21
-2.81478
0
LINE
8
BLACK
6
CONTINUOUS
10
5.3329
20
-2.81478
11
5.32724
21
-2.81067
0
LINE
8
BLACK
6
CONTINUOUS
10
5.32724
20
-2.81067
11
5.32256
21
-2.80547
0
LINE
8
BLACK
6
CONTINUOUS
10
5.32256
20
-2.80547
11
5.31906
21
-2.79941
0
LINE
8
BLACK
6
CONTINUOUS
10
5.31906
20
-2.79941
11
5.3169
21
-2.79276
0
LINE
8
BLACK
6
CONTINUOUS
10
5.3169
20
-2.79276
11
5.31617
21
-2.7858
0
LINE
8
BLACK
6
CONTINUOUS
10
5.31617
20
-2.7858
11
5.3169
21
-2.77884
0
LINE
8
BLACK
6
CONTINUOUS
10
5.3169
20
-2.77884
11
5.31906
21
-2.77219
0
LINE
8
BLACK
6
CONTINUOUS
10
5.31906
20
-2.77219
11
5.32256
21
-2.76613
0
LINE
8
BLACK
6
CONTINUOUS
10
5.32256
20
-2.76613
11
5.32724
21
-2.76093
0
LINE
8
BLACK
6
CONTINUOUS
10
5.32724
20
-2.76093
11
5.3329
21
-2.75682
0
LINE
8
BLACK
6
CONTINUOUS
10
5.3329
20
-2.75682
11
5.33929
21
-2.75397
0
LINE
8
BLACK
6
CONTINUOUS
10
5.33929
20
-2.75397
11
5.34614
21
-2.75252
0
LINE
8
BLACK
6
CONTINUOUS
10
5.34614
20
-2.75252
11
5.35313
21
-2.75252
0
LINE
8
BLACK
6
CONTINUOUS
10
5.35313
20
-2.75252
11
5.35998
21
-2.75397
0
LINE
8
BLACK
6
CONTINUOUS
10
5.25998
20
-2.75397
11
5.26637
21
-2.75682
0
LINE
8
BLACK
6
CONTINUOUS
10
5.26637
20
-2.75682
11
5.27203
21
-2.76093
0
LINE
8
BLACK
6
CONTINUOUS
10
5.27203
20
-2.76093
11
5.27671
21
-2.76613
0
LINE
8
BLACK
6
CONTINUOUS
10
5.27671
20
-2.76613
11
5.28021
21
-2.77219
0
LINE
8
BLACK
6
CONTINUOUS
10
5.28021
20
-2.77219
11
5.28237
21
-2.77884
0
LINE
8
BLACK
6
CONTINUOUS
10
5.28237
20
-2.77884
11
5.2831
21
-2.7858
0
LINE
8
BLACK
6
CONTINUOUS
10
5.2831
20
-2.7858
11
5.28237
21
-2.79276
0
LINE
8
BLACK
6
CONTINUOUS
10
5.28237
20
-2.79276
11
5.28021
21
-2.79941
0
LINE
8
BLACK
6
CONTINUOUS
10
5.28021
20
-2.79941
11
5.27671
21
-2.80547
0
LINE
8
BLACK
6
CONTINUOUS
10
5.27671
20
-2.80547
11
5.27203
21
-2.81067
0
LINE
8
BLACK
6
CONTINUOUS
10
5.27203
20
-2.81067
11
5.26637
21
-2.81478
0
LINE
8
BLACK
6
CONTINUOUS
10
5.26637
20
-2.81478
11
5.25998
21
-2.81762
0
LINE
8
BLACK
6
CONTINUOUS
10
5.25998
20
-2.81762
11
5.25313
21
-2.81908
0
LINE
8
BLACK
6
CONTINUOUS
10
5.25313
20
-2.81908
11
5.24614
21
-2.81908
0
LINE
8
BLACK
6
CONTINUOUS
10
5.24614
20
-2.81908
11
5.23929
21
-2.81762
0
LINE
8
BLACK
6
CONTINUOUS
10
5.23929
20
-2.81762
11
5.2329
21
-2.81478
0
LINE
8
BLACK
6
CONTINUOUS
10
5.2329
20
-2.81478
11
5.22724
21
-2.81067
0
LINE
8
BLACK
6
CONTINUOUS
10
5.22724
20
-2.81067
11
5.22256
21
-2.80547
0
LINE
8
BLACK
6
CONTINUOUS
10
5.22256
20
-2.80547
11
5.21906
21
-2.79941
0
LINE
8
BLACK
6
CONTINUOUS
10
5.21906
20
-2.79941
11
5.2169
21
-2.79276
0
LINE
8
BLACK
6
CONTINUOUS
10
5.2169
20
-2.79276
11
5.21617
21
-2.7858
0
LINE
8
BLACK
6
CONTINUOUS
10
5.21617
20
-2.7858
11
5.2169
21
-2.77884
0
LINE
8
BLACK
6
CONTINUOUS
10
5.2169
20
-2.77884
11
5.21906
21
-2.77219
0
LINE
8
BLACK
6
CONTINUOUS
10
5.21906
20
-2.77219
11
5.22256
21
-2.76613
0
LINE
8
BLACK
6
CONTINUOUS
10
5.22256
20
-2.76613
11
5.22724
21
-2.76093
0
LINE
8
BLACK
6
CONTINUOUS
10
5.22724
20
-2.76093
11
5.2329
21
-2.75682
0
LINE
8
BLACK
6
CONTINUOUS
10
5.2329
20
-2.75682
11
5.23929
21
-2.75397
0
LINE
8
BLACK
6
CONTINUOUS
10
5.23929
20
-2.75397
11
5.24614
21
-2.75252
0
LINE
8
BLACK
6
CONTINUOUS
10
5.24614
20
-2.75252
11
5.25313
21
-2.75252
0
LINE
8
BLACK
6
CONTINUOUS
10
5.25313
20
-2.75252
11
5.25998
21
-2.75397
0
LINE
8
BLACK
6
CONTINUOUS
10
4.87338
20
-2.78343
11
4.87618
21
-2.7853
0
LINE
8
BLACK
6
CONTINUOUS
10
4.87618
20
-2.7853
11
4.87805
21
-2.78809
0
LINE
8
BLACK
6
CONTINUOUS
10
4.87805
20
-2.78809
11
4.8787
21
-2.79139
0
LINE
8
BLACK
6
CONTINUOUS
10
4.8787
20
-2.79139
11
4.8787
21
-2.80861
0
LINE
8
BLACK
6
CONTINUOUS
10
4.8787
20
-2.80861
11
4.87805
21
-2.81191
0
LINE
8
BLACK
6
CONTINUOUS
10
4.87805
20
-2.81191
11
4.87618
21
-2.8147
0
LINE
8
BLACK
6
CONTINUOUS
10
4.87618
20
-2.8147
11
4.87338
21
-2.81657
0
LINE
8
BLACK
6
CONTINUOUS
10
4.87338
20
-2.81657
11
4.87009
21
-2.81722
0
LINE
8
BLACK
6
CONTINUOUS
10
4.87009
20
-2.81722
11
4.84991
21
-2.81722
0
LINE
8
BLACK
6
CONTINUOUS
10
4.84991
20
-2.81722
11
4.84662
21
-2.81657
0
LINE
8
BLACK
6
CONTINUOUS
10
4.84662
20
-2.81657
11
4.84382
21
-2.8147
0
LINE
8
BLACK
6
CONTINUOUS
10
4.84382
20
-2.8147
11
4.84195
21
-2.81191
0
LINE
8
BLACK
6
CONTINUOUS
10
4.84195
20
-2.81191
11
4.8413
21
-2.80861
0
LINE
8
BLACK
6
CONTINUOUS
10
4.8413
20
-2.80861
11
4.8413
21
-2.79139
0
LINE
8
BLACK
6
CONTINUOUS
10
4.8413
20
-2.79139
11
4.84195
21
-2.78809
0
LINE
8
BLACK
6
CONTINUOUS
10
4.84195
20
-2.78809
11
4.84382
21
-2.7853
0
LINE
8
BLACK
6
CONTINUOUS
10
4.84382
20
-2.7853
11
4.84662
21
-2.78343
0
LINE
8
BLACK
6
CONTINUOUS
10
4.84662
20
-2.78343
11
4.84991
21
-2.78278
0
LINE
8
BLACK
6
CONTINUOUS
10
4.84991
20
-2.78278
11
4.87009
21
-2.78278
0
LINE
8
BLACK
6
CONTINUOUS
10
4.87009
20
-2.78278
11
4.87338
21
-2.78343
0
LINE
8
BLACK
6
CONTINUOUS
10
6.54963
20
-2.73383
11
6.55776
21
-2.73447
0
LINE
8
BLACK
6
CONTINUOUS
10
6.55776
20
-2.73447
11
6.56569
21
-2.73637
0
LINE
8
BLACK
6
CONTINUOUS
10
6.56569
20
-2.73637
11
6.57323
21
-2.73949
0
LINE
8
BLACK
6
CONTINUOUS
10
6.57323
20
-2.73949
11
6.58018
21
-2.74375
0
LINE
8
BLACK
6
CONTINUOUS
10
6.58018
20
-2.74375
11
6.58638
21
-2.74905
0
LINE
8
BLACK
6
CONTINUOUS
10
6.58638
20
-2.74905
11
6.59168
21
-2.75525
0
LINE
8
BLACK
6
CONTINUOUS
10
6.59168
20
-2.75525
11
6.59594
21
-2.7622
0
LINE
8
BLACK
6
CONTINUOUS
10
6.59594
20
-2.7622
11
6.59906
21
-2.76974
0
LINE
8
BLACK
6
CONTINUOUS
10
6.59906
20
-2.76974
11
6.60096
21
-2.77767
0
LINE
8
BLACK
6
CONTINUOUS
10
6.60096
20
-2.77767
11
6.6016
21
-2.7858
0
LINE
8
BLACK
6
CONTINUOUS
10
6.6016
20
-2.7858
11
6.6016
21
-2.7858
0
LINE
8
BLACK
6
CONTINUOUS
10
6.6016
20
-2.7858
11
6.6016
21
-2.7858
0
LINE
8
BLACK
6
CONTINUOUS
10
6.6016
20
-2.7858
11
6.6016
21
-3.5858
0
LINE
8
BLACK
6
CONTINUOUS
10
6.6016
20
-3.5858
11
6.60096
21
-3.59393
0
LINE
8
BLACK
6
CONTINUOUS
10
6.60096
20
-3.59393
11
6.59906
21
-3.60186
0
LINE
8
BLACK
6
CONTINUOUS
10
6.59906
20
-3.60186
11
6.59594
21
-3.60939
0
LINE
8
BLACK
6
CONTINUOUS
10
6.59594
20
-3.60939
11
6.59168
21
-3.61635
0
LINE
8
BLACK
6
CONTINUOUS
10
6.59168
20
-3.61635
11
6.58638
21
-3.62255
0
LINE
8
BLACK
6
CONTINUOUS
10
6.58638
20
-3.62255
11
6.58018
21
-3.62784
0
LINE
8
BLACK
6
CONTINUOUS
10
6.58018
20
-3.62784
11
6.57323
21
-3.6321
0
LINE
8
BLACK
6
CONTINUOUS
10
6.57323
20
-3.6321
11
6.56569
21
-3.63522
0
LINE
8
BLACK
6
CONTINUOUS
10
6.56569
20
-3.63522
11
6.55776
21
-3.63713
0
LINE
8
BLACK
6
CONTINUOUS
10
6.55776
20
-3.63713
11
6.54963
21
-3.63777
0
LINE
8
BLACK
6
CONTINUOUS
10
6.54963
20
-3.63777
11
6.54963
21
-3.63777
0
LINE
8
BLACK
6
CONTINUOUS
10
6.54963
20
-3.63777
11
6.54963
21
-3.63777
0
LINE
8
BLACK
6
CONTINUOUS
10
6.54963
20
-3.63777
11
6.54963
21
-3.63777
0
LINE
8
BLACK
6
CONTINUOUS
10
6.54963
20
-3.63777
11
4.64963
21
-3.63777
0
LINE
8
BLACK
6
CONTINUOUS
10
4.64963
20
-3.63777
11
4.64963
21
-3.63777
0
LINE
8
BLACK
6
CONTINUOUS
10
4.64963
20
-3.63777
11
4.64963
21
-3.63777
0
LINE
8
BLACK
6
CONTINUOUS
10
4.64963
20
-3.63777
11
4.64151
21
-3.63713
0
LINE
8
BLACK
6
CONTINUOUS
10
4.64151
20
-3.63713
11
4.63358
21
-3.63522
0
LINE
8
BLACK
6
CONTINUOUS
10
4.63358
20
-3.63522
11
4.62604
21
-3.6321
0
LINE
8
BLACK
6
CONTINUOUS
10
4.62604
20
-3.6321
11
4.61909
21
-3.62784
0
LINE
8
BLACK
6
CONTINUOUS
10
4.61909
20
-3.62784
11
4.61289
21
-3.62255
0
LINE
8
BLACK
6
CONTINUOUS
10
4.61289
20
-3.62255
11
4.60759
21
-3.61634
0
LINE
8
BLACK
6
CONTINUOUS
10
4.60759
20
-3.61634
11
4.60333
21
-3.60939
0
LINE
8
BLACK
6
CONTINUOUS
10
4.60333
20
-3.60939
11
4.60021
21
-3.60186
0
LINE
8
BLACK
6
CONTINUOUS
10
4.60021
20
-3.60186
11
4.59831
21
-3.59393
0
LINE
8
BLACK
6
CONTINUOUS
10
4.59831
20
-3.59393
11
4.59767
21
-3.5858
0
LINE
8
BLACK
6
CONTINUOUS
10
4.59767
20
-3.5858
11
4.59767
21
-3.5858
0
LINE
8
BLACK
6
CONTINUOUS
10
4.59767
20
-3.5858
11
4.59767
21
-2.7858
0
LINE
8
BLACK
6
CONTINUOUS
10
4.59767
20
-2.7858
11
4.59767
21
-2.7858
0
LINE
8
BLACK
6
CONTINUOUS
10
4.59767
20
-2.7858
11
4.59831
21
-2.77767
0
LINE
8
BLACK
6
CONTINUOUS
10
4.59831
20
-2.77767
11
4.60021
21
-2.76974
0
LINE
8
BLACK
6
CONTINUOUS
10
4.60021
20
-2.76974
11
4.60333
21
-2.76221
0
LINE
8
BLACK
6
CONTINUOUS
10
4.60333
20
-2.76221
11
4.60759
21
-2.75525
0
LINE
8
BLACK
6
CONTINUOUS
10
4.60759
20
-2.75525
11
4.61289
21
-2.74905
0
LINE
8
BLACK
6
CONTINUOUS
10
4.61289
20
-2.74905
11
4.61909
21
-2.74376
0
LINE
8
BLACK
6
CONTINUOUS
10
4.61909
20
-2.74376
11
4.62604
21
-2.7395
0
LINE
8
BLACK
6
CONTINUOUS
10
4.62604
20
-2.7395
11
4.63358
21
-2.73637
0
LINE
8
BLACK
6
CONTINUOUS
10
4.63358
20
-2.73637
11
4.64151
21
-2.73447
0
LINE
8
BLACK
6
CONTINUOUS
10
4.64151
20
-2.73447
11
4.64963
21
-2.73383
0
LINE
8
BLACK
6
CONTINUOUS
10
4.64963
20
-2.73383
11
4.64963
21
-2.73383
0
LINE
8
BLACK
6
CONTINUOUS
10
4.64963
20
-2.73383
11
6.54963
21
-2.73383
0
LINE
8
BLACK
6
CONTINUOUS
10
4.64963
20
-2.73777
11
4.64963
21
-2.73777
0
LINE
8
BLACK
6
CONTINUOUS
10
4.64963
20
-2.73777
11
4.64585
21
-2.73777
0
LINE
8
BLACK
6
CONTINUOUS
10
4.64585
20
-2.73777
11
4.63839
21
-2.73895
0
LINE
8
BLACK
6
CONTINUOUS
10
4.63839
20
-2.73895
11
4.6312
21
-2.74129
0
LINE
8
BLACK
6
CONTINUOUS
10
4.6312
20
-2.74129
11
4.62446
21
-2.74472
0
LINE
8
BLACK
6
CONTINUOUS
10
4.62446
20
-2.74472
11
4.61834
21
-2.74916
0
LINE
8
BLACK
6
CONTINUOUS
10
4.61834
20
-2.74916
11
4.613
21
-2.75451
0
LINE
8
BLACK
6
CONTINUOUS
10
4.613
20
-2.75451
11
4.60856
21
-2.76062
0
LINE
8
BLACK
6
CONTINUOUS
10
4.60856
20
-2.76062
11
4.60512
21
-2.76736
0
LINE
8
BLACK
6
CONTINUOUS
10
4.60512
20
-2.76736
11
4.60279
21
-2.77455
0
LINE
8
BLACK
6
CONTINUOUS
10
4.60279
20
-2.77455
11
4.6016
21
-2.78202
0
LINE
8
BLACK
6
CONTINUOUS
10
4.6016
20
-2.78202
11
4.6016
21
-2.7858
0
LINE
8
BLACK
6
CONTINUOUS
10
4.6016
20
-2.7858
11
4.6016
21
-2.7858
0
LINE
8
BLACK
6
CONTINUOUS
10
4.6016
20
-2.7858
11
4.6016
21
-3.5858
0
LINE
8
BLACK
6
CONTINUOUS
10
4.6016
20
-3.5858
11
4.6016
21
-3.5858
0
LINE
8
BLACK
6
CONTINUOUS
10
4.6016
20
-3.5858
11
4.6016
21
-3.5858
0
LINE
8
BLACK
6
CONTINUOUS
10
4.6016
20
-3.5858
11
4.6016
21
-3.58958
0
LINE
8
BLACK
6
CONTINUOUS
10
4.6016
20
-3.58958
11
4.60279
21
-3.59705
0
LINE
8
BLACK
6
CONTINUOUS
10
4.60279
20
-3.59705
11
4.60512
21
-3.60424
0
LINE
8
BLACK
6
CONTINUOUS
10
4.60512
20
-3.60424
11
4.60855
21
-3.61097
0
LINE
8
BLACK
6
CONTINUOUS
10
4.60855
20
-3.61097
11
4.613
21
-3.61709
0
LINE
8
BLACK
6
CONTINUOUS
10
4.613
20
-3.61709
11
4.61834
21
-3.62243
0
LINE
8
BLACK
6
CONTINUOUS
10
4.61834
20
-3.62243
11
4.62446
21
-3.62688
0
LINE
8
BLACK
6
CONTINUOUS
10
4.62446
20
-3.62688
11
4.6312
21
-3.63031
0
LINE
8
BLACK
6
CONTINUOUS
10
4.6312
20
-3.63031
11
4.63839
21
-3.63265
0
LINE
8
BLACK
6
CONTINUOUS
10
4.63839
20
-3.63265
11
4.64585
21
-3.63383
0
LINE
8
BLACK
6
CONTINUOUS
10
4.64585
20
-3.63383
11
4.64963
21
-3.63383
0
LINE
8
BLACK
6
CONTINUOUS
10
4.64963
20
-3.63383
11
4.64963
21
-3.63383
0
LINE
8
BLACK
6
CONTINUOUS
10
4.64963
20
-3.63383
11
6.54963
21
-3.63383
0
LINE
8
BLACK
6
CONTINUOUS
10
6.54963
20
-3.63383
11
6.54964
21
-3.63383
0
LINE
8
BLACK
6
CONTINUOUS
10
6.54964
20
-3.63383
11
6.55342
21
-3.63383
0
LINE
8
BLACK
6
CONTINUOUS
10
6.55342
20
-3.63383
11
6.56088
21
-3.63265
0
LINE
8
BLACK
6
CONTINUOUS
10
6.56088
20
-3.63265
11
6.56807
21
-3.63031
0
LINE
8
BLACK
6
CONTINUOUS
10
6.56807
20
-3.63031
11
6.57481
21
-3.62688
0
LINE
8
BLACK
6
CONTINUOUS
10
6.57481
20
-3.62688
11
6.58093
21
-3.62244
0
LINE
8
BLACK
6
CONTINUOUS
10
6.58093
20
-3.62244
11
6.58627
21
-3.61709
0
LINE
8
BLACK
6
CONTINUOUS
10
6.58627
20
-3.61709
11
6.59072
21
-3.61097
0
LINE
8
BLACK
6
CONTINUOUS
10
6.59072
20
-3.61097
11
6.59415
21
-3.60424
0
LINE
8
BLACK
6
CONTINUOUS
10
6.59415
20
-3.60424
11
6.59648
21
-3.59705
0
LINE
8
BLACK
6
CONTINUOUS
10
6.59648
20
-3.59705
11
6.59767
21
-3.58958
0
LINE
8
BLACK
6
CONTINUOUS
10
6.59767
20
-3.58958
11
6.59767
21
-3.5858
0
LINE
8
BLACK
6
CONTINUOUS
10
6.59767
20
-3.5858
11
6.59767
21
-3.5858
0
LINE
8
BLACK
6
CONTINUOUS
10
6.59767
20
-3.5858
11
6.59767
21
-2.7858
0
LINE
8
BLACK
6
CONTINUOUS
10
6.59767
20
-2.7858
11
6.59767
21
-2.7858
0
LINE
8
BLACK
6
CONTINUOUS
10
6.59767
20
-2.7858
11
6.59767
21
-2.78202
0
LINE
8
BLACK
6
CONTINUOUS
10
6.59767
20
-2.78202
11
6.59648
21
-2.77455
0
LINE
8
BLACK
6
CONTINUOUS
10
6.59648
20
-2.77455
11
6.59415
21
-2.76736
0
LINE
8
BLACK
6
CONTINUOUS
10
6.59415
20
-2.76736
11
6.59071
21
-2.76062
0
LINE
8
BLACK
6
CONTINUOUS
10
6.59071
20
-2.76062
11
6.58627
21
-2.75451
0
LINE
8
BLACK
6
CONTINUOUS
10
6.58627
20
-2.75451
11
6.58093
21
-2.74916
0
LINE
8
BLACK
6
CONTINUOUS
10
6.58093
20
-2.74916
11
6.57481
21
-2.74472
0
LINE
8
BLACK
6
CONTINUOUS
10
6.57481
20
-2.74472
11
6.56807
21
-2.74129
0
LINE
8
BLACK
6
CONTINUOUS
10
6.56807
20
-2.74129
11
6.56088
21
-2.73895
0
LINE
8
BLACK
6
CONTINUOUS
10
6.56088
20
-2.73895
11
6.55341
21
-2.73777
0
LINE
8
BLACK
6
CONTINUOUS
10
6.55341
20
-2.73777
11
6.54963
21
-2.73777
0
LINE
8
BLACK
6
CONTINUOUS
10
6.54963
20
-2.73777
11
4.64963
21
-2.73777
0
LINE
8
BLACK
6
CONTINUOUS
10
4.64963
20
-2.73777
11
4.64963
21
-2.73777
0
LINE
8
BLACK
6
CONTINUOUS
10
4.64963
20
-2.73777
11
4.64963
21
-2.73777
  0
ENDSEC
  0
EOF
