  0
SECTION
  2
HEADER
  9
$ANGBASE
  50
0.0
  9
$ANGDIR
  70
1
  9
$MEASUREMENT
  70
0
  0
ENDSEC
  0
SECTION
  2
TABLES
  0
TABLE
  2
LTYPE
  70
4
  0
LTYPE
  5
40F
  2
CONTINUOUS
  70
0
  3
Solid line
  72
65
  73
0
  40
0.0
  0
LTYPE
  5
410
  2
DASHDOT
 70
0
  3
Dash Dot ____ _ ____ _
 72
65
 73
4
 40
2.0
 49
1.25
 49
-0.25
 49
0.25
 49
-0.25
  0
LTYPE
  5
411
  2
DASHED
 70
0
  3
Dashed __ __ __ __ __
 72
65
 73
2
 40
0.75
 49
0.5
 49
-0.25
  0
LTYPE
  5
43B
  2
DOTTED
 70
0
  3
Dotted .  .  .  .
 72
65
 73
2
 40
0.2
 49
0.0
 49
-0.2
  0
ENDTAB
  0
TABLE
  2
STYLE
  70
4
  0
STYLE
  2
KICAD
  70
0
  40
0
  41
1
  42
1
  50
0
  71
0
  3
isocp.shx
  0
STYLE
  2
KICADB
  70
0
  40
0
  41
1
  42
1
  50
0
  71
0
  3
isocp.shx
  0
STYLE
  2
KICADI
  70
0
  40
0
  41
1
  42
1
  50
15
  71
0
  3
isocp.shx
  0
STYLE
  2
KICADBI
  70
0
  40
0
  41
1
  42
1
  50
15
  71
0
  3
isocp.shx
  0
ENDTAB
  0
TABLE
  2
LAYER
  70
1
  0
LAYER
  2
BLACK
  70
0
  62
7
  6
CONTINUOUS
  0
ENDTAB
  0
ENDSEC
  0
SECTION
  2
ENTITIES
0
LINE
8
BLACK
6
CONTINUOUS
10
6.54963
20
-2.73383
11
6.55776
21
-2.73447
0
LINE
8
BLACK
6
CONTINUOUS
10
6.55776
20
-2.73447
11
6.56569
21
-2.73637
0
LINE
8
BLACK
6
CONTINUOUS
10
6.56569
20
-2.73637
11
6.57323
21
-2.73949
0
LINE
8
BLACK
6
CONTINUOUS
10
6.57323
20
-2.73949
11
6.58018
21
-2.74375
0
LINE
8
BLACK
6
CONTINUOUS
10
6.58018
20
-2.74375
11
6.58638
21
-2.74905
0
LINE
8
BLACK
6
CONTINUOUS
10
6.58638
20
-2.74905
11
6.59168
21
-2.75525
0
LINE
8
BLACK
6
CONTINUOUS
10
6.59168
20
-2.75525
11
6.59594
21
-2.7622
0
LINE
8
BLACK
6
CONTINUOUS
10
6.59594
20
-2.7622
11
6.59906
21
-2.76974
0
LINE
8
BLACK
6
CONTINUOUS
10
6.59906
20
-2.76974
11
6.60096
21
-2.77767
0
LINE
8
BLACK
6
CONTINUOUS
10
6.60096
20
-2.77767
11
6.6016
21
-2.7858
0
LINE
8
BLACK
6
CONTINUOUS
10
6.6016
20
-2.7858
11
6.6016
21
-2.7858
0
LINE
8
BLACK
6
CONTINUOUS
10
6.6016
20
-2.7858
11
6.6016
21
-2.7858
0
LINE
8
BLACK
6
CONTINUOUS
10
6.6016
20
-2.7858
11
6.6016
21
-3.5858
0
LINE
8
BLACK
6
CONTINUOUS
10
6.6016
20
-3.5858
11
6.60096
21
-3.59393
0
LINE
8
BLACK
6
CONTINUOUS
10
6.60096
20
-3.59393
11
6.59906
21
-3.60186
0
LINE
8
BLACK
6
CONTINUOUS
10
6.59906
20
-3.60186
11
6.59594
21
-3.60939
0
LINE
8
BLACK
6
CONTINUOUS
10
6.59594
20
-3.60939
11
6.59168
21
-3.61635
0
LINE
8
BLACK
6
CONTINUOUS
10
6.59168
20
-3.61635
11
6.58638
21
-3.62255
0
LINE
8
BLACK
6
CONTINUOUS
10
6.58638
20
-3.62255
11
6.58018
21
-3.62784
0
LINE
8
BLACK
6
CONTINUOUS
10
6.58018
20
-3.62784
11
6.57323
21
-3.6321
0
LINE
8
BLACK
6
CONTINUOUS
10
6.57323
20
-3.6321
11
6.56569
21
-3.63522
0
LINE
8
BLACK
6
CONTINUOUS
10
6.56569
20
-3.63522
11
6.55776
21
-3.63713
0
LINE
8
BLACK
6
CONTINUOUS
10
6.55776
20
-3.63713
11
6.54963
21
-3.63777
0
LINE
8
BLACK
6
CONTINUOUS
10
6.54963
20
-3.63777
11
6.54963
21
-3.63777
0
LINE
8
BLACK
6
CONTINUOUS
10
6.54963
20
-3.63777
11
6.54963
21
-3.63777
0
LINE
8
BLACK
6
CONTINUOUS
10
6.54963
20
-3.63777
11
6.54963
21
-3.63777
0
LINE
8
BLACK
6
CONTINUOUS
10
6.54963
20
-3.63777
11
4.64963
21
-3.63777
0
LINE
8
BLACK
6
CONTINUOUS
10
4.64963
20
-3.63777
11
4.64963
21
-3.63777
0
LINE
8
BLACK
6
CONTINUOUS
10
4.64963
20
-3.63777
11
4.64963
21
-3.63777
0
LINE
8
BLACK
6
CONTINUOUS
10
4.64963
20
-3.63777
11
4.64151
21
-3.63713
0
LINE
8
BLACK
6
CONTINUOUS
10
4.64151
20
-3.63713
11
4.63358
21
-3.63522
0
LINE
8
BLACK
6
CONTINUOUS
10
4.63358
20
-3.63522
11
4.62604
21
-3.6321
0
LINE
8
BLACK
6
CONTINUOUS
10
4.62604
20
-3.6321
11
4.61909
21
-3.62784
0
LINE
8
BLACK
6
CONTINUOUS
10
4.61909
20
-3.62784
11
4.61289
21
-3.62255
0
LINE
8
BLACK
6
CONTINUOUS
10
4.61289
20
-3.62255
11
4.60759
21
-3.61634
0
LINE
8
BLACK
6
CONTINUOUS
10
4.60759
20
-3.61634
11
4.60333
21
-3.60939
0
LINE
8
BLACK
6
CONTINUOUS
10
4.60333
20
-3.60939
11
4.60021
21
-3.60186
0
LINE
8
BLACK
6
CONTINUOUS
10
4.60021
20
-3.60186
11
4.59831
21
-3.59393
0
LINE
8
BLACK
6
CONTINUOUS
10
4.59831
20
-3.59393
11
4.59767
21
-3.5858
0
LINE
8
BLACK
6
CONTINUOUS
10
4.59767
20
-3.5858
11
4.59767
21
-3.5858
0
LINE
8
BLACK
6
CONTINUOUS
10
4.59767
20
-3.5858
11
4.59767
21
-2.7858
0
LINE
8
BLACK
6
CONTINUOUS
10
4.59767
20
-2.7858
11
4.59767
21
-2.7858
0
LINE
8
BLACK
6
CONTINUOUS
10
4.59767
20
-2.7858
11
4.59831
21
-2.77767
0
LINE
8
BLACK
6
CONTINUOUS
10
4.59831
20
-2.77767
11
4.60021
21
-2.76974
0
LINE
8
BLACK
6
CONTINUOUS
10
4.60021
20
-2.76974
11
4.60333
21
-2.76221
0
LINE
8
BLACK
6
CONTINUOUS
10
4.60333
20
-2.76221
11
4.60759
21
-2.75525
0
LINE
8
BLACK
6
CONTINUOUS
10
4.60759
20
-2.75525
11
4.61289
21
-2.74905
0
LINE
8
BLACK
6
CONTINUOUS
10
4.61289
20
-2.74905
11
4.61909
21
-2.74376
0
LINE
8
BLACK
6
CONTINUOUS
10
4.61909
20
-2.74376
11
4.62604
21
-2.7395
0
LINE
8
BLACK
6
CONTINUOUS
10
4.62604
20
-2.7395
11
4.63358
21
-2.73637
0
LINE
8
BLACK
6
CONTINUOUS
10
4.63358
20
-2.73637
11
4.64151
21
-2.73447
0
LINE
8
BLACK
6
CONTINUOUS
10
4.64151
20
-2.73447
11
4.64963
21
-2.73383
0
LINE
8
BLACK
6
CONTINUOUS
10
4.64963
20
-2.73383
11
4.64963
21
-2.73383
0
LINE
8
BLACK
6
CONTINUOUS
10
4.64963
20
-2.73383
11
6.54963
21
-2.73383
0
LINE
8
BLACK
6
CONTINUOUS
10
4.64963
20
-2.73777
11
4.64963
21
-2.73777
0
LINE
8
BLACK
6
CONTINUOUS
10
4.64963
20
-2.73777
11
4.64585
21
-2.73777
0
LINE
8
BLACK
6
CONTINUOUS
10
4.64585
20
-2.73777
11
4.63839
21
-2.73895
0
LINE
8
BLACK
6
CONTINUOUS
10
4.63839
20
-2.73895
11
4.6312
21
-2.74129
0
LINE
8
BLACK
6
CONTINUOUS
10
4.6312
20
-2.74129
11
4.62446
21
-2.74472
0
LINE
8
BLACK
6
CONTINUOUS
10
4.62446
20
-2.74472
11
4.61834
21
-2.74916
0
LINE
8
BLACK
6
CONTINUOUS
10
4.61834
20
-2.74916
11
4.613
21
-2.75451
0
LINE
8
BLACK
6
CONTINUOUS
10
4.613
20
-2.75451
11
4.60856
21
-2.76062
0
LINE
8
BLACK
6
CONTINUOUS
10
4.60856
20
-2.76062
11
4.60512
21
-2.76736
0
LINE
8
BLACK
6
CONTINUOUS
10
4.60512
20
-2.76736
11
4.60279
21
-2.77455
0
LINE
8
BLACK
6
CONTINUOUS
10
4.60279
20
-2.77455
11
4.6016
21
-2.78202
0
LINE
8
BLACK
6
CONTINUOUS
10
4.6016
20
-2.78202
11
4.6016
21
-2.7858
0
LINE
8
BLACK
6
CONTINUOUS
10
4.6016
20
-2.7858
11
4.6016
21
-2.7858
0
LINE
8
BLACK
6
CONTINUOUS
10
4.6016
20
-2.7858
11
4.6016
21
-3.5858
0
LINE
8
BLACK
6
CONTINUOUS
10
4.6016
20
-3.5858
11
4.6016
21
-3.5858
0
LINE
8
BLACK
6
CONTINUOUS
10
4.6016
20
-3.5858
11
4.6016
21
-3.5858
0
LINE
8
BLACK
6
CONTINUOUS
10
4.6016
20
-3.5858
11
4.6016
21
-3.58958
0
LINE
8
BLACK
6
CONTINUOUS
10
4.6016
20
-3.58958
11
4.60279
21
-3.59705
0
LINE
8
BLACK
6
CONTINUOUS
10
4.60279
20
-3.59705
11
4.60512
21
-3.60424
0
LINE
8
BLACK
6
CONTINUOUS
10
4.60512
20
-3.60424
11
4.60855
21
-3.61097
0
LINE
8
BLACK
6
CONTINUOUS
10
4.60855
20
-3.61097
11
4.613
21
-3.61709
0
LINE
8
BLACK
6
CONTINUOUS
10
4.613
20
-3.61709
11
4.61834
21
-3.62243
0
LINE
8
BLACK
6
CONTINUOUS
10
4.61834
20
-3.62243
11
4.62446
21
-3.62688
0
LINE
8
BLACK
6
CONTINUOUS
10
4.62446
20
-3.62688
11
4.6312
21
-3.63031
0
LINE
8
BLACK
6
CONTINUOUS
10
4.6312
20
-3.63031
11
4.63839
21
-3.63265
0
LINE
8
BLACK
6
CONTINUOUS
10
4.63839
20
-3.63265
11
4.64585
21
-3.63383
0
LINE
8
BLACK
6
CONTINUOUS
10
4.64585
20
-3.63383
11
4.64963
21
-3.63383
0
LINE
8
BLACK
6
CONTINUOUS
10
4.64963
20
-3.63383
11
4.64963
21
-3.63383
0
LINE
8
BLACK
6
CONTINUOUS
10
4.64963
20
-3.63383
11
6.54963
21
-3.63383
0
LINE
8
BLACK
6
CONTINUOUS
10
6.54963
20
-3.63383
11
6.54964
21
-3.63383
0
LINE
8
BLACK
6
CONTINUOUS
10
6.54964
20
-3.63383
11
6.55342
21
-3.63383
0
LINE
8
BLACK
6
CONTINUOUS
10
6.55342
20
-3.63383
11
6.56088
21
-3.63265
0
LINE
8
BLACK
6
CONTINUOUS
10
6.56088
20
-3.63265
11
6.56807
21
-3.63031
0
LINE
8
BLACK
6
CONTINUOUS
10
6.56807
20
-3.63031
11
6.57481
21
-3.62688
0
LINE
8
BLACK
6
CONTINUOUS
10
6.57481
20
-3.62688
11
6.58093
21
-3.62244
0
LINE
8
BLACK
6
CONTINUOUS
10
6.58093
20
-3.62244
11
6.58627
21
-3.61709
0
LINE
8
BLACK
6
CONTINUOUS
10
6.58627
20
-3.61709
11
6.59072
21
-3.61097
0
LINE
8
BLACK
6
CONTINUOUS
10
6.59072
20
-3.61097
11
6.59415
21
-3.60424
0
LINE
8
BLACK
6
CONTINUOUS
10
6.59415
20
-3.60424
11
6.59648
21
-3.59705
0
LINE
8
BLACK
6
CONTINUOUS
10
6.59648
20
-3.59705
11
6.59767
21
-3.58958
0
LINE
8
BLACK
6
CONTINUOUS
10
6.59767
20
-3.58958
11
6.59767
21
-3.5858
0
LINE
8
BLACK
6
CONTINUOUS
10
6.59767
20
-3.5858
11
6.59767
21
-3.5858
0
LINE
8
BLACK
6
CONTINUOUS
10
6.59767
20
-3.5858
11
6.59767
21
-2.7858
0
LINE
8
BLACK
6
CONTINUOUS
10
6.59767
20
-2.7858
11
6.59767
21
-2.7858
0
LINE
8
BLACK
6
CONTINUOUS
10
6.59767
20
-2.7858
11
6.59767
21
-2.78202
0
LINE
8
BLACK
6
CONTINUOUS
10
6.59767
20
-2.78202
11
6.59648
21
-2.77455
0
LINE
8
BLACK
6
CONTINUOUS
10
6.59648
20
-2.77455
11
6.59415
21
-2.76736
0
LINE
8
BLACK
6
CONTINUOUS
10
6.59415
20
-2.76736
11
6.59071
21
-2.76062
0
LINE
8
BLACK
6
CONTINUOUS
10
6.59071
20
-2.76062
11
6.58627
21
-2.75451
0
LINE
8
BLACK
6
CONTINUOUS
10
6.58627
20
-2.75451
11
6.58093
21
-2.74916
0
LINE
8
BLACK
6
CONTINUOUS
10
6.58093
20
-2.74916
11
6.57481
21
-2.74472
0
LINE
8
BLACK
6
CONTINUOUS
10
6.57481
20
-2.74472
11
6.56807
21
-2.74129
0
LINE
8
BLACK
6
CONTINUOUS
10
6.56807
20
-2.74129
11
6.56088
21
-2.73895
0
LINE
8
BLACK
6
CONTINUOUS
10
6.56088
20
-2.73895
11
6.55341
21
-2.73777
0
LINE
8
BLACK
6
CONTINUOUS
10
6.55341
20
-2.73777
11
6.54963
21
-2.73777
0
LINE
8
BLACK
6
CONTINUOUS
10
6.54963
20
-2.73777
11
4.64963
21
-2.73777
0
LINE
8
BLACK
6
CONTINUOUS
10
4.64963
20
-2.73777
11
4.64963
21
-2.73777
0
LINE
8
BLACK
6
CONTINUOUS
10
4.64963
20
-2.73777
11
4.64963
21
-2.73777
  0
ENDSEC
  0
EOF
