%TF.GenerationSoftware,KiCad,Pcbnew,7.0.1*%
%TF.CreationDate,2023-06-02T18:52:21-05:00*%
%TF.ProjectId,MiniSSO,4d696e69-5353-44f2-9e6b-696361645f70,2*%
%TF.SameCoordinates,Original*%
%TF.FileFunction,Drillmap*%
%TF.FilePolarity,Positive*%
%FSLAX45Y45*%
G04 Gerber Fmt 4.5, Leading zero omitted, Abs format (unit mm)*
G04 Created by KiCad (PCBNEW 7.0.1) date 2023-06-02 18:52:21*
%MOMM*%
%LPD*%
G01*
G04 APERTURE LIST*
%ADD10C,0.100000*%
%ADD11C,0.200000*%
%ADD12C,0.228600*%
G04 APERTURE END LIST*
D10*
X11683073Y-9107927D02*
G75*
G03*
X11810072Y-9234927I126997J-3D01*
G01*
X16636072Y-9234927D02*
X11810072Y-9234927D01*
X16763073Y-7075927D02*
G75*
G03*
X16636072Y-6948927I-127003J-3D01*
G01*
X16763072Y-7075927D02*
X16763072Y-9107927D01*
X16636072Y-9234933D02*
G75*
G03*
X16763072Y-9107927I-3J127003D01*
G01*
X11683072Y-9107927D02*
X11683072Y-7075927D01*
X11810072Y-6948932D02*
G75*
G03*
X11683072Y-7075927I-3J-126998D01*
G01*
X11810072Y-6948927D02*
X16636072Y-6948927D01*
D11*
D12*
X16394772Y-7025127D02*
X16623372Y-7253727D01*
X16623372Y-7025127D02*
X16394772Y-7253727D01*
X16394772Y-8930127D02*
X16623372Y-9158727D01*
X16623372Y-8930127D02*
X16394772Y-9158727D01*
D11*
X11925691Y-9552451D02*
X11925691Y-9352451D01*
X11925691Y-9352451D02*
X11973310Y-9352451D01*
X11973310Y-9352451D02*
X12001882Y-9361975D01*
X12001882Y-9361975D02*
X12020930Y-9381022D01*
X12020930Y-9381022D02*
X12030453Y-9400070D01*
X12030453Y-9400070D02*
X12039977Y-9438165D01*
X12039977Y-9438165D02*
X12039977Y-9466736D01*
X12039977Y-9466736D02*
X12030453Y-9504832D01*
X12030453Y-9504832D02*
X12020930Y-9523879D01*
X12020930Y-9523879D02*
X12001882Y-9542927D01*
X12001882Y-9542927D02*
X11973310Y-9552451D01*
X11973310Y-9552451D02*
X11925691Y-9552451D01*
X12125691Y-9552451D02*
X12125691Y-9419117D01*
X12125691Y-9457213D02*
X12135215Y-9438165D01*
X12135215Y-9438165D02*
X12144739Y-9428641D01*
X12144739Y-9428641D02*
X12163787Y-9419117D01*
X12163787Y-9419117D02*
X12182834Y-9419117D01*
X12249501Y-9552451D02*
X12249501Y-9419117D01*
X12249501Y-9352451D02*
X12239977Y-9361975D01*
X12239977Y-9361975D02*
X12249501Y-9371498D01*
X12249501Y-9371498D02*
X12259025Y-9361975D01*
X12259025Y-9361975D02*
X12249501Y-9352451D01*
X12249501Y-9352451D02*
X12249501Y-9371498D01*
X12373310Y-9552451D02*
X12354263Y-9542927D01*
X12354263Y-9542927D02*
X12344739Y-9523879D01*
X12344739Y-9523879D02*
X12344739Y-9352451D01*
X12478072Y-9552451D02*
X12459025Y-9542927D01*
X12459025Y-9542927D02*
X12449501Y-9523879D01*
X12449501Y-9523879D02*
X12449501Y-9352451D01*
X12706644Y-9552451D02*
X12706644Y-9352451D01*
X12706644Y-9352451D02*
X12773311Y-9495308D01*
X12773311Y-9495308D02*
X12839977Y-9352451D01*
X12839977Y-9352451D02*
X12839977Y-9552451D01*
X13020930Y-9552451D02*
X13020930Y-9447689D01*
X13020930Y-9447689D02*
X13011406Y-9428641D01*
X13011406Y-9428641D02*
X12992358Y-9419117D01*
X12992358Y-9419117D02*
X12954263Y-9419117D01*
X12954263Y-9419117D02*
X12935215Y-9428641D01*
X13020930Y-9542927D02*
X13001882Y-9552451D01*
X13001882Y-9552451D02*
X12954263Y-9552451D01*
X12954263Y-9552451D02*
X12935215Y-9542927D01*
X12935215Y-9542927D02*
X12925691Y-9523879D01*
X12925691Y-9523879D02*
X12925691Y-9504832D01*
X12925691Y-9504832D02*
X12935215Y-9485784D01*
X12935215Y-9485784D02*
X12954263Y-9476260D01*
X12954263Y-9476260D02*
X13001882Y-9476260D01*
X13001882Y-9476260D02*
X13020930Y-9466736D01*
X13116168Y-9419117D02*
X13116168Y-9619117D01*
X13116168Y-9428641D02*
X13135215Y-9419117D01*
X13135215Y-9419117D02*
X13173311Y-9419117D01*
X13173311Y-9419117D02*
X13192358Y-9428641D01*
X13192358Y-9428641D02*
X13201882Y-9438165D01*
X13201882Y-9438165D02*
X13211406Y-9457213D01*
X13211406Y-9457213D02*
X13211406Y-9514355D01*
X13211406Y-9514355D02*
X13201882Y-9533403D01*
X13201882Y-9533403D02*
X13192358Y-9542927D01*
X13192358Y-9542927D02*
X13173311Y-9552451D01*
X13173311Y-9552451D02*
X13135215Y-9552451D01*
X13135215Y-9552451D02*
X13116168Y-9542927D01*
X13297120Y-9533403D02*
X13306644Y-9542927D01*
X13306644Y-9542927D02*
X13297120Y-9552451D01*
X13297120Y-9552451D02*
X13287596Y-9542927D01*
X13287596Y-9542927D02*
X13297120Y-9533403D01*
X13297120Y-9533403D02*
X13297120Y-9552451D01*
X13297120Y-9428641D02*
X13306644Y-9438165D01*
X13306644Y-9438165D02*
X13297120Y-9447689D01*
X13297120Y-9447689D02*
X13287596Y-9438165D01*
X13287596Y-9438165D02*
X13297120Y-9428641D01*
X13297120Y-9428641D02*
X13297120Y-9447689D01*
X11478072Y-9779927D02*
X11678072Y-9979927D01*
X11678072Y-9779927D02*
X11478072Y-9979927D01*
X11916168Y-9791498D02*
X11925691Y-9781975D01*
X11925691Y-9781975D02*
X11944739Y-9772451D01*
X11944739Y-9772451D02*
X11992358Y-9772451D01*
X11992358Y-9772451D02*
X12011406Y-9781975D01*
X12011406Y-9781975D02*
X12020930Y-9791498D01*
X12020930Y-9791498D02*
X12030453Y-9810546D01*
X12030453Y-9810546D02*
X12030453Y-9829594D01*
X12030453Y-9829594D02*
X12020930Y-9858165D01*
X12020930Y-9858165D02*
X11906644Y-9972451D01*
X11906644Y-9972451D02*
X12030453Y-9972451D01*
X12116168Y-9953403D02*
X12125691Y-9962927D01*
X12125691Y-9962927D02*
X12116168Y-9972451D01*
X12116168Y-9972451D02*
X12106644Y-9962927D01*
X12106644Y-9962927D02*
X12116168Y-9953403D01*
X12116168Y-9953403D02*
X12116168Y-9972451D01*
X12201882Y-9791498D02*
X12211406Y-9781975D01*
X12211406Y-9781975D02*
X12230453Y-9772451D01*
X12230453Y-9772451D02*
X12278072Y-9772451D01*
X12278072Y-9772451D02*
X12297120Y-9781975D01*
X12297120Y-9781975D02*
X12306644Y-9791498D01*
X12306644Y-9791498D02*
X12316168Y-9810546D01*
X12316168Y-9810546D02*
X12316168Y-9829594D01*
X12316168Y-9829594D02*
X12306644Y-9858165D01*
X12306644Y-9858165D02*
X12192358Y-9972451D01*
X12192358Y-9972451D02*
X12316168Y-9972451D01*
X12430453Y-9858165D02*
X12411406Y-9848641D01*
X12411406Y-9848641D02*
X12401882Y-9839117D01*
X12401882Y-9839117D02*
X12392358Y-9820070D01*
X12392358Y-9820070D02*
X12392358Y-9810546D01*
X12392358Y-9810546D02*
X12401882Y-9791498D01*
X12401882Y-9791498D02*
X12411406Y-9781975D01*
X12411406Y-9781975D02*
X12430453Y-9772451D01*
X12430453Y-9772451D02*
X12468549Y-9772451D01*
X12468549Y-9772451D02*
X12487596Y-9781975D01*
X12487596Y-9781975D02*
X12497120Y-9791498D01*
X12497120Y-9791498D02*
X12506644Y-9810546D01*
X12506644Y-9810546D02*
X12506644Y-9820070D01*
X12506644Y-9820070D02*
X12497120Y-9839117D01*
X12497120Y-9839117D02*
X12487596Y-9848641D01*
X12487596Y-9848641D02*
X12468549Y-9858165D01*
X12468549Y-9858165D02*
X12430453Y-9858165D01*
X12430453Y-9858165D02*
X12411406Y-9867689D01*
X12411406Y-9867689D02*
X12401882Y-9877213D01*
X12401882Y-9877213D02*
X12392358Y-9896260D01*
X12392358Y-9896260D02*
X12392358Y-9934355D01*
X12392358Y-9934355D02*
X12401882Y-9953403D01*
X12401882Y-9953403D02*
X12411406Y-9962927D01*
X12411406Y-9962927D02*
X12430453Y-9972451D01*
X12430453Y-9972451D02*
X12468549Y-9972451D01*
X12468549Y-9972451D02*
X12487596Y-9962927D01*
X12487596Y-9962927D02*
X12497120Y-9953403D01*
X12497120Y-9953403D02*
X12506644Y-9934355D01*
X12506644Y-9934355D02*
X12506644Y-9896260D01*
X12506644Y-9896260D02*
X12497120Y-9877213D01*
X12497120Y-9877213D02*
X12487596Y-9867689D01*
X12487596Y-9867689D02*
X12468549Y-9858165D01*
X12678072Y-9772451D02*
X12639977Y-9772451D01*
X12639977Y-9772451D02*
X12620930Y-9781975D01*
X12620930Y-9781975D02*
X12611406Y-9791498D01*
X12611406Y-9791498D02*
X12592358Y-9820070D01*
X12592358Y-9820070D02*
X12582834Y-9858165D01*
X12582834Y-9858165D02*
X12582834Y-9934355D01*
X12582834Y-9934355D02*
X12592358Y-9953403D01*
X12592358Y-9953403D02*
X12601882Y-9962927D01*
X12601882Y-9962927D02*
X12620930Y-9972451D01*
X12620930Y-9972451D02*
X12659025Y-9972451D01*
X12659025Y-9972451D02*
X12678072Y-9962927D01*
X12678072Y-9962927D02*
X12687596Y-9953403D01*
X12687596Y-9953403D02*
X12697120Y-9934355D01*
X12697120Y-9934355D02*
X12697120Y-9886736D01*
X12697120Y-9886736D02*
X12687596Y-9867689D01*
X12687596Y-9867689D02*
X12678072Y-9858165D01*
X12678072Y-9858165D02*
X12659025Y-9848641D01*
X12659025Y-9848641D02*
X12620930Y-9848641D01*
X12620930Y-9848641D02*
X12601882Y-9858165D01*
X12601882Y-9858165D02*
X12592358Y-9867689D01*
X12592358Y-9867689D02*
X12582834Y-9886736D01*
X12782834Y-9972451D02*
X12782834Y-9839117D01*
X12782834Y-9858165D02*
X12792358Y-9848641D01*
X12792358Y-9848641D02*
X12811406Y-9839117D01*
X12811406Y-9839117D02*
X12839977Y-9839117D01*
X12839977Y-9839117D02*
X12859025Y-9848641D01*
X12859025Y-9848641D02*
X12868549Y-9867689D01*
X12868549Y-9867689D02*
X12868549Y-9972451D01*
X12868549Y-9867689D02*
X12878072Y-9848641D01*
X12878072Y-9848641D02*
X12897120Y-9839117D01*
X12897120Y-9839117D02*
X12925691Y-9839117D01*
X12925691Y-9839117D02*
X12944739Y-9848641D01*
X12944739Y-9848641D02*
X12954263Y-9867689D01*
X12954263Y-9867689D02*
X12954263Y-9972451D01*
X13049501Y-9972451D02*
X13049501Y-9839117D01*
X13049501Y-9858165D02*
X13059025Y-9848641D01*
X13059025Y-9848641D02*
X13078072Y-9839117D01*
X13078072Y-9839117D02*
X13106644Y-9839117D01*
X13106644Y-9839117D02*
X13125692Y-9848641D01*
X13125692Y-9848641D02*
X13135215Y-9867689D01*
X13135215Y-9867689D02*
X13135215Y-9972451D01*
X13135215Y-9867689D02*
X13144739Y-9848641D01*
X13144739Y-9848641D02*
X13163787Y-9839117D01*
X13163787Y-9839117D02*
X13192358Y-9839117D01*
X13192358Y-9839117D02*
X13211406Y-9848641D01*
X13211406Y-9848641D02*
X13220930Y-9867689D01*
X13220930Y-9867689D02*
X13220930Y-9972451D01*
X13611406Y-9762927D02*
X13439977Y-10020070D01*
X13868549Y-9772451D02*
X13887596Y-9772451D01*
X13887596Y-9772451D02*
X13906644Y-9781975D01*
X13906644Y-9781975D02*
X13916168Y-9791498D01*
X13916168Y-9791498D02*
X13925692Y-9810546D01*
X13925692Y-9810546D02*
X13935215Y-9848641D01*
X13935215Y-9848641D02*
X13935215Y-9896260D01*
X13935215Y-9896260D02*
X13925692Y-9934355D01*
X13925692Y-9934355D02*
X13916168Y-9953403D01*
X13916168Y-9953403D02*
X13906644Y-9962927D01*
X13906644Y-9962927D02*
X13887596Y-9972451D01*
X13887596Y-9972451D02*
X13868549Y-9972451D01*
X13868549Y-9972451D02*
X13849501Y-9962927D01*
X13849501Y-9962927D02*
X13839977Y-9953403D01*
X13839977Y-9953403D02*
X13830454Y-9934355D01*
X13830454Y-9934355D02*
X13820930Y-9896260D01*
X13820930Y-9896260D02*
X13820930Y-9848641D01*
X13820930Y-9848641D02*
X13830454Y-9810546D01*
X13830454Y-9810546D02*
X13839977Y-9791498D01*
X13839977Y-9791498D02*
X13849501Y-9781975D01*
X13849501Y-9781975D02*
X13868549Y-9772451D01*
X14020930Y-9953403D02*
X14030454Y-9962927D01*
X14030454Y-9962927D02*
X14020930Y-9972451D01*
X14020930Y-9972451D02*
X14011406Y-9962927D01*
X14011406Y-9962927D02*
X14020930Y-9953403D01*
X14020930Y-9953403D02*
X14020930Y-9972451D01*
X14154263Y-9772451D02*
X14173311Y-9772451D01*
X14173311Y-9772451D02*
X14192358Y-9781975D01*
X14192358Y-9781975D02*
X14201882Y-9791498D01*
X14201882Y-9791498D02*
X14211406Y-9810546D01*
X14211406Y-9810546D02*
X14220930Y-9848641D01*
X14220930Y-9848641D02*
X14220930Y-9896260D01*
X14220930Y-9896260D02*
X14211406Y-9934355D01*
X14211406Y-9934355D02*
X14201882Y-9953403D01*
X14201882Y-9953403D02*
X14192358Y-9962927D01*
X14192358Y-9962927D02*
X14173311Y-9972451D01*
X14173311Y-9972451D02*
X14154263Y-9972451D01*
X14154263Y-9972451D02*
X14135215Y-9962927D01*
X14135215Y-9962927D02*
X14125692Y-9953403D01*
X14125692Y-9953403D02*
X14116168Y-9934355D01*
X14116168Y-9934355D02*
X14106644Y-9896260D01*
X14106644Y-9896260D02*
X14106644Y-9848641D01*
X14106644Y-9848641D02*
X14116168Y-9810546D01*
X14116168Y-9810546D02*
X14125692Y-9791498D01*
X14125692Y-9791498D02*
X14135215Y-9781975D01*
X14135215Y-9781975D02*
X14154263Y-9772451D01*
X14316168Y-9972451D02*
X14354263Y-9972451D01*
X14354263Y-9972451D02*
X14373311Y-9962927D01*
X14373311Y-9962927D02*
X14382835Y-9953403D01*
X14382835Y-9953403D02*
X14401882Y-9924832D01*
X14401882Y-9924832D02*
X14411406Y-9886736D01*
X14411406Y-9886736D02*
X14411406Y-9810546D01*
X14411406Y-9810546D02*
X14401882Y-9791498D01*
X14401882Y-9791498D02*
X14392358Y-9781975D01*
X14392358Y-9781975D02*
X14373311Y-9772451D01*
X14373311Y-9772451D02*
X14335215Y-9772451D01*
X14335215Y-9772451D02*
X14316168Y-9781975D01*
X14316168Y-9781975D02*
X14306644Y-9791498D01*
X14306644Y-9791498D02*
X14297120Y-9810546D01*
X14297120Y-9810546D02*
X14297120Y-9858165D01*
X14297120Y-9858165D02*
X14306644Y-9877213D01*
X14306644Y-9877213D02*
X14316168Y-9886736D01*
X14316168Y-9886736D02*
X14335215Y-9896260D01*
X14335215Y-9896260D02*
X14373311Y-9896260D01*
X14373311Y-9896260D02*
X14392358Y-9886736D01*
X14392358Y-9886736D02*
X14401882Y-9877213D01*
X14401882Y-9877213D02*
X14411406Y-9858165D01*
X14535215Y-9772451D02*
X14554263Y-9772451D01*
X14554263Y-9772451D02*
X14573311Y-9781975D01*
X14573311Y-9781975D02*
X14582835Y-9791498D01*
X14582835Y-9791498D02*
X14592358Y-9810546D01*
X14592358Y-9810546D02*
X14601882Y-9848641D01*
X14601882Y-9848641D02*
X14601882Y-9896260D01*
X14601882Y-9896260D02*
X14592358Y-9934355D01*
X14592358Y-9934355D02*
X14582835Y-9953403D01*
X14582835Y-9953403D02*
X14573311Y-9962927D01*
X14573311Y-9962927D02*
X14554263Y-9972451D01*
X14554263Y-9972451D02*
X14535215Y-9972451D01*
X14535215Y-9972451D02*
X14516168Y-9962927D01*
X14516168Y-9962927D02*
X14506644Y-9953403D01*
X14506644Y-9953403D02*
X14497120Y-9934355D01*
X14497120Y-9934355D02*
X14487596Y-9896260D01*
X14487596Y-9896260D02*
X14487596Y-9848641D01*
X14487596Y-9848641D02*
X14497120Y-9810546D01*
X14497120Y-9810546D02*
X14506644Y-9791498D01*
X14506644Y-9791498D02*
X14516168Y-9781975D01*
X14516168Y-9781975D02*
X14535215Y-9772451D01*
X14725692Y-9772451D02*
X14744739Y-9772451D01*
X14744739Y-9772451D02*
X14763787Y-9781975D01*
X14763787Y-9781975D02*
X14773311Y-9791498D01*
X14773311Y-9791498D02*
X14782835Y-9810546D01*
X14782835Y-9810546D02*
X14792358Y-9848641D01*
X14792358Y-9848641D02*
X14792358Y-9896260D01*
X14792358Y-9896260D02*
X14782835Y-9934355D01*
X14782835Y-9934355D02*
X14773311Y-9953403D01*
X14773311Y-9953403D02*
X14763787Y-9962927D01*
X14763787Y-9962927D02*
X14744739Y-9972451D01*
X14744739Y-9972451D02*
X14725692Y-9972451D01*
X14725692Y-9972451D02*
X14706644Y-9962927D01*
X14706644Y-9962927D02*
X14697120Y-9953403D01*
X14697120Y-9953403D02*
X14687596Y-9934355D01*
X14687596Y-9934355D02*
X14678073Y-9896260D01*
X14678073Y-9896260D02*
X14678073Y-9848641D01*
X14678073Y-9848641D02*
X14687596Y-9810546D01*
X14687596Y-9810546D02*
X14697120Y-9791498D01*
X14697120Y-9791498D02*
X14706644Y-9781975D01*
X14706644Y-9781975D02*
X14725692Y-9772451D01*
X14868549Y-9772451D02*
X14868549Y-9810546D01*
X14944739Y-9772451D02*
X14944739Y-9810546D01*
X15239978Y-10048641D02*
X15230454Y-10039117D01*
X15230454Y-10039117D02*
X15211406Y-10010546D01*
X15211406Y-10010546D02*
X15201882Y-9991498D01*
X15201882Y-9991498D02*
X15192358Y-9962927D01*
X15192358Y-9962927D02*
X15182835Y-9915308D01*
X15182835Y-9915308D02*
X15182835Y-9877213D01*
X15182835Y-9877213D02*
X15192358Y-9829594D01*
X15192358Y-9829594D02*
X15201882Y-9801022D01*
X15201882Y-9801022D02*
X15211406Y-9781975D01*
X15211406Y-9781975D02*
X15230454Y-9753403D01*
X15230454Y-9753403D02*
X15239978Y-9743879D01*
X15306644Y-9791498D02*
X15316168Y-9781975D01*
X15316168Y-9781975D02*
X15335216Y-9772451D01*
X15335216Y-9772451D02*
X15382835Y-9772451D01*
X15382835Y-9772451D02*
X15401882Y-9781975D01*
X15401882Y-9781975D02*
X15411406Y-9791498D01*
X15411406Y-9791498D02*
X15420930Y-9810546D01*
X15420930Y-9810546D02*
X15420930Y-9829594D01*
X15420930Y-9829594D02*
X15411406Y-9858165D01*
X15411406Y-9858165D02*
X15297120Y-9972451D01*
X15297120Y-9972451D02*
X15420930Y-9972451D01*
X15659025Y-9972451D02*
X15659025Y-9772451D01*
X15744739Y-9972451D02*
X15744739Y-9867689D01*
X15744739Y-9867689D02*
X15735216Y-9848641D01*
X15735216Y-9848641D02*
X15716168Y-9839117D01*
X15716168Y-9839117D02*
X15687597Y-9839117D01*
X15687597Y-9839117D02*
X15668549Y-9848641D01*
X15668549Y-9848641D02*
X15659025Y-9858165D01*
X15868549Y-9972451D02*
X15849501Y-9962927D01*
X15849501Y-9962927D02*
X15839978Y-9953403D01*
X15839978Y-9953403D02*
X15830454Y-9934355D01*
X15830454Y-9934355D02*
X15830454Y-9877213D01*
X15830454Y-9877213D02*
X15839978Y-9858165D01*
X15839978Y-9858165D02*
X15849501Y-9848641D01*
X15849501Y-9848641D02*
X15868549Y-9839117D01*
X15868549Y-9839117D02*
X15897120Y-9839117D01*
X15897120Y-9839117D02*
X15916168Y-9848641D01*
X15916168Y-9848641D02*
X15925692Y-9858165D01*
X15925692Y-9858165D02*
X15935216Y-9877213D01*
X15935216Y-9877213D02*
X15935216Y-9934355D01*
X15935216Y-9934355D02*
X15925692Y-9953403D01*
X15925692Y-9953403D02*
X15916168Y-9962927D01*
X15916168Y-9962927D02*
X15897120Y-9972451D01*
X15897120Y-9972451D02*
X15868549Y-9972451D01*
X16049501Y-9972451D02*
X16030454Y-9962927D01*
X16030454Y-9962927D02*
X16020930Y-9943879D01*
X16020930Y-9943879D02*
X16020930Y-9772451D01*
X16201882Y-9962927D02*
X16182835Y-9972451D01*
X16182835Y-9972451D02*
X16144739Y-9972451D01*
X16144739Y-9972451D02*
X16125692Y-9962927D01*
X16125692Y-9962927D02*
X16116168Y-9943879D01*
X16116168Y-9943879D02*
X16116168Y-9867689D01*
X16116168Y-9867689D02*
X16125692Y-9848641D01*
X16125692Y-9848641D02*
X16144739Y-9839117D01*
X16144739Y-9839117D02*
X16182835Y-9839117D01*
X16182835Y-9839117D02*
X16201882Y-9848641D01*
X16201882Y-9848641D02*
X16211406Y-9867689D01*
X16211406Y-9867689D02*
X16211406Y-9886736D01*
X16211406Y-9886736D02*
X16116168Y-9905784D01*
X16287597Y-9962927D02*
X16306644Y-9972451D01*
X16306644Y-9972451D02*
X16344739Y-9972451D01*
X16344739Y-9972451D02*
X16363787Y-9962927D01*
X16363787Y-9962927D02*
X16373311Y-9943879D01*
X16373311Y-9943879D02*
X16373311Y-9934355D01*
X16373311Y-9934355D02*
X16363787Y-9915308D01*
X16363787Y-9915308D02*
X16344739Y-9905784D01*
X16344739Y-9905784D02*
X16316168Y-9905784D01*
X16316168Y-9905784D02*
X16297120Y-9896260D01*
X16297120Y-9896260D02*
X16287597Y-9877213D01*
X16287597Y-9877213D02*
X16287597Y-9867689D01*
X16287597Y-9867689D02*
X16297120Y-9848641D01*
X16297120Y-9848641D02*
X16316168Y-9839117D01*
X16316168Y-9839117D02*
X16344739Y-9839117D01*
X16344739Y-9839117D02*
X16363787Y-9848641D01*
X16439978Y-10048641D02*
X16449501Y-10039117D01*
X16449501Y-10039117D02*
X16468549Y-10010546D01*
X16468549Y-10010546D02*
X16478073Y-9991498D01*
X16478073Y-9991498D02*
X16487597Y-9962927D01*
X16487597Y-9962927D02*
X16497120Y-9915308D01*
X16497120Y-9915308D02*
X16497120Y-9877213D01*
X16497120Y-9877213D02*
X16487597Y-9829594D01*
X16487597Y-9829594D02*
X16478073Y-9801022D01*
X16478073Y-9801022D02*
X16468549Y-9781975D01*
X16468549Y-9781975D02*
X16449501Y-9753403D01*
X16449501Y-9753403D02*
X16439978Y-9743879D01*
X16801883Y-10048641D02*
X16792359Y-10039117D01*
X16792359Y-10039117D02*
X16773311Y-10010546D01*
X16773311Y-10010546D02*
X16763787Y-9991498D01*
X16763787Y-9991498D02*
X16754263Y-9962927D01*
X16754263Y-9962927D02*
X16744740Y-9915308D01*
X16744740Y-9915308D02*
X16744740Y-9877213D01*
X16744740Y-9877213D02*
X16754263Y-9829594D01*
X16754263Y-9829594D02*
X16763787Y-9801022D01*
X16763787Y-9801022D02*
X16773311Y-9781975D01*
X16773311Y-9781975D02*
X16792359Y-9753403D01*
X16792359Y-9753403D02*
X16801883Y-9743879D01*
X16878073Y-9839117D02*
X16878073Y-9972451D01*
X16878073Y-9858165D02*
X16887597Y-9848641D01*
X16887597Y-9848641D02*
X16906644Y-9839117D01*
X16906644Y-9839117D02*
X16935216Y-9839117D01*
X16935216Y-9839117D02*
X16954263Y-9848641D01*
X16954263Y-9848641D02*
X16963787Y-9867689D01*
X16963787Y-9867689D02*
X16963787Y-9972451D01*
X17087597Y-9972451D02*
X17068549Y-9962927D01*
X17068549Y-9962927D02*
X17059025Y-9953403D01*
X17059025Y-9953403D02*
X17049502Y-9934355D01*
X17049502Y-9934355D02*
X17049502Y-9877213D01*
X17049502Y-9877213D02*
X17059025Y-9858165D01*
X17059025Y-9858165D02*
X17068549Y-9848641D01*
X17068549Y-9848641D02*
X17087597Y-9839117D01*
X17087597Y-9839117D02*
X17116168Y-9839117D01*
X17116168Y-9839117D02*
X17135216Y-9848641D01*
X17135216Y-9848641D02*
X17144740Y-9858165D01*
X17144740Y-9858165D02*
X17154263Y-9877213D01*
X17154263Y-9877213D02*
X17154263Y-9934355D01*
X17154263Y-9934355D02*
X17144740Y-9953403D01*
X17144740Y-9953403D02*
X17135216Y-9962927D01*
X17135216Y-9962927D02*
X17116168Y-9972451D01*
X17116168Y-9972451D02*
X17087597Y-9972451D01*
X17211406Y-9839117D02*
X17287597Y-9839117D01*
X17239978Y-9772451D02*
X17239978Y-9943879D01*
X17239978Y-9943879D02*
X17249502Y-9962927D01*
X17249502Y-9962927D02*
X17268549Y-9972451D01*
X17268549Y-9972451D02*
X17287597Y-9972451D01*
X17506644Y-9839117D02*
X17506644Y-10039117D01*
X17506644Y-9848641D02*
X17525692Y-9839117D01*
X17525692Y-9839117D02*
X17563787Y-9839117D01*
X17563787Y-9839117D02*
X17582835Y-9848641D01*
X17582835Y-9848641D02*
X17592359Y-9858165D01*
X17592359Y-9858165D02*
X17601883Y-9877213D01*
X17601883Y-9877213D02*
X17601883Y-9934355D01*
X17601883Y-9934355D02*
X17592359Y-9953403D01*
X17592359Y-9953403D02*
X17582835Y-9962927D01*
X17582835Y-9962927D02*
X17563787Y-9972451D01*
X17563787Y-9972451D02*
X17525692Y-9972451D01*
X17525692Y-9972451D02*
X17506644Y-9962927D01*
X17716168Y-9972451D02*
X17697121Y-9962927D01*
X17697121Y-9962927D02*
X17687597Y-9943879D01*
X17687597Y-9943879D02*
X17687597Y-9772451D01*
X17878073Y-9972451D02*
X17878073Y-9867689D01*
X17878073Y-9867689D02*
X17868549Y-9848641D01*
X17868549Y-9848641D02*
X17849502Y-9839117D01*
X17849502Y-9839117D02*
X17811406Y-9839117D01*
X17811406Y-9839117D02*
X17792359Y-9848641D01*
X17878073Y-9962927D02*
X17859025Y-9972451D01*
X17859025Y-9972451D02*
X17811406Y-9972451D01*
X17811406Y-9972451D02*
X17792359Y-9962927D01*
X17792359Y-9962927D02*
X17782835Y-9943879D01*
X17782835Y-9943879D02*
X17782835Y-9924832D01*
X17782835Y-9924832D02*
X17792359Y-9905784D01*
X17792359Y-9905784D02*
X17811406Y-9896260D01*
X17811406Y-9896260D02*
X17859025Y-9896260D01*
X17859025Y-9896260D02*
X17878073Y-9886736D01*
X17944740Y-9839117D02*
X18020930Y-9839117D01*
X17973311Y-9772451D02*
X17973311Y-9943879D01*
X17973311Y-9943879D02*
X17982835Y-9962927D01*
X17982835Y-9962927D02*
X18001883Y-9972451D01*
X18001883Y-9972451D02*
X18020930Y-9972451D01*
X18163787Y-9962927D02*
X18144740Y-9972451D01*
X18144740Y-9972451D02*
X18106644Y-9972451D01*
X18106644Y-9972451D02*
X18087597Y-9962927D01*
X18087597Y-9962927D02*
X18078073Y-9943879D01*
X18078073Y-9943879D02*
X18078073Y-9867689D01*
X18078073Y-9867689D02*
X18087597Y-9848641D01*
X18087597Y-9848641D02*
X18106644Y-9839117D01*
X18106644Y-9839117D02*
X18144740Y-9839117D01*
X18144740Y-9839117D02*
X18163787Y-9848641D01*
X18163787Y-9848641D02*
X18173311Y-9867689D01*
X18173311Y-9867689D02*
X18173311Y-9886736D01*
X18173311Y-9886736D02*
X18078073Y-9905784D01*
X18344740Y-9972451D02*
X18344740Y-9772451D01*
X18344740Y-9962927D02*
X18325692Y-9972451D01*
X18325692Y-9972451D02*
X18287597Y-9972451D01*
X18287597Y-9972451D02*
X18268549Y-9962927D01*
X18268549Y-9962927D02*
X18259025Y-9953403D01*
X18259025Y-9953403D02*
X18249502Y-9934355D01*
X18249502Y-9934355D02*
X18249502Y-9877213D01*
X18249502Y-9877213D02*
X18259025Y-9858165D01*
X18259025Y-9858165D02*
X18268549Y-9848641D01*
X18268549Y-9848641D02*
X18287597Y-9839117D01*
X18287597Y-9839117D02*
X18325692Y-9839117D01*
X18325692Y-9839117D02*
X18344740Y-9848641D01*
X18420930Y-10048641D02*
X18430454Y-10039117D01*
X18430454Y-10039117D02*
X18449502Y-10010546D01*
X18449502Y-10010546D02*
X18459025Y-9991498D01*
X18459025Y-9991498D02*
X18468549Y-9962927D01*
X18468549Y-9962927D02*
X18478073Y-9915308D01*
X18478073Y-9915308D02*
X18478073Y-9877213D01*
X18478073Y-9877213D02*
X18468549Y-9829594D01*
X18468549Y-9829594D02*
X18459025Y-9801022D01*
X18459025Y-9801022D02*
X18449502Y-9781975D01*
X18449502Y-9781975D02*
X18430454Y-9753403D01*
X18430454Y-9753403D02*
X18420930Y-9743879D01*
M02*
