G04 #@! TF.GenerationSoftware,KiCad,Pcbnew,7.0.1*
G04 #@! TF.CreationDate,2023-06-02T18:51:41-05:00*
G04 #@! TF.ProjectId,MiniSSO,4d696e69-5353-44f2-9e6b-696361645f70,2*
G04 #@! TF.SameCoordinates,Original*
G04 #@! TF.FileFunction,Copper,L2,Bot*
G04 #@! TF.FilePolarity,Positive*
%FSLAX46Y46*%
G04 Gerber Fmt 4.6, Leading zero omitted, Abs format (unit mm)*
G04 Created by KiCad (PCBNEW 7.0.1) date 2023-06-02 18:51:41*
%MOMM*%
%LPD*%
G01*
G04 APERTURE LIST*
G04 Aperture macros list*
%AMFreePoly0*
4,1,19,0.550000,-0.750000,0.000000,-0.750000,0.000000,-0.744911,-0.071157,-0.744911,-0.207708,-0.704816,-0.327430,-0.627875,-0.420627,-0.520320,-0.479746,-0.390866,-0.500000,-0.250000,-0.500000,0.250000,-0.479746,0.390866,-0.420627,0.520320,-0.327430,0.627875,-0.207708,0.704816,-0.071157,0.744911,0.000000,0.744911,0.000000,0.750000,0.550000,0.750000,0.550000,-0.750000,0.550000,-0.750000,
$1*%
%AMFreePoly1*
4,1,19,0.000000,0.744911,0.071157,0.744911,0.207708,0.704816,0.327430,0.627875,0.420627,0.520320,0.479746,0.390866,0.500000,0.250000,0.500000,-0.250000,0.479746,-0.390866,0.420627,-0.520320,0.327430,-0.627875,0.207708,-0.704816,0.071157,-0.744911,0.000000,-0.744911,0.000000,-0.750000,-0.550000,-0.750000,-0.550000,0.750000,0.000000,0.750000,0.000000,0.744911,0.000000,0.744911,
$1*%
G04 Aperture macros list end*
G04 #@! TA.AperFunction,ComponentPad*
%ADD10C,4.500000*%
G04 #@! TD*
G04 #@! TA.AperFunction,ComponentPad*
%ADD11O,1.700000X1.700000*%
G04 #@! TD*
G04 #@! TA.AperFunction,ComponentPad*
%ADD12C,1.950000*%
G04 #@! TD*
G04 #@! TA.AperFunction,ComponentPad*
%ADD13C,2.000000*%
G04 #@! TD*
G04 #@! TA.AperFunction,SMDPad,CuDef*
%ADD14C,2.500000*%
G04 #@! TD*
G04 #@! TA.AperFunction,SMDPad,CuDef*
%ADD15FreePoly0,270.000000*%
G04 #@! TD*
G04 #@! TA.AperFunction,SMDPad,CuDef*
%ADD16R,1.500000X1.000000*%
G04 #@! TD*
G04 #@! TA.AperFunction,SMDPad,CuDef*
%ADD17FreePoly1,270.000000*%
G04 #@! TD*
G04 #@! TA.AperFunction,ViaPad*
%ADD18C,0.800000*%
G04 #@! TD*
G04 #@! TA.AperFunction,Conductor*
%ADD19C,0.250000*%
G04 #@! TD*
G04 #@! TA.AperFunction,Conductor*
%ADD20C,3.000000*%
G04 #@! TD*
G04 APERTURE END LIST*
G04 #@! TA.AperFunction,EtchedComponent*
G36*
X134957500Y-75450000D02*
G01*
X134357500Y-75450000D01*
X134357500Y-74950000D01*
X134957500Y-74950000D01*
X134957500Y-75450000D01*
G37*
G04 #@! TD.AperFunction*
G04 #@! TA.AperFunction,EtchedComponent*
G36*
X135207500Y-85100000D02*
G01*
X134607500Y-85100000D01*
X134607500Y-84600000D01*
X135207500Y-84600000D01*
X135207500Y-85100000D01*
G37*
G04 #@! TD.AperFunction*
G04 #@! TA.AperFunction,EtchedComponent*
G36*
X131150000Y-85100000D02*
G01*
X130550000Y-85100000D01*
X130550000Y-84600000D01*
X131150000Y-84600000D01*
X131150000Y-85100000D01*
G37*
G04 #@! TD.AperFunction*
D10*
X119370725Y-72029269D03*
D11*
X133340725Y-70759269D03*
X135880725Y-70759269D03*
X138420725Y-70759269D03*
X140960725Y-70759269D03*
X143500725Y-70759269D03*
X146040725Y-70759269D03*
X148580725Y-70759269D03*
X151120725Y-70759269D03*
X153660725Y-70759269D03*
X156200725Y-70759269D03*
X158740725Y-70759269D03*
X161280725Y-70759269D03*
D12*
X120954800Y-82956400D03*
X120954800Y-79456400D03*
D10*
X119370725Y-89809269D03*
D13*
X126492000Y-72771000D03*
X129032000Y-72771000D03*
D11*
X161280725Y-91079269D03*
X158740725Y-91079269D03*
X156200725Y-91079269D03*
X153660725Y-91079269D03*
X151120725Y-91079269D03*
X148580725Y-91079269D03*
X146040725Y-91079269D03*
X143500725Y-91079269D03*
X140960725Y-91079269D03*
X138420725Y-91079269D03*
X135880725Y-91079269D03*
X133340725Y-91079269D03*
X130800725Y-91079269D03*
X128260725Y-91079269D03*
X125720725Y-91079269D03*
X123180725Y-91079269D03*
D12*
X163682400Y-77424400D03*
X163682400Y-80924400D03*
X163682400Y-84424400D03*
D14*
X155792850Y-76327000D03*
D15*
X134657500Y-74550000D03*
D16*
X134657500Y-75850000D03*
D17*
X134657500Y-77150000D03*
D15*
X134907500Y-84200000D03*
D16*
X134907500Y-85500000D03*
D17*
X134907500Y-86800000D03*
D15*
X130850000Y-84200000D03*
D16*
X130850000Y-85500000D03*
D17*
X130850000Y-86800000D03*
D14*
X155825000Y-85400000D03*
D18*
X163500000Y-74500000D03*
X163500000Y-87000000D03*
X141000000Y-85000000D03*
X142500000Y-77000000D03*
X165500000Y-87000000D03*
X142500000Y-85000000D03*
X141000000Y-77000000D03*
X165500000Y-74500000D03*
X132083380Y-78528796D03*
X131100000Y-74784169D03*
X132250000Y-83023900D03*
X139178213Y-75328213D03*
X136450000Y-83023900D03*
X131100000Y-78350000D03*
X155792850Y-76327000D03*
X134200000Y-83023900D03*
X136625000Y-85950000D03*
X155800000Y-85425000D03*
D19*
X134907500Y-87357500D02*
X137005238Y-89455238D01*
X134907500Y-86800000D02*
X134907500Y-87357500D01*
X137005238Y-89455238D02*
X144416694Y-89455238D01*
X144416694Y-89455238D02*
X146040725Y-91079269D01*
X133954758Y-89904758D02*
X142326214Y-89904758D01*
X130850000Y-86800000D02*
X133954758Y-89904758D01*
X142326214Y-89904758D02*
X143500725Y-91079269D01*
X134657500Y-77150000D02*
X133462176Y-77150000D01*
X133462176Y-77150000D02*
X132083380Y-78528796D01*
X134657500Y-77150000D02*
X134525000Y-77150000D01*
X131334169Y-74550000D02*
X131100000Y-74784169D01*
X140183587Y-70759269D02*
X140960725Y-70759269D01*
X134657500Y-74550000D02*
X131334169Y-74550000D01*
X130850000Y-84200000D02*
X131073900Y-84200000D01*
X131073900Y-84200000D02*
X132250000Y-83023900D01*
X139178213Y-75328213D02*
X141856426Y-72650000D01*
X134907500Y-84200000D02*
X135273900Y-84200000D01*
X141856426Y-72650000D02*
X144149994Y-72650000D01*
X144149994Y-72650000D02*
X146040725Y-70759269D01*
X135273900Y-84200000D02*
X136450000Y-83023900D01*
X133657500Y-75850000D02*
X131157500Y-78350000D01*
X131157500Y-78350000D02*
X131100000Y-78350000D01*
X134657500Y-75850000D02*
X133657500Y-75850000D01*
X130850000Y-85500000D02*
X131850000Y-85500000D01*
X134200000Y-83150000D02*
X134200000Y-83023900D01*
X131850000Y-85500000D02*
X134200000Y-83150000D01*
D20*
X123494800Y-82956400D02*
X125526800Y-80924400D01*
X125526800Y-80924400D02*
X163682400Y-80924400D01*
X120954800Y-82956400D02*
X123494800Y-82956400D01*
D19*
X136175000Y-85500000D02*
X136625000Y-85950000D01*
X134907500Y-85500000D02*
X136175000Y-85500000D01*
G04 #@! TA.AperFunction,Conductor*
G36*
X132226688Y-69740759D02*
G01*
X132273004Y-69789031D01*
X132288082Y-69854207D01*
X132267673Y-69917916D01*
X132265006Y-69921996D01*
X132265003Y-69922001D01*
X132203690Y-70015847D01*
X132141864Y-70110478D01*
X132051427Y-70316657D01*
X131996162Y-70534896D01*
X131996161Y-70534901D01*
X131977569Y-70759269D01*
X131996161Y-70983637D01*
X131996161Y-70983640D01*
X131996162Y-70983641D01*
X132051427Y-71201880D01*
X132141864Y-71408059D01*
X132171633Y-71453624D01*
X132265003Y-71596537D01*
X132361197Y-71701031D01*
X132417487Y-71762177D01*
X132552453Y-71867226D01*
X132595149Y-71900458D01*
X132793151Y-72007611D01*
X133006090Y-72080713D01*
X133228156Y-72117769D01*
X133453291Y-72117769D01*
X133453294Y-72117769D01*
X133675360Y-72080713D01*
X133888299Y-72007611D01*
X134086301Y-71900458D01*
X134263965Y-71762175D01*
X134416447Y-71596537D01*
X134505243Y-71460623D01*
X134550756Y-71418727D01*
X134610725Y-71403541D01*
X134670694Y-71418727D01*
X134716206Y-71460623D01*
X134805003Y-71596537D01*
X134901197Y-71701031D01*
X134957487Y-71762177D01*
X135092453Y-71867226D01*
X135135149Y-71900458D01*
X135333151Y-72007611D01*
X135546090Y-72080713D01*
X135768156Y-72117769D01*
X135993291Y-72117769D01*
X135993294Y-72117769D01*
X136215360Y-72080713D01*
X136428299Y-72007611D01*
X136626301Y-71900458D01*
X136803965Y-71762175D01*
X136956447Y-71596537D01*
X137045243Y-71460623D01*
X137090756Y-71418727D01*
X137150725Y-71403541D01*
X137210694Y-71418727D01*
X137256206Y-71460623D01*
X137345003Y-71596537D01*
X137441197Y-71701031D01*
X137497487Y-71762177D01*
X137632453Y-71867226D01*
X137675149Y-71900458D01*
X137873151Y-72007611D01*
X138086090Y-72080713D01*
X138308156Y-72117769D01*
X138533291Y-72117769D01*
X138533294Y-72117769D01*
X138755360Y-72080713D01*
X138968299Y-72007611D01*
X139166301Y-71900458D01*
X139343965Y-71762175D01*
X139496447Y-71596537D01*
X139585243Y-71460623D01*
X139630756Y-71418727D01*
X139690725Y-71403541D01*
X139750694Y-71418727D01*
X139796206Y-71460623D01*
X139885003Y-71596537D01*
X139981197Y-71701031D01*
X140037487Y-71762177D01*
X140172453Y-71867226D01*
X140215149Y-71900458D01*
X140413151Y-72007611D01*
X140626090Y-72080713D01*
X140848156Y-72117769D01*
X141073294Y-72117769D01*
X141073296Y-72117769D01*
X141115036Y-72110803D01*
X141188820Y-72098491D01*
X141251453Y-72103941D01*
X141303657Y-72138979D01*
X141332432Y-72194879D01*
X141330613Y-72257725D01*
X141298653Y-72311867D01*
X139227713Y-74382808D01*
X139186836Y-74410122D01*
X139138618Y-74419713D01*
X139082726Y-74419713D01*
X138958192Y-74446183D01*
X138895924Y-74459419D01*
X138721459Y-74537096D01*
X138566960Y-74649346D01*
X138439171Y-74791270D01*
X138343685Y-74956656D01*
X138284671Y-75138283D01*
X138264709Y-75328213D01*
X138284671Y-75518142D01*
X138343685Y-75699769D01*
X138439171Y-75865155D01*
X138439173Y-75865157D01*
X138566960Y-76007079D01*
X138721461Y-76119331D01*
X138895925Y-76197007D01*
X139082726Y-76236713D01*
X139273698Y-76236713D01*
X139273700Y-76236713D01*
X139460501Y-76197007D01*
X139634965Y-76119331D01*
X139789466Y-76007079D01*
X139917253Y-75865157D01*
X140012740Y-75699769D01*
X140071755Y-75518141D01*
X140089120Y-75352913D01*
X140100704Y-75311844D01*
X140125332Y-75276996D01*
X142081924Y-73320405D01*
X142122802Y-73293091D01*
X142171020Y-73283500D01*
X144066141Y-73283500D01*
X144086929Y-73285795D01*
X144089901Y-73285701D01*
X144089903Y-73285702D01*
X144157979Y-73283562D01*
X144161939Y-73283500D01*
X144189846Y-73283500D01*
X144189850Y-73283500D01*
X144193859Y-73282993D01*
X144205693Y-73282061D01*
X144249883Y-73280673D01*
X144269332Y-73275021D01*
X144288692Y-73271012D01*
X144308791Y-73268474D01*
X144349909Y-73252193D01*
X144361111Y-73248357D01*
X144403587Y-73236018D01*
X144421033Y-73225699D01*
X144438774Y-73217009D01*
X144457611Y-73209552D01*
X144493386Y-73183558D01*
X144503297Y-73177048D01*
X144541356Y-73154542D01*
X144555685Y-73140212D01*
X144570713Y-73127377D01*
X144587101Y-73115472D01*
X144615297Y-73081386D01*
X144623266Y-73072630D01*
X145582801Y-72113095D01*
X145643491Y-72079435D01*
X145695270Y-72082111D01*
X145695791Y-72078994D01*
X145706087Y-72080712D01*
X145706090Y-72080713D01*
X145928156Y-72117769D01*
X146153291Y-72117769D01*
X146153294Y-72117769D01*
X146375360Y-72080713D01*
X146588299Y-72007611D01*
X146786301Y-71900458D01*
X146963965Y-71762175D01*
X147116447Y-71596537D01*
X147205243Y-71460623D01*
X147250756Y-71418727D01*
X147310725Y-71403541D01*
X147370694Y-71418727D01*
X147416206Y-71460623D01*
X147505003Y-71596537D01*
X147601197Y-71701031D01*
X147657487Y-71762177D01*
X147792453Y-71867226D01*
X147835149Y-71900458D01*
X148033151Y-72007611D01*
X148246090Y-72080713D01*
X148468156Y-72117769D01*
X148693291Y-72117769D01*
X148693294Y-72117769D01*
X148915360Y-72080713D01*
X149128299Y-72007611D01*
X149326301Y-71900458D01*
X149503965Y-71762175D01*
X149656447Y-71596537D01*
X149745243Y-71460623D01*
X149790756Y-71418727D01*
X149850725Y-71403541D01*
X149910694Y-71418727D01*
X149956206Y-71460623D01*
X150045003Y-71596537D01*
X150141197Y-71701031D01*
X150197487Y-71762177D01*
X150332453Y-71867226D01*
X150375149Y-71900458D01*
X150573151Y-72007611D01*
X150786090Y-72080713D01*
X151008156Y-72117769D01*
X151233291Y-72117769D01*
X151233294Y-72117769D01*
X151455360Y-72080713D01*
X151668299Y-72007611D01*
X151866301Y-71900458D01*
X152043965Y-71762175D01*
X152196447Y-71596537D01*
X152285243Y-71460623D01*
X152330756Y-71418727D01*
X152390725Y-71403541D01*
X152450694Y-71418727D01*
X152496206Y-71460623D01*
X152585003Y-71596537D01*
X152681197Y-71701031D01*
X152737487Y-71762177D01*
X152872453Y-71867226D01*
X152915149Y-71900458D01*
X153113151Y-72007611D01*
X153326090Y-72080713D01*
X153548156Y-72117769D01*
X153773291Y-72117769D01*
X153773294Y-72117769D01*
X153995360Y-72080713D01*
X154208299Y-72007611D01*
X154406301Y-71900458D01*
X154583965Y-71762175D01*
X154736447Y-71596537D01*
X154825243Y-71460623D01*
X154870756Y-71418727D01*
X154930725Y-71403541D01*
X154990694Y-71418727D01*
X155036206Y-71460623D01*
X155125003Y-71596537D01*
X155221197Y-71701031D01*
X155277487Y-71762177D01*
X155412453Y-71867226D01*
X155455149Y-71900458D01*
X155653151Y-72007611D01*
X155866090Y-72080713D01*
X156088156Y-72117769D01*
X156313291Y-72117769D01*
X156313294Y-72117769D01*
X156535360Y-72080713D01*
X156748299Y-72007611D01*
X156946301Y-71900458D01*
X157123965Y-71762175D01*
X157276447Y-71596537D01*
X157365243Y-71460623D01*
X157410756Y-71418727D01*
X157470725Y-71403541D01*
X157530694Y-71418727D01*
X157576206Y-71460623D01*
X157665003Y-71596537D01*
X157761197Y-71701031D01*
X157817487Y-71762177D01*
X157952453Y-71867226D01*
X157995149Y-71900458D01*
X158193151Y-72007611D01*
X158406090Y-72080713D01*
X158628156Y-72117769D01*
X158853291Y-72117769D01*
X158853294Y-72117769D01*
X159075360Y-72080713D01*
X159288299Y-72007611D01*
X159486301Y-71900458D01*
X159663965Y-71762175D01*
X159816447Y-71596537D01*
X159905243Y-71460623D01*
X159950756Y-71418727D01*
X160010725Y-71403541D01*
X160070694Y-71418727D01*
X160116206Y-71460623D01*
X160205003Y-71596537D01*
X160301197Y-71701031D01*
X160357487Y-71762177D01*
X160492453Y-71867226D01*
X160535149Y-71900458D01*
X160733151Y-72007611D01*
X160946090Y-72080713D01*
X161168156Y-72117769D01*
X161393291Y-72117769D01*
X161393294Y-72117769D01*
X161615360Y-72080713D01*
X161828299Y-72007611D01*
X162026301Y-71900458D01*
X162203965Y-71762175D01*
X162356447Y-71596537D01*
X162479585Y-71408060D01*
X162511670Y-71334913D01*
X163693446Y-71334913D01*
X163703514Y-71571905D01*
X163753488Y-71803792D01*
X163841934Y-72023896D01*
X163966305Y-72225888D01*
X164123020Y-72403950D01*
X164307576Y-72552969D01*
X164307577Y-72552969D01*
X164307579Y-72552971D01*
X164514665Y-72668657D01*
X164738324Y-72747680D01*
X164972121Y-72787769D01*
X165149916Y-72787769D01*
X165149917Y-72787769D01*
X165327080Y-72772690D01*
X165384467Y-72757747D01*
X165556634Y-72712919D01*
X165772785Y-72615212D01*
X165969315Y-72482382D01*
X166140569Y-72318248D01*
X166281621Y-72127533D01*
X166388413Y-71915723D01*
X166457873Y-71688912D01*
X166488003Y-71453625D01*
X166477935Y-71216630D01*
X166427961Y-70984745D01*
X166339516Y-70764642D01*
X166215146Y-70562652D01*
X166215145Y-70562651D01*
X166215144Y-70562649D01*
X166058429Y-70384587D01*
X165873873Y-70235568D01*
X165666783Y-70119880D01*
X165443126Y-70040858D01*
X165209329Y-70000769D01*
X165031534Y-70000769D01*
X165031533Y-70000769D01*
X164854369Y-70015847D01*
X164624818Y-70075618D01*
X164408664Y-70173325D01*
X164212132Y-70306157D01*
X164040884Y-70470285D01*
X163899829Y-70661005D01*
X163793035Y-70872818D01*
X163723576Y-71099626D01*
X163693446Y-71334913D01*
X162511670Y-71334913D01*
X162570021Y-71201885D01*
X162625289Y-70983637D01*
X162643881Y-70759269D01*
X162625289Y-70534901D01*
X162570021Y-70316653D01*
X162479585Y-70110478D01*
X162356447Y-69922001D01*
X162356443Y-69921996D01*
X162353777Y-69917916D01*
X162333368Y-69854207D01*
X162348446Y-69789031D01*
X162394762Y-69740759D01*
X162459260Y-69723000D01*
X166698810Y-69723000D01*
X166747028Y-69732591D01*
X166787905Y-69759905D01*
X167237966Y-70209966D01*
X167268405Y-70259216D01*
X167379534Y-70592602D01*
X167386000Y-70632447D01*
X167386000Y-91034735D01*
X167376988Y-91081530D01*
X167141604Y-91669988D01*
X167113711Y-91712288D01*
X166787902Y-92038097D01*
X166747028Y-92065409D01*
X166698810Y-92075000D01*
X165328793Y-92075000D01*
X165267343Y-92059000D01*
X165221500Y-92015063D01*
X165202907Y-91954347D01*
X165216284Y-91892274D01*
X165258236Y-91844608D01*
X165318108Y-91823454D01*
X165327080Y-91822690D01*
X165384467Y-91807747D01*
X165556634Y-91762919D01*
X165772785Y-91665212D01*
X165969315Y-91532382D01*
X166140569Y-91368248D01*
X166281621Y-91177533D01*
X166388413Y-90965723D01*
X166457873Y-90738912D01*
X166488003Y-90503625D01*
X166477935Y-90266630D01*
X166427961Y-90034745D01*
X166339516Y-89814642D01*
X166215146Y-89612652D01*
X166215145Y-89612651D01*
X166215144Y-89612649D01*
X166058429Y-89434587D01*
X165873873Y-89285568D01*
X165666783Y-89169880D01*
X165443126Y-89090858D01*
X165209329Y-89050769D01*
X165031534Y-89050769D01*
X165031533Y-89050769D01*
X164854369Y-89065847D01*
X164624818Y-89125618D01*
X164408664Y-89223325D01*
X164212132Y-89356157D01*
X164040884Y-89520285D01*
X163899829Y-89711005D01*
X163793035Y-89922818D01*
X163723576Y-90149626D01*
X163693446Y-90384913D01*
X163703514Y-90621905D01*
X163753488Y-90853792D01*
X163841934Y-91073896D01*
X163966305Y-91275888D01*
X164047596Y-91368252D01*
X164123022Y-91453952D01*
X164144849Y-91471576D01*
X164307576Y-91602969D01*
X164307577Y-91602969D01*
X164307579Y-91602971D01*
X164514665Y-91718657D01*
X164738324Y-91797680D01*
X164896560Y-91824812D01*
X164953026Y-91849857D01*
X164990803Y-91898731D01*
X165000811Y-91959686D01*
X164980645Y-92018073D01*
X164935152Y-92059858D01*
X164875265Y-92075000D01*
X162485745Y-92075000D01*
X162421247Y-92057241D01*
X162374931Y-92008969D01*
X162359853Y-91943793D01*
X162380262Y-91880085D01*
X162479585Y-91728060D01*
X162570021Y-91521885D01*
X162625289Y-91303637D01*
X162643881Y-91079269D01*
X162625289Y-90854901D01*
X162570021Y-90636653D01*
X162479585Y-90430478D01*
X162356447Y-90242001D01*
X162203965Y-90076363D01*
X162203964Y-90076362D01*
X162203962Y-90076360D01*
X162026303Y-89938081D01*
X161828298Y-89830926D01*
X161683030Y-89781056D01*
X161615360Y-89757825D01*
X161393294Y-89720769D01*
X161168156Y-89720769D01*
X160946090Y-89757825D01*
X160946087Y-89757825D01*
X160946087Y-89757826D01*
X160733151Y-89830926D01*
X160535146Y-89938081D01*
X160357487Y-90076360D01*
X160205003Y-90242000D01*
X160116208Y-90377912D01*
X160070694Y-90419810D01*
X160010725Y-90434996D01*
X159950756Y-90419810D01*
X159905242Y-90377912D01*
X159816446Y-90242000D01*
X159663965Y-90076363D01*
X159663964Y-90076362D01*
X159663962Y-90076360D01*
X159486303Y-89938081D01*
X159288298Y-89830926D01*
X159143030Y-89781056D01*
X159075360Y-89757825D01*
X158853294Y-89720769D01*
X158628156Y-89720769D01*
X158406090Y-89757825D01*
X158406087Y-89757825D01*
X158406087Y-89757826D01*
X158193151Y-89830926D01*
X157995146Y-89938081D01*
X157817487Y-90076360D01*
X157665003Y-90242000D01*
X157576208Y-90377912D01*
X157530694Y-90419810D01*
X157470725Y-90434996D01*
X157410756Y-90419810D01*
X157365242Y-90377912D01*
X157276446Y-90242000D01*
X157123965Y-90076363D01*
X157123964Y-90076362D01*
X157123962Y-90076360D01*
X156946303Y-89938081D01*
X156748298Y-89830926D01*
X156603030Y-89781056D01*
X156535360Y-89757825D01*
X156313294Y-89720769D01*
X156088156Y-89720769D01*
X155866090Y-89757825D01*
X155866087Y-89757825D01*
X155866087Y-89757826D01*
X155653151Y-89830926D01*
X155455146Y-89938081D01*
X155277487Y-90076360D01*
X155125003Y-90242000D01*
X155036208Y-90377912D01*
X154990694Y-90419810D01*
X154930725Y-90434996D01*
X154870756Y-90419810D01*
X154825242Y-90377912D01*
X154736446Y-90242000D01*
X154583965Y-90076363D01*
X154583964Y-90076362D01*
X154583962Y-90076360D01*
X154406303Y-89938081D01*
X154208298Y-89830926D01*
X154063030Y-89781056D01*
X153995360Y-89757825D01*
X153773294Y-89720769D01*
X153548156Y-89720769D01*
X153326090Y-89757825D01*
X153326087Y-89757825D01*
X153326087Y-89757826D01*
X153113151Y-89830926D01*
X152915146Y-89938081D01*
X152737487Y-90076360D01*
X152585003Y-90242000D01*
X152496208Y-90377912D01*
X152450694Y-90419810D01*
X152390725Y-90434996D01*
X152330756Y-90419810D01*
X152285242Y-90377912D01*
X152196446Y-90242000D01*
X152043965Y-90076363D01*
X152043964Y-90076362D01*
X152043962Y-90076360D01*
X151866303Y-89938081D01*
X151668298Y-89830926D01*
X151523030Y-89781056D01*
X151455360Y-89757825D01*
X151233294Y-89720769D01*
X151008156Y-89720769D01*
X150786090Y-89757825D01*
X150786087Y-89757825D01*
X150786087Y-89757826D01*
X150573151Y-89830926D01*
X150375146Y-89938081D01*
X150197487Y-90076360D01*
X150045003Y-90242000D01*
X149956208Y-90377912D01*
X149910694Y-90419810D01*
X149850725Y-90434996D01*
X149790756Y-90419810D01*
X149745242Y-90377912D01*
X149656446Y-90242000D01*
X149503965Y-90076363D01*
X149503964Y-90076362D01*
X149503962Y-90076360D01*
X149326303Y-89938081D01*
X149128298Y-89830926D01*
X148983030Y-89781056D01*
X148915360Y-89757825D01*
X148693294Y-89720769D01*
X148468156Y-89720769D01*
X148246090Y-89757825D01*
X148246087Y-89757825D01*
X148246087Y-89757826D01*
X148033151Y-89830926D01*
X147835146Y-89938081D01*
X147657487Y-90076360D01*
X147505003Y-90242000D01*
X147416208Y-90377912D01*
X147370694Y-90419810D01*
X147310725Y-90434996D01*
X147250756Y-90419810D01*
X147205242Y-90377912D01*
X147116446Y-90242000D01*
X146963965Y-90076363D01*
X146963964Y-90076362D01*
X146963962Y-90076360D01*
X146786303Y-89938081D01*
X146588298Y-89830926D01*
X146443030Y-89781056D01*
X146375360Y-89757825D01*
X146153294Y-89720769D01*
X145928156Y-89720769D01*
X145706090Y-89757825D01*
X145706085Y-89757826D01*
X145695793Y-89759544D01*
X145695273Y-89756431D01*
X145643476Y-89759098D01*
X145582801Y-89725440D01*
X144923938Y-89066577D01*
X144910865Y-89050259D01*
X144859042Y-89001594D01*
X144856230Y-88998869D01*
X144836464Y-88979103D01*
X144833269Y-88976624D01*
X144824247Y-88968919D01*
X144792014Y-88938651D01*
X144774261Y-88928891D01*
X144757735Y-88918035D01*
X144741735Y-88905624D01*
X144701160Y-88888066D01*
X144690498Y-88882842D01*
X144651757Y-88861543D01*
X144638007Y-88858013D01*
X144632131Y-88856504D01*
X144613425Y-88850100D01*
X144594839Y-88842057D01*
X144551169Y-88835140D01*
X144539547Y-88832733D01*
X144496724Y-88821738D01*
X144496723Y-88821738D01*
X144476470Y-88821738D01*
X144456760Y-88820187D01*
X144436751Y-88817017D01*
X144392733Y-88821179D01*
X144380875Y-88821738D01*
X137319832Y-88821738D01*
X137271614Y-88812147D01*
X137230737Y-88784833D01*
X135997463Y-87551559D01*
X135967488Y-87503674D01*
X135961449Y-87447505D01*
X135980557Y-87394349D01*
X136049170Y-87287586D01*
X136109913Y-87154577D01*
X136150420Y-87016622D01*
X136165003Y-86915189D01*
X136186051Y-86861510D01*
X136228810Y-86822824D01*
X136284327Y-86807239D01*
X136340970Y-86818018D01*
X136342712Y-86818794D01*
X136529513Y-86858500D01*
X136720485Y-86858500D01*
X136720487Y-86858500D01*
X136907288Y-86818794D01*
X137081752Y-86741118D01*
X137236253Y-86628866D01*
X137364040Y-86486944D01*
X137459527Y-86321556D01*
X137518542Y-86139928D01*
X137538504Y-85950000D01*
X137518542Y-85760072D01*
X137459527Y-85578444D01*
X137459527Y-85578443D01*
X137364041Y-85413057D01*
X137352284Y-85400000D01*
X154061569Y-85400000D01*
X154081265Y-85662827D01*
X154139913Y-85919781D01*
X154226315Y-86139928D01*
X154236204Y-86165124D01*
X154367985Y-86393376D01*
X154532314Y-86599438D01*
X154725519Y-86778706D01*
X154943285Y-86927176D01*
X155180746Y-87041532D01*
X155432600Y-87119218D01*
X155693219Y-87158500D01*
X155956779Y-87158500D01*
X155956781Y-87158500D01*
X156217400Y-87119218D01*
X156469254Y-87041532D01*
X156706716Y-86927176D01*
X156924481Y-86778706D01*
X157117686Y-86599438D01*
X157282015Y-86393376D01*
X157413796Y-86165124D01*
X157510087Y-85919780D01*
X157568735Y-85662826D01*
X157588431Y-85400000D01*
X157568735Y-85137174D01*
X157510087Y-84880220D01*
X157413796Y-84634876D01*
X157282015Y-84406624D01*
X157117686Y-84200562D01*
X156924481Y-84021294D01*
X156924477Y-84021291D01*
X156924476Y-84021290D01*
X156706716Y-83872824D01*
X156469254Y-83758467D01*
X156287159Y-83702299D01*
X156217400Y-83680782D01*
X155956781Y-83641500D01*
X155693219Y-83641500D01*
X155432600Y-83680782D01*
X155432596Y-83680783D01*
X155432597Y-83680783D01*
X155180748Y-83758467D01*
X154943282Y-83872825D01*
X154725522Y-84021291D01*
X154725518Y-84021294D01*
X154725519Y-84021294D01*
X154534456Y-84198575D01*
X154532313Y-84200563D01*
X154367983Y-84406627D01*
X154236204Y-84634875D01*
X154139913Y-84880218D01*
X154081265Y-85137172D01*
X154061569Y-85400000D01*
X137352284Y-85400000D01*
X137236252Y-85271133D01*
X137081753Y-85158883D01*
X137081752Y-85158882D01*
X136907288Y-85081206D01*
X136720487Y-85041500D01*
X136720485Y-85041500D01*
X136662064Y-85041500D01*
X136615681Y-85032652D01*
X136575812Y-85007351D01*
X136550320Y-84983413D01*
X136532567Y-84973653D01*
X136516041Y-84962797D01*
X136500041Y-84950386D01*
X136459466Y-84932828D01*
X136448804Y-84927604D01*
X136410063Y-84906305D01*
X136396313Y-84902775D01*
X136390437Y-84901266D01*
X136371731Y-84894862D01*
X136353145Y-84886819D01*
X136346623Y-84885786D01*
X136309474Y-84879901D01*
X136297854Y-84877495D01*
X136281790Y-84873370D01*
X136265895Y-84869289D01*
X136216914Y-84844333D01*
X136183221Y-84800897D01*
X136171229Y-84747248D01*
X136171229Y-84250765D01*
X136180820Y-84202547D01*
X136208134Y-84161670D01*
X136400499Y-83969305D01*
X136441376Y-83941991D01*
X136489594Y-83932400D01*
X136545485Y-83932400D01*
X136545487Y-83932400D01*
X136732288Y-83892694D01*
X136906752Y-83815018D01*
X137061253Y-83702766D01*
X137189040Y-83560844D01*
X137284527Y-83395456D01*
X137343542Y-83213828D01*
X137361209Y-83045727D01*
X137382060Y-82988442D01*
X137427366Y-82947649D01*
X137486519Y-82932900D01*
X162823946Y-82932900D01*
X162887547Y-82950130D01*
X162933753Y-82997107D01*
X162949929Y-83060984D01*
X162931650Y-83124291D01*
X162883915Y-83169714D01*
X162868222Y-83178206D01*
X162674208Y-83329213D01*
X162507698Y-83510093D01*
X162373228Y-83715912D01*
X162274471Y-83941060D01*
X162263756Y-83983374D01*
X162214118Y-84179387D01*
X162193816Y-84424400D01*
X162214118Y-84669413D01*
X162227466Y-84722122D01*
X162272832Y-84901268D01*
X162274472Y-84907742D01*
X162293177Y-84950386D01*
X162373228Y-85132887D01*
X162373229Y-85132888D01*
X162507698Y-85338707D01*
X162576141Y-85413056D01*
X162674208Y-85519586D01*
X162868223Y-85670594D01*
X163084443Y-85787606D01*
X163316974Y-85867434D01*
X163559474Y-85907900D01*
X163805323Y-85907900D01*
X163805326Y-85907900D01*
X164047826Y-85867434D01*
X164280357Y-85787606D01*
X164496578Y-85670593D01*
X164690591Y-85519587D01*
X164857102Y-85338707D01*
X164991571Y-85132888D01*
X165090328Y-84907742D01*
X165150682Y-84669413D01*
X165170984Y-84424400D01*
X165150682Y-84179387D01*
X165090328Y-83941058D01*
X164991571Y-83715912D01*
X164857102Y-83510093D01*
X164690591Y-83329213D01*
X164553356Y-83222399D01*
X164496576Y-83178205D01*
X164287032Y-83064806D01*
X164244121Y-83026736D01*
X164222534Y-82973588D01*
X164226746Y-82916379D01*
X164255884Y-82866966D01*
X164303901Y-82835593D01*
X164501326Y-82763737D01*
X164749342Y-82631864D01*
X164976592Y-82466758D01*
X165178652Y-82271631D01*
X165351588Y-82050282D01*
X165492036Y-81807019D01*
X165492037Y-81807018D01*
X165597262Y-81546576D01*
X165597262Y-81546575D01*
X165665217Y-81274024D01*
X165694578Y-80994667D01*
X165684775Y-80713942D01*
X165635998Y-80437313D01*
X165549197Y-80170165D01*
X165436735Y-79939584D01*
X165426060Y-79917697D01*
X165268985Y-79684824D01*
X165081029Y-79476078D01*
X164865849Y-79295520D01*
X164731340Y-79211470D01*
X164627636Y-79146669D01*
X164371025Y-79032418D01*
X164312698Y-79015693D01*
X164261312Y-78986552D01*
X164228856Y-78937191D01*
X164222465Y-78878461D01*
X164243544Y-78823274D01*
X164287459Y-78783762D01*
X164407642Y-78718723D01*
X164496577Y-78670594D01*
X164531780Y-78643193D01*
X164690591Y-78519587D01*
X164857102Y-78338707D01*
X164991571Y-78132888D01*
X165090328Y-77907742D01*
X165150682Y-77669413D01*
X165170984Y-77424400D01*
X165150682Y-77179387D01*
X165090328Y-76941058D01*
X164991571Y-76715912D01*
X164857102Y-76510093D01*
X164690591Y-76329213D01*
X164571747Y-76236713D01*
X164496576Y-76178205D01*
X164280356Y-76061193D01*
X164122725Y-76007079D01*
X164047826Y-75981366D01*
X163805326Y-75940900D01*
X163559474Y-75940900D01*
X163316974Y-75981366D01*
X163316971Y-75981366D01*
X163316971Y-75981367D01*
X163084443Y-76061193D01*
X162868223Y-76178205D01*
X162674208Y-76329213D01*
X162507698Y-76510093D01*
X162373228Y-76715912D01*
X162315825Y-76846781D01*
X162274472Y-76941058D01*
X162214118Y-77179387D01*
X162193816Y-77424400D01*
X162214118Y-77669413D01*
X162214119Y-77669416D01*
X162260906Y-77854174D01*
X162274472Y-77907742D01*
X162298800Y-77963204D01*
X162373228Y-78132887D01*
X162393588Y-78164050D01*
X162507698Y-78338707D01*
X162674209Y-78519587D01*
X162780375Y-78602219D01*
X162868222Y-78670593D01*
X162883915Y-78679086D01*
X162931650Y-78724509D01*
X162949929Y-78787816D01*
X162933753Y-78851693D01*
X162887547Y-78898670D01*
X162823946Y-78915900D01*
X133086279Y-78915900D01*
X133029076Y-78902167D01*
X132984343Y-78863961D01*
X132961830Y-78809610D01*
X132966445Y-78750966D01*
X132976922Y-78718724D01*
X132994287Y-78553496D01*
X133005870Y-78512429D01*
X133030498Y-78477581D01*
X133579428Y-77928651D01*
X133633023Y-77896852D01*
X133695304Y-77894627D01*
X133751030Y-77922521D01*
X133797982Y-77963205D01*
X133920988Y-78042256D01*
X134051773Y-78101984D01*
X134120450Y-78127599D01*
X134120453Y-78127600D01*
X134164493Y-78137180D01*
X134192073Y-78143180D01*
X134334388Y-78163642D01*
X134407500Y-78168871D01*
X134474908Y-78164050D01*
X134483897Y-78163729D01*
X134831103Y-78163729D01*
X134840092Y-78164050D01*
X134907499Y-78168871D01*
X134907499Y-78168870D01*
X134907500Y-78168871D01*
X134980612Y-78163642D01*
X135122927Y-78143180D01*
X135178085Y-78131180D01*
X135194546Y-78127600D01*
X135194546Y-78127599D01*
X135194550Y-78127599D01*
X135263227Y-78101984D01*
X135394012Y-78042256D01*
X135517018Y-77963205D01*
X135625679Y-77869051D01*
X135677511Y-77817220D01*
X135721438Y-77758540D01*
X135799170Y-77637586D01*
X135859913Y-77504577D01*
X135900420Y-77366622D01*
X135921229Y-77221889D01*
X135921229Y-76600000D01*
X135908400Y-76502557D01*
X135908044Y-76472641D01*
X135916000Y-76398639D01*
X135916000Y-76326999D01*
X154029419Y-76326999D01*
X154049115Y-76589827D01*
X154107763Y-76846781D01*
X154144765Y-76941060D01*
X154204054Y-77092124D01*
X154335835Y-77320376D01*
X154500164Y-77526438D01*
X154693369Y-77705706D01*
X154911135Y-77854176D01*
X155148596Y-77968532D01*
X155400450Y-78046218D01*
X155661069Y-78085500D01*
X155924629Y-78085500D01*
X155924631Y-78085500D01*
X156185250Y-78046218D01*
X156437104Y-77968532D01*
X156674566Y-77854176D01*
X156892331Y-77705706D01*
X157085536Y-77526438D01*
X157249865Y-77320376D01*
X157381646Y-77092124D01*
X157477937Y-76846780D01*
X157536585Y-76589826D01*
X157556281Y-76327000D01*
X157536585Y-76064174D01*
X157477937Y-75807220D01*
X157381646Y-75561876D01*
X157249865Y-75333624D01*
X157085536Y-75127562D01*
X156892331Y-74948294D01*
X156892327Y-74948291D01*
X156892326Y-74948290D01*
X156674566Y-74799824D01*
X156437104Y-74685467D01*
X156255009Y-74629299D01*
X156185250Y-74607782D01*
X155924631Y-74568500D01*
X155661069Y-74568500D01*
X155400450Y-74607782D01*
X155400446Y-74607783D01*
X155400447Y-74607783D01*
X155148598Y-74685467D01*
X154911132Y-74799825D01*
X154693372Y-74948291D01*
X154693368Y-74948294D01*
X154693369Y-74948294D01*
X154500164Y-75127562D01*
X154340151Y-75328213D01*
X154335833Y-75333627D01*
X154204054Y-75561875D01*
X154107763Y-75807218D01*
X154049115Y-76064172D01*
X154029419Y-76326999D01*
X135916000Y-76326999D01*
X135916000Y-75301363D01*
X135916000Y-75301362D01*
X135909489Y-75240799D01*
X135909487Y-75240795D01*
X135908043Y-75227360D01*
X135908398Y-75197450D01*
X135921229Y-75100000D01*
X135921229Y-74478111D01*
X135900420Y-74333378D01*
X135859913Y-74195423D01*
X135799170Y-74062414D01*
X135799169Y-74062413D01*
X135799168Y-74062410D01*
X135721441Y-73941464D01*
X135701095Y-73914285D01*
X135677511Y-73882780D01*
X135625679Y-73830949D01*
X135517018Y-73736795D01*
X135398170Y-73660416D01*
X135394014Y-73657745D01*
X135263220Y-73598013D01*
X135194546Y-73572399D01*
X135122925Y-73556819D01*
X134980618Y-73536358D01*
X134907499Y-73531128D01*
X134840092Y-73535950D01*
X134831103Y-73536271D01*
X134483897Y-73536271D01*
X134474908Y-73535950D01*
X134407500Y-73531128D01*
X134334381Y-73536358D01*
X134192074Y-73556819D01*
X134120453Y-73572399D01*
X134051779Y-73598013D01*
X133920985Y-73657745D01*
X133797982Y-73736795D01*
X133689319Y-73830949D01*
X133640673Y-73879596D01*
X133599796Y-73906909D01*
X133551578Y-73916500D01*
X131418020Y-73916500D01*
X131397227Y-73914204D01*
X131394646Y-73914285D01*
X131364505Y-73911594D01*
X131213962Y-73879596D01*
X131195487Y-73875669D01*
X131004513Y-73875669D01*
X130879979Y-73902139D01*
X130817711Y-73915375D01*
X130643246Y-73993052D01*
X130488747Y-74105302D01*
X130360958Y-74247226D01*
X130265472Y-74412612D01*
X130206458Y-74594239D01*
X130186496Y-74784169D01*
X130206458Y-74974098D01*
X130265472Y-75155725D01*
X130360958Y-75321111D01*
X130382880Y-75345458D01*
X130488747Y-75463035D01*
X130643248Y-75575287D01*
X130817712Y-75652963D01*
X131004513Y-75692669D01*
X131195485Y-75692669D01*
X131195487Y-75692669D01*
X131382288Y-75652963D01*
X131556752Y-75575287D01*
X131711253Y-75463035D01*
X131839040Y-75321113D01*
X131882117Y-75246500D01*
X131928237Y-75200381D01*
X131991237Y-75183500D01*
X133118933Y-75183500D01*
X133186448Y-75203115D01*
X133232942Y-75255853D01*
X133243939Y-75325294D01*
X133216016Y-75389818D01*
X133192201Y-75418604D01*
X133184213Y-75427381D01*
X131207000Y-77404595D01*
X131166123Y-77431909D01*
X131117905Y-77441500D01*
X131004513Y-77441500D01*
X130879979Y-77467970D01*
X130817711Y-77481206D01*
X130643246Y-77558883D01*
X130488747Y-77671133D01*
X130360958Y-77813057D01*
X130265472Y-77978443D01*
X130206458Y-78160070D01*
X130186496Y-78350000D01*
X130206458Y-78539929D01*
X130265472Y-78721556D01*
X130268558Y-78726900D01*
X130285439Y-78789900D01*
X130268558Y-78852900D01*
X130222439Y-78899019D01*
X130159439Y-78915900D01*
X125582695Y-78915900D01*
X125576101Y-78915727D01*
X125491665Y-78911302D01*
X125491663Y-78911302D01*
X125453447Y-78914644D01*
X125370291Y-78921919D01*
X125368102Y-78922091D01*
X125246591Y-78930588D01*
X125236898Y-78932648D01*
X125221701Y-78934919D01*
X125211834Y-78935782D01*
X125093105Y-78963193D01*
X125090959Y-78963668D01*
X124971831Y-78988989D01*
X124962519Y-78992379D01*
X124947776Y-78996746D01*
X124938143Y-78998970D01*
X124938138Y-78998971D01*
X124938137Y-78998972D01*
X124894574Y-79015694D01*
X124824428Y-79042620D01*
X124822370Y-79043389D01*
X124707873Y-79085063D01*
X124699133Y-79089710D01*
X124685150Y-79096082D01*
X124675906Y-79099631D01*
X124675900Y-79099634D01*
X124675898Y-79099635D01*
X124640253Y-79119393D01*
X124569342Y-79158699D01*
X124567412Y-79159746D01*
X124459856Y-79216936D01*
X124451838Y-79222761D01*
X124438882Y-79231015D01*
X124430223Y-79235815D01*
X124332968Y-79309101D01*
X124331202Y-79310407D01*
X124232609Y-79382040D01*
X124225476Y-79388928D01*
X124213791Y-79398907D01*
X124205887Y-79404863D01*
X124119753Y-79490996D01*
X124118187Y-79492536D01*
X124030545Y-79577171D01*
X124024445Y-79584979D01*
X124014256Y-79596494D01*
X122699754Y-80910997D01*
X122658880Y-80938309D01*
X122610662Y-80947900D01*
X121812204Y-80947900D01*
X121748604Y-80930670D01*
X121702397Y-80883694D01*
X121686221Y-80819817D01*
X121704500Y-80756511D01*
X121752234Y-80711087D01*
X121768702Y-80702174D01*
X121809560Y-80670371D01*
X121809561Y-80670370D01*
X120954801Y-79815610D01*
X120954800Y-79815610D01*
X120100038Y-80670370D01*
X120140895Y-80702172D01*
X120350794Y-80815764D01*
X120393705Y-80853834D01*
X120415292Y-80906981D01*
X120411080Y-80964191D01*
X120381943Y-81013604D01*
X120333920Y-81044979D01*
X120135874Y-81117062D01*
X119887857Y-81248935D01*
X119660609Y-81414041D01*
X119458548Y-81609168D01*
X119285609Y-81830521D01*
X119145162Y-82073781D01*
X119039937Y-82334223D01*
X118971983Y-82606772D01*
X118942621Y-82886136D01*
X118952424Y-83166854D01*
X119001202Y-83443489D01*
X119088002Y-83710633D01*
X119211139Y-83963102D01*
X119368214Y-84195975D01*
X119498224Y-84340366D01*
X119556171Y-84404722D01*
X119771350Y-84585279D01*
X120009564Y-84734131D01*
X120266175Y-84848382D01*
X120536190Y-84925807D01*
X120814352Y-84964900D01*
X123438905Y-84964900D01*
X123445499Y-84965073D01*
X123529938Y-84969498D01*
X123651423Y-84958869D01*
X123653398Y-84958714D01*
X123775012Y-84950211D01*
X123784694Y-84948152D01*
X123799902Y-84945879D01*
X123809766Y-84945017D01*
X123928541Y-84917594D01*
X123930472Y-84917166D01*
X124049770Y-84891809D01*
X124059077Y-84888420D01*
X124073822Y-84884053D01*
X124083463Y-84881828D01*
X124197286Y-84838134D01*
X124199158Y-84837434D01*
X124313726Y-84795737D01*
X124322454Y-84791095D01*
X124336470Y-84784708D01*
X124345702Y-84781165D01*
X124452350Y-84722047D01*
X124454061Y-84721117D01*
X124561742Y-84663864D01*
X124569743Y-84658050D01*
X124582731Y-84649776D01*
X124591379Y-84644983D01*
X124688656Y-84571678D01*
X124690387Y-84570397D01*
X124788992Y-84498758D01*
X124796115Y-84491878D01*
X124807813Y-84481887D01*
X124815712Y-84475936D01*
X124901842Y-84389804D01*
X124903354Y-84388318D01*
X124991052Y-84303631D01*
X124997151Y-84295823D01*
X125007330Y-84284316D01*
X126321845Y-82969802D01*
X126362720Y-82942491D01*
X126410938Y-82932900D01*
X130542773Y-82932900D01*
X130600000Y-82947869D01*
X130657228Y-82932900D01*
X131042772Y-82932900D01*
X131104469Y-82949039D01*
X131150361Y-82993321D01*
X131168692Y-83054403D01*
X131154765Y-83116637D01*
X131112149Y-83164080D01*
X131051761Y-83184579D01*
X131032592Y-83185950D01*
X131023603Y-83186271D01*
X130676397Y-83186271D01*
X130667408Y-83185950D01*
X130648239Y-83184579D01*
X130600000Y-83168204D01*
X130551762Y-83184579D01*
X130526881Y-83186358D01*
X130384574Y-83206819D01*
X130312953Y-83222399D01*
X130244279Y-83248013D01*
X130113485Y-83307745D01*
X129990482Y-83386795D01*
X129881820Y-83480949D01*
X129829989Y-83532779D01*
X129786058Y-83591464D01*
X129708331Y-83712410D01*
X129647586Y-83845425D01*
X129611212Y-83969305D01*
X129607080Y-83983378D01*
X129595327Y-84065130D01*
X129586271Y-84128114D01*
X129586271Y-84750002D01*
X129599099Y-84847445D01*
X129599455Y-84877357D01*
X129591500Y-84951359D01*
X129591500Y-86048641D01*
X129599455Y-86122643D01*
X129599099Y-86152555D01*
X129586271Y-86249998D01*
X129586271Y-86250000D01*
X129586271Y-86871889D01*
X129607080Y-87016622D01*
X129607081Y-87016625D01*
X129647586Y-87154574D01*
X129708331Y-87287589D01*
X129786058Y-87408535D01*
X129786062Y-87408540D01*
X129829989Y-87467220D01*
X129881821Y-87519051D01*
X129990482Y-87613205D01*
X130113488Y-87692256D01*
X130244273Y-87751984D01*
X130312950Y-87777599D01*
X130312953Y-87777600D01*
X130352234Y-87786145D01*
X130384573Y-87793180D01*
X130526888Y-87813642D01*
X130600000Y-87818871D01*
X130667408Y-87814050D01*
X130676397Y-87813729D01*
X130915635Y-87813729D01*
X130963853Y-87823320D01*
X131004730Y-87850634D01*
X132798162Y-89644067D01*
X132828656Y-89693483D01*
X132833751Y-89751328D01*
X132812363Y-89805314D01*
X132769037Y-89843975D01*
X132595148Y-89938080D01*
X132417487Y-90076360D01*
X132265000Y-90242004D01*
X132175907Y-90378370D01*
X132130394Y-90420268D01*
X132070425Y-90435454D01*
X132010456Y-90420268D01*
X131964942Y-90378370D01*
X131876046Y-90242306D01*
X131723628Y-90076735D01*
X131546027Y-89938502D01*
X131348093Y-89831385D01*
X131135239Y-89758313D01*
X131054725Y-89744878D01*
X131054725Y-91207269D01*
X131037844Y-91270269D01*
X130991725Y-91316388D01*
X130928725Y-91333269D01*
X130672725Y-91333269D01*
X130609725Y-91316388D01*
X130563606Y-91270269D01*
X130546725Y-91207269D01*
X130546725Y-89744878D01*
X130466210Y-89758313D01*
X130253356Y-89831385D01*
X130055422Y-89938502D01*
X129877821Y-90076735D01*
X129725403Y-90242306D01*
X129636507Y-90378371D01*
X129590993Y-90420269D01*
X129531024Y-90435455D01*
X129471054Y-90420269D01*
X129425541Y-90378370D01*
X129336448Y-90242003D01*
X129336447Y-90242001D01*
X129183965Y-90076363D01*
X129183964Y-90076362D01*
X129183962Y-90076360D01*
X129006303Y-89938081D01*
X128808298Y-89830926D01*
X128663030Y-89781056D01*
X128595360Y-89757825D01*
X128373294Y-89720769D01*
X128148156Y-89720769D01*
X127926090Y-89757825D01*
X127926087Y-89757825D01*
X127926087Y-89757826D01*
X127713151Y-89830926D01*
X127515146Y-89938081D01*
X127337487Y-90076360D01*
X127185003Y-90242000D01*
X127096208Y-90377912D01*
X127050694Y-90419810D01*
X126990725Y-90434996D01*
X126930756Y-90419810D01*
X126885242Y-90377912D01*
X126796446Y-90242000D01*
X126643965Y-90076363D01*
X126643964Y-90076362D01*
X126643962Y-90076360D01*
X126466303Y-89938081D01*
X126268298Y-89830926D01*
X126123030Y-89781056D01*
X126055360Y-89757825D01*
X125833294Y-89720769D01*
X125608156Y-89720769D01*
X125386090Y-89757825D01*
X125386087Y-89757825D01*
X125386087Y-89757826D01*
X125173151Y-89830926D01*
X124975146Y-89938081D01*
X124797487Y-90076360D01*
X124645003Y-90242000D01*
X124556208Y-90377912D01*
X124510694Y-90419810D01*
X124450725Y-90434996D01*
X124390756Y-90419810D01*
X124345242Y-90377912D01*
X124256446Y-90242000D01*
X124103965Y-90076363D01*
X124103964Y-90076362D01*
X124103962Y-90076360D01*
X123926303Y-89938081D01*
X123728298Y-89830926D01*
X123583030Y-89781056D01*
X123515360Y-89757825D01*
X123293294Y-89720769D01*
X123068156Y-89720769D01*
X122846090Y-89757825D01*
X122846087Y-89757825D01*
X122846087Y-89757826D01*
X122633151Y-89830926D01*
X122435146Y-89938081D01*
X122330690Y-90019383D01*
X122278686Y-90043367D01*
X122221437Y-90041856D01*
X122170770Y-90015161D01*
X122137153Y-89968797D01*
X122127530Y-89912342D01*
X122133765Y-89809267D01*
X122113620Y-89476221D01*
X122053477Y-89148031D01*
X121954211Y-88829477D01*
X121817277Y-88525223D01*
X121644660Y-88239678D01*
X121493047Y-88046157D01*
X121493045Y-88046156D01*
X119729935Y-89809268D01*
X119729935Y-89809270D01*
X121493045Y-91572380D01*
X121493046Y-91572379D01*
X121645465Y-91377831D01*
X121701566Y-91337132D01*
X121770703Y-91332260D01*
X121831957Y-91364688D01*
X121866794Y-91424605D01*
X121891428Y-91521882D01*
X121891429Y-91521885D01*
X121910725Y-91565875D01*
X121981864Y-91728059D01*
X121993047Y-91745176D01*
X122081188Y-91880085D01*
X122101597Y-91943793D01*
X122086519Y-92008969D01*
X122040203Y-92057241D01*
X121975705Y-92075000D01*
X121259013Y-92075000D01*
X121193828Y-92056828D01*
X121147445Y-92007555D01*
X121133243Y-91941392D01*
X121133835Y-91931589D01*
X119370725Y-90168479D01*
X117248403Y-88046156D01*
X117192186Y-88117914D01*
X117143321Y-88155724D01*
X117082356Y-88165758D01*
X117023951Y-88145603D01*
X116982148Y-88100107D01*
X116967000Y-88040208D01*
X116967000Y-87686947D01*
X117607612Y-87686947D01*
X119370724Y-89450059D01*
X119370726Y-89450059D01*
X121133836Y-87686947D01*
X121133835Y-87686945D01*
X120940315Y-87535333D01*
X120654770Y-87362716D01*
X120350516Y-87225782D01*
X120031962Y-87126516D01*
X119703772Y-87066373D01*
X119370725Y-87046228D01*
X119037677Y-87066373D01*
X118709487Y-87126516D01*
X118390933Y-87225782D01*
X118086679Y-87362716D01*
X117801139Y-87535330D01*
X117607612Y-87686947D01*
X116967000Y-87686947D01*
X116967000Y-79456399D01*
X119466717Y-79456399D01*
X119487013Y-79701329D01*
X119547346Y-79939581D01*
X119646071Y-80164652D01*
X119741409Y-80310578D01*
X119741410Y-80310578D01*
X120595590Y-79456400D01*
X121314010Y-79456400D01*
X122168189Y-80310578D01*
X122263529Y-80164649D01*
X122362252Y-79939584D01*
X122422586Y-79701329D01*
X122442882Y-79456399D01*
X122422586Y-79211470D01*
X122362252Y-78973215D01*
X122263529Y-78748150D01*
X122168188Y-78602220D01*
X121314010Y-79456400D01*
X120595590Y-79456400D01*
X120595590Y-79456399D01*
X119741410Y-78602219D01*
X119741409Y-78602220D01*
X119646071Y-78748147D01*
X119547346Y-78973218D01*
X119487013Y-79211470D01*
X119466717Y-79456399D01*
X116967000Y-79456399D01*
X116967000Y-78242429D01*
X120100038Y-78242429D01*
X120954799Y-79097190D01*
X120954800Y-79097190D01*
X121809561Y-78242428D01*
X121809560Y-78242427D01*
X121768708Y-78210630D01*
X121552552Y-78093651D01*
X121320105Y-78013853D01*
X121077682Y-77973400D01*
X120831918Y-77973400D01*
X120589494Y-78013853D01*
X120357047Y-78093651D01*
X120140894Y-78210628D01*
X120100038Y-78242428D01*
X120100038Y-78242429D01*
X116967000Y-78242429D01*
X116967000Y-74151589D01*
X117607612Y-74151589D01*
X117607613Y-74151591D01*
X117801134Y-74303204D01*
X118086679Y-74475821D01*
X118390933Y-74612755D01*
X118709487Y-74712021D01*
X119037677Y-74772164D01*
X119370725Y-74792309D01*
X119703772Y-74772164D01*
X120031962Y-74712021D01*
X120350516Y-74612755D01*
X120654770Y-74475821D01*
X120940311Y-74303207D01*
X121133835Y-74151589D01*
X121133836Y-74151589D01*
X119370726Y-72388479D01*
X119370724Y-72388479D01*
X117607612Y-74151589D01*
X116967000Y-74151589D01*
X116967000Y-73798330D01*
X116982148Y-73738431D01*
X117023951Y-73692935D01*
X117082356Y-73672780D01*
X117143320Y-73682814D01*
X117192185Y-73720624D01*
X117248401Y-73792379D01*
X117248403Y-73792380D01*
X119011513Y-72029270D01*
X119729935Y-72029270D01*
X121493045Y-73792380D01*
X121493045Y-73792379D01*
X121644663Y-73598855D01*
X121817277Y-73313314D01*
X121954211Y-73009060D01*
X122028394Y-72770999D01*
X124978835Y-72770999D01*
X124997464Y-73007711D01*
X125052895Y-73238594D01*
X125143761Y-73457966D01*
X125267823Y-73660415D01*
X125422030Y-73840969D01*
X125602584Y-73995176D01*
X125805033Y-74119238D01*
X125805035Y-74119238D01*
X125805037Y-74119240D01*
X126024406Y-74210105D01*
X126199857Y-74252227D01*
X126255288Y-74265535D01*
X126272558Y-74266894D01*
X126492000Y-74284165D01*
X126728711Y-74265535D01*
X126959594Y-74210105D01*
X127178963Y-74119240D01*
X127381416Y-73995176D01*
X127561969Y-73840969D01*
X127666189Y-73718942D01*
X127709249Y-73686347D01*
X127762000Y-73674773D01*
X127814751Y-73686347D01*
X127857811Y-73718943D01*
X127962030Y-73840969D01*
X128142584Y-73995176D01*
X128345033Y-74119238D01*
X128345035Y-74119238D01*
X128345037Y-74119240D01*
X128564406Y-74210105D01*
X128739857Y-74252227D01*
X128795288Y-74265535D01*
X128812558Y-74266894D01*
X129032000Y-74284165D01*
X129268711Y-74265535D01*
X129499594Y-74210105D01*
X129718963Y-74119240D01*
X129921416Y-73995176D01*
X130101969Y-73840969D01*
X130256176Y-73660416D01*
X130380240Y-73457963D01*
X130471105Y-73238594D01*
X130526535Y-73007711D01*
X130545165Y-72771000D01*
X130526535Y-72534289D01*
X130471105Y-72303406D01*
X130380240Y-72084037D01*
X130367950Y-72063982D01*
X130256176Y-71881584D01*
X130101969Y-71701030D01*
X129921415Y-71546823D01*
X129718966Y-71422761D01*
X129499594Y-71331895D01*
X129268711Y-71276464D01*
X129049269Y-71259194D01*
X129032000Y-71257835D01*
X129031999Y-71257835D01*
X128795288Y-71276464D01*
X128564405Y-71331895D01*
X128345033Y-71422761D01*
X128142584Y-71546823D01*
X127962033Y-71701028D01*
X127857811Y-71823057D01*
X127814751Y-71855652D01*
X127762000Y-71867226D01*
X127709249Y-71855652D01*
X127666189Y-71823057D01*
X127636635Y-71788454D01*
X127561969Y-71701031D01*
X127561967Y-71701029D01*
X127561966Y-71701028D01*
X127381415Y-71546823D01*
X127178966Y-71422761D01*
X126959594Y-71331895D01*
X126728711Y-71276464D01*
X126509269Y-71259194D01*
X126492000Y-71257835D01*
X126491999Y-71257835D01*
X126255288Y-71276464D01*
X126024405Y-71331895D01*
X125805033Y-71422761D01*
X125602584Y-71546823D01*
X125422030Y-71701030D01*
X125267823Y-71881584D01*
X125143761Y-72084033D01*
X125052895Y-72303405D01*
X124997464Y-72534288D01*
X124978835Y-72770999D01*
X122028394Y-72770999D01*
X122053477Y-72690506D01*
X122113620Y-72362316D01*
X122133765Y-72029268D01*
X122113620Y-71696221D01*
X122053477Y-71368031D01*
X121954211Y-71049477D01*
X121817277Y-70745223D01*
X121644660Y-70459678D01*
X121493047Y-70266157D01*
X121493045Y-70266156D01*
X119729935Y-72029268D01*
X119729935Y-72029270D01*
X119011513Y-72029270D01*
X121133836Y-69906947D01*
X121130791Y-69856608D01*
X121144994Y-69790445D01*
X121191376Y-69741172D01*
X121256561Y-69723000D01*
X132162190Y-69723000D01*
X132226688Y-69740759D01*
G37*
G04 #@! TD.AperFunction*
M02*
