G04 #@! TF.GenerationSoftware,KiCad,Pcbnew,7.0.1*
G04 #@! TF.CreationDate,2023-06-02T18:51:41-05:00*
G04 #@! TF.ProjectId,MiniSSO,4d696e69-5353-44f2-9e6b-696361645f70,2*
G04 #@! TF.SameCoordinates,Original*
G04 #@! TF.FileFunction,Paste,Top*
G04 #@! TF.FilePolarity,Positive*
%FSLAX46Y46*%
G04 Gerber Fmt 4.6, Leading zero omitted, Abs format (unit mm)*
G04 Created by KiCad (PCBNEW 7.0.1) date 2023-06-02 18:51:41*
%MOMM*%
%LPD*%
G01*
G04 APERTURE LIST*
G04 Aperture macros list*
%AMRoundRect*
0 Rectangle with rounded corners*
0 $1 Rounding radius*
0 $2 $3 $4 $5 $6 $7 $8 $9 X,Y pos of 4 corners*
0 Add a 4 corners polygon primitive as box body*
4,1,4,$2,$3,$4,$5,$6,$7,$8,$9,$2,$3,0*
0 Add four circle primitives for the rounded corners*
1,1,$1+$1,$2,$3*
1,1,$1+$1,$4,$5*
1,1,$1+$1,$6,$7*
1,1,$1+$1,$8,$9*
0 Add four rect primitives between the rounded corners*
20,1,$1+$1,$2,$3,$4,$5,0*
20,1,$1+$1,$4,$5,$6,$7,0*
20,1,$1+$1,$6,$7,$8,$9,0*
20,1,$1+$1,$8,$9,$2,$3,0*%
G04 Aperture macros list end*
%ADD10R,3.000000X1.400000*%
%ADD11R,6.500000X6.000000*%
%ADD12RoundRect,0.218750X-0.256250X0.218750X-0.256250X-0.218750X0.256250X-0.218750X0.256250X0.218750X0*%
%ADD13R,0.900000X1.200000*%
%ADD14RoundRect,0.200000X-0.200000X-0.275000X0.200000X-0.275000X0.200000X0.275000X-0.200000X0.275000X0*%
%ADD15RoundRect,0.218750X0.218750X0.256250X-0.218750X0.256250X-0.218750X-0.256250X0.218750X-0.256250X0*%
%ADD16RoundRect,0.200000X0.275000X-0.200000X0.275000X0.200000X-0.275000X0.200000X-0.275000X-0.200000X0*%
%ADD17RoundRect,0.250000X-0.312500X-1.450000X0.312500X-1.450000X0.312500X1.450000X-0.312500X1.450000X0*%
%ADD18R,0.900000X1.000000*%
%ADD19R,0.640000X2.000000*%
G04 APERTURE END LIST*
D10*
X141700000Y-82600000D03*
X141700000Y-87200000D03*
D11*
X147950000Y-84900000D03*
D12*
X123444000Y-71120000D03*
X123444000Y-72695000D03*
D13*
X157504400Y-79654400D03*
X154204400Y-79654400D03*
D14*
X137425000Y-84925000D03*
X139075000Y-84925000D03*
D13*
X157500000Y-82100000D03*
X154200000Y-82100000D03*
D15*
X161937500Y-88350000D03*
X160362500Y-88350000D03*
D14*
X137425000Y-87225000D03*
X139075000Y-87225000D03*
D15*
X161925100Y-73406000D03*
X160350100Y-73406000D03*
D10*
X141668850Y-74662000D03*
X141668850Y-79262000D03*
D11*
X147918850Y-76962000D03*
D14*
X137425000Y-79250000D03*
X139075000Y-79250000D03*
X132121525Y-73553269D03*
X133771525Y-73553269D03*
X157075000Y-88350000D03*
X158725000Y-88350000D03*
D16*
X124714000Y-88074000D03*
X124714000Y-86424000D03*
D17*
X153655350Y-76327000D03*
X157930350Y-76327000D03*
X153662500Y-85450000D03*
X157937500Y-85450000D03*
D18*
X126347000Y-86449000D03*
X130447000Y-86449000D03*
X126347000Y-88049000D03*
X130447000Y-88049000D03*
D14*
X137400000Y-76925000D03*
X139050000Y-76925000D03*
X157061400Y-73406000D03*
X158711400Y-73406000D03*
D19*
X129733925Y-77464469D03*
X127193925Y-77464469D03*
X127193925Y-83764469D03*
X129733925Y-83764469D03*
D13*
X135447925Y-75483669D03*
X132147925Y-75483669D03*
M02*
