%TF.GenerationSoftware,KiCad,Pcbnew,7.0.1*%
%TF.CreationDate,2023-06-02T18:52:21-05:00*%
%TF.ProjectId,MiniSSO,4d696e69-5353-44f2-9e6b-696361645f70,2*%
%TF.SameCoordinates,Original*%
%TF.FileFunction,Drillmap*%
%TF.FilePolarity,Positive*%
%FSLAX45Y45*%
G04 Gerber Fmt 4.5, Leading zero omitted, Abs format (unit mm)*
G04 Created by KiCad (PCBNEW 7.0.1) date 2023-06-02 18:52:21*
%MOMM*%
%LPD*%
G01*
G04 APERTURE LIST*
%ADD10C,0.100000*%
%ADD11C,0.200000*%
%ADD12C,0.040000*%
%ADD13C,0.130000*%
%ADD14C,0.270000*%
G04 APERTURE END LIST*
D10*
X11683073Y-9107927D02*
G75*
G03*
X11810072Y-9234927I126997J-3D01*
G01*
X16636072Y-9234927D02*
X11810072Y-9234927D01*
X16763073Y-7075927D02*
G75*
G03*
X16636072Y-6948927I-127003J-3D01*
G01*
X16763072Y-7075927D02*
X16763072Y-9107927D01*
X16636072Y-9234933D02*
G75*
G03*
X16763072Y-9107927I-3J127003D01*
G01*
X11683072Y-9107927D02*
X11683072Y-7075927D01*
X11810072Y-6948932D02*
G75*
G03*
X11683072Y-7075927I-3J-126998D01*
G01*
X11810072Y-6948927D02*
X16636072Y-6948927D01*
D11*
D12*
X13090000Y-7458417D02*
X13130000Y-7498417D01*
X13130000Y-7458417D02*
X13090000Y-7498417D01*
X13090000Y-7815000D02*
X13130000Y-7855000D01*
X13130000Y-7815000D02*
X13090000Y-7855000D01*
X13188338Y-7832880D02*
X13228338Y-7872880D01*
X13228338Y-7832880D02*
X13188338Y-7872880D01*
X13205000Y-8282390D02*
X13245000Y-8322390D01*
X13245000Y-8282390D02*
X13205000Y-8322390D01*
X13400000Y-8282390D02*
X13440000Y-8322390D01*
X13440000Y-8282390D02*
X13400000Y-8322390D01*
X13625000Y-8282390D02*
X13665000Y-8322390D01*
X13665000Y-8282390D02*
X13625000Y-8322390D01*
X13642500Y-8575000D02*
X13682500Y-8615000D01*
X13682500Y-8575000D02*
X13642500Y-8615000D01*
X13897821Y-7512821D02*
X13937821Y-7552821D01*
X13937821Y-7512821D02*
X13897821Y-7552821D01*
X14080000Y-7680000D02*
X14120000Y-7720000D01*
X14120000Y-7680000D02*
X14080000Y-7720000D01*
X14080000Y-8480000D02*
X14120000Y-8520000D01*
X14120000Y-8480000D02*
X14080000Y-8520000D01*
X14230000Y-7680000D02*
X14270000Y-7720000D01*
X14270000Y-7680000D02*
X14230000Y-7720000D01*
X14230000Y-8480000D02*
X14270000Y-8520000D01*
X14270000Y-8480000D02*
X14230000Y-8520000D01*
X15559285Y-7612700D02*
X15599285Y-7652700D01*
X15599285Y-7612700D02*
X15559285Y-7652700D01*
X15560000Y-8522500D02*
X15600000Y-8562500D01*
X15600000Y-8522500D02*
X15560000Y-8562500D01*
X16330000Y-7430000D02*
X16370000Y-7470000D01*
X16370000Y-7430000D02*
X16330000Y-7470000D01*
X16330000Y-8680000D02*
X16370000Y-8720000D01*
X16370000Y-8680000D02*
X16330000Y-8720000D01*
X16530000Y-7430000D02*
X16570000Y-7470000D01*
X16570000Y-7430000D02*
X16530000Y-7470000D01*
X16530000Y-8680000D02*
X16570000Y-8720000D01*
X16570000Y-8680000D02*
X16530000Y-8720000D01*
D10*
X12368072Y-9107927D02*
G75*
G03*
X12368072Y-9107927I-50000J0D01*
G01*
X12622072Y-9107927D02*
G75*
G03*
X12622072Y-9107927I-50000J0D01*
G01*
X12876072Y-9107927D02*
G75*
G03*
X12876072Y-9107927I-50000J0D01*
G01*
X13130072Y-9107927D02*
G75*
G03*
X13130072Y-9107927I-50000J0D01*
G01*
X13384072Y-7075927D02*
G75*
G03*
X13384072Y-7075927I-50000J0D01*
G01*
X13384072Y-9107927D02*
G75*
G03*
X13384072Y-9107927I-50000J0D01*
G01*
X13638072Y-7075927D02*
G75*
G03*
X13638072Y-7075927I-50000J0D01*
G01*
X13638072Y-9107927D02*
G75*
G03*
X13638072Y-9107927I-50000J0D01*
G01*
X13892072Y-7075927D02*
G75*
G03*
X13892072Y-7075927I-50000J0D01*
G01*
X13892072Y-9107927D02*
G75*
G03*
X13892072Y-9107927I-50000J0D01*
G01*
X14146072Y-7075927D02*
G75*
G03*
X14146072Y-7075927I-50000J0D01*
G01*
X14146072Y-9107927D02*
G75*
G03*
X14146072Y-9107927I-50000J0D01*
G01*
X14400072Y-7075927D02*
G75*
G03*
X14400072Y-7075927I-50000J0D01*
G01*
X14400072Y-9107927D02*
G75*
G03*
X14400072Y-9107927I-50000J0D01*
G01*
X14654072Y-7075927D02*
G75*
G03*
X14654072Y-7075927I-50000J0D01*
G01*
X14654072Y-9107927D02*
G75*
G03*
X14654072Y-9107927I-50000J0D01*
G01*
X14908072Y-7075927D02*
G75*
G03*
X14908072Y-7075927I-50000J0D01*
G01*
X14908072Y-9107927D02*
G75*
G03*
X14908072Y-9107927I-50000J0D01*
G01*
X15162072Y-7075927D02*
G75*
G03*
X15162072Y-7075927I-50000J0D01*
G01*
X15162072Y-9107927D02*
G75*
G03*
X15162072Y-9107927I-50000J0D01*
G01*
X15416072Y-7075927D02*
G75*
G03*
X15416072Y-7075927I-50000J0D01*
G01*
X15416072Y-9107927D02*
G75*
G03*
X15416072Y-9107927I-50000J0D01*
G01*
X15670072Y-7075927D02*
G75*
G03*
X15670072Y-7075927I-50000J0D01*
G01*
X15670072Y-9107927D02*
G75*
G03*
X15670072Y-9107927I-50000J0D01*
G01*
X15924072Y-7075927D02*
G75*
G03*
X15924072Y-7075927I-50000J0D01*
G01*
X15924072Y-9107927D02*
G75*
G03*
X15924072Y-9107927I-50000J0D01*
G01*
X16178072Y-7075927D02*
G75*
G03*
X16178072Y-7075927I-50000J0D01*
G01*
X16178072Y-9107927D02*
G75*
G03*
X16178072Y-9107927I-50000J0D01*
G01*
D13*
X12095480Y-7880640D02*
X12095480Y-8010640D01*
X12030480Y-7945640D02*
X12160480Y-7945640D01*
X12095480Y-8230640D02*
X12095480Y-8360640D01*
X12030480Y-8295640D02*
X12160480Y-8295640D01*
X12649200Y-7212100D02*
X12649200Y-7342100D01*
X12584200Y-7277100D02*
X12714200Y-7277100D01*
X12903200Y-7212100D02*
X12903200Y-7342100D01*
X12838200Y-7277100D02*
X12968200Y-7277100D01*
X16368240Y-7677440D02*
X16368240Y-7807440D01*
X16303240Y-7742440D02*
X16433240Y-7742440D01*
X16368240Y-8027440D02*
X16368240Y-8157440D01*
X16303240Y-8092440D02*
X16433240Y-8092440D01*
X16368240Y-8377440D02*
X16368240Y-8507440D01*
X16303240Y-8442440D02*
X16433240Y-8442440D01*
D14*
X12032533Y-7298387D02*
X12032533Y-7107467D01*
X11841612Y-7107467D01*
X11841612Y-7298387D01*
X12032533Y-7298387D01*
X12032533Y-9076387D02*
X12032533Y-8885467D01*
X11841612Y-8885467D01*
X11841612Y-9076387D01*
X12032533Y-9076387D01*
D11*
X11925691Y-9552451D02*
X11925691Y-9352451D01*
X11925691Y-9352451D02*
X11973310Y-9352451D01*
X11973310Y-9352451D02*
X12001882Y-9361975D01*
X12001882Y-9361975D02*
X12020930Y-9381022D01*
X12020930Y-9381022D02*
X12030453Y-9400070D01*
X12030453Y-9400070D02*
X12039977Y-9438165D01*
X12039977Y-9438165D02*
X12039977Y-9466736D01*
X12039977Y-9466736D02*
X12030453Y-9504832D01*
X12030453Y-9504832D02*
X12020930Y-9523879D01*
X12020930Y-9523879D02*
X12001882Y-9542927D01*
X12001882Y-9542927D02*
X11973310Y-9552451D01*
X11973310Y-9552451D02*
X11925691Y-9552451D01*
X12125691Y-9552451D02*
X12125691Y-9419117D01*
X12125691Y-9457213D02*
X12135215Y-9438165D01*
X12135215Y-9438165D02*
X12144739Y-9428641D01*
X12144739Y-9428641D02*
X12163787Y-9419117D01*
X12163787Y-9419117D02*
X12182834Y-9419117D01*
X12249501Y-9552451D02*
X12249501Y-9419117D01*
X12249501Y-9352451D02*
X12239977Y-9361975D01*
X12239977Y-9361975D02*
X12249501Y-9371498D01*
X12249501Y-9371498D02*
X12259025Y-9361975D01*
X12259025Y-9361975D02*
X12249501Y-9352451D01*
X12249501Y-9352451D02*
X12249501Y-9371498D01*
X12373310Y-9552451D02*
X12354263Y-9542927D01*
X12354263Y-9542927D02*
X12344739Y-9523879D01*
X12344739Y-9523879D02*
X12344739Y-9352451D01*
X12478072Y-9552451D02*
X12459025Y-9542927D01*
X12459025Y-9542927D02*
X12449501Y-9523879D01*
X12449501Y-9523879D02*
X12449501Y-9352451D01*
X12706644Y-9552451D02*
X12706644Y-9352451D01*
X12706644Y-9352451D02*
X12773311Y-9495308D01*
X12773311Y-9495308D02*
X12839977Y-9352451D01*
X12839977Y-9352451D02*
X12839977Y-9552451D01*
X13020930Y-9552451D02*
X13020930Y-9447689D01*
X13020930Y-9447689D02*
X13011406Y-9428641D01*
X13011406Y-9428641D02*
X12992358Y-9419117D01*
X12992358Y-9419117D02*
X12954263Y-9419117D01*
X12954263Y-9419117D02*
X12935215Y-9428641D01*
X13020930Y-9542927D02*
X13001882Y-9552451D01*
X13001882Y-9552451D02*
X12954263Y-9552451D01*
X12954263Y-9552451D02*
X12935215Y-9542927D01*
X12935215Y-9542927D02*
X12925691Y-9523879D01*
X12925691Y-9523879D02*
X12925691Y-9504832D01*
X12925691Y-9504832D02*
X12935215Y-9485784D01*
X12935215Y-9485784D02*
X12954263Y-9476260D01*
X12954263Y-9476260D02*
X13001882Y-9476260D01*
X13001882Y-9476260D02*
X13020930Y-9466736D01*
X13116168Y-9419117D02*
X13116168Y-9619117D01*
X13116168Y-9428641D02*
X13135215Y-9419117D01*
X13135215Y-9419117D02*
X13173311Y-9419117D01*
X13173311Y-9419117D02*
X13192358Y-9428641D01*
X13192358Y-9428641D02*
X13201882Y-9438165D01*
X13201882Y-9438165D02*
X13211406Y-9457213D01*
X13211406Y-9457213D02*
X13211406Y-9514355D01*
X13211406Y-9514355D02*
X13201882Y-9533403D01*
X13201882Y-9533403D02*
X13192358Y-9542927D01*
X13192358Y-9542927D02*
X13173311Y-9552451D01*
X13173311Y-9552451D02*
X13135215Y-9552451D01*
X13135215Y-9552451D02*
X13116168Y-9542927D01*
X13297120Y-9533403D02*
X13306644Y-9542927D01*
X13306644Y-9542927D02*
X13297120Y-9552451D01*
X13297120Y-9552451D02*
X13287596Y-9542927D01*
X13287596Y-9542927D02*
X13297120Y-9533403D01*
X13297120Y-9533403D02*
X13297120Y-9552451D01*
X13297120Y-9428641D02*
X13306644Y-9438165D01*
X13306644Y-9438165D02*
X13297120Y-9447689D01*
X13297120Y-9447689D02*
X13287596Y-9438165D01*
X13287596Y-9438165D02*
X13297120Y-9428641D01*
X13297120Y-9428641D02*
X13297120Y-9447689D01*
D12*
X11638072Y-9859927D02*
X11678072Y-9899927D01*
X11678072Y-9859927D02*
X11638072Y-9899927D01*
D11*
X11963787Y-9772451D02*
X11982834Y-9772451D01*
X11982834Y-9772451D02*
X12001882Y-9781975D01*
X12001882Y-9781975D02*
X12011406Y-9791498D01*
X12011406Y-9791498D02*
X12020930Y-9810546D01*
X12020930Y-9810546D02*
X12030453Y-9848641D01*
X12030453Y-9848641D02*
X12030453Y-9896260D01*
X12030453Y-9896260D02*
X12020930Y-9934355D01*
X12020930Y-9934355D02*
X12011406Y-9953403D01*
X12011406Y-9953403D02*
X12001882Y-9962927D01*
X12001882Y-9962927D02*
X11982834Y-9972451D01*
X11982834Y-9972451D02*
X11963787Y-9972451D01*
X11963787Y-9972451D02*
X11944739Y-9962927D01*
X11944739Y-9962927D02*
X11935215Y-9953403D01*
X11935215Y-9953403D02*
X11925691Y-9934355D01*
X11925691Y-9934355D02*
X11916168Y-9896260D01*
X11916168Y-9896260D02*
X11916168Y-9848641D01*
X11916168Y-9848641D02*
X11925691Y-9810546D01*
X11925691Y-9810546D02*
X11935215Y-9791498D01*
X11935215Y-9791498D02*
X11944739Y-9781975D01*
X11944739Y-9781975D02*
X11963787Y-9772451D01*
X12116168Y-9953403D02*
X12125691Y-9962927D01*
X12125691Y-9962927D02*
X12116168Y-9972451D01*
X12116168Y-9972451D02*
X12106644Y-9962927D01*
X12106644Y-9962927D02*
X12116168Y-9953403D01*
X12116168Y-9953403D02*
X12116168Y-9972451D01*
X12297120Y-9839117D02*
X12297120Y-9972451D01*
X12249501Y-9762927D02*
X12201882Y-9905784D01*
X12201882Y-9905784D02*
X12325691Y-9905784D01*
X12439977Y-9772451D02*
X12459025Y-9772451D01*
X12459025Y-9772451D02*
X12478072Y-9781975D01*
X12478072Y-9781975D02*
X12487596Y-9791498D01*
X12487596Y-9791498D02*
X12497120Y-9810546D01*
X12497120Y-9810546D02*
X12506644Y-9848641D01*
X12506644Y-9848641D02*
X12506644Y-9896260D01*
X12506644Y-9896260D02*
X12497120Y-9934355D01*
X12497120Y-9934355D02*
X12487596Y-9953403D01*
X12487596Y-9953403D02*
X12478072Y-9962927D01*
X12478072Y-9962927D02*
X12459025Y-9972451D01*
X12459025Y-9972451D02*
X12439977Y-9972451D01*
X12439977Y-9972451D02*
X12420930Y-9962927D01*
X12420930Y-9962927D02*
X12411406Y-9953403D01*
X12411406Y-9953403D02*
X12401882Y-9934355D01*
X12401882Y-9934355D02*
X12392358Y-9896260D01*
X12392358Y-9896260D02*
X12392358Y-9848641D01*
X12392358Y-9848641D02*
X12401882Y-9810546D01*
X12401882Y-9810546D02*
X12411406Y-9791498D01*
X12411406Y-9791498D02*
X12420930Y-9781975D01*
X12420930Y-9781975D02*
X12439977Y-9772451D01*
X12630453Y-9772451D02*
X12649501Y-9772451D01*
X12649501Y-9772451D02*
X12668549Y-9781975D01*
X12668549Y-9781975D02*
X12678072Y-9791498D01*
X12678072Y-9791498D02*
X12687596Y-9810546D01*
X12687596Y-9810546D02*
X12697120Y-9848641D01*
X12697120Y-9848641D02*
X12697120Y-9896260D01*
X12697120Y-9896260D02*
X12687596Y-9934355D01*
X12687596Y-9934355D02*
X12678072Y-9953403D01*
X12678072Y-9953403D02*
X12668549Y-9962927D01*
X12668549Y-9962927D02*
X12649501Y-9972451D01*
X12649501Y-9972451D02*
X12630453Y-9972451D01*
X12630453Y-9972451D02*
X12611406Y-9962927D01*
X12611406Y-9962927D02*
X12601882Y-9953403D01*
X12601882Y-9953403D02*
X12592358Y-9934355D01*
X12592358Y-9934355D02*
X12582834Y-9896260D01*
X12582834Y-9896260D02*
X12582834Y-9848641D01*
X12582834Y-9848641D02*
X12592358Y-9810546D01*
X12592358Y-9810546D02*
X12601882Y-9791498D01*
X12601882Y-9791498D02*
X12611406Y-9781975D01*
X12611406Y-9781975D02*
X12630453Y-9772451D01*
X12782834Y-9972451D02*
X12782834Y-9839117D01*
X12782834Y-9858165D02*
X12792358Y-9848641D01*
X12792358Y-9848641D02*
X12811406Y-9839117D01*
X12811406Y-9839117D02*
X12839977Y-9839117D01*
X12839977Y-9839117D02*
X12859025Y-9848641D01*
X12859025Y-9848641D02*
X12868549Y-9867689D01*
X12868549Y-9867689D02*
X12868549Y-9972451D01*
X12868549Y-9867689D02*
X12878072Y-9848641D01*
X12878072Y-9848641D02*
X12897120Y-9839117D01*
X12897120Y-9839117D02*
X12925691Y-9839117D01*
X12925691Y-9839117D02*
X12944739Y-9848641D01*
X12944739Y-9848641D02*
X12954263Y-9867689D01*
X12954263Y-9867689D02*
X12954263Y-9972451D01*
X13049501Y-9972451D02*
X13049501Y-9839117D01*
X13049501Y-9858165D02*
X13059025Y-9848641D01*
X13059025Y-9848641D02*
X13078072Y-9839117D01*
X13078072Y-9839117D02*
X13106644Y-9839117D01*
X13106644Y-9839117D02*
X13125692Y-9848641D01*
X13125692Y-9848641D02*
X13135215Y-9867689D01*
X13135215Y-9867689D02*
X13135215Y-9972451D01*
X13135215Y-9867689D02*
X13144739Y-9848641D01*
X13144739Y-9848641D02*
X13163787Y-9839117D01*
X13163787Y-9839117D02*
X13192358Y-9839117D01*
X13192358Y-9839117D02*
X13211406Y-9848641D01*
X13211406Y-9848641D02*
X13220930Y-9867689D01*
X13220930Y-9867689D02*
X13220930Y-9972451D01*
X13611406Y-9762927D02*
X13439977Y-10020070D01*
X13868549Y-9772451D02*
X13887596Y-9772451D01*
X13887596Y-9772451D02*
X13906644Y-9781975D01*
X13906644Y-9781975D02*
X13916168Y-9791498D01*
X13916168Y-9791498D02*
X13925692Y-9810546D01*
X13925692Y-9810546D02*
X13935215Y-9848641D01*
X13935215Y-9848641D02*
X13935215Y-9896260D01*
X13935215Y-9896260D02*
X13925692Y-9934355D01*
X13925692Y-9934355D02*
X13916168Y-9953403D01*
X13916168Y-9953403D02*
X13906644Y-9962927D01*
X13906644Y-9962927D02*
X13887596Y-9972451D01*
X13887596Y-9972451D02*
X13868549Y-9972451D01*
X13868549Y-9972451D02*
X13849501Y-9962927D01*
X13849501Y-9962927D02*
X13839977Y-9953403D01*
X13839977Y-9953403D02*
X13830454Y-9934355D01*
X13830454Y-9934355D02*
X13820930Y-9896260D01*
X13820930Y-9896260D02*
X13820930Y-9848641D01*
X13820930Y-9848641D02*
X13830454Y-9810546D01*
X13830454Y-9810546D02*
X13839977Y-9791498D01*
X13839977Y-9791498D02*
X13849501Y-9781975D01*
X13849501Y-9781975D02*
X13868549Y-9772451D01*
X14020930Y-9953403D02*
X14030454Y-9962927D01*
X14030454Y-9962927D02*
X14020930Y-9972451D01*
X14020930Y-9972451D02*
X14011406Y-9962927D01*
X14011406Y-9962927D02*
X14020930Y-9953403D01*
X14020930Y-9953403D02*
X14020930Y-9972451D01*
X14154263Y-9772451D02*
X14173311Y-9772451D01*
X14173311Y-9772451D02*
X14192358Y-9781975D01*
X14192358Y-9781975D02*
X14201882Y-9791498D01*
X14201882Y-9791498D02*
X14211406Y-9810546D01*
X14211406Y-9810546D02*
X14220930Y-9848641D01*
X14220930Y-9848641D02*
X14220930Y-9896260D01*
X14220930Y-9896260D02*
X14211406Y-9934355D01*
X14211406Y-9934355D02*
X14201882Y-9953403D01*
X14201882Y-9953403D02*
X14192358Y-9962927D01*
X14192358Y-9962927D02*
X14173311Y-9972451D01*
X14173311Y-9972451D02*
X14154263Y-9972451D01*
X14154263Y-9972451D02*
X14135215Y-9962927D01*
X14135215Y-9962927D02*
X14125692Y-9953403D01*
X14125692Y-9953403D02*
X14116168Y-9934355D01*
X14116168Y-9934355D02*
X14106644Y-9896260D01*
X14106644Y-9896260D02*
X14106644Y-9848641D01*
X14106644Y-9848641D02*
X14116168Y-9810546D01*
X14116168Y-9810546D02*
X14125692Y-9791498D01*
X14125692Y-9791498D02*
X14135215Y-9781975D01*
X14135215Y-9781975D02*
X14154263Y-9772451D01*
X14411406Y-9972451D02*
X14297120Y-9972451D01*
X14354263Y-9972451D02*
X14354263Y-9772451D01*
X14354263Y-9772451D02*
X14335215Y-9801022D01*
X14335215Y-9801022D02*
X14316168Y-9820070D01*
X14316168Y-9820070D02*
X14297120Y-9829594D01*
X14592358Y-9772451D02*
X14497120Y-9772451D01*
X14497120Y-9772451D02*
X14487596Y-9867689D01*
X14487596Y-9867689D02*
X14497120Y-9858165D01*
X14497120Y-9858165D02*
X14516168Y-9848641D01*
X14516168Y-9848641D02*
X14563787Y-9848641D01*
X14563787Y-9848641D02*
X14582835Y-9858165D01*
X14582835Y-9858165D02*
X14592358Y-9867689D01*
X14592358Y-9867689D02*
X14601882Y-9886736D01*
X14601882Y-9886736D02*
X14601882Y-9934355D01*
X14601882Y-9934355D02*
X14592358Y-9953403D01*
X14592358Y-9953403D02*
X14582835Y-9962927D01*
X14582835Y-9962927D02*
X14563787Y-9972451D01*
X14563787Y-9972451D02*
X14516168Y-9972451D01*
X14516168Y-9972451D02*
X14497120Y-9962927D01*
X14497120Y-9962927D02*
X14487596Y-9953403D01*
X14668549Y-9772451D02*
X14801882Y-9772451D01*
X14801882Y-9772451D02*
X14716168Y-9972451D01*
X14868549Y-9772451D02*
X14868549Y-9810546D01*
X14944739Y-9772451D02*
X14944739Y-9810546D01*
X15239978Y-10048641D02*
X15230454Y-10039117D01*
X15230454Y-10039117D02*
X15211406Y-10010546D01*
X15211406Y-10010546D02*
X15201882Y-9991498D01*
X15201882Y-9991498D02*
X15192358Y-9962927D01*
X15192358Y-9962927D02*
X15182835Y-9915308D01*
X15182835Y-9915308D02*
X15182835Y-9877213D01*
X15182835Y-9877213D02*
X15192358Y-9829594D01*
X15192358Y-9829594D02*
X15201882Y-9801022D01*
X15201882Y-9801022D02*
X15211406Y-9781975D01*
X15211406Y-9781975D02*
X15230454Y-9753403D01*
X15230454Y-9753403D02*
X15239978Y-9743879D01*
X15420930Y-9972451D02*
X15306644Y-9972451D01*
X15363787Y-9972451D02*
X15363787Y-9772451D01*
X15363787Y-9772451D02*
X15344739Y-9801022D01*
X15344739Y-9801022D02*
X15325692Y-9820070D01*
X15325692Y-9820070D02*
X15306644Y-9829594D01*
X15535216Y-9858165D02*
X15516168Y-9848641D01*
X15516168Y-9848641D02*
X15506644Y-9839117D01*
X15506644Y-9839117D02*
X15497120Y-9820070D01*
X15497120Y-9820070D02*
X15497120Y-9810546D01*
X15497120Y-9810546D02*
X15506644Y-9791498D01*
X15506644Y-9791498D02*
X15516168Y-9781975D01*
X15516168Y-9781975D02*
X15535216Y-9772451D01*
X15535216Y-9772451D02*
X15573311Y-9772451D01*
X15573311Y-9772451D02*
X15592358Y-9781975D01*
X15592358Y-9781975D02*
X15601882Y-9791498D01*
X15601882Y-9791498D02*
X15611406Y-9810546D01*
X15611406Y-9810546D02*
X15611406Y-9820070D01*
X15611406Y-9820070D02*
X15601882Y-9839117D01*
X15601882Y-9839117D02*
X15592358Y-9848641D01*
X15592358Y-9848641D02*
X15573311Y-9858165D01*
X15573311Y-9858165D02*
X15535216Y-9858165D01*
X15535216Y-9858165D02*
X15516168Y-9867689D01*
X15516168Y-9867689D02*
X15506644Y-9877213D01*
X15506644Y-9877213D02*
X15497120Y-9896260D01*
X15497120Y-9896260D02*
X15497120Y-9934355D01*
X15497120Y-9934355D02*
X15506644Y-9953403D01*
X15506644Y-9953403D02*
X15516168Y-9962927D01*
X15516168Y-9962927D02*
X15535216Y-9972451D01*
X15535216Y-9972451D02*
X15573311Y-9972451D01*
X15573311Y-9972451D02*
X15592358Y-9962927D01*
X15592358Y-9962927D02*
X15601882Y-9953403D01*
X15601882Y-9953403D02*
X15611406Y-9934355D01*
X15611406Y-9934355D02*
X15611406Y-9896260D01*
X15611406Y-9896260D02*
X15601882Y-9877213D01*
X15601882Y-9877213D02*
X15592358Y-9867689D01*
X15592358Y-9867689D02*
X15573311Y-9858165D01*
X15849501Y-9972451D02*
X15849501Y-9772451D01*
X15935216Y-9972451D02*
X15935216Y-9867689D01*
X15935216Y-9867689D02*
X15925692Y-9848641D01*
X15925692Y-9848641D02*
X15906644Y-9839117D01*
X15906644Y-9839117D02*
X15878073Y-9839117D01*
X15878073Y-9839117D02*
X15859025Y-9848641D01*
X15859025Y-9848641D02*
X15849501Y-9858165D01*
X16059025Y-9972451D02*
X16039978Y-9962927D01*
X16039978Y-9962927D02*
X16030454Y-9953403D01*
X16030454Y-9953403D02*
X16020930Y-9934355D01*
X16020930Y-9934355D02*
X16020930Y-9877213D01*
X16020930Y-9877213D02*
X16030454Y-9858165D01*
X16030454Y-9858165D02*
X16039978Y-9848641D01*
X16039978Y-9848641D02*
X16059025Y-9839117D01*
X16059025Y-9839117D02*
X16087597Y-9839117D01*
X16087597Y-9839117D02*
X16106644Y-9848641D01*
X16106644Y-9848641D02*
X16116168Y-9858165D01*
X16116168Y-9858165D02*
X16125692Y-9877213D01*
X16125692Y-9877213D02*
X16125692Y-9934355D01*
X16125692Y-9934355D02*
X16116168Y-9953403D01*
X16116168Y-9953403D02*
X16106644Y-9962927D01*
X16106644Y-9962927D02*
X16087597Y-9972451D01*
X16087597Y-9972451D02*
X16059025Y-9972451D01*
X16239978Y-9972451D02*
X16220930Y-9962927D01*
X16220930Y-9962927D02*
X16211406Y-9943879D01*
X16211406Y-9943879D02*
X16211406Y-9772451D01*
X16392359Y-9962927D02*
X16373311Y-9972451D01*
X16373311Y-9972451D02*
X16335216Y-9972451D01*
X16335216Y-9972451D02*
X16316168Y-9962927D01*
X16316168Y-9962927D02*
X16306644Y-9943879D01*
X16306644Y-9943879D02*
X16306644Y-9867689D01*
X16306644Y-9867689D02*
X16316168Y-9848641D01*
X16316168Y-9848641D02*
X16335216Y-9839117D01*
X16335216Y-9839117D02*
X16373311Y-9839117D01*
X16373311Y-9839117D02*
X16392359Y-9848641D01*
X16392359Y-9848641D02*
X16401882Y-9867689D01*
X16401882Y-9867689D02*
X16401882Y-9886736D01*
X16401882Y-9886736D02*
X16306644Y-9905784D01*
X16478073Y-9962927D02*
X16497120Y-9972451D01*
X16497120Y-9972451D02*
X16535216Y-9972451D01*
X16535216Y-9972451D02*
X16554263Y-9962927D01*
X16554263Y-9962927D02*
X16563787Y-9943879D01*
X16563787Y-9943879D02*
X16563787Y-9934355D01*
X16563787Y-9934355D02*
X16554263Y-9915308D01*
X16554263Y-9915308D02*
X16535216Y-9905784D01*
X16535216Y-9905784D02*
X16506644Y-9905784D01*
X16506644Y-9905784D02*
X16487597Y-9896260D01*
X16487597Y-9896260D02*
X16478073Y-9877213D01*
X16478073Y-9877213D02*
X16478073Y-9867689D01*
X16478073Y-9867689D02*
X16487597Y-9848641D01*
X16487597Y-9848641D02*
X16506644Y-9839117D01*
X16506644Y-9839117D02*
X16535216Y-9839117D01*
X16535216Y-9839117D02*
X16554263Y-9848641D01*
X16630454Y-10048641D02*
X16639978Y-10039117D01*
X16639978Y-10039117D02*
X16659025Y-10010546D01*
X16659025Y-10010546D02*
X16668549Y-9991498D01*
X16668549Y-9991498D02*
X16678073Y-9962927D01*
X16678073Y-9962927D02*
X16687597Y-9915308D01*
X16687597Y-9915308D02*
X16687597Y-9877213D01*
X16687597Y-9877213D02*
X16678073Y-9829594D01*
X16678073Y-9829594D02*
X16668549Y-9801022D01*
X16668549Y-9801022D02*
X16659025Y-9781975D01*
X16659025Y-9781975D02*
X16639978Y-9753403D01*
X16639978Y-9753403D02*
X16630454Y-9743879D01*
D10*
X11678072Y-10143927D02*
G75*
G03*
X11678072Y-10143927I-50000J0D01*
G01*
D11*
X12030453Y-10236451D02*
X11916168Y-10236451D01*
X11973310Y-10236451D02*
X11973310Y-10036451D01*
X11973310Y-10036451D02*
X11954263Y-10065022D01*
X11954263Y-10065022D02*
X11935215Y-10084070D01*
X11935215Y-10084070D02*
X11916168Y-10093594D01*
X12116168Y-10217403D02*
X12125691Y-10226927D01*
X12125691Y-10226927D02*
X12116168Y-10236451D01*
X12116168Y-10236451D02*
X12106644Y-10226927D01*
X12106644Y-10226927D02*
X12116168Y-10217403D01*
X12116168Y-10217403D02*
X12116168Y-10236451D01*
X12249501Y-10036451D02*
X12268549Y-10036451D01*
X12268549Y-10036451D02*
X12287596Y-10045975D01*
X12287596Y-10045975D02*
X12297120Y-10055498D01*
X12297120Y-10055498D02*
X12306644Y-10074546D01*
X12306644Y-10074546D02*
X12316168Y-10112641D01*
X12316168Y-10112641D02*
X12316168Y-10160260D01*
X12316168Y-10160260D02*
X12306644Y-10198355D01*
X12306644Y-10198355D02*
X12297120Y-10217403D01*
X12297120Y-10217403D02*
X12287596Y-10226927D01*
X12287596Y-10226927D02*
X12268549Y-10236451D01*
X12268549Y-10236451D02*
X12249501Y-10236451D01*
X12249501Y-10236451D02*
X12230453Y-10226927D01*
X12230453Y-10226927D02*
X12220930Y-10217403D01*
X12220930Y-10217403D02*
X12211406Y-10198355D01*
X12211406Y-10198355D02*
X12201882Y-10160260D01*
X12201882Y-10160260D02*
X12201882Y-10112641D01*
X12201882Y-10112641D02*
X12211406Y-10074546D01*
X12211406Y-10074546D02*
X12220930Y-10055498D01*
X12220930Y-10055498D02*
X12230453Y-10045975D01*
X12230453Y-10045975D02*
X12249501Y-10036451D01*
X12439977Y-10036451D02*
X12459025Y-10036451D01*
X12459025Y-10036451D02*
X12478072Y-10045975D01*
X12478072Y-10045975D02*
X12487596Y-10055498D01*
X12487596Y-10055498D02*
X12497120Y-10074546D01*
X12497120Y-10074546D02*
X12506644Y-10112641D01*
X12506644Y-10112641D02*
X12506644Y-10160260D01*
X12506644Y-10160260D02*
X12497120Y-10198355D01*
X12497120Y-10198355D02*
X12487596Y-10217403D01*
X12487596Y-10217403D02*
X12478072Y-10226927D01*
X12478072Y-10226927D02*
X12459025Y-10236451D01*
X12459025Y-10236451D02*
X12439977Y-10236451D01*
X12439977Y-10236451D02*
X12420930Y-10226927D01*
X12420930Y-10226927D02*
X12411406Y-10217403D01*
X12411406Y-10217403D02*
X12401882Y-10198355D01*
X12401882Y-10198355D02*
X12392358Y-10160260D01*
X12392358Y-10160260D02*
X12392358Y-10112641D01*
X12392358Y-10112641D02*
X12401882Y-10074546D01*
X12401882Y-10074546D02*
X12411406Y-10055498D01*
X12411406Y-10055498D02*
X12420930Y-10045975D01*
X12420930Y-10045975D02*
X12439977Y-10036451D01*
X12630453Y-10036451D02*
X12649501Y-10036451D01*
X12649501Y-10036451D02*
X12668549Y-10045975D01*
X12668549Y-10045975D02*
X12678072Y-10055498D01*
X12678072Y-10055498D02*
X12687596Y-10074546D01*
X12687596Y-10074546D02*
X12697120Y-10112641D01*
X12697120Y-10112641D02*
X12697120Y-10160260D01*
X12697120Y-10160260D02*
X12687596Y-10198355D01*
X12687596Y-10198355D02*
X12678072Y-10217403D01*
X12678072Y-10217403D02*
X12668549Y-10226927D01*
X12668549Y-10226927D02*
X12649501Y-10236451D01*
X12649501Y-10236451D02*
X12630453Y-10236451D01*
X12630453Y-10236451D02*
X12611406Y-10226927D01*
X12611406Y-10226927D02*
X12601882Y-10217403D01*
X12601882Y-10217403D02*
X12592358Y-10198355D01*
X12592358Y-10198355D02*
X12582834Y-10160260D01*
X12582834Y-10160260D02*
X12582834Y-10112641D01*
X12582834Y-10112641D02*
X12592358Y-10074546D01*
X12592358Y-10074546D02*
X12601882Y-10055498D01*
X12601882Y-10055498D02*
X12611406Y-10045975D01*
X12611406Y-10045975D02*
X12630453Y-10036451D01*
X12782834Y-10236451D02*
X12782834Y-10103117D01*
X12782834Y-10122165D02*
X12792358Y-10112641D01*
X12792358Y-10112641D02*
X12811406Y-10103117D01*
X12811406Y-10103117D02*
X12839977Y-10103117D01*
X12839977Y-10103117D02*
X12859025Y-10112641D01*
X12859025Y-10112641D02*
X12868549Y-10131689D01*
X12868549Y-10131689D02*
X12868549Y-10236451D01*
X12868549Y-10131689D02*
X12878072Y-10112641D01*
X12878072Y-10112641D02*
X12897120Y-10103117D01*
X12897120Y-10103117D02*
X12925691Y-10103117D01*
X12925691Y-10103117D02*
X12944739Y-10112641D01*
X12944739Y-10112641D02*
X12954263Y-10131689D01*
X12954263Y-10131689D02*
X12954263Y-10236451D01*
X13049501Y-10236451D02*
X13049501Y-10103117D01*
X13049501Y-10122165D02*
X13059025Y-10112641D01*
X13059025Y-10112641D02*
X13078072Y-10103117D01*
X13078072Y-10103117D02*
X13106644Y-10103117D01*
X13106644Y-10103117D02*
X13125692Y-10112641D01*
X13125692Y-10112641D02*
X13135215Y-10131689D01*
X13135215Y-10131689D02*
X13135215Y-10236451D01*
X13135215Y-10131689D02*
X13144739Y-10112641D01*
X13144739Y-10112641D02*
X13163787Y-10103117D01*
X13163787Y-10103117D02*
X13192358Y-10103117D01*
X13192358Y-10103117D02*
X13211406Y-10112641D01*
X13211406Y-10112641D02*
X13220930Y-10131689D01*
X13220930Y-10131689D02*
X13220930Y-10236451D01*
X13611406Y-10026927D02*
X13439977Y-10284070D01*
X13868549Y-10036451D02*
X13887596Y-10036451D01*
X13887596Y-10036451D02*
X13906644Y-10045975D01*
X13906644Y-10045975D02*
X13916168Y-10055498D01*
X13916168Y-10055498D02*
X13925692Y-10074546D01*
X13925692Y-10074546D02*
X13935215Y-10112641D01*
X13935215Y-10112641D02*
X13935215Y-10160260D01*
X13935215Y-10160260D02*
X13925692Y-10198355D01*
X13925692Y-10198355D02*
X13916168Y-10217403D01*
X13916168Y-10217403D02*
X13906644Y-10226927D01*
X13906644Y-10226927D02*
X13887596Y-10236451D01*
X13887596Y-10236451D02*
X13868549Y-10236451D01*
X13868549Y-10236451D02*
X13849501Y-10226927D01*
X13849501Y-10226927D02*
X13839977Y-10217403D01*
X13839977Y-10217403D02*
X13830454Y-10198355D01*
X13830454Y-10198355D02*
X13820930Y-10160260D01*
X13820930Y-10160260D02*
X13820930Y-10112641D01*
X13820930Y-10112641D02*
X13830454Y-10074546D01*
X13830454Y-10074546D02*
X13839977Y-10055498D01*
X13839977Y-10055498D02*
X13849501Y-10045975D01*
X13849501Y-10045975D02*
X13868549Y-10036451D01*
X14020930Y-10217403D02*
X14030454Y-10226927D01*
X14030454Y-10226927D02*
X14020930Y-10236451D01*
X14020930Y-10236451D02*
X14011406Y-10226927D01*
X14011406Y-10226927D02*
X14020930Y-10217403D01*
X14020930Y-10217403D02*
X14020930Y-10236451D01*
X14154263Y-10036451D02*
X14173311Y-10036451D01*
X14173311Y-10036451D02*
X14192358Y-10045975D01*
X14192358Y-10045975D02*
X14201882Y-10055498D01*
X14201882Y-10055498D02*
X14211406Y-10074546D01*
X14211406Y-10074546D02*
X14220930Y-10112641D01*
X14220930Y-10112641D02*
X14220930Y-10160260D01*
X14220930Y-10160260D02*
X14211406Y-10198355D01*
X14211406Y-10198355D02*
X14201882Y-10217403D01*
X14201882Y-10217403D02*
X14192358Y-10226927D01*
X14192358Y-10226927D02*
X14173311Y-10236451D01*
X14173311Y-10236451D02*
X14154263Y-10236451D01*
X14154263Y-10236451D02*
X14135215Y-10226927D01*
X14135215Y-10226927D02*
X14125692Y-10217403D01*
X14125692Y-10217403D02*
X14116168Y-10198355D01*
X14116168Y-10198355D02*
X14106644Y-10160260D01*
X14106644Y-10160260D02*
X14106644Y-10112641D01*
X14106644Y-10112641D02*
X14116168Y-10074546D01*
X14116168Y-10074546D02*
X14125692Y-10055498D01*
X14125692Y-10055498D02*
X14135215Y-10045975D01*
X14135215Y-10045975D02*
X14154263Y-10036451D01*
X14287596Y-10036451D02*
X14411406Y-10036451D01*
X14411406Y-10036451D02*
X14344739Y-10112641D01*
X14344739Y-10112641D02*
X14373311Y-10112641D01*
X14373311Y-10112641D02*
X14392358Y-10122165D01*
X14392358Y-10122165D02*
X14401882Y-10131689D01*
X14401882Y-10131689D02*
X14411406Y-10150736D01*
X14411406Y-10150736D02*
X14411406Y-10198355D01*
X14411406Y-10198355D02*
X14401882Y-10217403D01*
X14401882Y-10217403D02*
X14392358Y-10226927D01*
X14392358Y-10226927D02*
X14373311Y-10236451D01*
X14373311Y-10236451D02*
X14316168Y-10236451D01*
X14316168Y-10236451D02*
X14297120Y-10226927D01*
X14297120Y-10226927D02*
X14287596Y-10217403D01*
X14506644Y-10236451D02*
X14544739Y-10236451D01*
X14544739Y-10236451D02*
X14563787Y-10226927D01*
X14563787Y-10226927D02*
X14573311Y-10217403D01*
X14573311Y-10217403D02*
X14592358Y-10188832D01*
X14592358Y-10188832D02*
X14601882Y-10150736D01*
X14601882Y-10150736D02*
X14601882Y-10074546D01*
X14601882Y-10074546D02*
X14592358Y-10055498D01*
X14592358Y-10055498D02*
X14582835Y-10045975D01*
X14582835Y-10045975D02*
X14563787Y-10036451D01*
X14563787Y-10036451D02*
X14525692Y-10036451D01*
X14525692Y-10036451D02*
X14506644Y-10045975D01*
X14506644Y-10045975D02*
X14497120Y-10055498D01*
X14497120Y-10055498D02*
X14487596Y-10074546D01*
X14487596Y-10074546D02*
X14487596Y-10122165D01*
X14487596Y-10122165D02*
X14497120Y-10141213D01*
X14497120Y-10141213D02*
X14506644Y-10150736D01*
X14506644Y-10150736D02*
X14525692Y-10160260D01*
X14525692Y-10160260D02*
X14563787Y-10160260D01*
X14563787Y-10160260D02*
X14582835Y-10150736D01*
X14582835Y-10150736D02*
X14592358Y-10141213D01*
X14592358Y-10141213D02*
X14601882Y-10122165D01*
X14773311Y-10103117D02*
X14773311Y-10236451D01*
X14725692Y-10026927D02*
X14678073Y-10169784D01*
X14678073Y-10169784D02*
X14801882Y-10169784D01*
X14868549Y-10036451D02*
X14868549Y-10074546D01*
X14944739Y-10036451D02*
X14944739Y-10074546D01*
X15239978Y-10312641D02*
X15230454Y-10303117D01*
X15230454Y-10303117D02*
X15211406Y-10274546D01*
X15211406Y-10274546D02*
X15201882Y-10255498D01*
X15201882Y-10255498D02*
X15192358Y-10226927D01*
X15192358Y-10226927D02*
X15182835Y-10179308D01*
X15182835Y-10179308D02*
X15182835Y-10141213D01*
X15182835Y-10141213D02*
X15192358Y-10093594D01*
X15192358Y-10093594D02*
X15201882Y-10065022D01*
X15201882Y-10065022D02*
X15211406Y-10045975D01*
X15211406Y-10045975D02*
X15230454Y-10017403D01*
X15230454Y-10017403D02*
X15239978Y-10007879D01*
X15306644Y-10055498D02*
X15316168Y-10045975D01*
X15316168Y-10045975D02*
X15335216Y-10036451D01*
X15335216Y-10036451D02*
X15382835Y-10036451D01*
X15382835Y-10036451D02*
X15401882Y-10045975D01*
X15401882Y-10045975D02*
X15411406Y-10055498D01*
X15411406Y-10055498D02*
X15420930Y-10074546D01*
X15420930Y-10074546D02*
X15420930Y-10093594D01*
X15420930Y-10093594D02*
X15411406Y-10122165D01*
X15411406Y-10122165D02*
X15297120Y-10236451D01*
X15297120Y-10236451D02*
X15420930Y-10236451D01*
X15535216Y-10122165D02*
X15516168Y-10112641D01*
X15516168Y-10112641D02*
X15506644Y-10103117D01*
X15506644Y-10103117D02*
X15497120Y-10084070D01*
X15497120Y-10084070D02*
X15497120Y-10074546D01*
X15497120Y-10074546D02*
X15506644Y-10055498D01*
X15506644Y-10055498D02*
X15516168Y-10045975D01*
X15516168Y-10045975D02*
X15535216Y-10036451D01*
X15535216Y-10036451D02*
X15573311Y-10036451D01*
X15573311Y-10036451D02*
X15592358Y-10045975D01*
X15592358Y-10045975D02*
X15601882Y-10055498D01*
X15601882Y-10055498D02*
X15611406Y-10074546D01*
X15611406Y-10074546D02*
X15611406Y-10084070D01*
X15611406Y-10084070D02*
X15601882Y-10103117D01*
X15601882Y-10103117D02*
X15592358Y-10112641D01*
X15592358Y-10112641D02*
X15573311Y-10122165D01*
X15573311Y-10122165D02*
X15535216Y-10122165D01*
X15535216Y-10122165D02*
X15516168Y-10131689D01*
X15516168Y-10131689D02*
X15506644Y-10141213D01*
X15506644Y-10141213D02*
X15497120Y-10160260D01*
X15497120Y-10160260D02*
X15497120Y-10198355D01*
X15497120Y-10198355D02*
X15506644Y-10217403D01*
X15506644Y-10217403D02*
X15516168Y-10226927D01*
X15516168Y-10226927D02*
X15535216Y-10236451D01*
X15535216Y-10236451D02*
X15573311Y-10236451D01*
X15573311Y-10236451D02*
X15592358Y-10226927D01*
X15592358Y-10226927D02*
X15601882Y-10217403D01*
X15601882Y-10217403D02*
X15611406Y-10198355D01*
X15611406Y-10198355D02*
X15611406Y-10160260D01*
X15611406Y-10160260D02*
X15601882Y-10141213D01*
X15601882Y-10141213D02*
X15592358Y-10131689D01*
X15592358Y-10131689D02*
X15573311Y-10122165D01*
X15849501Y-10236451D02*
X15849501Y-10036451D01*
X15935216Y-10236451D02*
X15935216Y-10131689D01*
X15935216Y-10131689D02*
X15925692Y-10112641D01*
X15925692Y-10112641D02*
X15906644Y-10103117D01*
X15906644Y-10103117D02*
X15878073Y-10103117D01*
X15878073Y-10103117D02*
X15859025Y-10112641D01*
X15859025Y-10112641D02*
X15849501Y-10122165D01*
X16059025Y-10236451D02*
X16039978Y-10226927D01*
X16039978Y-10226927D02*
X16030454Y-10217403D01*
X16030454Y-10217403D02*
X16020930Y-10198355D01*
X16020930Y-10198355D02*
X16020930Y-10141213D01*
X16020930Y-10141213D02*
X16030454Y-10122165D01*
X16030454Y-10122165D02*
X16039978Y-10112641D01*
X16039978Y-10112641D02*
X16059025Y-10103117D01*
X16059025Y-10103117D02*
X16087597Y-10103117D01*
X16087597Y-10103117D02*
X16106644Y-10112641D01*
X16106644Y-10112641D02*
X16116168Y-10122165D01*
X16116168Y-10122165D02*
X16125692Y-10141213D01*
X16125692Y-10141213D02*
X16125692Y-10198355D01*
X16125692Y-10198355D02*
X16116168Y-10217403D01*
X16116168Y-10217403D02*
X16106644Y-10226927D01*
X16106644Y-10226927D02*
X16087597Y-10236451D01*
X16087597Y-10236451D02*
X16059025Y-10236451D01*
X16239978Y-10236451D02*
X16220930Y-10226927D01*
X16220930Y-10226927D02*
X16211406Y-10207879D01*
X16211406Y-10207879D02*
X16211406Y-10036451D01*
X16392359Y-10226927D02*
X16373311Y-10236451D01*
X16373311Y-10236451D02*
X16335216Y-10236451D01*
X16335216Y-10236451D02*
X16316168Y-10226927D01*
X16316168Y-10226927D02*
X16306644Y-10207879D01*
X16306644Y-10207879D02*
X16306644Y-10131689D01*
X16306644Y-10131689D02*
X16316168Y-10112641D01*
X16316168Y-10112641D02*
X16335216Y-10103117D01*
X16335216Y-10103117D02*
X16373311Y-10103117D01*
X16373311Y-10103117D02*
X16392359Y-10112641D01*
X16392359Y-10112641D02*
X16401882Y-10131689D01*
X16401882Y-10131689D02*
X16401882Y-10150736D01*
X16401882Y-10150736D02*
X16306644Y-10169784D01*
X16478073Y-10226927D02*
X16497120Y-10236451D01*
X16497120Y-10236451D02*
X16535216Y-10236451D01*
X16535216Y-10236451D02*
X16554263Y-10226927D01*
X16554263Y-10226927D02*
X16563787Y-10207879D01*
X16563787Y-10207879D02*
X16563787Y-10198355D01*
X16563787Y-10198355D02*
X16554263Y-10179308D01*
X16554263Y-10179308D02*
X16535216Y-10169784D01*
X16535216Y-10169784D02*
X16506644Y-10169784D01*
X16506644Y-10169784D02*
X16487597Y-10160260D01*
X16487597Y-10160260D02*
X16478073Y-10141213D01*
X16478073Y-10141213D02*
X16478073Y-10131689D01*
X16478073Y-10131689D02*
X16487597Y-10112641D01*
X16487597Y-10112641D02*
X16506644Y-10103117D01*
X16506644Y-10103117D02*
X16535216Y-10103117D01*
X16535216Y-10103117D02*
X16554263Y-10112641D01*
X16630454Y-10312641D02*
X16639978Y-10303117D01*
X16639978Y-10303117D02*
X16659025Y-10274546D01*
X16659025Y-10274546D02*
X16668549Y-10255498D01*
X16668549Y-10255498D02*
X16678073Y-10226927D01*
X16678073Y-10226927D02*
X16687597Y-10179308D01*
X16687597Y-10179308D02*
X16687597Y-10141213D01*
X16687597Y-10141213D02*
X16678073Y-10093594D01*
X16678073Y-10093594D02*
X16668549Y-10065022D01*
X16668549Y-10065022D02*
X16659025Y-10045975D01*
X16659025Y-10045975D02*
X16639978Y-10017403D01*
X16639978Y-10017403D02*
X16630454Y-10007879D01*
D13*
X11613072Y-10342927D02*
X11613072Y-10472927D01*
X11548072Y-10407927D02*
X11678072Y-10407927D01*
D11*
X12030453Y-10500451D02*
X11916168Y-10500451D01*
X11973310Y-10500451D02*
X11973310Y-10300451D01*
X11973310Y-10300451D02*
X11954263Y-10329022D01*
X11954263Y-10329022D02*
X11935215Y-10348070D01*
X11935215Y-10348070D02*
X11916168Y-10357594D01*
X12116168Y-10481403D02*
X12125691Y-10490927D01*
X12125691Y-10490927D02*
X12116168Y-10500451D01*
X12116168Y-10500451D02*
X12106644Y-10490927D01*
X12106644Y-10490927D02*
X12116168Y-10481403D01*
X12116168Y-10481403D02*
X12116168Y-10500451D01*
X12192358Y-10300451D02*
X12316168Y-10300451D01*
X12316168Y-10300451D02*
X12249501Y-10376641D01*
X12249501Y-10376641D02*
X12278072Y-10376641D01*
X12278072Y-10376641D02*
X12297120Y-10386165D01*
X12297120Y-10386165D02*
X12306644Y-10395689D01*
X12306644Y-10395689D02*
X12316168Y-10414736D01*
X12316168Y-10414736D02*
X12316168Y-10462355D01*
X12316168Y-10462355D02*
X12306644Y-10481403D01*
X12306644Y-10481403D02*
X12297120Y-10490927D01*
X12297120Y-10490927D02*
X12278072Y-10500451D01*
X12278072Y-10500451D02*
X12220930Y-10500451D01*
X12220930Y-10500451D02*
X12201882Y-10490927D01*
X12201882Y-10490927D02*
X12192358Y-10481403D01*
X12439977Y-10300451D02*
X12459025Y-10300451D01*
X12459025Y-10300451D02*
X12478072Y-10309975D01*
X12478072Y-10309975D02*
X12487596Y-10319498D01*
X12487596Y-10319498D02*
X12497120Y-10338546D01*
X12497120Y-10338546D02*
X12506644Y-10376641D01*
X12506644Y-10376641D02*
X12506644Y-10424260D01*
X12506644Y-10424260D02*
X12497120Y-10462355D01*
X12497120Y-10462355D02*
X12487596Y-10481403D01*
X12487596Y-10481403D02*
X12478072Y-10490927D01*
X12478072Y-10490927D02*
X12459025Y-10500451D01*
X12459025Y-10500451D02*
X12439977Y-10500451D01*
X12439977Y-10500451D02*
X12420930Y-10490927D01*
X12420930Y-10490927D02*
X12411406Y-10481403D01*
X12411406Y-10481403D02*
X12401882Y-10462355D01*
X12401882Y-10462355D02*
X12392358Y-10424260D01*
X12392358Y-10424260D02*
X12392358Y-10376641D01*
X12392358Y-10376641D02*
X12401882Y-10338546D01*
X12401882Y-10338546D02*
X12411406Y-10319498D01*
X12411406Y-10319498D02*
X12420930Y-10309975D01*
X12420930Y-10309975D02*
X12439977Y-10300451D01*
X12630453Y-10300451D02*
X12649501Y-10300451D01*
X12649501Y-10300451D02*
X12668549Y-10309975D01*
X12668549Y-10309975D02*
X12678072Y-10319498D01*
X12678072Y-10319498D02*
X12687596Y-10338546D01*
X12687596Y-10338546D02*
X12697120Y-10376641D01*
X12697120Y-10376641D02*
X12697120Y-10424260D01*
X12697120Y-10424260D02*
X12687596Y-10462355D01*
X12687596Y-10462355D02*
X12678072Y-10481403D01*
X12678072Y-10481403D02*
X12668549Y-10490927D01*
X12668549Y-10490927D02*
X12649501Y-10500451D01*
X12649501Y-10500451D02*
X12630453Y-10500451D01*
X12630453Y-10500451D02*
X12611406Y-10490927D01*
X12611406Y-10490927D02*
X12601882Y-10481403D01*
X12601882Y-10481403D02*
X12592358Y-10462355D01*
X12592358Y-10462355D02*
X12582834Y-10424260D01*
X12582834Y-10424260D02*
X12582834Y-10376641D01*
X12582834Y-10376641D02*
X12592358Y-10338546D01*
X12592358Y-10338546D02*
X12601882Y-10319498D01*
X12601882Y-10319498D02*
X12611406Y-10309975D01*
X12611406Y-10309975D02*
X12630453Y-10300451D01*
X12782834Y-10500451D02*
X12782834Y-10367117D01*
X12782834Y-10386165D02*
X12792358Y-10376641D01*
X12792358Y-10376641D02*
X12811406Y-10367117D01*
X12811406Y-10367117D02*
X12839977Y-10367117D01*
X12839977Y-10367117D02*
X12859025Y-10376641D01*
X12859025Y-10376641D02*
X12868549Y-10395689D01*
X12868549Y-10395689D02*
X12868549Y-10500451D01*
X12868549Y-10395689D02*
X12878072Y-10376641D01*
X12878072Y-10376641D02*
X12897120Y-10367117D01*
X12897120Y-10367117D02*
X12925691Y-10367117D01*
X12925691Y-10367117D02*
X12944739Y-10376641D01*
X12944739Y-10376641D02*
X12954263Y-10395689D01*
X12954263Y-10395689D02*
X12954263Y-10500451D01*
X13049501Y-10500451D02*
X13049501Y-10367117D01*
X13049501Y-10386165D02*
X13059025Y-10376641D01*
X13059025Y-10376641D02*
X13078072Y-10367117D01*
X13078072Y-10367117D02*
X13106644Y-10367117D01*
X13106644Y-10367117D02*
X13125692Y-10376641D01*
X13125692Y-10376641D02*
X13135215Y-10395689D01*
X13135215Y-10395689D02*
X13135215Y-10500451D01*
X13135215Y-10395689D02*
X13144739Y-10376641D01*
X13144739Y-10376641D02*
X13163787Y-10367117D01*
X13163787Y-10367117D02*
X13192358Y-10367117D01*
X13192358Y-10367117D02*
X13211406Y-10376641D01*
X13211406Y-10376641D02*
X13220930Y-10395689D01*
X13220930Y-10395689D02*
X13220930Y-10500451D01*
X13611406Y-10290927D02*
X13439977Y-10548070D01*
X13868549Y-10300451D02*
X13887596Y-10300451D01*
X13887596Y-10300451D02*
X13906644Y-10309975D01*
X13906644Y-10309975D02*
X13916168Y-10319498D01*
X13916168Y-10319498D02*
X13925692Y-10338546D01*
X13925692Y-10338546D02*
X13935215Y-10376641D01*
X13935215Y-10376641D02*
X13935215Y-10424260D01*
X13935215Y-10424260D02*
X13925692Y-10462355D01*
X13925692Y-10462355D02*
X13916168Y-10481403D01*
X13916168Y-10481403D02*
X13906644Y-10490927D01*
X13906644Y-10490927D02*
X13887596Y-10500451D01*
X13887596Y-10500451D02*
X13868549Y-10500451D01*
X13868549Y-10500451D02*
X13849501Y-10490927D01*
X13849501Y-10490927D02*
X13839977Y-10481403D01*
X13839977Y-10481403D02*
X13830454Y-10462355D01*
X13830454Y-10462355D02*
X13820930Y-10424260D01*
X13820930Y-10424260D02*
X13820930Y-10376641D01*
X13820930Y-10376641D02*
X13830454Y-10338546D01*
X13830454Y-10338546D02*
X13839977Y-10319498D01*
X13839977Y-10319498D02*
X13849501Y-10309975D01*
X13849501Y-10309975D02*
X13868549Y-10300451D01*
X14020930Y-10481403D02*
X14030454Y-10490927D01*
X14030454Y-10490927D02*
X14020930Y-10500451D01*
X14020930Y-10500451D02*
X14011406Y-10490927D01*
X14011406Y-10490927D02*
X14020930Y-10481403D01*
X14020930Y-10481403D02*
X14020930Y-10500451D01*
X14154263Y-10300451D02*
X14173311Y-10300451D01*
X14173311Y-10300451D02*
X14192358Y-10309975D01*
X14192358Y-10309975D02*
X14201882Y-10319498D01*
X14201882Y-10319498D02*
X14211406Y-10338546D01*
X14211406Y-10338546D02*
X14220930Y-10376641D01*
X14220930Y-10376641D02*
X14220930Y-10424260D01*
X14220930Y-10424260D02*
X14211406Y-10462355D01*
X14211406Y-10462355D02*
X14201882Y-10481403D01*
X14201882Y-10481403D02*
X14192358Y-10490927D01*
X14192358Y-10490927D02*
X14173311Y-10500451D01*
X14173311Y-10500451D02*
X14154263Y-10500451D01*
X14154263Y-10500451D02*
X14135215Y-10490927D01*
X14135215Y-10490927D02*
X14125692Y-10481403D01*
X14125692Y-10481403D02*
X14116168Y-10462355D01*
X14116168Y-10462355D02*
X14106644Y-10424260D01*
X14106644Y-10424260D02*
X14106644Y-10376641D01*
X14106644Y-10376641D02*
X14116168Y-10338546D01*
X14116168Y-10338546D02*
X14125692Y-10319498D01*
X14125692Y-10319498D02*
X14135215Y-10309975D01*
X14135215Y-10309975D02*
X14154263Y-10300451D01*
X14401882Y-10300451D02*
X14306644Y-10300451D01*
X14306644Y-10300451D02*
X14297120Y-10395689D01*
X14297120Y-10395689D02*
X14306644Y-10386165D01*
X14306644Y-10386165D02*
X14325692Y-10376641D01*
X14325692Y-10376641D02*
X14373311Y-10376641D01*
X14373311Y-10376641D02*
X14392358Y-10386165D01*
X14392358Y-10386165D02*
X14401882Y-10395689D01*
X14401882Y-10395689D02*
X14411406Y-10414736D01*
X14411406Y-10414736D02*
X14411406Y-10462355D01*
X14411406Y-10462355D02*
X14401882Y-10481403D01*
X14401882Y-10481403D02*
X14392358Y-10490927D01*
X14392358Y-10490927D02*
X14373311Y-10500451D01*
X14373311Y-10500451D02*
X14325692Y-10500451D01*
X14325692Y-10500451D02*
X14306644Y-10490927D01*
X14306644Y-10490927D02*
X14297120Y-10481403D01*
X14601882Y-10500451D02*
X14487596Y-10500451D01*
X14544739Y-10500451D02*
X14544739Y-10300451D01*
X14544739Y-10300451D02*
X14525692Y-10329022D01*
X14525692Y-10329022D02*
X14506644Y-10348070D01*
X14506644Y-10348070D02*
X14487596Y-10357594D01*
X14678073Y-10319498D02*
X14687596Y-10309975D01*
X14687596Y-10309975D02*
X14706644Y-10300451D01*
X14706644Y-10300451D02*
X14754263Y-10300451D01*
X14754263Y-10300451D02*
X14773311Y-10309975D01*
X14773311Y-10309975D02*
X14782835Y-10319498D01*
X14782835Y-10319498D02*
X14792358Y-10338546D01*
X14792358Y-10338546D02*
X14792358Y-10357594D01*
X14792358Y-10357594D02*
X14782835Y-10386165D01*
X14782835Y-10386165D02*
X14668549Y-10500451D01*
X14668549Y-10500451D02*
X14792358Y-10500451D01*
X14868549Y-10300451D02*
X14868549Y-10338546D01*
X14944739Y-10300451D02*
X14944739Y-10338546D01*
X15239978Y-10576641D02*
X15230454Y-10567117D01*
X15230454Y-10567117D02*
X15211406Y-10538546D01*
X15211406Y-10538546D02*
X15201882Y-10519498D01*
X15201882Y-10519498D02*
X15192358Y-10490927D01*
X15192358Y-10490927D02*
X15182835Y-10443308D01*
X15182835Y-10443308D02*
X15182835Y-10405213D01*
X15182835Y-10405213D02*
X15192358Y-10357594D01*
X15192358Y-10357594D02*
X15201882Y-10329022D01*
X15201882Y-10329022D02*
X15211406Y-10309975D01*
X15211406Y-10309975D02*
X15230454Y-10281403D01*
X15230454Y-10281403D02*
X15239978Y-10271879D01*
X15297120Y-10300451D02*
X15430454Y-10300451D01*
X15430454Y-10300451D02*
X15344739Y-10500451D01*
X15659025Y-10500451D02*
X15659025Y-10300451D01*
X15744739Y-10500451D02*
X15744739Y-10395689D01*
X15744739Y-10395689D02*
X15735216Y-10376641D01*
X15735216Y-10376641D02*
X15716168Y-10367117D01*
X15716168Y-10367117D02*
X15687597Y-10367117D01*
X15687597Y-10367117D02*
X15668549Y-10376641D01*
X15668549Y-10376641D02*
X15659025Y-10386165D01*
X15868549Y-10500451D02*
X15849501Y-10490927D01*
X15849501Y-10490927D02*
X15839978Y-10481403D01*
X15839978Y-10481403D02*
X15830454Y-10462355D01*
X15830454Y-10462355D02*
X15830454Y-10405213D01*
X15830454Y-10405213D02*
X15839978Y-10386165D01*
X15839978Y-10386165D02*
X15849501Y-10376641D01*
X15849501Y-10376641D02*
X15868549Y-10367117D01*
X15868549Y-10367117D02*
X15897120Y-10367117D01*
X15897120Y-10367117D02*
X15916168Y-10376641D01*
X15916168Y-10376641D02*
X15925692Y-10386165D01*
X15925692Y-10386165D02*
X15935216Y-10405213D01*
X15935216Y-10405213D02*
X15935216Y-10462355D01*
X15935216Y-10462355D02*
X15925692Y-10481403D01*
X15925692Y-10481403D02*
X15916168Y-10490927D01*
X15916168Y-10490927D02*
X15897120Y-10500451D01*
X15897120Y-10500451D02*
X15868549Y-10500451D01*
X16049501Y-10500451D02*
X16030454Y-10490927D01*
X16030454Y-10490927D02*
X16020930Y-10471879D01*
X16020930Y-10471879D02*
X16020930Y-10300451D01*
X16201882Y-10490927D02*
X16182835Y-10500451D01*
X16182835Y-10500451D02*
X16144739Y-10500451D01*
X16144739Y-10500451D02*
X16125692Y-10490927D01*
X16125692Y-10490927D02*
X16116168Y-10471879D01*
X16116168Y-10471879D02*
X16116168Y-10395689D01*
X16116168Y-10395689D02*
X16125692Y-10376641D01*
X16125692Y-10376641D02*
X16144739Y-10367117D01*
X16144739Y-10367117D02*
X16182835Y-10367117D01*
X16182835Y-10367117D02*
X16201882Y-10376641D01*
X16201882Y-10376641D02*
X16211406Y-10395689D01*
X16211406Y-10395689D02*
X16211406Y-10414736D01*
X16211406Y-10414736D02*
X16116168Y-10433784D01*
X16287597Y-10490927D02*
X16306644Y-10500451D01*
X16306644Y-10500451D02*
X16344739Y-10500451D01*
X16344739Y-10500451D02*
X16363787Y-10490927D01*
X16363787Y-10490927D02*
X16373311Y-10471879D01*
X16373311Y-10471879D02*
X16373311Y-10462355D01*
X16373311Y-10462355D02*
X16363787Y-10443308D01*
X16363787Y-10443308D02*
X16344739Y-10433784D01*
X16344739Y-10433784D02*
X16316168Y-10433784D01*
X16316168Y-10433784D02*
X16297120Y-10424260D01*
X16297120Y-10424260D02*
X16287597Y-10405213D01*
X16287597Y-10405213D02*
X16287597Y-10395689D01*
X16287597Y-10395689D02*
X16297120Y-10376641D01*
X16297120Y-10376641D02*
X16316168Y-10367117D01*
X16316168Y-10367117D02*
X16344739Y-10367117D01*
X16344739Y-10367117D02*
X16363787Y-10376641D01*
X16439978Y-10576641D02*
X16449501Y-10567117D01*
X16449501Y-10567117D02*
X16468549Y-10538546D01*
X16468549Y-10538546D02*
X16478073Y-10519498D01*
X16478073Y-10519498D02*
X16487597Y-10490927D01*
X16487597Y-10490927D02*
X16497120Y-10443308D01*
X16497120Y-10443308D02*
X16497120Y-10405213D01*
X16497120Y-10405213D02*
X16487597Y-10357594D01*
X16487597Y-10357594D02*
X16478073Y-10329022D01*
X16478073Y-10329022D02*
X16468549Y-10309975D01*
X16468549Y-10309975D02*
X16449501Y-10281403D01*
X16449501Y-10281403D02*
X16439978Y-10271879D01*
X11648784Y-10742638D02*
X11648784Y-10601216D01*
X11507361Y-10601216D01*
X11507361Y-10742638D01*
X11648784Y-10742638D01*
X11916168Y-10583498D02*
X11925691Y-10573975D01*
X11925691Y-10573975D02*
X11944739Y-10564451D01*
X11944739Y-10564451D02*
X11992358Y-10564451D01*
X11992358Y-10564451D02*
X12011406Y-10573975D01*
X12011406Y-10573975D02*
X12020930Y-10583498D01*
X12020930Y-10583498D02*
X12030453Y-10602546D01*
X12030453Y-10602546D02*
X12030453Y-10621594D01*
X12030453Y-10621594D02*
X12020930Y-10650165D01*
X12020930Y-10650165D02*
X11906644Y-10764451D01*
X11906644Y-10764451D02*
X12030453Y-10764451D01*
X12116168Y-10745403D02*
X12125691Y-10754927D01*
X12125691Y-10754927D02*
X12116168Y-10764451D01*
X12116168Y-10764451D02*
X12106644Y-10754927D01*
X12106644Y-10754927D02*
X12116168Y-10745403D01*
X12116168Y-10745403D02*
X12116168Y-10764451D01*
X12192358Y-10564451D02*
X12325691Y-10564451D01*
X12325691Y-10564451D02*
X12239977Y-10764451D01*
X12439977Y-10564451D02*
X12459025Y-10564451D01*
X12459025Y-10564451D02*
X12478072Y-10573975D01*
X12478072Y-10573975D02*
X12487596Y-10583498D01*
X12487596Y-10583498D02*
X12497120Y-10602546D01*
X12497120Y-10602546D02*
X12506644Y-10640641D01*
X12506644Y-10640641D02*
X12506644Y-10688260D01*
X12506644Y-10688260D02*
X12497120Y-10726355D01*
X12497120Y-10726355D02*
X12487596Y-10745403D01*
X12487596Y-10745403D02*
X12478072Y-10754927D01*
X12478072Y-10754927D02*
X12459025Y-10764451D01*
X12459025Y-10764451D02*
X12439977Y-10764451D01*
X12439977Y-10764451D02*
X12420930Y-10754927D01*
X12420930Y-10754927D02*
X12411406Y-10745403D01*
X12411406Y-10745403D02*
X12401882Y-10726355D01*
X12401882Y-10726355D02*
X12392358Y-10688260D01*
X12392358Y-10688260D02*
X12392358Y-10640641D01*
X12392358Y-10640641D02*
X12401882Y-10602546D01*
X12401882Y-10602546D02*
X12411406Y-10583498D01*
X12411406Y-10583498D02*
X12420930Y-10573975D01*
X12420930Y-10573975D02*
X12439977Y-10564451D01*
X12630453Y-10564451D02*
X12649501Y-10564451D01*
X12649501Y-10564451D02*
X12668549Y-10573975D01*
X12668549Y-10573975D02*
X12678072Y-10583498D01*
X12678072Y-10583498D02*
X12687596Y-10602546D01*
X12687596Y-10602546D02*
X12697120Y-10640641D01*
X12697120Y-10640641D02*
X12697120Y-10688260D01*
X12697120Y-10688260D02*
X12687596Y-10726355D01*
X12687596Y-10726355D02*
X12678072Y-10745403D01*
X12678072Y-10745403D02*
X12668549Y-10754927D01*
X12668549Y-10754927D02*
X12649501Y-10764451D01*
X12649501Y-10764451D02*
X12630453Y-10764451D01*
X12630453Y-10764451D02*
X12611406Y-10754927D01*
X12611406Y-10754927D02*
X12601882Y-10745403D01*
X12601882Y-10745403D02*
X12592358Y-10726355D01*
X12592358Y-10726355D02*
X12582834Y-10688260D01*
X12582834Y-10688260D02*
X12582834Y-10640641D01*
X12582834Y-10640641D02*
X12592358Y-10602546D01*
X12592358Y-10602546D02*
X12601882Y-10583498D01*
X12601882Y-10583498D02*
X12611406Y-10573975D01*
X12611406Y-10573975D02*
X12630453Y-10564451D01*
X12782834Y-10764451D02*
X12782834Y-10631117D01*
X12782834Y-10650165D02*
X12792358Y-10640641D01*
X12792358Y-10640641D02*
X12811406Y-10631117D01*
X12811406Y-10631117D02*
X12839977Y-10631117D01*
X12839977Y-10631117D02*
X12859025Y-10640641D01*
X12859025Y-10640641D02*
X12868549Y-10659689D01*
X12868549Y-10659689D02*
X12868549Y-10764451D01*
X12868549Y-10659689D02*
X12878072Y-10640641D01*
X12878072Y-10640641D02*
X12897120Y-10631117D01*
X12897120Y-10631117D02*
X12925691Y-10631117D01*
X12925691Y-10631117D02*
X12944739Y-10640641D01*
X12944739Y-10640641D02*
X12954263Y-10659689D01*
X12954263Y-10659689D02*
X12954263Y-10764451D01*
X13049501Y-10764451D02*
X13049501Y-10631117D01*
X13049501Y-10650165D02*
X13059025Y-10640641D01*
X13059025Y-10640641D02*
X13078072Y-10631117D01*
X13078072Y-10631117D02*
X13106644Y-10631117D01*
X13106644Y-10631117D02*
X13125692Y-10640641D01*
X13125692Y-10640641D02*
X13135215Y-10659689D01*
X13135215Y-10659689D02*
X13135215Y-10764451D01*
X13135215Y-10659689D02*
X13144739Y-10640641D01*
X13144739Y-10640641D02*
X13163787Y-10631117D01*
X13163787Y-10631117D02*
X13192358Y-10631117D01*
X13192358Y-10631117D02*
X13211406Y-10640641D01*
X13211406Y-10640641D02*
X13220930Y-10659689D01*
X13220930Y-10659689D02*
X13220930Y-10764451D01*
X13611406Y-10554927D02*
X13439977Y-10812070D01*
X13868549Y-10564451D02*
X13887596Y-10564451D01*
X13887596Y-10564451D02*
X13906644Y-10573975D01*
X13906644Y-10573975D02*
X13916168Y-10583498D01*
X13916168Y-10583498D02*
X13925692Y-10602546D01*
X13925692Y-10602546D02*
X13935215Y-10640641D01*
X13935215Y-10640641D02*
X13935215Y-10688260D01*
X13935215Y-10688260D02*
X13925692Y-10726355D01*
X13925692Y-10726355D02*
X13916168Y-10745403D01*
X13916168Y-10745403D02*
X13906644Y-10754927D01*
X13906644Y-10754927D02*
X13887596Y-10764451D01*
X13887596Y-10764451D02*
X13868549Y-10764451D01*
X13868549Y-10764451D02*
X13849501Y-10754927D01*
X13849501Y-10754927D02*
X13839977Y-10745403D01*
X13839977Y-10745403D02*
X13830454Y-10726355D01*
X13830454Y-10726355D02*
X13820930Y-10688260D01*
X13820930Y-10688260D02*
X13820930Y-10640641D01*
X13820930Y-10640641D02*
X13830454Y-10602546D01*
X13830454Y-10602546D02*
X13839977Y-10583498D01*
X13839977Y-10583498D02*
X13849501Y-10573975D01*
X13849501Y-10573975D02*
X13868549Y-10564451D01*
X14020930Y-10745403D02*
X14030454Y-10754927D01*
X14030454Y-10754927D02*
X14020930Y-10764451D01*
X14020930Y-10764451D02*
X14011406Y-10754927D01*
X14011406Y-10754927D02*
X14020930Y-10745403D01*
X14020930Y-10745403D02*
X14020930Y-10764451D01*
X14220930Y-10764451D02*
X14106644Y-10764451D01*
X14163787Y-10764451D02*
X14163787Y-10564451D01*
X14163787Y-10564451D02*
X14144739Y-10593022D01*
X14144739Y-10593022D02*
X14125692Y-10612070D01*
X14125692Y-10612070D02*
X14106644Y-10621594D01*
X14344739Y-10564451D02*
X14363787Y-10564451D01*
X14363787Y-10564451D02*
X14382835Y-10573975D01*
X14382835Y-10573975D02*
X14392358Y-10583498D01*
X14392358Y-10583498D02*
X14401882Y-10602546D01*
X14401882Y-10602546D02*
X14411406Y-10640641D01*
X14411406Y-10640641D02*
X14411406Y-10688260D01*
X14411406Y-10688260D02*
X14401882Y-10726355D01*
X14401882Y-10726355D02*
X14392358Y-10745403D01*
X14392358Y-10745403D02*
X14382835Y-10754927D01*
X14382835Y-10754927D02*
X14363787Y-10764451D01*
X14363787Y-10764451D02*
X14344739Y-10764451D01*
X14344739Y-10764451D02*
X14325692Y-10754927D01*
X14325692Y-10754927D02*
X14316168Y-10745403D01*
X14316168Y-10745403D02*
X14306644Y-10726355D01*
X14306644Y-10726355D02*
X14297120Y-10688260D01*
X14297120Y-10688260D02*
X14297120Y-10640641D01*
X14297120Y-10640641D02*
X14306644Y-10602546D01*
X14306644Y-10602546D02*
X14316168Y-10583498D01*
X14316168Y-10583498D02*
X14325692Y-10573975D01*
X14325692Y-10573975D02*
X14344739Y-10564451D01*
X14582835Y-10564451D02*
X14544739Y-10564451D01*
X14544739Y-10564451D02*
X14525692Y-10573975D01*
X14525692Y-10573975D02*
X14516168Y-10583498D01*
X14516168Y-10583498D02*
X14497120Y-10612070D01*
X14497120Y-10612070D02*
X14487596Y-10650165D01*
X14487596Y-10650165D02*
X14487596Y-10726355D01*
X14487596Y-10726355D02*
X14497120Y-10745403D01*
X14497120Y-10745403D02*
X14506644Y-10754927D01*
X14506644Y-10754927D02*
X14525692Y-10764451D01*
X14525692Y-10764451D02*
X14563787Y-10764451D01*
X14563787Y-10764451D02*
X14582835Y-10754927D01*
X14582835Y-10754927D02*
X14592358Y-10745403D01*
X14592358Y-10745403D02*
X14601882Y-10726355D01*
X14601882Y-10726355D02*
X14601882Y-10678736D01*
X14601882Y-10678736D02*
X14592358Y-10659689D01*
X14592358Y-10659689D02*
X14582835Y-10650165D01*
X14582835Y-10650165D02*
X14563787Y-10640641D01*
X14563787Y-10640641D02*
X14525692Y-10640641D01*
X14525692Y-10640641D02*
X14506644Y-10650165D01*
X14506644Y-10650165D02*
X14497120Y-10659689D01*
X14497120Y-10659689D02*
X14487596Y-10678736D01*
X14668549Y-10564451D02*
X14792358Y-10564451D01*
X14792358Y-10564451D02*
X14725692Y-10640641D01*
X14725692Y-10640641D02*
X14754263Y-10640641D01*
X14754263Y-10640641D02*
X14773311Y-10650165D01*
X14773311Y-10650165D02*
X14782835Y-10659689D01*
X14782835Y-10659689D02*
X14792358Y-10678736D01*
X14792358Y-10678736D02*
X14792358Y-10726355D01*
X14792358Y-10726355D02*
X14782835Y-10745403D01*
X14782835Y-10745403D02*
X14773311Y-10754927D01*
X14773311Y-10754927D02*
X14754263Y-10764451D01*
X14754263Y-10764451D02*
X14697120Y-10764451D01*
X14697120Y-10764451D02*
X14678073Y-10754927D01*
X14678073Y-10754927D02*
X14668549Y-10745403D01*
X14868549Y-10564451D02*
X14868549Y-10602546D01*
X14944739Y-10564451D02*
X14944739Y-10602546D01*
X15239978Y-10840641D02*
X15230454Y-10831117D01*
X15230454Y-10831117D02*
X15211406Y-10802546D01*
X15211406Y-10802546D02*
X15201882Y-10783498D01*
X15201882Y-10783498D02*
X15192358Y-10754927D01*
X15192358Y-10754927D02*
X15182835Y-10707308D01*
X15182835Y-10707308D02*
X15182835Y-10669213D01*
X15182835Y-10669213D02*
X15192358Y-10621594D01*
X15192358Y-10621594D02*
X15201882Y-10593022D01*
X15201882Y-10593022D02*
X15211406Y-10573975D01*
X15211406Y-10573975D02*
X15230454Y-10545403D01*
X15230454Y-10545403D02*
X15239978Y-10535879D01*
X15306644Y-10583498D02*
X15316168Y-10573975D01*
X15316168Y-10573975D02*
X15335216Y-10564451D01*
X15335216Y-10564451D02*
X15382835Y-10564451D01*
X15382835Y-10564451D02*
X15401882Y-10573975D01*
X15401882Y-10573975D02*
X15411406Y-10583498D01*
X15411406Y-10583498D02*
X15420930Y-10602546D01*
X15420930Y-10602546D02*
X15420930Y-10621594D01*
X15420930Y-10621594D02*
X15411406Y-10650165D01*
X15411406Y-10650165D02*
X15297120Y-10764451D01*
X15297120Y-10764451D02*
X15420930Y-10764451D01*
X15659025Y-10764451D02*
X15659025Y-10564451D01*
X15744739Y-10764451D02*
X15744739Y-10659689D01*
X15744739Y-10659689D02*
X15735216Y-10640641D01*
X15735216Y-10640641D02*
X15716168Y-10631117D01*
X15716168Y-10631117D02*
X15687597Y-10631117D01*
X15687597Y-10631117D02*
X15668549Y-10640641D01*
X15668549Y-10640641D02*
X15659025Y-10650165D01*
X15868549Y-10764451D02*
X15849501Y-10754927D01*
X15849501Y-10754927D02*
X15839978Y-10745403D01*
X15839978Y-10745403D02*
X15830454Y-10726355D01*
X15830454Y-10726355D02*
X15830454Y-10669213D01*
X15830454Y-10669213D02*
X15839978Y-10650165D01*
X15839978Y-10650165D02*
X15849501Y-10640641D01*
X15849501Y-10640641D02*
X15868549Y-10631117D01*
X15868549Y-10631117D02*
X15897120Y-10631117D01*
X15897120Y-10631117D02*
X15916168Y-10640641D01*
X15916168Y-10640641D02*
X15925692Y-10650165D01*
X15925692Y-10650165D02*
X15935216Y-10669213D01*
X15935216Y-10669213D02*
X15935216Y-10726355D01*
X15935216Y-10726355D02*
X15925692Y-10745403D01*
X15925692Y-10745403D02*
X15916168Y-10754927D01*
X15916168Y-10754927D02*
X15897120Y-10764451D01*
X15897120Y-10764451D02*
X15868549Y-10764451D01*
X16049501Y-10764451D02*
X16030454Y-10754927D01*
X16030454Y-10754927D02*
X16020930Y-10735879D01*
X16020930Y-10735879D02*
X16020930Y-10564451D01*
X16201882Y-10754927D02*
X16182835Y-10764451D01*
X16182835Y-10764451D02*
X16144739Y-10764451D01*
X16144739Y-10764451D02*
X16125692Y-10754927D01*
X16125692Y-10754927D02*
X16116168Y-10735879D01*
X16116168Y-10735879D02*
X16116168Y-10659689D01*
X16116168Y-10659689D02*
X16125692Y-10640641D01*
X16125692Y-10640641D02*
X16144739Y-10631117D01*
X16144739Y-10631117D02*
X16182835Y-10631117D01*
X16182835Y-10631117D02*
X16201882Y-10640641D01*
X16201882Y-10640641D02*
X16211406Y-10659689D01*
X16211406Y-10659689D02*
X16211406Y-10678736D01*
X16211406Y-10678736D02*
X16116168Y-10697784D01*
X16287597Y-10754927D02*
X16306644Y-10764451D01*
X16306644Y-10764451D02*
X16344739Y-10764451D01*
X16344739Y-10764451D02*
X16363787Y-10754927D01*
X16363787Y-10754927D02*
X16373311Y-10735879D01*
X16373311Y-10735879D02*
X16373311Y-10726355D01*
X16373311Y-10726355D02*
X16363787Y-10707308D01*
X16363787Y-10707308D02*
X16344739Y-10697784D01*
X16344739Y-10697784D02*
X16316168Y-10697784D01*
X16316168Y-10697784D02*
X16297120Y-10688260D01*
X16297120Y-10688260D02*
X16287597Y-10669213D01*
X16287597Y-10669213D02*
X16287597Y-10659689D01*
X16287597Y-10659689D02*
X16297120Y-10640641D01*
X16297120Y-10640641D02*
X16316168Y-10631117D01*
X16316168Y-10631117D02*
X16344739Y-10631117D01*
X16344739Y-10631117D02*
X16363787Y-10640641D01*
X16439978Y-10840641D02*
X16449501Y-10831117D01*
X16449501Y-10831117D02*
X16468549Y-10802546D01*
X16468549Y-10802546D02*
X16478073Y-10783498D01*
X16478073Y-10783498D02*
X16487597Y-10754927D01*
X16487597Y-10754927D02*
X16497120Y-10707308D01*
X16497120Y-10707308D02*
X16497120Y-10669213D01*
X16497120Y-10669213D02*
X16487597Y-10621594D01*
X16487597Y-10621594D02*
X16478073Y-10593022D01*
X16478073Y-10593022D02*
X16468549Y-10573975D01*
X16468549Y-10573975D02*
X16449501Y-10545403D01*
X16449501Y-10545403D02*
X16439978Y-10535879D01*
M02*
