G04 #@! TF.GenerationSoftware,KiCad,Pcbnew,7.0.1*
G04 #@! TF.CreationDate,2023-06-02T18:51:41-05:00*
G04 #@! TF.ProjectId,MiniSSO,4d696e69-5353-44f2-9e6b-696361645f70,2*
G04 #@! TF.SameCoordinates,Original*
G04 #@! TF.FileFunction,Soldermask,Bot*
G04 #@! TF.FilePolarity,Negative*
%FSLAX46Y46*%
G04 Gerber Fmt 4.6, Leading zero omitted, Abs format (unit mm)*
G04 Created by KiCad (PCBNEW 7.0.1) date 2023-06-02 18:51:41*
%MOMM*%
%LPD*%
G01*
G04 APERTURE LIST*
G04 Aperture macros list*
%AMFreePoly0*
4,1,19,0.550000,-0.750000,0.000000,-0.750000,0.000000,-0.744911,-0.071157,-0.744911,-0.207708,-0.704816,-0.327430,-0.627875,-0.420627,-0.520320,-0.479746,-0.390866,-0.500000,-0.250000,-0.500000,0.250000,-0.479746,0.390866,-0.420627,0.520320,-0.327430,0.627875,-0.207708,0.704816,-0.071157,0.744911,0.000000,0.744911,0.000000,0.750000,0.550000,0.750000,0.550000,-0.750000,0.550000,-0.750000,
$1*%
%AMFreePoly1*
4,1,19,0.000000,0.744911,0.071157,0.744911,0.207708,0.704816,0.327430,0.627875,0.420627,0.520320,0.479746,0.390866,0.500000,0.250000,0.500000,-0.250000,0.479746,-0.390866,0.420627,-0.520320,0.327430,-0.627875,0.207708,-0.704816,0.071157,-0.744911,0.000000,-0.744911,0.000000,-0.750000,-0.550000,-0.750000,-0.550000,0.750000,0.000000,0.750000,0.000000,0.744911,0.000000,0.744911,
$1*%
G04 Aperture macros list end*
%ADD10C,4.500000*%
%ADD11O,1.700000X1.700000*%
%ADD12C,2.286000*%
%ADD13C,1.950000*%
%ADD14C,2.000000*%
%ADD15C,2.500000*%
%ADD16FreePoly0,270.000000*%
%ADD17R,1.500000X1.000000*%
%ADD18FreePoly1,270.000000*%
G04 APERTURE END LIST*
D10*
X119370725Y-72029269D03*
D11*
X133340725Y-70759269D03*
X135880725Y-70759269D03*
X138420725Y-70759269D03*
X140960725Y-70759269D03*
X143500725Y-70759269D03*
X146040725Y-70759269D03*
X148580725Y-70759269D03*
X151120725Y-70759269D03*
X153660725Y-70759269D03*
X156200725Y-70759269D03*
X158740725Y-70759269D03*
X161280725Y-70759269D03*
D12*
X165090725Y-90444269D03*
D13*
X120954800Y-82956400D03*
X120954800Y-79456400D03*
D10*
X119370725Y-89809269D03*
D14*
X126492000Y-72771000D03*
X129032000Y-72771000D03*
D11*
X161280725Y-91079269D03*
X158740725Y-91079269D03*
X156200725Y-91079269D03*
X153660725Y-91079269D03*
X151120725Y-91079269D03*
X148580725Y-91079269D03*
X146040725Y-91079269D03*
X143500725Y-91079269D03*
X140960725Y-91079269D03*
X138420725Y-91079269D03*
X135880725Y-91079269D03*
X133340725Y-91079269D03*
X130800725Y-91079269D03*
X128260725Y-91079269D03*
X125720725Y-91079269D03*
X123180725Y-91079269D03*
D13*
X163682400Y-77424400D03*
X163682400Y-80924400D03*
X163682400Y-84424400D03*
D12*
X165090725Y-71394269D03*
D15*
X155792850Y-76327000D03*
D16*
X134657500Y-74550000D03*
D17*
X134657500Y-75850000D03*
D18*
X134657500Y-77150000D03*
D16*
X134907500Y-84200000D03*
D17*
X134907500Y-85500000D03*
D18*
X134907500Y-86800000D03*
D16*
X130850000Y-84200000D03*
D17*
X130850000Y-85500000D03*
D18*
X130850000Y-86800000D03*
D15*
X155825000Y-85400000D03*
M02*
