G04 #@! TF.GenerationSoftware,KiCad,Pcbnew,7.0.1*
G04 #@! TF.CreationDate,2023-06-02T18:51:41-05:00*
G04 #@! TF.ProjectId,MiniSSO,4d696e69-5353-44f2-9e6b-696361645f70,2*
G04 #@! TF.SameCoordinates,Original*
G04 #@! TF.FileFunction,Legend,Top*
G04 #@! TF.FilePolarity,Positive*
%FSLAX46Y46*%
G04 Gerber Fmt 4.6, Leading zero omitted, Abs format (unit mm)*
G04 Created by KiCad (PCBNEW 7.0.1) date 2023-06-02 18:51:41*
%MOMM*%
%LPD*%
G01*
G04 APERTURE LIST*
G04 Aperture macros list*
%AMRoundRect*
0 Rectangle with rounded corners*
0 $1 Rounding radius*
0 $2 $3 $4 $5 $6 $7 $8 $9 X,Y pos of 4 corners*
0 Add a 4 corners polygon primitive as box body*
4,1,4,$2,$3,$4,$5,$6,$7,$8,$9,$2,$3,0*
0 Add four circle primitives for the rounded corners*
1,1,$1+$1,$2,$3*
1,1,$1+$1,$4,$5*
1,1,$1+$1,$6,$7*
1,1,$1+$1,$8,$9*
0 Add four rect primitives between the rounded corners*
20,1,$1+$1,$2,$3,$4,$5,0*
20,1,$1+$1,$4,$5,$6,$7,0*
20,1,$1+$1,$6,$7,$8,$9,0*
20,1,$1+$1,$8,$9,$2,$3,0*%
G04 Aperture macros list end*
%ADD10C,0.190500*%
%ADD11C,0.254000*%
%ADD12C,0.381000*%
%ADD13C,0.127000*%
%ADD14C,0.120000*%
%ADD15C,0.100000*%
%ADD16C,0.150000*%
%ADD17R,3.000000X1.400000*%
%ADD18R,6.500000X6.000000*%
%ADD19RoundRect,0.218750X-0.256250X0.218750X-0.256250X-0.218750X0.256250X-0.218750X0.256250X0.218750X0*%
%ADD20C,4.500000*%
%ADD21R,0.900000X1.200000*%
%ADD22RoundRect,0.200000X-0.200000X-0.275000X0.200000X-0.275000X0.200000X0.275000X-0.200000X0.275000X0*%
%ADD23O,1.700000X1.700000*%
%ADD24RoundRect,0.218750X0.218750X0.256250X-0.218750X0.256250X-0.218750X-0.256250X0.218750X-0.256250X0*%
%ADD25C,2.286000*%
%ADD26C,1.950000*%
%ADD27C,2.000000*%
%ADD28RoundRect,0.200000X0.275000X-0.200000X0.275000X0.200000X-0.275000X0.200000X-0.275000X-0.200000X0*%
%ADD29RoundRect,0.250000X-0.312500X-1.450000X0.312500X-1.450000X0.312500X1.450000X-0.312500X1.450000X0*%
%ADD30R,0.900000X1.000000*%
%ADD31R,0.640000X2.000000*%
G04 APERTURE END LIST*
D10*
X158160154Y-89145784D02*
X158595583Y-89145784D01*
X158377868Y-89907784D02*
X158377868Y-89145784D01*
X158777011Y-89145784D02*
X159285011Y-89907784D01*
X159285011Y-89145784D02*
X158777011Y-89907784D01*
X145115439Y-72635784D02*
X145115439Y-71873784D01*
X145115439Y-71873784D02*
X145296868Y-71873784D01*
X145296868Y-71873784D02*
X145405725Y-71910070D01*
X145405725Y-71910070D02*
X145478296Y-71982641D01*
X145478296Y-71982641D02*
X145514582Y-72055213D01*
X145514582Y-72055213D02*
X145550868Y-72200356D01*
X145550868Y-72200356D02*
X145550868Y-72309213D01*
X145550868Y-72309213D02*
X145514582Y-72454356D01*
X145514582Y-72454356D02*
X145478296Y-72526927D01*
X145478296Y-72526927D02*
X145405725Y-72599499D01*
X145405725Y-72599499D02*
X145296868Y-72635784D01*
X145296868Y-72635784D02*
X145115439Y-72635784D01*
X146276582Y-72635784D02*
X145841153Y-72635784D01*
X146058868Y-72635784D02*
X146058868Y-71873784D01*
X146058868Y-71873784D02*
X145986296Y-71982641D01*
X145986296Y-71982641D02*
X145913725Y-72055213D01*
X145913725Y-72055213D02*
X145841153Y-72091499D01*
X147002296Y-72635784D02*
X146566867Y-72635784D01*
X146784582Y-72635784D02*
X146784582Y-71873784D01*
X146784582Y-71873784D02*
X146712010Y-71982641D01*
X146712010Y-71982641D02*
X146639439Y-72055213D01*
X146639439Y-72055213D02*
X146566867Y-72091499D01*
D11*
X158850782Y-84790285D02*
X158802401Y-84741904D01*
X158802401Y-84741904D02*
X158754020Y-84645142D01*
X158754020Y-84645142D02*
X158754020Y-84403237D01*
X158754020Y-84403237D02*
X158802401Y-84306475D01*
X158802401Y-84306475D02*
X158850782Y-84258094D01*
X158850782Y-84258094D02*
X158947544Y-84209713D01*
X158947544Y-84209713D02*
X159044306Y-84209713D01*
X159044306Y-84209713D02*
X159189449Y-84258094D01*
X159189449Y-84258094D02*
X159770020Y-84838666D01*
X159770020Y-84838666D02*
X159770020Y-84209713D01*
D10*
X147655439Y-72635784D02*
X147655439Y-71873784D01*
X147655439Y-71873784D02*
X147836868Y-71873784D01*
X147836868Y-71873784D02*
X147945725Y-71910070D01*
X147945725Y-71910070D02*
X148018296Y-71982641D01*
X148018296Y-71982641D02*
X148054582Y-72055213D01*
X148054582Y-72055213D02*
X148090868Y-72200356D01*
X148090868Y-72200356D02*
X148090868Y-72309213D01*
X148090868Y-72309213D02*
X148054582Y-72454356D01*
X148054582Y-72454356D02*
X148018296Y-72526927D01*
X148018296Y-72526927D02*
X147945725Y-72599499D01*
X147945725Y-72599499D02*
X147836868Y-72635784D01*
X147836868Y-72635784D02*
X147655439Y-72635784D01*
X148816582Y-72635784D02*
X148381153Y-72635784D01*
X148598868Y-72635784D02*
X148598868Y-71873784D01*
X148598868Y-71873784D02*
X148526296Y-71982641D01*
X148526296Y-71982641D02*
X148453725Y-72055213D01*
X148453725Y-72055213D02*
X148381153Y-72091499D01*
X149288296Y-71873784D02*
X149360867Y-71873784D01*
X149360867Y-71873784D02*
X149433439Y-71910070D01*
X149433439Y-71910070D02*
X149469725Y-71946356D01*
X149469725Y-71946356D02*
X149506010Y-72018927D01*
X149506010Y-72018927D02*
X149542296Y-72164070D01*
X149542296Y-72164070D02*
X149542296Y-72345499D01*
X149542296Y-72345499D02*
X149506010Y-72490641D01*
X149506010Y-72490641D02*
X149469725Y-72563213D01*
X149469725Y-72563213D02*
X149433439Y-72599499D01*
X149433439Y-72599499D02*
X149360867Y-72635784D01*
X149360867Y-72635784D02*
X149288296Y-72635784D01*
X149288296Y-72635784D02*
X149215725Y-72599499D01*
X149215725Y-72599499D02*
X149179439Y-72563213D01*
X149179439Y-72563213D02*
X149143153Y-72490641D01*
X149143153Y-72490641D02*
X149106867Y-72345499D01*
X149106867Y-72345499D02*
X149106867Y-72164070D01*
X149106867Y-72164070D02*
X149143153Y-72018927D01*
X149143153Y-72018927D02*
X149179439Y-71946356D01*
X149179439Y-71946356D02*
X149215725Y-71910070D01*
X149215725Y-71910070D02*
X149288296Y-71873784D01*
X153098296Y-72635784D02*
X153098296Y-71873784D01*
X153098296Y-71873784D02*
X153279725Y-71873784D01*
X153279725Y-71873784D02*
X153388582Y-71910070D01*
X153388582Y-71910070D02*
X153461153Y-71982641D01*
X153461153Y-71982641D02*
X153497439Y-72055213D01*
X153497439Y-72055213D02*
X153533725Y-72200356D01*
X153533725Y-72200356D02*
X153533725Y-72309213D01*
X153533725Y-72309213D02*
X153497439Y-72454356D01*
X153497439Y-72454356D02*
X153461153Y-72526927D01*
X153461153Y-72526927D02*
X153388582Y-72599499D01*
X153388582Y-72599499D02*
X153279725Y-72635784D01*
X153279725Y-72635784D02*
X153098296Y-72635784D01*
X154186868Y-71873784D02*
X154041725Y-71873784D01*
X154041725Y-71873784D02*
X153969153Y-71910070D01*
X153969153Y-71910070D02*
X153932868Y-71946356D01*
X153932868Y-71946356D02*
X153860296Y-72055213D01*
X153860296Y-72055213D02*
X153824010Y-72200356D01*
X153824010Y-72200356D02*
X153824010Y-72490641D01*
X153824010Y-72490641D02*
X153860296Y-72563213D01*
X153860296Y-72563213D02*
X153896582Y-72599499D01*
X153896582Y-72599499D02*
X153969153Y-72635784D01*
X153969153Y-72635784D02*
X154114296Y-72635784D01*
X154114296Y-72635784D02*
X154186868Y-72599499D01*
X154186868Y-72599499D02*
X154223153Y-72563213D01*
X154223153Y-72563213D02*
X154259439Y-72490641D01*
X154259439Y-72490641D02*
X154259439Y-72309213D01*
X154259439Y-72309213D02*
X154223153Y-72236641D01*
X154223153Y-72236641D02*
X154186868Y-72200356D01*
X154186868Y-72200356D02*
X154114296Y-72164070D01*
X154114296Y-72164070D02*
X153969153Y-72164070D01*
X153969153Y-72164070D02*
X153896582Y-72200356D01*
X153896582Y-72200356D02*
X153860296Y-72236641D01*
X153860296Y-72236641D02*
X153824010Y-72309213D01*
X132796439Y-89690070D02*
X133159297Y-89690070D01*
X132723868Y-89907784D02*
X132977868Y-89145784D01*
X132977868Y-89145784D02*
X133231868Y-89907784D01*
X133631011Y-89145784D02*
X133703582Y-89145784D01*
X133703582Y-89145784D02*
X133776154Y-89182070D01*
X133776154Y-89182070D02*
X133812440Y-89218356D01*
X133812440Y-89218356D02*
X133848725Y-89290927D01*
X133848725Y-89290927D02*
X133885011Y-89436070D01*
X133885011Y-89436070D02*
X133885011Y-89617499D01*
X133885011Y-89617499D02*
X133848725Y-89762641D01*
X133848725Y-89762641D02*
X133812440Y-89835213D01*
X133812440Y-89835213D02*
X133776154Y-89871499D01*
X133776154Y-89871499D02*
X133703582Y-89907784D01*
X133703582Y-89907784D02*
X133631011Y-89907784D01*
X133631011Y-89907784D02*
X133558440Y-89871499D01*
X133558440Y-89871499D02*
X133522154Y-89835213D01*
X133522154Y-89835213D02*
X133485868Y-89762641D01*
X133485868Y-89762641D02*
X133449582Y-89617499D01*
X133449582Y-89617499D02*
X133449582Y-89436070D01*
X133449582Y-89436070D02*
X133485868Y-89290927D01*
X133485868Y-89290927D02*
X133522154Y-89218356D01*
X133522154Y-89218356D02*
X133558440Y-89182070D01*
X133558440Y-89182070D02*
X133631011Y-89145784D01*
X122890515Y-75879713D02*
X122890515Y-75444285D01*
X123652515Y-75661999D02*
X122890515Y-75661999D01*
X123652515Y-75190285D02*
X123144515Y-75190285D01*
X123289658Y-75190285D02*
X123217087Y-75153999D01*
X123217087Y-75153999D02*
X123180801Y-75117714D01*
X123180801Y-75117714D02*
X123144515Y-75045142D01*
X123144515Y-75045142D02*
X123144515Y-74972571D01*
X123652515Y-74718571D02*
X123144515Y-74718571D01*
X122890515Y-74718571D02*
X122926801Y-74754857D01*
X122926801Y-74754857D02*
X122963087Y-74718571D01*
X122963087Y-74718571D02*
X122926801Y-74682285D01*
X122926801Y-74682285D02*
X122890515Y-74718571D01*
X122890515Y-74718571D02*
X122963087Y-74718571D01*
X123144515Y-74029143D02*
X123761372Y-74029143D01*
X123761372Y-74029143D02*
X123833944Y-74065428D01*
X123833944Y-74065428D02*
X123870230Y-74101714D01*
X123870230Y-74101714D02*
X123906515Y-74174285D01*
X123906515Y-74174285D02*
X123906515Y-74283143D01*
X123906515Y-74283143D02*
X123870230Y-74355714D01*
X123616230Y-74029143D02*
X123652515Y-74101714D01*
X123652515Y-74101714D02*
X123652515Y-74246857D01*
X123652515Y-74246857D02*
X123616230Y-74319428D01*
X123616230Y-74319428D02*
X123579944Y-74355714D01*
X123579944Y-74355714D02*
X123507372Y-74392000D01*
X123507372Y-74392000D02*
X123289658Y-74392000D01*
X123289658Y-74392000D02*
X123217087Y-74355714D01*
X123217087Y-74355714D02*
X123180801Y-74319428D01*
X123180801Y-74319428D02*
X123144515Y-74246857D01*
X123144515Y-74246857D02*
X123144515Y-74101714D01*
X123144515Y-74101714D02*
X123180801Y-74029143D01*
X155638296Y-72635784D02*
X155638296Y-71873784D01*
X155638296Y-71873784D02*
X155819725Y-71873784D01*
X155819725Y-71873784D02*
X155928582Y-71910070D01*
X155928582Y-71910070D02*
X156001153Y-71982641D01*
X156001153Y-71982641D02*
X156037439Y-72055213D01*
X156037439Y-72055213D02*
X156073725Y-72200356D01*
X156073725Y-72200356D02*
X156073725Y-72309213D01*
X156073725Y-72309213D02*
X156037439Y-72454356D01*
X156037439Y-72454356D02*
X156001153Y-72526927D01*
X156001153Y-72526927D02*
X155928582Y-72599499D01*
X155928582Y-72599499D02*
X155819725Y-72635784D01*
X155819725Y-72635784D02*
X155638296Y-72635784D01*
X156763153Y-71873784D02*
X156400296Y-71873784D01*
X156400296Y-71873784D02*
X156364010Y-72236641D01*
X156364010Y-72236641D02*
X156400296Y-72200356D01*
X156400296Y-72200356D02*
X156472868Y-72164070D01*
X156472868Y-72164070D02*
X156654296Y-72164070D01*
X156654296Y-72164070D02*
X156726868Y-72200356D01*
X156726868Y-72200356D02*
X156763153Y-72236641D01*
X156763153Y-72236641D02*
X156799439Y-72309213D01*
X156799439Y-72309213D02*
X156799439Y-72490641D01*
X156799439Y-72490641D02*
X156763153Y-72563213D01*
X156763153Y-72563213D02*
X156726868Y-72599499D01*
X156726868Y-72599499D02*
X156654296Y-72635784D01*
X156654296Y-72635784D02*
X156472868Y-72635784D01*
X156472868Y-72635784D02*
X156400296Y-72599499D01*
X156400296Y-72599499D02*
X156364010Y-72563213D01*
D12*
X159224460Y-80419429D02*
X159224460Y-81580572D01*
X159805031Y-81000000D02*
X158643888Y-81000000D01*
D10*
X140416439Y-89690070D02*
X140779297Y-89690070D01*
X140343868Y-89907784D02*
X140597868Y-89145784D01*
X140597868Y-89145784D02*
X140851868Y-89907784D01*
X141033297Y-89145784D02*
X141505011Y-89145784D01*
X141505011Y-89145784D02*
X141251011Y-89436070D01*
X141251011Y-89436070D02*
X141359868Y-89436070D01*
X141359868Y-89436070D02*
X141432440Y-89472356D01*
X141432440Y-89472356D02*
X141468725Y-89508641D01*
X141468725Y-89508641D02*
X141505011Y-89581213D01*
X141505011Y-89581213D02*
X141505011Y-89762641D01*
X141505011Y-89762641D02*
X141468725Y-89835213D01*
X141468725Y-89835213D02*
X141432440Y-89871499D01*
X141432440Y-89871499D02*
X141359868Y-89907784D01*
X141359868Y-89907784D02*
X141142154Y-89907784D01*
X141142154Y-89907784D02*
X141069582Y-89871499D01*
X141069582Y-89871499D02*
X141033297Y-89835213D01*
X135336439Y-89690070D02*
X135699297Y-89690070D01*
X135263868Y-89907784D02*
X135517868Y-89145784D01*
X135517868Y-89145784D02*
X135771868Y-89907784D01*
X136425011Y-89907784D02*
X135989582Y-89907784D01*
X136207297Y-89907784D02*
X136207297Y-89145784D01*
X136207297Y-89145784D02*
X136134725Y-89254641D01*
X136134725Y-89254641D02*
X136062154Y-89327213D01*
X136062154Y-89327213D02*
X135989582Y-89363499D01*
X157833582Y-72599499D02*
X157942440Y-72635784D01*
X157942440Y-72635784D02*
X158123868Y-72635784D01*
X158123868Y-72635784D02*
X158196440Y-72599499D01*
X158196440Y-72599499D02*
X158232725Y-72563213D01*
X158232725Y-72563213D02*
X158269011Y-72490641D01*
X158269011Y-72490641D02*
X158269011Y-72418070D01*
X158269011Y-72418070D02*
X158232725Y-72345499D01*
X158232725Y-72345499D02*
X158196440Y-72309213D01*
X158196440Y-72309213D02*
X158123868Y-72272927D01*
X158123868Y-72272927D02*
X157978725Y-72236641D01*
X157978725Y-72236641D02*
X157906154Y-72200356D01*
X157906154Y-72200356D02*
X157869868Y-72164070D01*
X157869868Y-72164070D02*
X157833582Y-72091499D01*
X157833582Y-72091499D02*
X157833582Y-72018927D01*
X157833582Y-72018927D02*
X157869868Y-71946356D01*
X157869868Y-71946356D02*
X157906154Y-71910070D01*
X157906154Y-71910070D02*
X157978725Y-71873784D01*
X157978725Y-71873784D02*
X158160154Y-71873784D01*
X158160154Y-71873784D02*
X158269011Y-71910070D01*
X159031011Y-72563213D02*
X158994725Y-72599499D01*
X158994725Y-72599499D02*
X158885868Y-72635784D01*
X158885868Y-72635784D02*
X158813296Y-72635784D01*
X158813296Y-72635784D02*
X158704439Y-72599499D01*
X158704439Y-72599499D02*
X158631868Y-72526927D01*
X158631868Y-72526927D02*
X158595582Y-72454356D01*
X158595582Y-72454356D02*
X158559296Y-72309213D01*
X158559296Y-72309213D02*
X158559296Y-72200356D01*
X158559296Y-72200356D02*
X158595582Y-72055213D01*
X158595582Y-72055213D02*
X158631868Y-71982641D01*
X158631868Y-71982641D02*
X158704439Y-71910070D01*
X158704439Y-71910070D02*
X158813296Y-71873784D01*
X158813296Y-71873784D02*
X158885868Y-71873784D01*
X158885868Y-71873784D02*
X158994725Y-71910070D01*
X158994725Y-71910070D02*
X159031011Y-71946356D01*
X159720439Y-72635784D02*
X159357582Y-72635784D01*
X159357582Y-72635784D02*
X159357582Y-71873784D01*
D13*
X163015545Y-71376126D02*
X163039735Y-71303554D01*
X163039735Y-71303554D02*
X163039735Y-71182602D01*
X163039735Y-71182602D02*
X163015545Y-71134221D01*
X163015545Y-71134221D02*
X162991354Y-71110030D01*
X162991354Y-71110030D02*
X162942973Y-71085840D01*
X162942973Y-71085840D02*
X162894592Y-71085840D01*
X162894592Y-71085840D02*
X162846211Y-71110030D01*
X162846211Y-71110030D02*
X162822021Y-71134221D01*
X162822021Y-71134221D02*
X162797830Y-71182602D01*
X162797830Y-71182602D02*
X162773640Y-71279364D01*
X162773640Y-71279364D02*
X162749449Y-71327745D01*
X162749449Y-71327745D02*
X162725259Y-71351935D01*
X162725259Y-71351935D02*
X162676878Y-71376126D01*
X162676878Y-71376126D02*
X162628497Y-71376126D01*
X162628497Y-71376126D02*
X162580116Y-71351935D01*
X162580116Y-71351935D02*
X162555925Y-71327745D01*
X162555925Y-71327745D02*
X162531735Y-71279364D01*
X162531735Y-71279364D02*
X162531735Y-71158411D01*
X162531735Y-71158411D02*
X162555925Y-71085840D01*
X163039735Y-70868125D02*
X162531735Y-70868125D01*
X162531735Y-70868125D02*
X162531735Y-70747173D01*
X162531735Y-70747173D02*
X162555925Y-70674601D01*
X162555925Y-70674601D02*
X162604306Y-70626220D01*
X162604306Y-70626220D02*
X162652687Y-70602030D01*
X162652687Y-70602030D02*
X162749449Y-70577839D01*
X162749449Y-70577839D02*
X162822021Y-70577839D01*
X162822021Y-70577839D02*
X162918783Y-70602030D01*
X162918783Y-70602030D02*
X162967164Y-70626220D01*
X162967164Y-70626220D02*
X163015545Y-70674601D01*
X163015545Y-70674601D02*
X163039735Y-70747173D01*
X163039735Y-70747173D02*
X163039735Y-70868125D01*
X162894592Y-70384316D02*
X162894592Y-70142411D01*
X163039735Y-70432697D02*
X162531735Y-70263363D01*
X162531735Y-70263363D02*
X163039735Y-70094030D01*
D10*
X163611857Y-73490515D02*
X163757000Y-73490515D01*
X163757000Y-73490515D02*
X163829571Y-73526801D01*
X163829571Y-73526801D02*
X163902143Y-73599372D01*
X163902143Y-73599372D02*
X163938428Y-73744515D01*
X163938428Y-73744515D02*
X163938428Y-73998515D01*
X163938428Y-73998515D02*
X163902143Y-74143658D01*
X163902143Y-74143658D02*
X163829571Y-74216230D01*
X163829571Y-74216230D02*
X163757000Y-74252515D01*
X163757000Y-74252515D02*
X163611857Y-74252515D01*
X163611857Y-74252515D02*
X163539286Y-74216230D01*
X163539286Y-74216230D02*
X163466714Y-74143658D01*
X163466714Y-74143658D02*
X163430428Y-73998515D01*
X163430428Y-73998515D02*
X163430428Y-73744515D01*
X163430428Y-73744515D02*
X163466714Y-73599372D01*
X163466714Y-73599372D02*
X163539286Y-73526801D01*
X163539286Y-73526801D02*
X163611857Y-73490515D01*
X164591572Y-73744515D02*
X164591572Y-74252515D01*
X164265000Y-73744515D02*
X164265000Y-74143658D01*
X164265000Y-74143658D02*
X164301286Y-74216230D01*
X164301286Y-74216230D02*
X164373857Y-74252515D01*
X164373857Y-74252515D02*
X164482714Y-74252515D01*
X164482714Y-74252515D02*
X164555286Y-74216230D01*
X164555286Y-74216230D02*
X164591572Y-74179944D01*
X164845572Y-73744515D02*
X165135858Y-73744515D01*
X164954429Y-73490515D02*
X164954429Y-74143658D01*
X164954429Y-74143658D02*
X164990715Y-74216230D01*
X164990715Y-74216230D02*
X165063286Y-74252515D01*
X165063286Y-74252515D02*
X165135858Y-74252515D01*
X166369572Y-74252515D02*
X165934143Y-74252515D01*
X166151858Y-74252515D02*
X166151858Y-73490515D01*
X166151858Y-73490515D02*
X166079286Y-73599372D01*
X166079286Y-73599372D02*
X166006715Y-73671944D01*
X166006715Y-73671944D02*
X165934143Y-73708230D01*
D11*
X159770020Y-77109713D02*
X159770020Y-77690285D01*
X159770020Y-77399999D02*
X158754020Y-77399999D01*
X158754020Y-77399999D02*
X158899163Y-77496761D01*
X158899163Y-77496761D02*
X158995925Y-77593523D01*
X158995925Y-77593523D02*
X159044306Y-77690285D01*
D10*
X150467582Y-89907784D02*
X150467582Y-89145784D01*
X150467582Y-89145784D02*
X150721582Y-89690070D01*
X150721582Y-89690070D02*
X150975582Y-89145784D01*
X150975582Y-89145784D02*
X150975582Y-89907784D01*
X151483582Y-89145784D02*
X151628725Y-89145784D01*
X151628725Y-89145784D02*
X151701296Y-89182070D01*
X151701296Y-89182070D02*
X151773868Y-89254641D01*
X151773868Y-89254641D02*
X151810153Y-89399784D01*
X151810153Y-89399784D02*
X151810153Y-89653784D01*
X151810153Y-89653784D02*
X151773868Y-89798927D01*
X151773868Y-89798927D02*
X151701296Y-89871499D01*
X151701296Y-89871499D02*
X151628725Y-89907784D01*
X151628725Y-89907784D02*
X151483582Y-89907784D01*
X151483582Y-89907784D02*
X151411011Y-89871499D01*
X151411011Y-89871499D02*
X151338439Y-89798927D01*
X151338439Y-89798927D02*
X151302153Y-89653784D01*
X151302153Y-89653784D02*
X151302153Y-89399784D01*
X151302153Y-89399784D02*
X151338439Y-89254641D01*
X151338439Y-89254641D02*
X151411011Y-89182070D01*
X151411011Y-89182070D02*
X151483582Y-89145784D01*
X145496439Y-89690070D02*
X145859297Y-89690070D01*
X145423868Y-89907784D02*
X145677868Y-89145784D01*
X145677868Y-89145784D02*
X145931868Y-89907784D01*
X146548725Y-89145784D02*
X146185868Y-89145784D01*
X146185868Y-89145784D02*
X146149582Y-89508641D01*
X146149582Y-89508641D02*
X146185868Y-89472356D01*
X146185868Y-89472356D02*
X146258440Y-89436070D01*
X146258440Y-89436070D02*
X146439868Y-89436070D01*
X146439868Y-89436070D02*
X146512440Y-89472356D01*
X146512440Y-89472356D02*
X146548725Y-89508641D01*
X146548725Y-89508641D02*
X146585011Y-89581213D01*
X146585011Y-89581213D02*
X146585011Y-89762641D01*
X146585011Y-89762641D02*
X146548725Y-89835213D01*
X146548725Y-89835213D02*
X146512440Y-89871499D01*
X146512440Y-89871499D02*
X146439868Y-89907784D01*
X146439868Y-89907784D02*
X146258440Y-89907784D01*
X146258440Y-89907784D02*
X146185868Y-89871499D01*
X146185868Y-89871499D02*
X146149582Y-89835213D01*
X125140154Y-89145784D02*
X125611868Y-89145784D01*
X125611868Y-89145784D02*
X125357868Y-89436070D01*
X125357868Y-89436070D02*
X125466725Y-89436070D01*
X125466725Y-89436070D02*
X125539297Y-89472356D01*
X125539297Y-89472356D02*
X125575582Y-89508641D01*
X125575582Y-89508641D02*
X125611868Y-89581213D01*
X125611868Y-89581213D02*
X125611868Y-89762641D01*
X125611868Y-89762641D02*
X125575582Y-89835213D01*
X125575582Y-89835213D02*
X125539297Y-89871499D01*
X125539297Y-89871499D02*
X125466725Y-89907784D01*
X125466725Y-89907784D02*
X125249011Y-89907784D01*
X125249011Y-89907784D02*
X125176439Y-89871499D01*
X125176439Y-89871499D02*
X125140154Y-89835213D01*
X125829582Y-89145784D02*
X126083582Y-89907784D01*
X126083582Y-89907784D02*
X126337582Y-89145784D01*
X130220153Y-89182070D02*
X130147582Y-89145784D01*
X130147582Y-89145784D02*
X130038724Y-89145784D01*
X130038724Y-89145784D02*
X129929867Y-89182070D01*
X129929867Y-89182070D02*
X129857296Y-89254641D01*
X129857296Y-89254641D02*
X129821010Y-89327213D01*
X129821010Y-89327213D02*
X129784724Y-89472356D01*
X129784724Y-89472356D02*
X129784724Y-89581213D01*
X129784724Y-89581213D02*
X129821010Y-89726356D01*
X129821010Y-89726356D02*
X129857296Y-89798927D01*
X129857296Y-89798927D02*
X129929867Y-89871499D01*
X129929867Y-89871499D02*
X130038724Y-89907784D01*
X130038724Y-89907784D02*
X130111296Y-89907784D01*
X130111296Y-89907784D02*
X130220153Y-89871499D01*
X130220153Y-89871499D02*
X130256439Y-89835213D01*
X130256439Y-89835213D02*
X130256439Y-89581213D01*
X130256439Y-89581213D02*
X130111296Y-89581213D01*
X130583010Y-89907784D02*
X130583010Y-89145784D01*
X130583010Y-89145784D02*
X131018439Y-89907784D01*
X131018439Y-89907784D02*
X131018439Y-89145784D01*
X131381296Y-89907784D02*
X131381296Y-89145784D01*
X131381296Y-89145784D02*
X131562725Y-89145784D01*
X131562725Y-89145784D02*
X131671582Y-89182070D01*
X131671582Y-89182070D02*
X131744153Y-89254641D01*
X131744153Y-89254641D02*
X131780439Y-89327213D01*
X131780439Y-89327213D02*
X131816725Y-89472356D01*
X131816725Y-89472356D02*
X131816725Y-89581213D01*
X131816725Y-89581213D02*
X131780439Y-89726356D01*
X131780439Y-89726356D02*
X131744153Y-89798927D01*
X131744153Y-89798927D02*
X131671582Y-89871499D01*
X131671582Y-89871499D02*
X131562725Y-89907784D01*
X131562725Y-89907784D02*
X131381296Y-89907784D01*
X122763440Y-89907784D02*
X122509440Y-89544927D01*
X122328011Y-89907784D02*
X122328011Y-89145784D01*
X122328011Y-89145784D02*
X122618297Y-89145784D01*
X122618297Y-89145784D02*
X122690868Y-89182070D01*
X122690868Y-89182070D02*
X122727154Y-89218356D01*
X122727154Y-89218356D02*
X122763440Y-89290927D01*
X122763440Y-89290927D02*
X122763440Y-89399784D01*
X122763440Y-89399784D02*
X122727154Y-89472356D01*
X122727154Y-89472356D02*
X122690868Y-89508641D01*
X122690868Y-89508641D02*
X122618297Y-89544927D01*
X122618297Y-89544927D02*
X122328011Y-89544927D01*
X123053725Y-89871499D02*
X123162583Y-89907784D01*
X123162583Y-89907784D02*
X123344011Y-89907784D01*
X123344011Y-89907784D02*
X123416583Y-89871499D01*
X123416583Y-89871499D02*
X123452868Y-89835213D01*
X123452868Y-89835213D02*
X123489154Y-89762641D01*
X123489154Y-89762641D02*
X123489154Y-89690070D01*
X123489154Y-89690070D02*
X123452868Y-89617499D01*
X123452868Y-89617499D02*
X123416583Y-89581213D01*
X123416583Y-89581213D02*
X123344011Y-89544927D01*
X123344011Y-89544927D02*
X123198868Y-89508641D01*
X123198868Y-89508641D02*
X123126297Y-89472356D01*
X123126297Y-89472356D02*
X123090011Y-89436070D01*
X123090011Y-89436070D02*
X123053725Y-89363499D01*
X123053725Y-89363499D02*
X123053725Y-89290927D01*
X123053725Y-89290927D02*
X123090011Y-89218356D01*
X123090011Y-89218356D02*
X123126297Y-89182070D01*
X123126297Y-89182070D02*
X123198868Y-89145784D01*
X123198868Y-89145784D02*
X123380297Y-89145784D01*
X123380297Y-89145784D02*
X123489154Y-89182070D01*
X123706868Y-89145784D02*
X124142297Y-89145784D01*
X123924582Y-89907784D02*
X123924582Y-89145784D01*
X156073725Y-89907784D02*
X155819725Y-89544927D01*
X155638296Y-89907784D02*
X155638296Y-89145784D01*
X155638296Y-89145784D02*
X155928582Y-89145784D01*
X155928582Y-89145784D02*
X156001153Y-89182070D01*
X156001153Y-89182070D02*
X156037439Y-89218356D01*
X156037439Y-89218356D02*
X156073725Y-89290927D01*
X156073725Y-89290927D02*
X156073725Y-89399784D01*
X156073725Y-89399784D02*
X156037439Y-89472356D01*
X156037439Y-89472356D02*
X156001153Y-89508641D01*
X156001153Y-89508641D02*
X155928582Y-89544927D01*
X155928582Y-89544927D02*
X155638296Y-89544927D01*
X156327725Y-89145784D02*
X156835725Y-89907784D01*
X156835725Y-89145784D02*
X156327725Y-89907784D01*
D12*
X118424460Y-76880570D02*
X118424460Y-75719428D01*
D10*
X150558296Y-72635784D02*
X150558296Y-71873784D01*
X150558296Y-71873784D02*
X150739725Y-71873784D01*
X150739725Y-71873784D02*
X150848582Y-71910070D01*
X150848582Y-71910070D02*
X150921153Y-71982641D01*
X150921153Y-71982641D02*
X150957439Y-72055213D01*
X150957439Y-72055213D02*
X150993725Y-72200356D01*
X150993725Y-72200356D02*
X150993725Y-72309213D01*
X150993725Y-72309213D02*
X150957439Y-72454356D01*
X150957439Y-72454356D02*
X150921153Y-72526927D01*
X150921153Y-72526927D02*
X150848582Y-72599499D01*
X150848582Y-72599499D02*
X150739725Y-72635784D01*
X150739725Y-72635784D02*
X150558296Y-72635784D01*
X151356582Y-72635784D02*
X151501725Y-72635784D01*
X151501725Y-72635784D02*
X151574296Y-72599499D01*
X151574296Y-72599499D02*
X151610582Y-72563213D01*
X151610582Y-72563213D02*
X151683153Y-72454356D01*
X151683153Y-72454356D02*
X151719439Y-72309213D01*
X151719439Y-72309213D02*
X151719439Y-72018927D01*
X151719439Y-72018927D02*
X151683153Y-71946356D01*
X151683153Y-71946356D02*
X151646868Y-71910070D01*
X151646868Y-71910070D02*
X151574296Y-71873784D01*
X151574296Y-71873784D02*
X151429153Y-71873784D01*
X151429153Y-71873784D02*
X151356582Y-71910070D01*
X151356582Y-71910070D02*
X151320296Y-71946356D01*
X151320296Y-71946356D02*
X151284010Y-72018927D01*
X151284010Y-72018927D02*
X151284010Y-72200356D01*
X151284010Y-72200356D02*
X151320296Y-72272927D01*
X151320296Y-72272927D02*
X151356582Y-72309213D01*
X151356582Y-72309213D02*
X151429153Y-72345499D01*
X151429153Y-72345499D02*
X151574296Y-72345499D01*
X151574296Y-72345499D02*
X151646868Y-72309213D01*
X151646868Y-72309213D02*
X151683153Y-72272927D01*
X151683153Y-72272927D02*
X151719439Y-72200356D01*
X131222618Y-82187526D02*
X131222618Y-80917526D01*
X131222618Y-80917526D02*
X131645952Y-81824669D01*
X131645952Y-81824669D02*
X132069285Y-80917526D01*
X132069285Y-80917526D02*
X132069285Y-82187526D01*
X132674047Y-82187526D02*
X132674047Y-81340859D01*
X132674047Y-80917526D02*
X132613571Y-80978002D01*
X132613571Y-80978002D02*
X132674047Y-81038478D01*
X132674047Y-81038478D02*
X132734524Y-80978002D01*
X132734524Y-80978002D02*
X132674047Y-80917526D01*
X132674047Y-80917526D02*
X132674047Y-81038478D01*
X133278809Y-81340859D02*
X133278809Y-82187526D01*
X133278809Y-81461811D02*
X133339286Y-81401335D01*
X133339286Y-81401335D02*
X133460238Y-81340859D01*
X133460238Y-81340859D02*
X133641667Y-81340859D01*
X133641667Y-81340859D02*
X133762619Y-81401335D01*
X133762619Y-81401335D02*
X133823095Y-81522288D01*
X133823095Y-81522288D02*
X133823095Y-82187526D01*
X134427857Y-82187526D02*
X134427857Y-81340859D01*
X134427857Y-80917526D02*
X134367381Y-80978002D01*
X134367381Y-80978002D02*
X134427857Y-81038478D01*
X134427857Y-81038478D02*
X134488334Y-80978002D01*
X134488334Y-80978002D02*
X134427857Y-80917526D01*
X134427857Y-80917526D02*
X134427857Y-81038478D01*
X134972143Y-82127050D02*
X135153572Y-82187526D01*
X135153572Y-82187526D02*
X135455953Y-82187526D01*
X135455953Y-82187526D02*
X135576905Y-82127050D01*
X135576905Y-82127050D02*
X135637381Y-82066573D01*
X135637381Y-82066573D02*
X135697858Y-81945621D01*
X135697858Y-81945621D02*
X135697858Y-81824669D01*
X135697858Y-81824669D02*
X135637381Y-81703716D01*
X135637381Y-81703716D02*
X135576905Y-81643240D01*
X135576905Y-81643240D02*
X135455953Y-81582764D01*
X135455953Y-81582764D02*
X135214048Y-81522288D01*
X135214048Y-81522288D02*
X135093096Y-81461811D01*
X135093096Y-81461811D02*
X135032619Y-81401335D01*
X135032619Y-81401335D02*
X134972143Y-81280383D01*
X134972143Y-81280383D02*
X134972143Y-81159430D01*
X134972143Y-81159430D02*
X135032619Y-81038478D01*
X135032619Y-81038478D02*
X135093096Y-80978002D01*
X135093096Y-80978002D02*
X135214048Y-80917526D01*
X135214048Y-80917526D02*
X135516429Y-80917526D01*
X135516429Y-80917526D02*
X135697858Y-80978002D01*
X136181667Y-82127050D02*
X136363096Y-82187526D01*
X136363096Y-82187526D02*
X136665477Y-82187526D01*
X136665477Y-82187526D02*
X136786429Y-82127050D01*
X136786429Y-82127050D02*
X136846905Y-82066573D01*
X136846905Y-82066573D02*
X136907382Y-81945621D01*
X136907382Y-81945621D02*
X136907382Y-81824669D01*
X136907382Y-81824669D02*
X136846905Y-81703716D01*
X136846905Y-81703716D02*
X136786429Y-81643240D01*
X136786429Y-81643240D02*
X136665477Y-81582764D01*
X136665477Y-81582764D02*
X136423572Y-81522288D01*
X136423572Y-81522288D02*
X136302620Y-81461811D01*
X136302620Y-81461811D02*
X136242143Y-81401335D01*
X136242143Y-81401335D02*
X136181667Y-81280383D01*
X136181667Y-81280383D02*
X136181667Y-81159430D01*
X136181667Y-81159430D02*
X136242143Y-81038478D01*
X136242143Y-81038478D02*
X136302620Y-80978002D01*
X136302620Y-80978002D02*
X136423572Y-80917526D01*
X136423572Y-80917526D02*
X136725953Y-80917526D01*
X136725953Y-80917526D02*
X136907382Y-80978002D01*
X137693572Y-80917526D02*
X137935477Y-80917526D01*
X137935477Y-80917526D02*
X138056429Y-80978002D01*
X138056429Y-80978002D02*
X138177382Y-81098954D01*
X138177382Y-81098954D02*
X138237858Y-81340859D01*
X138237858Y-81340859D02*
X138237858Y-81764192D01*
X138237858Y-81764192D02*
X138177382Y-82006097D01*
X138177382Y-82006097D02*
X138056429Y-82127050D01*
X138056429Y-82127050D02*
X137935477Y-82187526D01*
X137935477Y-82187526D02*
X137693572Y-82187526D01*
X137693572Y-82187526D02*
X137572620Y-82127050D01*
X137572620Y-82127050D02*
X137451667Y-82006097D01*
X137451667Y-82006097D02*
X137391191Y-81764192D01*
X137391191Y-81764192D02*
X137391191Y-81340859D01*
X137391191Y-81340859D02*
X137451667Y-81098954D01*
X137451667Y-81098954D02*
X137572620Y-80978002D01*
X137572620Y-80978002D02*
X137693572Y-80917526D01*
X127680154Y-89145784D02*
X128151868Y-89145784D01*
X128151868Y-89145784D02*
X127897868Y-89436070D01*
X127897868Y-89436070D02*
X128006725Y-89436070D01*
X128006725Y-89436070D02*
X128079297Y-89472356D01*
X128079297Y-89472356D02*
X128115582Y-89508641D01*
X128115582Y-89508641D02*
X128151868Y-89581213D01*
X128151868Y-89581213D02*
X128151868Y-89762641D01*
X128151868Y-89762641D02*
X128115582Y-89835213D01*
X128115582Y-89835213D02*
X128079297Y-89871499D01*
X128079297Y-89871499D02*
X128006725Y-89907784D01*
X128006725Y-89907784D02*
X127789011Y-89907784D01*
X127789011Y-89907784D02*
X127716439Y-89871499D01*
X127716439Y-89871499D02*
X127680154Y-89835213D01*
X128369582Y-89145784D02*
X128623582Y-89907784D01*
X128623582Y-89907784D02*
X128877582Y-89145784D01*
X163611857Y-87290515D02*
X163757000Y-87290515D01*
X163757000Y-87290515D02*
X163829571Y-87326801D01*
X163829571Y-87326801D02*
X163902143Y-87399372D01*
X163902143Y-87399372D02*
X163938428Y-87544515D01*
X163938428Y-87544515D02*
X163938428Y-87798515D01*
X163938428Y-87798515D02*
X163902143Y-87943658D01*
X163902143Y-87943658D02*
X163829571Y-88016230D01*
X163829571Y-88016230D02*
X163757000Y-88052515D01*
X163757000Y-88052515D02*
X163611857Y-88052515D01*
X163611857Y-88052515D02*
X163539286Y-88016230D01*
X163539286Y-88016230D02*
X163466714Y-87943658D01*
X163466714Y-87943658D02*
X163430428Y-87798515D01*
X163430428Y-87798515D02*
X163430428Y-87544515D01*
X163430428Y-87544515D02*
X163466714Y-87399372D01*
X163466714Y-87399372D02*
X163539286Y-87326801D01*
X163539286Y-87326801D02*
X163611857Y-87290515D01*
X164591572Y-87544515D02*
X164591572Y-88052515D01*
X164265000Y-87544515D02*
X164265000Y-87943658D01*
X164265000Y-87943658D02*
X164301286Y-88016230D01*
X164301286Y-88016230D02*
X164373857Y-88052515D01*
X164373857Y-88052515D02*
X164482714Y-88052515D01*
X164482714Y-88052515D02*
X164555286Y-88016230D01*
X164555286Y-88016230D02*
X164591572Y-87979944D01*
X164845572Y-87544515D02*
X165135858Y-87544515D01*
X164954429Y-87290515D02*
X164954429Y-87943658D01*
X164954429Y-87943658D02*
X164990715Y-88016230D01*
X164990715Y-88016230D02*
X165063286Y-88052515D01*
X165063286Y-88052515D02*
X165135858Y-88052515D01*
X165934143Y-87363087D02*
X165970429Y-87326801D01*
X165970429Y-87326801D02*
X166043001Y-87290515D01*
X166043001Y-87290515D02*
X166224429Y-87290515D01*
X166224429Y-87290515D02*
X166297001Y-87326801D01*
X166297001Y-87326801D02*
X166333286Y-87363087D01*
X166333286Y-87363087D02*
X166369572Y-87435658D01*
X166369572Y-87435658D02*
X166369572Y-87508230D01*
X166369572Y-87508230D02*
X166333286Y-87617087D01*
X166333286Y-87617087D02*
X165897858Y-88052515D01*
X165897858Y-88052515D02*
X166369572Y-88052515D01*
X132778296Y-72236641D02*
X132887153Y-72272927D01*
X132887153Y-72272927D02*
X132923439Y-72309213D01*
X132923439Y-72309213D02*
X132959725Y-72381784D01*
X132959725Y-72381784D02*
X132959725Y-72490641D01*
X132959725Y-72490641D02*
X132923439Y-72563213D01*
X132923439Y-72563213D02*
X132887153Y-72599499D01*
X132887153Y-72599499D02*
X132814582Y-72635784D01*
X132814582Y-72635784D02*
X132524296Y-72635784D01*
X132524296Y-72635784D02*
X132524296Y-71873784D01*
X132524296Y-71873784D02*
X132778296Y-71873784D01*
X132778296Y-71873784D02*
X132850868Y-71910070D01*
X132850868Y-71910070D02*
X132887153Y-71946356D01*
X132887153Y-71946356D02*
X132923439Y-72018927D01*
X132923439Y-72018927D02*
X132923439Y-72091499D01*
X132923439Y-72091499D02*
X132887153Y-72164070D01*
X132887153Y-72164070D02*
X132850868Y-72200356D01*
X132850868Y-72200356D02*
X132778296Y-72236641D01*
X132778296Y-72236641D02*
X132524296Y-72236641D01*
X133250010Y-72418070D02*
X133612868Y-72418070D01*
X133177439Y-72635784D02*
X133431439Y-71873784D01*
X133431439Y-71873784D02*
X133685439Y-72635784D01*
X133830582Y-71873784D02*
X134266011Y-71873784D01*
X134048296Y-72635784D02*
X134048296Y-71873784D01*
X125031296Y-76699784D02*
X125466725Y-76699784D01*
X125249010Y-77461784D02*
X125249010Y-76699784D01*
X125720724Y-77171499D02*
X126301296Y-77171499D01*
D12*
X118524460Y-86680570D02*
X118524460Y-85519428D01*
X119105031Y-86099999D02*
X117943888Y-86099999D01*
D10*
X160700153Y-89907784D02*
X160700153Y-89145784D01*
X160700153Y-89145784D02*
X160881582Y-89145784D01*
X160881582Y-89145784D02*
X160990439Y-89182070D01*
X160990439Y-89182070D02*
X161063010Y-89254641D01*
X161063010Y-89254641D02*
X161099296Y-89327213D01*
X161099296Y-89327213D02*
X161135582Y-89472356D01*
X161135582Y-89472356D02*
X161135582Y-89581213D01*
X161135582Y-89581213D02*
X161099296Y-89726356D01*
X161099296Y-89726356D02*
X161063010Y-89798927D01*
X161063010Y-89798927D02*
X160990439Y-89871499D01*
X160990439Y-89871499D02*
X160881582Y-89907784D01*
X160881582Y-89907784D02*
X160700153Y-89907784D01*
X161716153Y-89508641D02*
X161825010Y-89544927D01*
X161825010Y-89544927D02*
X161861296Y-89581213D01*
X161861296Y-89581213D02*
X161897582Y-89653784D01*
X161897582Y-89653784D02*
X161897582Y-89762641D01*
X161897582Y-89762641D02*
X161861296Y-89835213D01*
X161861296Y-89835213D02*
X161825010Y-89871499D01*
X161825010Y-89871499D02*
X161752439Y-89907784D01*
X161752439Y-89907784D02*
X161462153Y-89907784D01*
X161462153Y-89907784D02*
X161462153Y-89145784D01*
X161462153Y-89145784D02*
X161716153Y-89145784D01*
X161716153Y-89145784D02*
X161788725Y-89182070D01*
X161788725Y-89182070D02*
X161825010Y-89218356D01*
X161825010Y-89218356D02*
X161861296Y-89290927D01*
X161861296Y-89290927D02*
X161861296Y-89363499D01*
X161861296Y-89363499D02*
X161825010Y-89436070D01*
X161825010Y-89436070D02*
X161788725Y-89472356D01*
X161788725Y-89472356D02*
X161716153Y-89508641D01*
X161716153Y-89508641D02*
X161462153Y-89508641D01*
X153225296Y-89907784D02*
X153225296Y-89145784D01*
X153225296Y-89145784D02*
X153479296Y-89690070D01*
X153479296Y-89690070D02*
X153733296Y-89145784D01*
X153733296Y-89145784D02*
X153733296Y-89907784D01*
X154096153Y-89907784D02*
X154096153Y-89145784D01*
X140035439Y-72635784D02*
X140035439Y-71873784D01*
X140035439Y-71873784D02*
X140216868Y-71873784D01*
X140216868Y-71873784D02*
X140325725Y-71910070D01*
X140325725Y-71910070D02*
X140398296Y-71982641D01*
X140398296Y-71982641D02*
X140434582Y-72055213D01*
X140434582Y-72055213D02*
X140470868Y-72200356D01*
X140470868Y-72200356D02*
X140470868Y-72309213D01*
X140470868Y-72309213D02*
X140434582Y-72454356D01*
X140434582Y-72454356D02*
X140398296Y-72526927D01*
X140398296Y-72526927D02*
X140325725Y-72599499D01*
X140325725Y-72599499D02*
X140216868Y-72635784D01*
X140216868Y-72635784D02*
X140035439Y-72635784D01*
X141196582Y-72635784D02*
X140761153Y-72635784D01*
X140978868Y-72635784D02*
X140978868Y-71873784D01*
X140978868Y-71873784D02*
X140906296Y-71982641D01*
X140906296Y-71982641D02*
X140833725Y-72055213D01*
X140833725Y-72055213D02*
X140761153Y-72091499D01*
X141450582Y-71873784D02*
X141922296Y-71873784D01*
X141922296Y-71873784D02*
X141668296Y-72164070D01*
X141668296Y-72164070D02*
X141777153Y-72164070D01*
X141777153Y-72164070D02*
X141849725Y-72200356D01*
X141849725Y-72200356D02*
X141886010Y-72236641D01*
X141886010Y-72236641D02*
X141922296Y-72309213D01*
X141922296Y-72309213D02*
X141922296Y-72490641D01*
X141922296Y-72490641D02*
X141886010Y-72563213D01*
X141886010Y-72563213D02*
X141849725Y-72599499D01*
X141849725Y-72599499D02*
X141777153Y-72635784D01*
X141777153Y-72635784D02*
X141559439Y-72635784D01*
X141559439Y-72635784D02*
X141486867Y-72599499D01*
X141486867Y-72599499D02*
X141450582Y-72563213D01*
X137876439Y-89690070D02*
X138239297Y-89690070D01*
X137803868Y-89907784D02*
X138057868Y-89145784D01*
X138057868Y-89145784D02*
X138311868Y-89907784D01*
X138529582Y-89218356D02*
X138565868Y-89182070D01*
X138565868Y-89182070D02*
X138638440Y-89145784D01*
X138638440Y-89145784D02*
X138819868Y-89145784D01*
X138819868Y-89145784D02*
X138892440Y-89182070D01*
X138892440Y-89182070D02*
X138928725Y-89218356D01*
X138928725Y-89218356D02*
X138965011Y-89290927D01*
X138965011Y-89290927D02*
X138965011Y-89363499D01*
X138965011Y-89363499D02*
X138928725Y-89472356D01*
X138928725Y-89472356D02*
X138493297Y-89907784D01*
X138493297Y-89907784D02*
X138965011Y-89907784D01*
X137459153Y-71873784D02*
X137459153Y-72490641D01*
X137459153Y-72490641D02*
X137495439Y-72563213D01*
X137495439Y-72563213D02*
X137531725Y-72599499D01*
X137531725Y-72599499D02*
X137604296Y-72635784D01*
X137604296Y-72635784D02*
X137749439Y-72635784D01*
X137749439Y-72635784D02*
X137822010Y-72599499D01*
X137822010Y-72599499D02*
X137858296Y-72563213D01*
X137858296Y-72563213D02*
X137894582Y-72490641D01*
X137894582Y-72490641D02*
X137894582Y-71873784D01*
X138221153Y-72599499D02*
X138330011Y-72635784D01*
X138330011Y-72635784D02*
X138511439Y-72635784D01*
X138511439Y-72635784D02*
X138584011Y-72599499D01*
X138584011Y-72599499D02*
X138620296Y-72563213D01*
X138620296Y-72563213D02*
X138656582Y-72490641D01*
X138656582Y-72490641D02*
X138656582Y-72418070D01*
X138656582Y-72418070D02*
X138620296Y-72345499D01*
X138620296Y-72345499D02*
X138584011Y-72309213D01*
X138584011Y-72309213D02*
X138511439Y-72272927D01*
X138511439Y-72272927D02*
X138366296Y-72236641D01*
X138366296Y-72236641D02*
X138293725Y-72200356D01*
X138293725Y-72200356D02*
X138257439Y-72164070D01*
X138257439Y-72164070D02*
X138221153Y-72091499D01*
X138221153Y-72091499D02*
X138221153Y-72018927D01*
X138221153Y-72018927D02*
X138257439Y-71946356D01*
X138257439Y-71946356D02*
X138293725Y-71910070D01*
X138293725Y-71910070D02*
X138366296Y-71873784D01*
X138366296Y-71873784D02*
X138547725Y-71873784D01*
X138547725Y-71873784D02*
X138656582Y-71910070D01*
X139237153Y-72236641D02*
X139346010Y-72272927D01*
X139346010Y-72272927D02*
X139382296Y-72309213D01*
X139382296Y-72309213D02*
X139418582Y-72381784D01*
X139418582Y-72381784D02*
X139418582Y-72490641D01*
X139418582Y-72490641D02*
X139382296Y-72563213D01*
X139382296Y-72563213D02*
X139346010Y-72599499D01*
X139346010Y-72599499D02*
X139273439Y-72635784D01*
X139273439Y-72635784D02*
X138983153Y-72635784D01*
X138983153Y-72635784D02*
X138983153Y-71873784D01*
X138983153Y-71873784D02*
X139237153Y-71873784D01*
X139237153Y-71873784D02*
X139309725Y-71910070D01*
X139309725Y-71910070D02*
X139346010Y-71946356D01*
X139346010Y-71946356D02*
X139382296Y-72018927D01*
X139382296Y-72018927D02*
X139382296Y-72091499D01*
X139382296Y-72091499D02*
X139346010Y-72164070D01*
X139346010Y-72164070D02*
X139309725Y-72200356D01*
X139309725Y-72200356D02*
X139237153Y-72236641D01*
X139237153Y-72236641D02*
X138983153Y-72236641D01*
X142575439Y-72635784D02*
X142575439Y-71873784D01*
X142575439Y-71873784D02*
X142756868Y-71873784D01*
X142756868Y-71873784D02*
X142865725Y-71910070D01*
X142865725Y-71910070D02*
X142938296Y-71982641D01*
X142938296Y-71982641D02*
X142974582Y-72055213D01*
X142974582Y-72055213D02*
X143010868Y-72200356D01*
X143010868Y-72200356D02*
X143010868Y-72309213D01*
X143010868Y-72309213D02*
X142974582Y-72454356D01*
X142974582Y-72454356D02*
X142938296Y-72526927D01*
X142938296Y-72526927D02*
X142865725Y-72599499D01*
X142865725Y-72599499D02*
X142756868Y-72635784D01*
X142756868Y-72635784D02*
X142575439Y-72635784D01*
X143736582Y-72635784D02*
X143301153Y-72635784D01*
X143518868Y-72635784D02*
X143518868Y-71873784D01*
X143518868Y-71873784D02*
X143446296Y-71982641D01*
X143446296Y-71982641D02*
X143373725Y-72055213D01*
X143373725Y-72055213D02*
X143301153Y-72091499D01*
X144026867Y-71946356D02*
X144063153Y-71910070D01*
X144063153Y-71910070D02*
X144135725Y-71873784D01*
X144135725Y-71873784D02*
X144317153Y-71873784D01*
X144317153Y-71873784D02*
X144389725Y-71910070D01*
X144389725Y-71910070D02*
X144426010Y-71946356D01*
X144426010Y-71946356D02*
X144462296Y-72018927D01*
X144462296Y-72018927D02*
X144462296Y-72091499D01*
X144462296Y-72091499D02*
X144426010Y-72200356D01*
X144426010Y-72200356D02*
X143990582Y-72635784D01*
X143990582Y-72635784D02*
X144462296Y-72635784D01*
X130610571Y-76590515D02*
X131046000Y-76590515D01*
X130828285Y-77352515D02*
X130828285Y-76590515D01*
X131299999Y-77062230D02*
X131880571Y-77062230D01*
X131590285Y-77352515D02*
X131590285Y-76771944D01*
D11*
X125970020Y-81828951D02*
X125970020Y-82409523D01*
X125970020Y-82119237D02*
X124954020Y-82119237D01*
X124954020Y-82119237D02*
X125099163Y-82215999D01*
X125099163Y-82215999D02*
X125195925Y-82312761D01*
X125195925Y-82312761D02*
X125244306Y-82409523D01*
X125050782Y-81441904D02*
X125002401Y-81393523D01*
X125002401Y-81393523D02*
X124954020Y-81296761D01*
X124954020Y-81296761D02*
X124954020Y-81054856D01*
X124954020Y-81054856D02*
X125002401Y-80958094D01*
X125002401Y-80958094D02*
X125050782Y-80909713D01*
X125050782Y-80909713D02*
X125147544Y-80861332D01*
X125147544Y-80861332D02*
X125244306Y-80861332D01*
X125244306Y-80861332D02*
X125389449Y-80909713D01*
X125389449Y-80909713D02*
X125970020Y-81490285D01*
X125970020Y-81490285D02*
X125970020Y-80861332D01*
X124954020Y-80571047D02*
X125970020Y-80232380D01*
X125970020Y-80232380D02*
X124954020Y-79893713D01*
D10*
X142956439Y-89690070D02*
X143319297Y-89690070D01*
X142883868Y-89907784D02*
X143137868Y-89145784D01*
X143137868Y-89145784D02*
X143391868Y-89907784D01*
X143972440Y-89399784D02*
X143972440Y-89907784D01*
X143791011Y-89109499D02*
X143609582Y-89653784D01*
X143609582Y-89653784D02*
X144081297Y-89653784D01*
X147601010Y-89871499D02*
X147709868Y-89907784D01*
X147709868Y-89907784D02*
X147891296Y-89907784D01*
X147891296Y-89907784D02*
X147963868Y-89871499D01*
X147963868Y-89871499D02*
X148000153Y-89835213D01*
X148000153Y-89835213D02*
X148036439Y-89762641D01*
X148036439Y-89762641D02*
X148036439Y-89690070D01*
X148036439Y-89690070D02*
X148000153Y-89617499D01*
X148000153Y-89617499D02*
X147963868Y-89581213D01*
X147963868Y-89581213D02*
X147891296Y-89544927D01*
X147891296Y-89544927D02*
X147746153Y-89508641D01*
X147746153Y-89508641D02*
X147673582Y-89472356D01*
X147673582Y-89472356D02*
X147637296Y-89436070D01*
X147637296Y-89436070D02*
X147601010Y-89363499D01*
X147601010Y-89363499D02*
X147601010Y-89290927D01*
X147601010Y-89290927D02*
X147637296Y-89218356D01*
X147637296Y-89218356D02*
X147673582Y-89182070D01*
X147673582Y-89182070D02*
X147746153Y-89145784D01*
X147746153Y-89145784D02*
X147927582Y-89145784D01*
X147927582Y-89145784D02*
X148036439Y-89182070D01*
X148798439Y-89835213D02*
X148762153Y-89871499D01*
X148762153Y-89871499D02*
X148653296Y-89907784D01*
X148653296Y-89907784D02*
X148580724Y-89907784D01*
X148580724Y-89907784D02*
X148471867Y-89871499D01*
X148471867Y-89871499D02*
X148399296Y-89798927D01*
X148399296Y-89798927D02*
X148363010Y-89726356D01*
X148363010Y-89726356D02*
X148326724Y-89581213D01*
X148326724Y-89581213D02*
X148326724Y-89472356D01*
X148326724Y-89472356D02*
X148363010Y-89327213D01*
X148363010Y-89327213D02*
X148399296Y-89254641D01*
X148399296Y-89254641D02*
X148471867Y-89182070D01*
X148471867Y-89182070D02*
X148580724Y-89145784D01*
X148580724Y-89145784D02*
X148653296Y-89145784D01*
X148653296Y-89145784D02*
X148762153Y-89182070D01*
X148762153Y-89182070D02*
X148798439Y-89218356D01*
X149125010Y-89907784D02*
X149125010Y-89145784D01*
X149560439Y-89907784D02*
X149233867Y-89472356D01*
X149560439Y-89145784D02*
X149125010Y-89581213D01*
X135318296Y-72236641D02*
X135572296Y-72236641D01*
X135681153Y-72635784D02*
X135318296Y-72635784D01*
X135318296Y-72635784D02*
X135318296Y-71873784D01*
X135318296Y-71873784D02*
X135681153Y-71873784D01*
X136007725Y-72635784D02*
X136007725Y-71873784D01*
X136007725Y-71873784D02*
X136443154Y-72635784D01*
X136443154Y-72635784D02*
X136443154Y-71873784D01*
D13*
X140263500Y-81550000D02*
G75*
G03*
X140263500Y-81550000I-63500J0D01*
G01*
D14*
X124179000Y-70422500D02*
X122709000Y-70422500D01*
X122709000Y-70422500D02*
X122709000Y-72707500D01*
X124179000Y-72707500D02*
X124179000Y-70422500D01*
X158104400Y-80654400D02*
X158104400Y-78654400D01*
X158104400Y-80654400D02*
X154204400Y-80654400D01*
X158104400Y-78654400D02*
X154204400Y-78654400D01*
X138012742Y-84402500D02*
X138487258Y-84402500D01*
X138012742Y-85447500D02*
X138487258Y-85447500D01*
X158100000Y-83100000D02*
X158100000Y-81100000D01*
X158100000Y-83100000D02*
X154200000Y-83100000D01*
X158100000Y-81100000D02*
X154200000Y-81100000D01*
X162635000Y-89085000D02*
X162635000Y-87615000D01*
X162635000Y-87615000D02*
X160350000Y-87615000D01*
X160350000Y-89085000D02*
X162635000Y-89085000D01*
D15*
X116954800Y-84906400D02*
X116954800Y-77506400D01*
X124354800Y-84906400D02*
X116954800Y-84906400D01*
X116954800Y-77506400D02*
X124354800Y-77506400D01*
X124354800Y-77506400D02*
X124354800Y-84906400D01*
D14*
X138012742Y-86702500D02*
X138487258Y-86702500D01*
X138012742Y-87747500D02*
X138487258Y-87747500D01*
X162622600Y-74141000D02*
X162622600Y-72671000D01*
X162622600Y-72671000D02*
X160337600Y-72671000D01*
X160337600Y-74141000D02*
X162622600Y-74141000D01*
D13*
X140232350Y-73612000D02*
G75*
G03*
X140232350Y-73612000I-63500J0D01*
G01*
D14*
X138012742Y-78727500D02*
X138487258Y-78727500D01*
X138012742Y-79772500D02*
X138487258Y-79772500D01*
D16*
X124492000Y-69521000D02*
X125022000Y-69521000D01*
X124492000Y-72771000D02*
X124492000Y-69521000D01*
X124492000Y-72771000D02*
X124492000Y-76021000D01*
X124492000Y-76021000D02*
X125022000Y-76021000D01*
X125022000Y-69521000D02*
X130502000Y-69521000D01*
X125022000Y-72771000D02*
X125022000Y-69521000D01*
X125022000Y-72771000D02*
X125022000Y-76021000D01*
X130502000Y-69521000D02*
X130502000Y-72771000D01*
X130502000Y-72771000D02*
X130502000Y-76021000D01*
X130502000Y-76021000D02*
X125022000Y-76021000D01*
X131032000Y-69521000D02*
X130502000Y-69521000D01*
X131032000Y-72771000D02*
X131032000Y-69521000D01*
X131032000Y-72771000D02*
X131032000Y-76021000D01*
X131032000Y-76021000D02*
X130502000Y-76021000D01*
D14*
X132709267Y-73030769D02*
X133183783Y-73030769D01*
X132709267Y-74075769D02*
X133183783Y-74075769D01*
X157662742Y-87827500D02*
X158137258Y-87827500D01*
X157662742Y-88872500D02*
X158137258Y-88872500D01*
X124191500Y-87486258D02*
X124191500Y-87011742D01*
X125236500Y-87486258D02*
X125236500Y-87011742D01*
X154406598Y-74617000D02*
X157179102Y-74617000D01*
X154406598Y-78037000D02*
X157179102Y-78037000D01*
X154413748Y-83740000D02*
X157186252Y-83740000D01*
X154413748Y-87160000D02*
X157186252Y-87160000D01*
X126197000Y-87299000D02*
X126197000Y-87199000D01*
X126197000Y-88799000D02*
X130597000Y-88799000D01*
X130597000Y-85699000D02*
X126197000Y-85699000D01*
X130597000Y-87299000D02*
X130597000Y-87199000D01*
X137987742Y-76402500D02*
X138462258Y-76402500D01*
X137987742Y-77447500D02*
X138462258Y-77447500D01*
D15*
X167682400Y-75674400D02*
X167682400Y-86174400D01*
X160282400Y-75674400D02*
X167682400Y-75674400D01*
X167682400Y-86174400D02*
X160282400Y-86174400D01*
X160282400Y-86174400D02*
X160282400Y-75674400D01*
D14*
X157649142Y-72883500D02*
X158123658Y-72883500D01*
X157649142Y-73928500D02*
X158123658Y-73928500D01*
X130463925Y-78214469D02*
X130463925Y-83014469D01*
X130313925Y-78214469D02*
X130313925Y-76514469D01*
X130313925Y-78214469D02*
X130463925Y-78214469D01*
X126463925Y-78214469D02*
X126613925Y-78214469D01*
X130463925Y-83014469D02*
X130313925Y-83014469D01*
X126613925Y-83014469D02*
X126463925Y-83014469D01*
X126463925Y-83014469D02*
X126463925Y-78214469D01*
X136047925Y-76483669D02*
X136047925Y-74483669D01*
X136047925Y-76483669D02*
X132147925Y-76483669D01*
X136047925Y-74483669D02*
X132147925Y-74483669D01*
%LPC*%
D17*
X141700000Y-82600000D03*
X141700000Y-87200000D03*
D18*
X147950000Y-84900000D03*
D19*
X123444000Y-71120000D03*
X123444000Y-72695000D03*
D20*
X119370725Y-72029269D03*
D21*
X157504400Y-79654400D03*
X154204400Y-79654400D03*
D22*
X137425000Y-84925000D03*
X139075000Y-84925000D03*
D23*
X133340725Y-70759269D03*
X135880725Y-70759269D03*
X138420725Y-70759269D03*
X140960725Y-70759269D03*
X143500725Y-70759269D03*
X146040725Y-70759269D03*
X148580725Y-70759269D03*
X151120725Y-70759269D03*
X153660725Y-70759269D03*
X156200725Y-70759269D03*
X158740725Y-70759269D03*
X161280725Y-70759269D03*
D21*
X157500000Y-82100000D03*
X154200000Y-82100000D03*
D24*
X161937500Y-88350000D03*
X160362500Y-88350000D03*
D25*
X165090725Y-90444269D03*
D26*
X120954800Y-82956400D03*
X120954800Y-79456400D03*
D20*
X119370725Y-89809269D03*
D22*
X137425000Y-87225000D03*
X139075000Y-87225000D03*
D24*
X161925100Y-73406000D03*
X160350100Y-73406000D03*
D17*
X141668850Y-74662000D03*
X141668850Y-79262000D03*
D18*
X147918850Y-76962000D03*
D22*
X137425000Y-79250000D03*
X139075000Y-79250000D03*
D27*
X126492000Y-72771000D03*
X129032000Y-72771000D03*
D22*
X132121525Y-73553269D03*
X133771525Y-73553269D03*
X157075000Y-88350000D03*
X158725000Y-88350000D03*
D28*
X124714000Y-88074000D03*
X124714000Y-86424000D03*
D29*
X153655350Y-76327000D03*
X157930350Y-76327000D03*
X153662500Y-85450000D03*
X157937500Y-85450000D03*
D30*
X126347000Y-86449000D03*
X130447000Y-86449000D03*
X126347000Y-88049000D03*
X130447000Y-88049000D03*
D22*
X137400000Y-76925000D03*
X139050000Y-76925000D03*
D23*
X161280725Y-91079269D03*
X158740725Y-91079269D03*
X156200725Y-91079269D03*
X153660725Y-91079269D03*
X151120725Y-91079269D03*
X148580725Y-91079269D03*
X146040725Y-91079269D03*
X143500725Y-91079269D03*
X140960725Y-91079269D03*
X138420725Y-91079269D03*
X135880725Y-91079269D03*
X133340725Y-91079269D03*
X130800725Y-91079269D03*
X128260725Y-91079269D03*
X125720725Y-91079269D03*
X123180725Y-91079269D03*
D26*
X163682400Y-77424400D03*
X163682400Y-80924400D03*
X163682400Y-84424400D03*
D25*
X165090725Y-71394269D03*
D22*
X157061400Y-73406000D03*
X158711400Y-73406000D03*
D31*
X129733925Y-77464469D03*
X127193925Y-77464469D03*
X127193925Y-83764469D03*
X129733925Y-83764469D03*
D21*
X135447925Y-75483669D03*
X132147925Y-75483669D03*
M02*
