G04 #@! TF.GenerationSoftware,KiCad,Pcbnew,7.0.1*
G04 #@! TF.CreationDate,2023-06-02T18:51:41-05:00*
G04 #@! TF.ProjectId,MiniSSO,4d696e69-5353-44f2-9e6b-696361645f70,2*
G04 #@! TF.SameCoordinates,Original*
G04 #@! TF.FileFunction,Legend,Bot*
G04 #@! TF.FilePolarity,Positive*
%FSLAX46Y46*%
G04 Gerber Fmt 4.6, Leading zero omitted, Abs format (unit mm)*
G04 Created by KiCad (PCBNEW 7.0.1) date 2023-06-02 18:51:41*
%MOMM*%
%LPD*%
G01*
G04 APERTURE LIST*
G04 Aperture macros list*
%AMFreePoly0*
4,1,19,0.550000,-0.750000,0.000000,-0.750000,0.000000,-0.744911,-0.071157,-0.744911,-0.207708,-0.704816,-0.327430,-0.627875,-0.420627,-0.520320,-0.479746,-0.390866,-0.500000,-0.250000,-0.500000,0.250000,-0.479746,0.390866,-0.420627,0.520320,-0.327430,0.627875,-0.207708,0.704816,-0.071157,0.744911,0.000000,0.744911,0.000000,0.750000,0.550000,0.750000,0.550000,-0.750000,0.550000,-0.750000,
$1*%
%AMFreePoly1*
4,1,19,0.000000,0.744911,0.071157,0.744911,0.207708,0.704816,0.327430,0.627875,0.420627,0.520320,0.479746,0.390866,0.500000,0.250000,0.500000,-0.250000,0.479746,-0.390866,0.420627,-0.520320,0.327430,-0.627875,0.207708,-0.704816,0.071157,-0.744911,0.000000,-0.744911,0.000000,-0.750000,-0.550000,-0.750000,-0.550000,0.750000,0.000000,0.750000,0.000000,0.744911,0.000000,0.744911,
$1*%
G04 Aperture macros list end*
%ADD10C,0.150000*%
%ADD11C,0.190500*%
%ADD12C,0.381000*%
%ADD13C,0.254000*%
%ADD14C,0.200000*%
%ADD15C,0.120000*%
%ADD16C,4.500000*%
%ADD17O,1.700000X1.700000*%
%ADD18C,2.286000*%
%ADD19C,1.950000*%
%ADD20C,2.000000*%
%ADD21C,2.500000*%
%ADD22FreePoly0,270.000000*%
%ADD23R,1.500000X1.000000*%
%ADD24FreePoly1,270.000000*%
G04 APERTURE END LIST*
D10*
X143200000Y-84200000D02*
X149300000Y-84200000D01*
X149300000Y-87300000D01*
X143200000Y-87300000D01*
X143200000Y-84200000D01*
G36*
X143200000Y-84200000D02*
G01*
X149300000Y-84200000D01*
X149300000Y-87300000D01*
X143200000Y-87300000D01*
X143200000Y-84200000D01*
G37*
D11*
X155848209Y-89174268D02*
X156211066Y-89428268D01*
X155848209Y-89609697D02*
X156610209Y-89609697D01*
X156610209Y-89609697D02*
X156610209Y-89319411D01*
X156610209Y-89319411D02*
X156573923Y-89246840D01*
X156573923Y-89246840D02*
X156537637Y-89210554D01*
X156537637Y-89210554D02*
X156465066Y-89174268D01*
X156465066Y-89174268D02*
X156356209Y-89174268D01*
X156356209Y-89174268D02*
X156283637Y-89210554D01*
X156283637Y-89210554D02*
X156247352Y-89246840D01*
X156247352Y-89246840D02*
X156211066Y-89319411D01*
X156211066Y-89319411D02*
X156211066Y-89609697D01*
X156610209Y-88920268D02*
X155848209Y-88412268D01*
X156610209Y-88412268D02*
X155848209Y-88920268D01*
X138525285Y-75052515D02*
X138525285Y-74290515D01*
X138525285Y-74290515D02*
X138343856Y-74290515D01*
X138343856Y-74290515D02*
X138234999Y-74326801D01*
X138234999Y-74326801D02*
X138162428Y-74399372D01*
X138162428Y-74399372D02*
X138126142Y-74471944D01*
X138126142Y-74471944D02*
X138089856Y-74617087D01*
X138089856Y-74617087D02*
X138089856Y-74725944D01*
X138089856Y-74725944D02*
X138126142Y-74871087D01*
X138126142Y-74871087D02*
X138162428Y-74943658D01*
X138162428Y-74943658D02*
X138234999Y-75016230D01*
X138234999Y-75016230D02*
X138343856Y-75052515D01*
X138343856Y-75052515D02*
X138525285Y-75052515D01*
X137364142Y-75052515D02*
X137799571Y-75052515D01*
X137581856Y-75052515D02*
X137581856Y-74290515D01*
X137581856Y-74290515D02*
X137654428Y-74399372D01*
X137654428Y-74399372D02*
X137726999Y-74471944D01*
X137726999Y-74471944D02*
X137799571Y-74508230D01*
X137110142Y-74290515D02*
X136638428Y-74290515D01*
X136638428Y-74290515D02*
X136892428Y-74580801D01*
X136892428Y-74580801D02*
X136783571Y-74580801D01*
X136783571Y-74580801D02*
X136711000Y-74617087D01*
X136711000Y-74617087D02*
X136674714Y-74653372D01*
X136674714Y-74653372D02*
X136638428Y-74725944D01*
X136638428Y-74725944D02*
X136638428Y-74907372D01*
X136638428Y-74907372D02*
X136674714Y-74979944D01*
X136674714Y-74979944D02*
X136711000Y-75016230D01*
X136711000Y-75016230D02*
X136783571Y-75052515D01*
X136783571Y-75052515D02*
X137001285Y-75052515D01*
X137001285Y-75052515D02*
X137073857Y-75016230D01*
X137073857Y-75016230D02*
X137110142Y-74979944D01*
D12*
X165294968Y-76964571D02*
X165294968Y-77835428D01*
X165294968Y-77399999D02*
X166818968Y-77399999D01*
X166818968Y-77399999D02*
X166601254Y-77545142D01*
X166601254Y-77545142D02*
X166456111Y-77690285D01*
X166456111Y-77690285D02*
X166383540Y-77835428D01*
D11*
X129095286Y-85190515D02*
X128950143Y-85190515D01*
X128950143Y-85190515D02*
X128877572Y-85226801D01*
X128877572Y-85226801D02*
X128805000Y-85299372D01*
X128805000Y-85299372D02*
X128768715Y-85444515D01*
X128768715Y-85444515D02*
X128768715Y-85698515D01*
X128768715Y-85698515D02*
X128805000Y-85843658D01*
X128805000Y-85843658D02*
X128877572Y-85916230D01*
X128877572Y-85916230D02*
X128950143Y-85952515D01*
X128950143Y-85952515D02*
X129095286Y-85952515D01*
X129095286Y-85952515D02*
X129167858Y-85916230D01*
X129167858Y-85916230D02*
X129240429Y-85843658D01*
X129240429Y-85843658D02*
X129276715Y-85698515D01*
X129276715Y-85698515D02*
X129276715Y-85444515D01*
X129276715Y-85444515D02*
X129240429Y-85299372D01*
X129240429Y-85299372D02*
X129167858Y-85226801D01*
X129167858Y-85226801D02*
X129095286Y-85190515D01*
X128115572Y-85444515D02*
X128115572Y-85952515D01*
X128442143Y-85444515D02*
X128442143Y-85843658D01*
X128442143Y-85843658D02*
X128405857Y-85916230D01*
X128405857Y-85916230D02*
X128333286Y-85952515D01*
X128333286Y-85952515D02*
X128224429Y-85952515D01*
X128224429Y-85952515D02*
X128151857Y-85916230D01*
X128151857Y-85916230D02*
X128115572Y-85879944D01*
X127861571Y-85444515D02*
X127571285Y-85444515D01*
X127752714Y-85190515D02*
X127752714Y-85843658D01*
X127752714Y-85843658D02*
X127716428Y-85916230D01*
X127716428Y-85916230D02*
X127643857Y-85952515D01*
X127643857Y-85952515D02*
X127571285Y-85952515D01*
X127317285Y-85444515D02*
X127317285Y-86206515D01*
X127317285Y-85480801D02*
X127244714Y-85444515D01*
X127244714Y-85444515D02*
X127099571Y-85444515D01*
X127099571Y-85444515D02*
X127026999Y-85480801D01*
X127026999Y-85480801D02*
X126990714Y-85517087D01*
X126990714Y-85517087D02*
X126954428Y-85589658D01*
X126954428Y-85589658D02*
X126954428Y-85807372D01*
X126954428Y-85807372D02*
X126990714Y-85879944D01*
X126990714Y-85879944D02*
X127026999Y-85916230D01*
X127026999Y-85916230D02*
X127099571Y-85952515D01*
X127099571Y-85952515D02*
X127244714Y-85952515D01*
X127244714Y-85952515D02*
X127317285Y-85916230D01*
X126301285Y-85444515D02*
X126301285Y-85952515D01*
X126627856Y-85444515D02*
X126627856Y-85843658D01*
X126627856Y-85843658D02*
X126591570Y-85916230D01*
X126591570Y-85916230D02*
X126518999Y-85952515D01*
X126518999Y-85952515D02*
X126410142Y-85952515D01*
X126410142Y-85952515D02*
X126337570Y-85916230D01*
X126337570Y-85916230D02*
X126301285Y-85879944D01*
X126047284Y-85444515D02*
X125756998Y-85444515D01*
X125938427Y-85190515D02*
X125938427Y-85843658D01*
X125938427Y-85843658D02*
X125902141Y-85916230D01*
X125902141Y-85916230D02*
X125829570Y-85952515D01*
X125829570Y-85952515D02*
X125756998Y-85952515D01*
X124523284Y-85952515D02*
X124958713Y-85952515D01*
X124740998Y-85952515D02*
X124740998Y-85190515D01*
X124740998Y-85190515D02*
X124813570Y-85299372D01*
X124813570Y-85299372D02*
X124886141Y-85371944D01*
X124886141Y-85371944D02*
X124958713Y-85408230D01*
X131173923Y-89373840D02*
X131210209Y-89446412D01*
X131210209Y-89446412D02*
X131210209Y-89555269D01*
X131210209Y-89555269D02*
X131173923Y-89664126D01*
X131173923Y-89664126D02*
X131101352Y-89736697D01*
X131101352Y-89736697D02*
X131028780Y-89772983D01*
X131028780Y-89772983D02*
X130883637Y-89809269D01*
X130883637Y-89809269D02*
X130774780Y-89809269D01*
X130774780Y-89809269D02*
X130629637Y-89772983D01*
X130629637Y-89772983D02*
X130557066Y-89736697D01*
X130557066Y-89736697D02*
X130484495Y-89664126D01*
X130484495Y-89664126D02*
X130448209Y-89555269D01*
X130448209Y-89555269D02*
X130448209Y-89482697D01*
X130448209Y-89482697D02*
X130484495Y-89373840D01*
X130484495Y-89373840D02*
X130520780Y-89337554D01*
X130520780Y-89337554D02*
X130774780Y-89337554D01*
X130774780Y-89337554D02*
X130774780Y-89482697D01*
X130448209Y-89010983D02*
X131210209Y-89010983D01*
X131210209Y-89010983D02*
X130448209Y-88575554D01*
X130448209Y-88575554D02*
X131210209Y-88575554D01*
X130448209Y-88212697D02*
X131210209Y-88212697D01*
X131210209Y-88212697D02*
X131210209Y-88031268D01*
X131210209Y-88031268D02*
X131173923Y-87922411D01*
X131173923Y-87922411D02*
X131101352Y-87849840D01*
X131101352Y-87849840D02*
X131028780Y-87813554D01*
X131028780Y-87813554D02*
X130883637Y-87777268D01*
X130883637Y-87777268D02*
X130774780Y-87777268D01*
X130774780Y-87777268D02*
X130629637Y-87813554D01*
X130629637Y-87813554D02*
X130557066Y-87849840D01*
X130557066Y-87849840D02*
X130484495Y-87922411D01*
X130484495Y-87922411D02*
X130448209Y-88031268D01*
X130448209Y-88031268D02*
X130448209Y-88212697D01*
X153308209Y-73353697D02*
X154070209Y-73353697D01*
X154070209Y-73353697D02*
X154070209Y-73172268D01*
X154070209Y-73172268D02*
X154033923Y-73063411D01*
X154033923Y-73063411D02*
X153961352Y-72990840D01*
X153961352Y-72990840D02*
X153888780Y-72954554D01*
X153888780Y-72954554D02*
X153743637Y-72918268D01*
X153743637Y-72918268D02*
X153634780Y-72918268D01*
X153634780Y-72918268D02*
X153489637Y-72954554D01*
X153489637Y-72954554D02*
X153417066Y-72990840D01*
X153417066Y-72990840D02*
X153344495Y-73063411D01*
X153344495Y-73063411D02*
X153308209Y-73172268D01*
X153308209Y-73172268D02*
X153308209Y-73353697D01*
X154070209Y-72265126D02*
X154070209Y-72410268D01*
X154070209Y-72410268D02*
X154033923Y-72482840D01*
X154033923Y-72482840D02*
X153997637Y-72519126D01*
X153997637Y-72519126D02*
X153888780Y-72591697D01*
X153888780Y-72591697D02*
X153743637Y-72627983D01*
X153743637Y-72627983D02*
X153453352Y-72627983D01*
X153453352Y-72627983D02*
X153380780Y-72591697D01*
X153380780Y-72591697D02*
X153344495Y-72555411D01*
X153344495Y-72555411D02*
X153308209Y-72482840D01*
X153308209Y-72482840D02*
X153308209Y-72337697D01*
X153308209Y-72337697D02*
X153344495Y-72265126D01*
X153344495Y-72265126D02*
X153380780Y-72228840D01*
X153380780Y-72228840D02*
X153453352Y-72192554D01*
X153453352Y-72192554D02*
X153634780Y-72192554D01*
X153634780Y-72192554D02*
X153707352Y-72228840D01*
X153707352Y-72228840D02*
X153743637Y-72265126D01*
X153743637Y-72265126D02*
X153779923Y-72337697D01*
X153779923Y-72337697D02*
X153779923Y-72482840D01*
X153779923Y-72482840D02*
X153743637Y-72555411D01*
X153743637Y-72555411D02*
X153707352Y-72591697D01*
X153707352Y-72591697D02*
X153634780Y-72627983D01*
X135745923Y-89591554D02*
X135745923Y-89228697D01*
X135528209Y-89664125D02*
X136290209Y-89410125D01*
X136290209Y-89410125D02*
X135528209Y-89156125D01*
X135528209Y-88502982D02*
X135528209Y-88938411D01*
X135528209Y-88720696D02*
X136290209Y-88720696D01*
X136290209Y-88720696D02*
X136181352Y-88793268D01*
X136181352Y-88793268D02*
X136108780Y-88865839D01*
X136108780Y-88865839D02*
X136072495Y-88938411D01*
X139051857Y-76152515D02*
X139051857Y-75390515D01*
X138689000Y-75644515D02*
X138689000Y-76152515D01*
X138689000Y-75717087D02*
X138652714Y-75680801D01*
X138652714Y-75680801D02*
X138580143Y-75644515D01*
X138580143Y-75644515D02*
X138471286Y-75644515D01*
X138471286Y-75644515D02*
X138398714Y-75680801D01*
X138398714Y-75680801D02*
X138362429Y-75753372D01*
X138362429Y-75753372D02*
X138362429Y-76152515D01*
X137999571Y-75644515D02*
X137999571Y-76406515D01*
X137999571Y-75680801D02*
X137927000Y-75644515D01*
X137927000Y-75644515D02*
X137781857Y-75644515D01*
X137781857Y-75644515D02*
X137709285Y-75680801D01*
X137709285Y-75680801D02*
X137673000Y-75717087D01*
X137673000Y-75717087D02*
X137636714Y-75789658D01*
X137636714Y-75789658D02*
X137636714Y-76007372D01*
X137636714Y-76007372D02*
X137673000Y-76079944D01*
X137673000Y-76079944D02*
X137709285Y-76116230D01*
X137709285Y-76116230D02*
X137781857Y-76152515D01*
X137781857Y-76152515D02*
X137927000Y-76152515D01*
X137927000Y-76152515D02*
X137999571Y-76116230D01*
X136983571Y-75644515D02*
X136983571Y-76152515D01*
X137310142Y-75644515D02*
X137310142Y-76043658D01*
X137310142Y-76043658D02*
X137273856Y-76116230D01*
X137273856Y-76116230D02*
X137201285Y-76152515D01*
X137201285Y-76152515D02*
X137092428Y-76152515D01*
X137092428Y-76152515D02*
X137019856Y-76116230D01*
X137019856Y-76116230D02*
X136983571Y-76079944D01*
X136729570Y-75644515D02*
X136439284Y-75644515D01*
X136620713Y-75390515D02*
X136620713Y-76043658D01*
X136620713Y-76043658D02*
X136584427Y-76116230D01*
X136584427Y-76116230D02*
X136511856Y-76152515D01*
X136511856Y-76152515D02*
X136439284Y-76152515D01*
X127426153Y-70095784D02*
X126990725Y-70095784D01*
X127208439Y-70857784D02*
X127208439Y-70095784D01*
X126736725Y-70567499D02*
X126156154Y-70567499D01*
X137744285Y-77234801D02*
X137381428Y-77234801D01*
X137816856Y-77452515D02*
X137562856Y-76690515D01*
X137562856Y-76690515D02*
X137308856Y-77452515D01*
X137127427Y-76690515D02*
X136655713Y-76690515D01*
X136655713Y-76690515D02*
X136909713Y-76980801D01*
X136909713Y-76980801D02*
X136800856Y-76980801D01*
X136800856Y-76980801D02*
X136728285Y-77017087D01*
X136728285Y-77017087D02*
X136691999Y-77053372D01*
X136691999Y-77053372D02*
X136655713Y-77125944D01*
X136655713Y-77125944D02*
X136655713Y-77307372D01*
X136655713Y-77307372D02*
X136691999Y-77379944D01*
X136691999Y-77379944D02*
X136728285Y-77416230D01*
X136728285Y-77416230D02*
X136800856Y-77452515D01*
X136800856Y-77452515D02*
X137018570Y-77452515D01*
X137018570Y-77452515D02*
X137091142Y-77416230D01*
X137091142Y-77416230D02*
X137127427Y-77379944D01*
X128478438Y-75152515D02*
X128913867Y-75152515D01*
X128696152Y-75152515D02*
X128696152Y-74390515D01*
X128696152Y-74390515D02*
X128768724Y-74499372D01*
X128768724Y-74499372D02*
X128841295Y-74571944D01*
X128841295Y-74571944D02*
X128913867Y-74608230D01*
X128188153Y-74463087D02*
X128151867Y-74426801D01*
X128151867Y-74426801D02*
X128079296Y-74390515D01*
X128079296Y-74390515D02*
X127897867Y-74390515D01*
X127897867Y-74390515D02*
X127825296Y-74426801D01*
X127825296Y-74426801D02*
X127789010Y-74463087D01*
X127789010Y-74463087D02*
X127752724Y-74535658D01*
X127752724Y-74535658D02*
X127752724Y-74608230D01*
X127752724Y-74608230D02*
X127789010Y-74717087D01*
X127789010Y-74717087D02*
X128224438Y-75152515D01*
X128224438Y-75152515D02*
X127752724Y-75152515D01*
X127535010Y-74390515D02*
X127281010Y-75152515D01*
X127281010Y-75152515D02*
X127027010Y-74390515D01*
X138830209Y-74006840D02*
X138213352Y-74006840D01*
X138213352Y-74006840D02*
X138140780Y-73970554D01*
X138140780Y-73970554D02*
X138104495Y-73934269D01*
X138104495Y-73934269D02*
X138068209Y-73861697D01*
X138068209Y-73861697D02*
X138068209Y-73716554D01*
X138068209Y-73716554D02*
X138104495Y-73643983D01*
X138104495Y-73643983D02*
X138140780Y-73607697D01*
X138140780Y-73607697D02*
X138213352Y-73571411D01*
X138213352Y-73571411D02*
X138830209Y-73571411D01*
X138104495Y-73244840D02*
X138068209Y-73135983D01*
X138068209Y-73135983D02*
X138068209Y-72954554D01*
X138068209Y-72954554D02*
X138104495Y-72881983D01*
X138104495Y-72881983D02*
X138140780Y-72845697D01*
X138140780Y-72845697D02*
X138213352Y-72809411D01*
X138213352Y-72809411D02*
X138285923Y-72809411D01*
X138285923Y-72809411D02*
X138358495Y-72845697D01*
X138358495Y-72845697D02*
X138394780Y-72881983D01*
X138394780Y-72881983D02*
X138431066Y-72954554D01*
X138431066Y-72954554D02*
X138467352Y-73099697D01*
X138467352Y-73099697D02*
X138503637Y-73172268D01*
X138503637Y-73172268D02*
X138539923Y-73208554D01*
X138539923Y-73208554D02*
X138612495Y-73244840D01*
X138612495Y-73244840D02*
X138685066Y-73244840D01*
X138685066Y-73244840D02*
X138757637Y-73208554D01*
X138757637Y-73208554D02*
X138793923Y-73172268D01*
X138793923Y-73172268D02*
X138830209Y-73099697D01*
X138830209Y-73099697D02*
X138830209Y-72918268D01*
X138830209Y-72918268D02*
X138793923Y-72809411D01*
X138467352Y-72228840D02*
X138431066Y-72119983D01*
X138431066Y-72119983D02*
X138394780Y-72083697D01*
X138394780Y-72083697D02*
X138322209Y-72047411D01*
X138322209Y-72047411D02*
X138213352Y-72047411D01*
X138213352Y-72047411D02*
X138140780Y-72083697D01*
X138140780Y-72083697D02*
X138104495Y-72119983D01*
X138104495Y-72119983D02*
X138068209Y-72192554D01*
X138068209Y-72192554D02*
X138068209Y-72482840D01*
X138068209Y-72482840D02*
X138830209Y-72482840D01*
X138830209Y-72482840D02*
X138830209Y-72228840D01*
X138830209Y-72228840D02*
X138793923Y-72156269D01*
X138793923Y-72156269D02*
X138757637Y-72119983D01*
X138757637Y-72119983D02*
X138685066Y-72083697D01*
X138685066Y-72083697D02*
X138612495Y-72083697D01*
X138612495Y-72083697D02*
X138539923Y-72119983D01*
X138539923Y-72119983D02*
X138503637Y-72156269D01*
X138503637Y-72156269D02*
X138467352Y-72228840D01*
X138467352Y-72228840D02*
X138467352Y-72482840D01*
X150768209Y-73353697D02*
X151530209Y-73353697D01*
X151530209Y-73353697D02*
X151530209Y-73172268D01*
X151530209Y-73172268D02*
X151493923Y-73063411D01*
X151493923Y-73063411D02*
X151421352Y-72990840D01*
X151421352Y-72990840D02*
X151348780Y-72954554D01*
X151348780Y-72954554D02*
X151203637Y-72918268D01*
X151203637Y-72918268D02*
X151094780Y-72918268D01*
X151094780Y-72918268D02*
X150949637Y-72954554D01*
X150949637Y-72954554D02*
X150877066Y-72990840D01*
X150877066Y-72990840D02*
X150804495Y-73063411D01*
X150804495Y-73063411D02*
X150768209Y-73172268D01*
X150768209Y-73172268D02*
X150768209Y-73353697D01*
X150768209Y-72555411D02*
X150768209Y-72410268D01*
X150768209Y-72410268D02*
X150804495Y-72337697D01*
X150804495Y-72337697D02*
X150840780Y-72301411D01*
X150840780Y-72301411D02*
X150949637Y-72228840D01*
X150949637Y-72228840D02*
X151094780Y-72192554D01*
X151094780Y-72192554D02*
X151385066Y-72192554D01*
X151385066Y-72192554D02*
X151457637Y-72228840D01*
X151457637Y-72228840D02*
X151493923Y-72265126D01*
X151493923Y-72265126D02*
X151530209Y-72337697D01*
X151530209Y-72337697D02*
X151530209Y-72482840D01*
X151530209Y-72482840D02*
X151493923Y-72555411D01*
X151493923Y-72555411D02*
X151457637Y-72591697D01*
X151457637Y-72591697D02*
X151385066Y-72627983D01*
X151385066Y-72627983D02*
X151203637Y-72627983D01*
X151203637Y-72627983D02*
X151131066Y-72591697D01*
X151131066Y-72591697D02*
X151094780Y-72555411D01*
X151094780Y-72555411D02*
X151058495Y-72482840D01*
X151058495Y-72482840D02*
X151058495Y-72337697D01*
X151058495Y-72337697D02*
X151094780Y-72265126D01*
X151094780Y-72265126D02*
X151131066Y-72228840D01*
X151131066Y-72228840D02*
X151203637Y-72192554D01*
X160588142Y-84673295D02*
X160442999Y-84673295D01*
X160442999Y-84673295D02*
X160370428Y-84709581D01*
X160370428Y-84709581D02*
X160297856Y-84782152D01*
X160297856Y-84782152D02*
X160261571Y-84927295D01*
X160261571Y-84927295D02*
X160261571Y-85181295D01*
X160261571Y-85181295D02*
X160297856Y-85326438D01*
X160297856Y-85326438D02*
X160370428Y-85399010D01*
X160370428Y-85399010D02*
X160442999Y-85435295D01*
X160442999Y-85435295D02*
X160588142Y-85435295D01*
X160588142Y-85435295D02*
X160660714Y-85399010D01*
X160660714Y-85399010D02*
X160733285Y-85326438D01*
X160733285Y-85326438D02*
X160769571Y-85181295D01*
X160769571Y-85181295D02*
X160769571Y-84927295D01*
X160769571Y-84927295D02*
X160733285Y-84782152D01*
X160733285Y-84782152D02*
X160660714Y-84709581D01*
X160660714Y-84709581D02*
X160588142Y-84673295D01*
X159608428Y-84927295D02*
X159608428Y-85435295D01*
X159934999Y-84927295D02*
X159934999Y-85326438D01*
X159934999Y-85326438D02*
X159898713Y-85399010D01*
X159898713Y-85399010D02*
X159826142Y-85435295D01*
X159826142Y-85435295D02*
X159717285Y-85435295D01*
X159717285Y-85435295D02*
X159644713Y-85399010D01*
X159644713Y-85399010D02*
X159608428Y-85362724D01*
X159354427Y-84927295D02*
X159064141Y-84927295D01*
X159245570Y-84673295D02*
X159245570Y-85326438D01*
X159245570Y-85326438D02*
X159209284Y-85399010D01*
X159209284Y-85399010D02*
X159136713Y-85435295D01*
X159136713Y-85435295D02*
X159064141Y-85435295D01*
X158265856Y-84745867D02*
X158229570Y-84709581D01*
X158229570Y-84709581D02*
X158156999Y-84673295D01*
X158156999Y-84673295D02*
X157975570Y-84673295D01*
X157975570Y-84673295D02*
X157902999Y-84709581D01*
X157902999Y-84709581D02*
X157866713Y-84745867D01*
X157866713Y-84745867D02*
X157830427Y-84818438D01*
X157830427Y-84818438D02*
X157830427Y-84891010D01*
X157830427Y-84891010D02*
X157866713Y-84999867D01*
X157866713Y-84999867D02*
X158302141Y-85435295D01*
X158302141Y-85435295D02*
X157830427Y-85435295D01*
X159898713Y-85907735D02*
X159463285Y-85907735D01*
X159680999Y-86669735D02*
X159680999Y-85907735D01*
X159209285Y-86669735D02*
X159209285Y-85907735D01*
X159209285Y-85907735D02*
X158918999Y-85907735D01*
X158918999Y-85907735D02*
X158846428Y-85944021D01*
X158846428Y-85944021D02*
X158810142Y-85980307D01*
X158810142Y-85980307D02*
X158773856Y-86052878D01*
X158773856Y-86052878D02*
X158773856Y-86161735D01*
X158773856Y-86161735D02*
X158810142Y-86234307D01*
X158810142Y-86234307D02*
X158846428Y-86270592D01*
X158846428Y-86270592D02*
X158918999Y-86306878D01*
X158918999Y-86306878D02*
X159209285Y-86306878D01*
X129966153Y-70095784D02*
X129530725Y-70095784D01*
X129748439Y-70857784D02*
X129748439Y-70095784D01*
X129276725Y-70567499D02*
X128696154Y-70567499D01*
X128986439Y-70857784D02*
X128986439Y-70277213D01*
X158424495Y-73952411D02*
X158388209Y-73843554D01*
X158388209Y-73843554D02*
X158388209Y-73662125D01*
X158388209Y-73662125D02*
X158424495Y-73589554D01*
X158424495Y-73589554D02*
X158460780Y-73553268D01*
X158460780Y-73553268D02*
X158533352Y-73516982D01*
X158533352Y-73516982D02*
X158605923Y-73516982D01*
X158605923Y-73516982D02*
X158678495Y-73553268D01*
X158678495Y-73553268D02*
X158714780Y-73589554D01*
X158714780Y-73589554D02*
X158751066Y-73662125D01*
X158751066Y-73662125D02*
X158787352Y-73807268D01*
X158787352Y-73807268D02*
X158823637Y-73879839D01*
X158823637Y-73879839D02*
X158859923Y-73916125D01*
X158859923Y-73916125D02*
X158932495Y-73952411D01*
X158932495Y-73952411D02*
X159005066Y-73952411D01*
X159005066Y-73952411D02*
X159077637Y-73916125D01*
X159077637Y-73916125D02*
X159113923Y-73879839D01*
X159113923Y-73879839D02*
X159150209Y-73807268D01*
X159150209Y-73807268D02*
X159150209Y-73625839D01*
X159150209Y-73625839D02*
X159113923Y-73516982D01*
X158460780Y-72754982D02*
X158424495Y-72791268D01*
X158424495Y-72791268D02*
X158388209Y-72900125D01*
X158388209Y-72900125D02*
X158388209Y-72972697D01*
X158388209Y-72972697D02*
X158424495Y-73081554D01*
X158424495Y-73081554D02*
X158497066Y-73154125D01*
X158497066Y-73154125D02*
X158569637Y-73190411D01*
X158569637Y-73190411D02*
X158714780Y-73226697D01*
X158714780Y-73226697D02*
X158823637Y-73226697D01*
X158823637Y-73226697D02*
X158968780Y-73190411D01*
X158968780Y-73190411D02*
X159041352Y-73154125D01*
X159041352Y-73154125D02*
X159113923Y-73081554D01*
X159113923Y-73081554D02*
X159150209Y-72972697D01*
X159150209Y-72972697D02*
X159150209Y-72900125D01*
X159150209Y-72900125D02*
X159113923Y-72791268D01*
X159113923Y-72791268D02*
X159077637Y-72754982D01*
X158388209Y-72065554D02*
X158388209Y-72428411D01*
X158388209Y-72428411D02*
X159150209Y-72428411D01*
X150768209Y-89700411D02*
X151530209Y-89700411D01*
X151530209Y-89700411D02*
X150985923Y-89446411D01*
X150985923Y-89446411D02*
X151530209Y-89192411D01*
X151530209Y-89192411D02*
X150768209Y-89192411D01*
X151530209Y-88684411D02*
X151530209Y-88539268D01*
X151530209Y-88539268D02*
X151493923Y-88466697D01*
X151493923Y-88466697D02*
X151421352Y-88394125D01*
X151421352Y-88394125D02*
X151276209Y-88357840D01*
X151276209Y-88357840D02*
X151022209Y-88357840D01*
X151022209Y-88357840D02*
X150877066Y-88394125D01*
X150877066Y-88394125D02*
X150804495Y-88466697D01*
X150804495Y-88466697D02*
X150768209Y-88539268D01*
X150768209Y-88539268D02*
X150768209Y-88684411D01*
X150768209Y-88684411D02*
X150804495Y-88756983D01*
X150804495Y-88756983D02*
X150877066Y-88829554D01*
X150877066Y-88829554D02*
X151022209Y-88865840D01*
X151022209Y-88865840D02*
X151276209Y-88865840D01*
X151276209Y-88865840D02*
X151421352Y-88829554D01*
X151421352Y-88829554D02*
X151493923Y-88756983D01*
X151493923Y-88756983D02*
X151530209Y-88684411D01*
X126130209Y-89627839D02*
X126130209Y-89156125D01*
X126130209Y-89156125D02*
X125839923Y-89410125D01*
X125839923Y-89410125D02*
X125839923Y-89301268D01*
X125839923Y-89301268D02*
X125803637Y-89228697D01*
X125803637Y-89228697D02*
X125767352Y-89192411D01*
X125767352Y-89192411D02*
X125694780Y-89156125D01*
X125694780Y-89156125D02*
X125513352Y-89156125D01*
X125513352Y-89156125D02*
X125440780Y-89192411D01*
X125440780Y-89192411D02*
X125404495Y-89228697D01*
X125404495Y-89228697D02*
X125368209Y-89301268D01*
X125368209Y-89301268D02*
X125368209Y-89518982D01*
X125368209Y-89518982D02*
X125404495Y-89591554D01*
X125404495Y-89591554D02*
X125440780Y-89627839D01*
X126130209Y-88938411D02*
X125368209Y-88684411D01*
X125368209Y-88684411D02*
X126130209Y-88430411D01*
D12*
X166124460Y-80319429D02*
X166124460Y-81480572D01*
X166705031Y-80900000D02*
X165543888Y-80900000D01*
D11*
X138144285Y-87034801D02*
X137781428Y-87034801D01*
X138216856Y-87252515D02*
X137962856Y-86490515D01*
X137962856Y-86490515D02*
X137708856Y-87252515D01*
X137091999Y-86490515D02*
X137454856Y-86490515D01*
X137454856Y-86490515D02*
X137491142Y-86853372D01*
X137491142Y-86853372D02*
X137454856Y-86817087D01*
X137454856Y-86817087D02*
X137382285Y-86780801D01*
X137382285Y-86780801D02*
X137200856Y-86780801D01*
X137200856Y-86780801D02*
X137128285Y-86817087D01*
X137128285Y-86817087D02*
X137091999Y-86853372D01*
X137091999Y-86853372D02*
X137055713Y-86925944D01*
X137055713Y-86925944D02*
X137055713Y-87107372D01*
X137055713Y-87107372D02*
X137091999Y-87179944D01*
X137091999Y-87179944D02*
X137128285Y-87216230D01*
X137128285Y-87216230D02*
X137200856Y-87252515D01*
X137200856Y-87252515D02*
X137382285Y-87252515D01*
X137382285Y-87252515D02*
X137454856Y-87216230D01*
X137454856Y-87216230D02*
X137491142Y-87179944D01*
X143148209Y-73970554D02*
X143910209Y-73970554D01*
X143910209Y-73970554D02*
X143910209Y-73789125D01*
X143910209Y-73789125D02*
X143873923Y-73680268D01*
X143873923Y-73680268D02*
X143801352Y-73607697D01*
X143801352Y-73607697D02*
X143728780Y-73571411D01*
X143728780Y-73571411D02*
X143583637Y-73535125D01*
X143583637Y-73535125D02*
X143474780Y-73535125D01*
X143474780Y-73535125D02*
X143329637Y-73571411D01*
X143329637Y-73571411D02*
X143257066Y-73607697D01*
X143257066Y-73607697D02*
X143184495Y-73680268D01*
X143184495Y-73680268D02*
X143148209Y-73789125D01*
X143148209Y-73789125D02*
X143148209Y-73970554D01*
X143148209Y-72809411D02*
X143148209Y-73244840D01*
X143148209Y-73027125D02*
X143910209Y-73027125D01*
X143910209Y-73027125D02*
X143801352Y-73099697D01*
X143801352Y-73099697D02*
X143728780Y-73172268D01*
X143728780Y-73172268D02*
X143692495Y-73244840D01*
X143837637Y-72519126D02*
X143873923Y-72482840D01*
X143873923Y-72482840D02*
X143910209Y-72410269D01*
X143910209Y-72410269D02*
X143910209Y-72228840D01*
X143910209Y-72228840D02*
X143873923Y-72156269D01*
X143873923Y-72156269D02*
X143837637Y-72119983D01*
X143837637Y-72119983D02*
X143765066Y-72083697D01*
X143765066Y-72083697D02*
X143692495Y-72083697D01*
X143692495Y-72083697D02*
X143583637Y-72119983D01*
X143583637Y-72119983D02*
X143148209Y-72555411D01*
X143148209Y-72555411D02*
X143148209Y-72083697D01*
X141495286Y-85190515D02*
X141350143Y-85190515D01*
X141350143Y-85190515D02*
X141277572Y-85226801D01*
X141277572Y-85226801D02*
X141205000Y-85299372D01*
X141205000Y-85299372D02*
X141168715Y-85444515D01*
X141168715Y-85444515D02*
X141168715Y-85698515D01*
X141168715Y-85698515D02*
X141205000Y-85843658D01*
X141205000Y-85843658D02*
X141277572Y-85916230D01*
X141277572Y-85916230D02*
X141350143Y-85952515D01*
X141350143Y-85952515D02*
X141495286Y-85952515D01*
X141495286Y-85952515D02*
X141567858Y-85916230D01*
X141567858Y-85916230D02*
X141640429Y-85843658D01*
X141640429Y-85843658D02*
X141676715Y-85698515D01*
X141676715Y-85698515D02*
X141676715Y-85444515D01*
X141676715Y-85444515D02*
X141640429Y-85299372D01*
X141640429Y-85299372D02*
X141567858Y-85226801D01*
X141567858Y-85226801D02*
X141495286Y-85190515D01*
X140515572Y-85444515D02*
X140515572Y-85952515D01*
X140842143Y-85444515D02*
X140842143Y-85843658D01*
X140842143Y-85843658D02*
X140805857Y-85916230D01*
X140805857Y-85916230D02*
X140733286Y-85952515D01*
X140733286Y-85952515D02*
X140624429Y-85952515D01*
X140624429Y-85952515D02*
X140551857Y-85916230D01*
X140551857Y-85916230D02*
X140515572Y-85879944D01*
X140261571Y-85444515D02*
X139971285Y-85444515D01*
X140152714Y-85190515D02*
X140152714Y-85843658D01*
X140152714Y-85843658D02*
X140116428Y-85916230D01*
X140116428Y-85916230D02*
X140043857Y-85952515D01*
X140043857Y-85952515D02*
X139971285Y-85952515D01*
X139717285Y-85444515D02*
X139717285Y-86206515D01*
X139717285Y-85480801D02*
X139644714Y-85444515D01*
X139644714Y-85444515D02*
X139499571Y-85444515D01*
X139499571Y-85444515D02*
X139426999Y-85480801D01*
X139426999Y-85480801D02*
X139390714Y-85517087D01*
X139390714Y-85517087D02*
X139354428Y-85589658D01*
X139354428Y-85589658D02*
X139354428Y-85807372D01*
X139354428Y-85807372D02*
X139390714Y-85879944D01*
X139390714Y-85879944D02*
X139426999Y-85916230D01*
X139426999Y-85916230D02*
X139499571Y-85952515D01*
X139499571Y-85952515D02*
X139644714Y-85952515D01*
X139644714Y-85952515D02*
X139717285Y-85916230D01*
X138701285Y-85444515D02*
X138701285Y-85952515D01*
X139027856Y-85444515D02*
X139027856Y-85843658D01*
X139027856Y-85843658D02*
X138991570Y-85916230D01*
X138991570Y-85916230D02*
X138918999Y-85952515D01*
X138918999Y-85952515D02*
X138810142Y-85952515D01*
X138810142Y-85952515D02*
X138737570Y-85916230D01*
X138737570Y-85916230D02*
X138701285Y-85879944D01*
X138447284Y-85444515D02*
X138156998Y-85444515D01*
X138338427Y-85190515D02*
X138338427Y-85843658D01*
X138338427Y-85843658D02*
X138302141Y-85916230D01*
X138302141Y-85916230D02*
X138229570Y-85952515D01*
X138229570Y-85952515D02*
X138156998Y-85952515D01*
X137358713Y-85263087D02*
X137322427Y-85226801D01*
X137322427Y-85226801D02*
X137249856Y-85190515D01*
X137249856Y-85190515D02*
X137068427Y-85190515D01*
X137068427Y-85190515D02*
X136995856Y-85226801D01*
X136995856Y-85226801D02*
X136959570Y-85263087D01*
X136959570Y-85263087D02*
X136923284Y-85335658D01*
X136923284Y-85335658D02*
X136923284Y-85408230D01*
X136923284Y-85408230D02*
X136959570Y-85517087D01*
X136959570Y-85517087D02*
X137394998Y-85952515D01*
X137394998Y-85952515D02*
X136923284Y-85952515D01*
X148264495Y-89772983D02*
X148228209Y-89664126D01*
X148228209Y-89664126D02*
X148228209Y-89482697D01*
X148228209Y-89482697D02*
X148264495Y-89410126D01*
X148264495Y-89410126D02*
X148300780Y-89373840D01*
X148300780Y-89373840D02*
X148373352Y-89337554D01*
X148373352Y-89337554D02*
X148445923Y-89337554D01*
X148445923Y-89337554D02*
X148518495Y-89373840D01*
X148518495Y-89373840D02*
X148554780Y-89410126D01*
X148554780Y-89410126D02*
X148591066Y-89482697D01*
X148591066Y-89482697D02*
X148627352Y-89627840D01*
X148627352Y-89627840D02*
X148663637Y-89700411D01*
X148663637Y-89700411D02*
X148699923Y-89736697D01*
X148699923Y-89736697D02*
X148772495Y-89772983D01*
X148772495Y-89772983D02*
X148845066Y-89772983D01*
X148845066Y-89772983D02*
X148917637Y-89736697D01*
X148917637Y-89736697D02*
X148953923Y-89700411D01*
X148953923Y-89700411D02*
X148990209Y-89627840D01*
X148990209Y-89627840D02*
X148990209Y-89446411D01*
X148990209Y-89446411D02*
X148953923Y-89337554D01*
X148300780Y-88575554D02*
X148264495Y-88611840D01*
X148264495Y-88611840D02*
X148228209Y-88720697D01*
X148228209Y-88720697D02*
X148228209Y-88793269D01*
X148228209Y-88793269D02*
X148264495Y-88902126D01*
X148264495Y-88902126D02*
X148337066Y-88974697D01*
X148337066Y-88974697D02*
X148409637Y-89010983D01*
X148409637Y-89010983D02*
X148554780Y-89047269D01*
X148554780Y-89047269D02*
X148663637Y-89047269D01*
X148663637Y-89047269D02*
X148808780Y-89010983D01*
X148808780Y-89010983D02*
X148881352Y-88974697D01*
X148881352Y-88974697D02*
X148953923Y-88902126D01*
X148953923Y-88902126D02*
X148990209Y-88793269D01*
X148990209Y-88793269D02*
X148990209Y-88720697D01*
X148990209Y-88720697D02*
X148953923Y-88611840D01*
X148953923Y-88611840D02*
X148917637Y-88575554D01*
X148228209Y-88248983D02*
X148990209Y-88248983D01*
X148228209Y-87813554D02*
X148663637Y-88140126D01*
X148990209Y-87813554D02*
X148554780Y-88248983D01*
X159150209Y-89627839D02*
X159150209Y-89192411D01*
X158388209Y-89410125D02*
X159150209Y-89410125D01*
X159150209Y-89010982D02*
X158388209Y-88502982D01*
X159150209Y-88502982D02*
X158388209Y-89010982D01*
X130964012Y-75390515D02*
X130818869Y-75390515D01*
X130818869Y-75390515D02*
X130746298Y-75426801D01*
X130746298Y-75426801D02*
X130673726Y-75499372D01*
X130673726Y-75499372D02*
X130637441Y-75644515D01*
X130637441Y-75644515D02*
X130637441Y-75898515D01*
X130637441Y-75898515D02*
X130673726Y-76043658D01*
X130673726Y-76043658D02*
X130746298Y-76116230D01*
X130746298Y-76116230D02*
X130818869Y-76152515D01*
X130818869Y-76152515D02*
X130964012Y-76152515D01*
X130964012Y-76152515D02*
X131036584Y-76116230D01*
X131036584Y-76116230D02*
X131109155Y-76043658D01*
X131109155Y-76043658D02*
X131145441Y-75898515D01*
X131145441Y-75898515D02*
X131145441Y-75644515D01*
X131145441Y-75644515D02*
X131109155Y-75499372D01*
X131109155Y-75499372D02*
X131036584Y-75426801D01*
X131036584Y-75426801D02*
X130964012Y-75390515D01*
X130310869Y-75644515D02*
X130310869Y-76406515D01*
X130310869Y-75680801D02*
X130238298Y-75644515D01*
X130238298Y-75644515D02*
X130093155Y-75644515D01*
X130093155Y-75644515D02*
X130020583Y-75680801D01*
X130020583Y-75680801D02*
X129984298Y-75717087D01*
X129984298Y-75717087D02*
X129948012Y-75789658D01*
X129948012Y-75789658D02*
X129948012Y-76007372D01*
X129948012Y-76007372D02*
X129984298Y-76079944D01*
X129984298Y-76079944D02*
X130020583Y-76116230D01*
X130020583Y-76116230D02*
X130093155Y-76152515D01*
X130093155Y-76152515D02*
X130238298Y-76152515D01*
X130238298Y-76152515D02*
X130310869Y-76116230D01*
X129730297Y-75644515D02*
X129440011Y-75644515D01*
X129621440Y-75390515D02*
X129621440Y-76043658D01*
X129621440Y-76043658D02*
X129585154Y-76116230D01*
X129585154Y-76116230D02*
X129512583Y-76152515D01*
X129512583Y-76152515D02*
X129440011Y-76152515D01*
X129077154Y-76152515D02*
X129149725Y-76116230D01*
X129149725Y-76116230D02*
X129186011Y-76079944D01*
X129186011Y-76079944D02*
X129222297Y-76007372D01*
X129222297Y-76007372D02*
X129222297Y-75789658D01*
X129222297Y-75789658D02*
X129186011Y-75717087D01*
X129186011Y-75717087D02*
X129149725Y-75680801D01*
X129149725Y-75680801D02*
X129077154Y-75644515D01*
X129077154Y-75644515D02*
X128968297Y-75644515D01*
X128968297Y-75644515D02*
X128895725Y-75680801D01*
X128895725Y-75680801D02*
X128859440Y-75717087D01*
X128859440Y-75717087D02*
X128823154Y-75789658D01*
X128823154Y-75789658D02*
X128823154Y-76007372D01*
X128823154Y-76007372D02*
X128859440Y-76079944D01*
X128859440Y-76079944D02*
X128895725Y-76116230D01*
X128895725Y-76116230D02*
X128968297Y-76152515D01*
X128968297Y-76152515D02*
X129077154Y-76152515D01*
X128170011Y-76116230D02*
X128242582Y-76152515D01*
X128242582Y-76152515D02*
X128387725Y-76152515D01*
X128387725Y-76152515D02*
X128460296Y-76116230D01*
X128460296Y-76116230D02*
X128496582Y-76079944D01*
X128496582Y-76079944D02*
X128532868Y-76007372D01*
X128532868Y-76007372D02*
X128532868Y-75789658D01*
X128532868Y-75789658D02*
X128496582Y-75717087D01*
X128496582Y-75717087D02*
X128460296Y-75680801D01*
X128460296Y-75680801D02*
X128387725Y-75644515D01*
X128387725Y-75644515D02*
X128242582Y-75644515D01*
X128242582Y-75644515D02*
X128170011Y-75680801D01*
X127734582Y-76152515D02*
X127807153Y-76116230D01*
X127807153Y-76116230D02*
X127843439Y-76079944D01*
X127843439Y-76079944D02*
X127879725Y-76007372D01*
X127879725Y-76007372D02*
X127879725Y-75789658D01*
X127879725Y-75789658D02*
X127843439Y-75717087D01*
X127843439Y-75717087D02*
X127807153Y-75680801D01*
X127807153Y-75680801D02*
X127734582Y-75644515D01*
X127734582Y-75644515D02*
X127625725Y-75644515D01*
X127625725Y-75644515D02*
X127553153Y-75680801D01*
X127553153Y-75680801D02*
X127516868Y-75717087D01*
X127516868Y-75717087D02*
X127480582Y-75789658D01*
X127480582Y-75789658D02*
X127480582Y-76007372D01*
X127480582Y-76007372D02*
X127516868Y-76079944D01*
X127516868Y-76079944D02*
X127553153Y-76116230D01*
X127553153Y-76116230D02*
X127625725Y-76152515D01*
X127625725Y-76152515D02*
X127734582Y-76152515D01*
X126827439Y-75644515D02*
X126827439Y-76152515D01*
X127154010Y-75644515D02*
X127154010Y-76043658D01*
X127154010Y-76043658D02*
X127117724Y-76116230D01*
X127117724Y-76116230D02*
X127045153Y-76152515D01*
X127045153Y-76152515D02*
X126936296Y-76152515D01*
X126936296Y-76152515D02*
X126863724Y-76116230D01*
X126863724Y-76116230D02*
X126827439Y-76079944D01*
X126464581Y-75644515D02*
X126464581Y-76406515D01*
X126464581Y-75680801D02*
X126392010Y-75644515D01*
X126392010Y-75644515D02*
X126246867Y-75644515D01*
X126246867Y-75644515D02*
X126174295Y-75680801D01*
X126174295Y-75680801D02*
X126138010Y-75717087D01*
X126138010Y-75717087D02*
X126101724Y-75789658D01*
X126101724Y-75789658D02*
X126101724Y-76007372D01*
X126101724Y-76007372D02*
X126138010Y-76079944D01*
X126138010Y-76079944D02*
X126174295Y-76116230D01*
X126174295Y-76116230D02*
X126246867Y-76152515D01*
X126246867Y-76152515D02*
X126392010Y-76152515D01*
X126392010Y-76152515D02*
X126464581Y-76116230D01*
X125666295Y-76152515D02*
X125738866Y-76116230D01*
X125738866Y-76116230D02*
X125775152Y-76043658D01*
X125775152Y-76043658D02*
X125775152Y-75390515D01*
X125085723Y-76116230D02*
X125158295Y-76152515D01*
X125158295Y-76152515D02*
X125303438Y-76152515D01*
X125303438Y-76152515D02*
X125376009Y-76116230D01*
X125376009Y-76116230D02*
X125412295Y-76043658D01*
X125412295Y-76043658D02*
X125412295Y-75753372D01*
X125412295Y-75753372D02*
X125376009Y-75680801D01*
X125376009Y-75680801D02*
X125303438Y-75644515D01*
X125303438Y-75644515D02*
X125158295Y-75644515D01*
X125158295Y-75644515D02*
X125085723Y-75680801D01*
X125085723Y-75680801D02*
X125049438Y-75753372D01*
X125049438Y-75753372D02*
X125049438Y-75825944D01*
X125049438Y-75825944D02*
X125412295Y-75898515D01*
X124396295Y-76152515D02*
X124396295Y-75390515D01*
X124396295Y-76116230D02*
X124468866Y-76152515D01*
X124468866Y-76152515D02*
X124614009Y-76152515D01*
X124614009Y-76152515D02*
X124686580Y-76116230D01*
X124686580Y-76116230D02*
X124722866Y-76079944D01*
X124722866Y-76079944D02*
X124759152Y-76007372D01*
X124759152Y-76007372D02*
X124759152Y-75789658D01*
X124759152Y-75789658D02*
X124722866Y-75717087D01*
X124722866Y-75717087D02*
X124686580Y-75680801D01*
X124686580Y-75680801D02*
X124614009Y-75644515D01*
X124614009Y-75644515D02*
X124468866Y-75644515D01*
X124468866Y-75644515D02*
X124396295Y-75680801D01*
X148228209Y-73970554D02*
X148990209Y-73970554D01*
X148990209Y-73970554D02*
X148990209Y-73789125D01*
X148990209Y-73789125D02*
X148953923Y-73680268D01*
X148953923Y-73680268D02*
X148881352Y-73607697D01*
X148881352Y-73607697D02*
X148808780Y-73571411D01*
X148808780Y-73571411D02*
X148663637Y-73535125D01*
X148663637Y-73535125D02*
X148554780Y-73535125D01*
X148554780Y-73535125D02*
X148409637Y-73571411D01*
X148409637Y-73571411D02*
X148337066Y-73607697D01*
X148337066Y-73607697D02*
X148264495Y-73680268D01*
X148264495Y-73680268D02*
X148228209Y-73789125D01*
X148228209Y-73789125D02*
X148228209Y-73970554D01*
X148228209Y-72809411D02*
X148228209Y-73244840D01*
X148228209Y-73027125D02*
X148990209Y-73027125D01*
X148990209Y-73027125D02*
X148881352Y-73099697D01*
X148881352Y-73099697D02*
X148808780Y-73172268D01*
X148808780Y-73172268D02*
X148772495Y-73244840D01*
X148990209Y-72337697D02*
X148990209Y-72265126D01*
X148990209Y-72265126D02*
X148953923Y-72192554D01*
X148953923Y-72192554D02*
X148917637Y-72156269D01*
X148917637Y-72156269D02*
X148845066Y-72119983D01*
X148845066Y-72119983D02*
X148699923Y-72083697D01*
X148699923Y-72083697D02*
X148518495Y-72083697D01*
X148518495Y-72083697D02*
X148373352Y-72119983D01*
X148373352Y-72119983D02*
X148300780Y-72156269D01*
X148300780Y-72156269D02*
X148264495Y-72192554D01*
X148264495Y-72192554D02*
X148228209Y-72265126D01*
X148228209Y-72265126D02*
X148228209Y-72337697D01*
X148228209Y-72337697D02*
X148264495Y-72410269D01*
X148264495Y-72410269D02*
X148300780Y-72446554D01*
X148300780Y-72446554D02*
X148373352Y-72482840D01*
X148373352Y-72482840D02*
X148518495Y-72519126D01*
X148518495Y-72519126D02*
X148699923Y-72519126D01*
X148699923Y-72519126D02*
X148845066Y-72482840D01*
X148845066Y-72482840D02*
X148917637Y-72446554D01*
X148917637Y-72446554D02*
X148953923Y-72410269D01*
X148953923Y-72410269D02*
X148990209Y-72337697D01*
X145688209Y-73970554D02*
X146450209Y-73970554D01*
X146450209Y-73970554D02*
X146450209Y-73789125D01*
X146450209Y-73789125D02*
X146413923Y-73680268D01*
X146413923Y-73680268D02*
X146341352Y-73607697D01*
X146341352Y-73607697D02*
X146268780Y-73571411D01*
X146268780Y-73571411D02*
X146123637Y-73535125D01*
X146123637Y-73535125D02*
X146014780Y-73535125D01*
X146014780Y-73535125D02*
X145869637Y-73571411D01*
X145869637Y-73571411D02*
X145797066Y-73607697D01*
X145797066Y-73607697D02*
X145724495Y-73680268D01*
X145724495Y-73680268D02*
X145688209Y-73789125D01*
X145688209Y-73789125D02*
X145688209Y-73970554D01*
X145688209Y-72809411D02*
X145688209Y-73244840D01*
X145688209Y-73027125D02*
X146450209Y-73027125D01*
X146450209Y-73027125D02*
X146341352Y-73099697D01*
X146341352Y-73099697D02*
X146268780Y-73172268D01*
X146268780Y-73172268D02*
X146232495Y-73244840D01*
X145688209Y-72083697D02*
X145688209Y-72519126D01*
X145688209Y-72301411D02*
X146450209Y-72301411D01*
X146450209Y-72301411D02*
X146341352Y-72373983D01*
X146341352Y-72373983D02*
X146268780Y-72446554D01*
X146268780Y-72446554D02*
X146232495Y-72519126D01*
X140608209Y-73970554D02*
X141370209Y-73970554D01*
X141370209Y-73970554D02*
X141370209Y-73789125D01*
X141370209Y-73789125D02*
X141333923Y-73680268D01*
X141333923Y-73680268D02*
X141261352Y-73607697D01*
X141261352Y-73607697D02*
X141188780Y-73571411D01*
X141188780Y-73571411D02*
X141043637Y-73535125D01*
X141043637Y-73535125D02*
X140934780Y-73535125D01*
X140934780Y-73535125D02*
X140789637Y-73571411D01*
X140789637Y-73571411D02*
X140717066Y-73607697D01*
X140717066Y-73607697D02*
X140644495Y-73680268D01*
X140644495Y-73680268D02*
X140608209Y-73789125D01*
X140608209Y-73789125D02*
X140608209Y-73970554D01*
X140608209Y-72809411D02*
X140608209Y-73244840D01*
X140608209Y-73027125D02*
X141370209Y-73027125D01*
X141370209Y-73027125D02*
X141261352Y-73099697D01*
X141261352Y-73099697D02*
X141188780Y-73172268D01*
X141188780Y-73172268D02*
X141152495Y-73244840D01*
X141370209Y-72555411D02*
X141370209Y-72083697D01*
X141370209Y-72083697D02*
X141079923Y-72337697D01*
X141079923Y-72337697D02*
X141079923Y-72228840D01*
X141079923Y-72228840D02*
X141043637Y-72156269D01*
X141043637Y-72156269D02*
X141007352Y-72119983D01*
X141007352Y-72119983D02*
X140934780Y-72083697D01*
X140934780Y-72083697D02*
X140753352Y-72083697D01*
X140753352Y-72083697D02*
X140680780Y-72119983D01*
X140680780Y-72119983D02*
X140644495Y-72156269D01*
X140644495Y-72156269D02*
X140608209Y-72228840D01*
X140608209Y-72228840D02*
X140608209Y-72446554D01*
X140608209Y-72446554D02*
X140644495Y-72519126D01*
X140644495Y-72519126D02*
X140680780Y-72555411D01*
D13*
X162145979Y-82956189D02*
X162145979Y-82762665D01*
X162145979Y-82762665D02*
X162097598Y-82665903D01*
X162097598Y-82665903D02*
X162000836Y-82569141D01*
X162000836Y-82569141D02*
X161807312Y-82520760D01*
X161807312Y-82520760D02*
X161468645Y-82520760D01*
X161468645Y-82520760D02*
X161275121Y-82569141D01*
X161275121Y-82569141D02*
X161178360Y-82665903D01*
X161178360Y-82665903D02*
X161129979Y-82762665D01*
X161129979Y-82762665D02*
X161129979Y-82956189D01*
X161129979Y-82956189D02*
X161178360Y-83052951D01*
X161178360Y-83052951D02*
X161275121Y-83149713D01*
X161275121Y-83149713D02*
X161468645Y-83198094D01*
X161468645Y-83198094D02*
X161807312Y-83198094D01*
X161807312Y-83198094D02*
X162000836Y-83149713D01*
X162000836Y-83149713D02*
X162097598Y-83052951D01*
X162097598Y-83052951D02*
X162145979Y-82956189D01*
X161807312Y-81649903D02*
X161129979Y-81649903D01*
X161807312Y-82085332D02*
X161275121Y-82085332D01*
X161275121Y-82085332D02*
X161178360Y-82036951D01*
X161178360Y-82036951D02*
X161129979Y-81940189D01*
X161129979Y-81940189D02*
X161129979Y-81795046D01*
X161129979Y-81795046D02*
X161178360Y-81698284D01*
X161178360Y-81698284D02*
X161226740Y-81649903D01*
X161807312Y-81311237D02*
X161807312Y-80924189D01*
X162145979Y-81166094D02*
X161275121Y-81166094D01*
X161275121Y-81166094D02*
X161178360Y-81117713D01*
X161178360Y-81117713D02*
X161129979Y-81020951D01*
X161129979Y-81020951D02*
X161129979Y-80924189D01*
X161807312Y-80585523D02*
X160791312Y-80585523D01*
X161758931Y-80585523D02*
X161807312Y-80488761D01*
X161807312Y-80488761D02*
X161807312Y-80295237D01*
X161807312Y-80295237D02*
X161758931Y-80198475D01*
X161758931Y-80198475D02*
X161710550Y-80150094D01*
X161710550Y-80150094D02*
X161613788Y-80101713D01*
X161613788Y-80101713D02*
X161323502Y-80101713D01*
X161323502Y-80101713D02*
X161226740Y-80150094D01*
X161226740Y-80150094D02*
X161178360Y-80198475D01*
X161178360Y-80198475D02*
X161129979Y-80295237D01*
X161129979Y-80295237D02*
X161129979Y-80488761D01*
X161129979Y-80488761D02*
X161178360Y-80585523D01*
X161807312Y-79230856D02*
X161129979Y-79230856D01*
X161807312Y-79666285D02*
X161275121Y-79666285D01*
X161275121Y-79666285D02*
X161178360Y-79617904D01*
X161178360Y-79617904D02*
X161129979Y-79521142D01*
X161129979Y-79521142D02*
X161129979Y-79375999D01*
X161129979Y-79375999D02*
X161178360Y-79279237D01*
X161178360Y-79279237D02*
X161226740Y-79230856D01*
X161807312Y-78892190D02*
X161807312Y-78505142D01*
X162145979Y-78747047D02*
X161275121Y-78747047D01*
X161275121Y-78747047D02*
X161178360Y-78698666D01*
X161178360Y-78698666D02*
X161129979Y-78601904D01*
X161129979Y-78601904D02*
X161129979Y-78505142D01*
D11*
X138285923Y-89591554D02*
X138285923Y-89228697D01*
X138068209Y-89664125D02*
X138830209Y-89410125D01*
X138830209Y-89410125D02*
X138068209Y-89156125D01*
X138757637Y-88938411D02*
X138793923Y-88902125D01*
X138793923Y-88902125D02*
X138830209Y-88829554D01*
X138830209Y-88829554D02*
X138830209Y-88648125D01*
X138830209Y-88648125D02*
X138793923Y-88575554D01*
X138793923Y-88575554D02*
X138757637Y-88539268D01*
X138757637Y-88539268D02*
X138685066Y-88502982D01*
X138685066Y-88502982D02*
X138612495Y-88502982D01*
X138612495Y-88502982D02*
X138503637Y-88539268D01*
X138503637Y-88539268D02*
X138068209Y-88974696D01*
X138068209Y-88974696D02*
X138068209Y-88502982D01*
X133387352Y-73353697D02*
X133351066Y-73244840D01*
X133351066Y-73244840D02*
X133314780Y-73208554D01*
X133314780Y-73208554D02*
X133242209Y-73172268D01*
X133242209Y-73172268D02*
X133133352Y-73172268D01*
X133133352Y-73172268D02*
X133060780Y-73208554D01*
X133060780Y-73208554D02*
X133024495Y-73244840D01*
X133024495Y-73244840D02*
X132988209Y-73317411D01*
X132988209Y-73317411D02*
X132988209Y-73607697D01*
X132988209Y-73607697D02*
X133750209Y-73607697D01*
X133750209Y-73607697D02*
X133750209Y-73353697D01*
X133750209Y-73353697D02*
X133713923Y-73281126D01*
X133713923Y-73281126D02*
X133677637Y-73244840D01*
X133677637Y-73244840D02*
X133605066Y-73208554D01*
X133605066Y-73208554D02*
X133532495Y-73208554D01*
X133532495Y-73208554D02*
X133459923Y-73244840D01*
X133459923Y-73244840D02*
X133423637Y-73281126D01*
X133423637Y-73281126D02*
X133387352Y-73353697D01*
X133387352Y-73353697D02*
X133387352Y-73607697D01*
X133205923Y-72881983D02*
X133205923Y-72519126D01*
X132988209Y-72954554D02*
X133750209Y-72700554D01*
X133750209Y-72700554D02*
X132988209Y-72446554D01*
X133750209Y-72301411D02*
X133750209Y-71865983D01*
X132988209Y-72083697D02*
X133750209Y-72083697D01*
X143365923Y-89591554D02*
X143365923Y-89228697D01*
X143148209Y-89664125D02*
X143910209Y-89410125D01*
X143910209Y-89410125D02*
X143148209Y-89156125D01*
X143656209Y-88575554D02*
X143148209Y-88575554D01*
X143946495Y-88756982D02*
X143402209Y-88938411D01*
X143402209Y-88938411D02*
X143402209Y-88466696D01*
X153308209Y-89482697D02*
X154070209Y-89482697D01*
X154070209Y-89482697D02*
X153525923Y-89228697D01*
X153525923Y-89228697D02*
X154070209Y-88974697D01*
X154070209Y-88974697D02*
X153308209Y-88974697D01*
X153308209Y-88611840D02*
X154070209Y-88611840D01*
X129144285Y-87034801D02*
X128781428Y-87034801D01*
X129216856Y-87252515D02*
X128962856Y-86490515D01*
X128962856Y-86490515D02*
X128708856Y-87252515D01*
X128128285Y-86744515D02*
X128128285Y-87252515D01*
X128309713Y-86454230D02*
X128491142Y-86998515D01*
X128491142Y-86998515D02*
X128019427Y-86998515D01*
X129258582Y-77152515D02*
X129258582Y-76390515D01*
X128895725Y-76644515D02*
X128895725Y-77152515D01*
X128895725Y-76717087D02*
X128859439Y-76680801D01*
X128859439Y-76680801D02*
X128786868Y-76644515D01*
X128786868Y-76644515D02*
X128678011Y-76644515D01*
X128678011Y-76644515D02*
X128605439Y-76680801D01*
X128605439Y-76680801D02*
X128569154Y-76753372D01*
X128569154Y-76753372D02*
X128569154Y-77152515D01*
X128206296Y-76644515D02*
X128206296Y-77406515D01*
X128206296Y-76680801D02*
X128133725Y-76644515D01*
X128133725Y-76644515D02*
X127988582Y-76644515D01*
X127988582Y-76644515D02*
X127916010Y-76680801D01*
X127916010Y-76680801D02*
X127879725Y-76717087D01*
X127879725Y-76717087D02*
X127843439Y-76789658D01*
X127843439Y-76789658D02*
X127843439Y-77007372D01*
X127843439Y-77007372D02*
X127879725Y-77079944D01*
X127879725Y-77079944D02*
X127916010Y-77116230D01*
X127916010Y-77116230D02*
X127988582Y-77152515D01*
X127988582Y-77152515D02*
X128133725Y-77152515D01*
X128133725Y-77152515D02*
X128206296Y-77116230D01*
X127190296Y-76644515D02*
X127190296Y-77152515D01*
X127516867Y-76644515D02*
X127516867Y-77043658D01*
X127516867Y-77043658D02*
X127480581Y-77116230D01*
X127480581Y-77116230D02*
X127408010Y-77152515D01*
X127408010Y-77152515D02*
X127299153Y-77152515D01*
X127299153Y-77152515D02*
X127226581Y-77116230D01*
X127226581Y-77116230D02*
X127190296Y-77079944D01*
X126936295Y-76644515D02*
X126646009Y-76644515D01*
X126827438Y-76390515D02*
X126827438Y-77043658D01*
X126827438Y-77043658D02*
X126791152Y-77116230D01*
X126791152Y-77116230D02*
X126718581Y-77152515D01*
X126718581Y-77152515D02*
X126646009Y-77152515D01*
X135927352Y-73099697D02*
X135927352Y-72845697D01*
X135528209Y-72736840D02*
X135528209Y-73099697D01*
X135528209Y-73099697D02*
X136290209Y-73099697D01*
X136290209Y-73099697D02*
X136290209Y-72736840D01*
X135528209Y-72410268D02*
X136290209Y-72410268D01*
X136290209Y-72410268D02*
X135528209Y-71974839D01*
X135528209Y-71974839D02*
X136290209Y-71974839D01*
X160964495Y-73970554D02*
X160928209Y-73861697D01*
X160928209Y-73861697D02*
X160928209Y-73680268D01*
X160928209Y-73680268D02*
X160964495Y-73607697D01*
X160964495Y-73607697D02*
X161000780Y-73571411D01*
X161000780Y-73571411D02*
X161073352Y-73535125D01*
X161073352Y-73535125D02*
X161145923Y-73535125D01*
X161145923Y-73535125D02*
X161218495Y-73571411D01*
X161218495Y-73571411D02*
X161254780Y-73607697D01*
X161254780Y-73607697D02*
X161291066Y-73680268D01*
X161291066Y-73680268D02*
X161327352Y-73825411D01*
X161327352Y-73825411D02*
X161363637Y-73897982D01*
X161363637Y-73897982D02*
X161399923Y-73934268D01*
X161399923Y-73934268D02*
X161472495Y-73970554D01*
X161472495Y-73970554D02*
X161545066Y-73970554D01*
X161545066Y-73970554D02*
X161617637Y-73934268D01*
X161617637Y-73934268D02*
X161653923Y-73897982D01*
X161653923Y-73897982D02*
X161690209Y-73825411D01*
X161690209Y-73825411D02*
X161690209Y-73643982D01*
X161690209Y-73643982D02*
X161653923Y-73535125D01*
X160928209Y-73208554D02*
X161690209Y-73208554D01*
X161690209Y-73208554D02*
X161690209Y-73027125D01*
X161690209Y-73027125D02*
X161653923Y-72918268D01*
X161653923Y-72918268D02*
X161581352Y-72845697D01*
X161581352Y-72845697D02*
X161508780Y-72809411D01*
X161508780Y-72809411D02*
X161363637Y-72773125D01*
X161363637Y-72773125D02*
X161254780Y-72773125D01*
X161254780Y-72773125D02*
X161109637Y-72809411D01*
X161109637Y-72809411D02*
X161037066Y-72845697D01*
X161037066Y-72845697D02*
X160964495Y-72918268D01*
X160964495Y-72918268D02*
X160928209Y-73027125D01*
X160928209Y-73027125D02*
X160928209Y-73208554D01*
X161145923Y-72482840D02*
X161145923Y-72119983D01*
X160928209Y-72555411D02*
X161690209Y-72301411D01*
X161690209Y-72301411D02*
X160928209Y-72047411D01*
D13*
X124070020Y-80671048D02*
X124070020Y-80090476D01*
X124070020Y-80380762D02*
X123054020Y-80380762D01*
X123054020Y-80380762D02*
X123199163Y-80284000D01*
X123199163Y-80284000D02*
X123295925Y-80187238D01*
X123295925Y-80187238D02*
X123344306Y-80090476D01*
X123150782Y-81058095D02*
X123102401Y-81106476D01*
X123102401Y-81106476D02*
X123054020Y-81203238D01*
X123054020Y-81203238D02*
X123054020Y-81445143D01*
X123054020Y-81445143D02*
X123102401Y-81541905D01*
X123102401Y-81541905D02*
X123150782Y-81590286D01*
X123150782Y-81590286D02*
X123247544Y-81638667D01*
X123247544Y-81638667D02*
X123344306Y-81638667D01*
X123344306Y-81638667D02*
X123489449Y-81590286D01*
X123489449Y-81590286D02*
X124070020Y-81009714D01*
X124070020Y-81009714D02*
X124070020Y-81638667D01*
X123054020Y-81928952D02*
X124070020Y-82267619D01*
X124070020Y-82267619D02*
X123054020Y-82606286D01*
D11*
X129225285Y-84852515D02*
X129225285Y-84090515D01*
X129225285Y-84090515D02*
X129043856Y-84090515D01*
X129043856Y-84090515D02*
X128934999Y-84126801D01*
X128934999Y-84126801D02*
X128862428Y-84199372D01*
X128862428Y-84199372D02*
X128826142Y-84271944D01*
X128826142Y-84271944D02*
X128789856Y-84417087D01*
X128789856Y-84417087D02*
X128789856Y-84525944D01*
X128789856Y-84525944D02*
X128826142Y-84671087D01*
X128826142Y-84671087D02*
X128862428Y-84743658D01*
X128862428Y-84743658D02*
X128934999Y-84816230D01*
X128934999Y-84816230D02*
X129043856Y-84852515D01*
X129043856Y-84852515D02*
X129225285Y-84852515D01*
X128064142Y-84852515D02*
X128499571Y-84852515D01*
X128281856Y-84852515D02*
X128281856Y-84090515D01*
X128281856Y-84090515D02*
X128354428Y-84199372D01*
X128354428Y-84199372D02*
X128426999Y-84271944D01*
X128426999Y-84271944D02*
X128499571Y-84308230D01*
X127773857Y-84163087D02*
X127737571Y-84126801D01*
X127737571Y-84126801D02*
X127665000Y-84090515D01*
X127665000Y-84090515D02*
X127483571Y-84090515D01*
X127483571Y-84090515D02*
X127411000Y-84126801D01*
X127411000Y-84126801D02*
X127374714Y-84163087D01*
X127374714Y-84163087D02*
X127338428Y-84235658D01*
X127338428Y-84235658D02*
X127338428Y-84308230D01*
X127338428Y-84308230D02*
X127374714Y-84417087D01*
X127374714Y-84417087D02*
X127810142Y-84852515D01*
X127810142Y-84852515D02*
X127338428Y-84852515D01*
X162198209Y-89845555D02*
X162960209Y-89845555D01*
X162960209Y-89845555D02*
X162960209Y-89664126D01*
X162960209Y-89664126D02*
X162923923Y-89555269D01*
X162923923Y-89555269D02*
X162851352Y-89482698D01*
X162851352Y-89482698D02*
X162778780Y-89446412D01*
X162778780Y-89446412D02*
X162633637Y-89410126D01*
X162633637Y-89410126D02*
X162524780Y-89410126D01*
X162524780Y-89410126D02*
X162379637Y-89446412D01*
X162379637Y-89446412D02*
X162307066Y-89482698D01*
X162307066Y-89482698D02*
X162234495Y-89555269D01*
X162234495Y-89555269D02*
X162198209Y-89664126D01*
X162198209Y-89664126D02*
X162198209Y-89845555D01*
X162234495Y-88793269D02*
X162198209Y-88865841D01*
X162198209Y-88865841D02*
X162198209Y-89010984D01*
X162198209Y-89010984D02*
X162234495Y-89083555D01*
X162234495Y-89083555D02*
X162307066Y-89119841D01*
X162307066Y-89119841D02*
X162597352Y-89119841D01*
X162597352Y-89119841D02*
X162669923Y-89083555D01*
X162669923Y-89083555D02*
X162706209Y-89010984D01*
X162706209Y-89010984D02*
X162706209Y-88865841D01*
X162706209Y-88865841D02*
X162669923Y-88793269D01*
X162669923Y-88793269D02*
X162597352Y-88756984D01*
X162597352Y-88756984D02*
X162524780Y-88756984D01*
X162524780Y-88756984D02*
X162452209Y-89119841D01*
X162198209Y-88430412D02*
X162960209Y-88430412D01*
X162669923Y-88430412D02*
X162706209Y-88357841D01*
X162706209Y-88357841D02*
X162706209Y-88212698D01*
X162706209Y-88212698D02*
X162669923Y-88140126D01*
X162669923Y-88140126D02*
X162633637Y-88103841D01*
X162633637Y-88103841D02*
X162561066Y-88067555D01*
X162561066Y-88067555D02*
X162343352Y-88067555D01*
X162343352Y-88067555D02*
X162270780Y-88103841D01*
X162270780Y-88103841D02*
X162234495Y-88140126D01*
X162234495Y-88140126D02*
X162198209Y-88212698D01*
X162198209Y-88212698D02*
X162198209Y-88357841D01*
X162198209Y-88357841D02*
X162234495Y-88430412D01*
X162706209Y-87414412D02*
X162198209Y-87414412D01*
X162706209Y-87740983D02*
X162307066Y-87740983D01*
X162307066Y-87740983D02*
X162234495Y-87704697D01*
X162234495Y-87704697D02*
X162198209Y-87632126D01*
X162198209Y-87632126D02*
X162198209Y-87523269D01*
X162198209Y-87523269D02*
X162234495Y-87450697D01*
X162234495Y-87450697D02*
X162270780Y-87414412D01*
X162706209Y-86724983D02*
X162089352Y-86724983D01*
X162089352Y-86724983D02*
X162016780Y-86761268D01*
X162016780Y-86761268D02*
X161980495Y-86797554D01*
X161980495Y-86797554D02*
X161944209Y-86870125D01*
X161944209Y-86870125D02*
X161944209Y-86978983D01*
X161944209Y-86978983D02*
X161980495Y-87051554D01*
X162234495Y-86724983D02*
X162198209Y-86797554D01*
X162198209Y-86797554D02*
X162198209Y-86942697D01*
X162198209Y-86942697D02*
X162234495Y-87015268D01*
X162234495Y-87015268D02*
X162270780Y-87051554D01*
X162270780Y-87051554D02*
X162343352Y-87087840D01*
X162343352Y-87087840D02*
X162561066Y-87087840D01*
X162561066Y-87087840D02*
X162633637Y-87051554D01*
X162633637Y-87051554D02*
X162669923Y-87015268D01*
X162669923Y-87015268D02*
X162706209Y-86942697D01*
X162706209Y-86942697D02*
X162706209Y-86797554D01*
X162706209Y-86797554D02*
X162669923Y-86724983D01*
X145905923Y-89591554D02*
X145905923Y-89228697D01*
X145688209Y-89664125D02*
X146450209Y-89410125D01*
X146450209Y-89410125D02*
X145688209Y-89156125D01*
X146450209Y-88539268D02*
X146450209Y-88902125D01*
X146450209Y-88902125D02*
X146087352Y-88938411D01*
X146087352Y-88938411D02*
X146123637Y-88902125D01*
X146123637Y-88902125D02*
X146159923Y-88829554D01*
X146159923Y-88829554D02*
X146159923Y-88648125D01*
X146159923Y-88648125D02*
X146123637Y-88575554D01*
X146123637Y-88575554D02*
X146087352Y-88539268D01*
X146087352Y-88539268D02*
X146014780Y-88502982D01*
X146014780Y-88502982D02*
X145833352Y-88502982D01*
X145833352Y-88502982D02*
X145760780Y-88539268D01*
X145760780Y-88539268D02*
X145724495Y-88575554D01*
X145724495Y-88575554D02*
X145688209Y-88648125D01*
X145688209Y-88648125D02*
X145688209Y-88829554D01*
X145688209Y-88829554D02*
X145724495Y-88902125D01*
X145724495Y-88902125D02*
X145760780Y-88938411D01*
X155848209Y-73353697D02*
X156610209Y-73353697D01*
X156610209Y-73353697D02*
X156610209Y-73172268D01*
X156610209Y-73172268D02*
X156573923Y-73063411D01*
X156573923Y-73063411D02*
X156501352Y-72990840D01*
X156501352Y-72990840D02*
X156428780Y-72954554D01*
X156428780Y-72954554D02*
X156283637Y-72918268D01*
X156283637Y-72918268D02*
X156174780Y-72918268D01*
X156174780Y-72918268D02*
X156029637Y-72954554D01*
X156029637Y-72954554D02*
X155957066Y-72990840D01*
X155957066Y-72990840D02*
X155884495Y-73063411D01*
X155884495Y-73063411D02*
X155848209Y-73172268D01*
X155848209Y-73172268D02*
X155848209Y-73353697D01*
X156610209Y-72228840D02*
X156610209Y-72591697D01*
X156610209Y-72591697D02*
X156247352Y-72627983D01*
X156247352Y-72627983D02*
X156283637Y-72591697D01*
X156283637Y-72591697D02*
X156319923Y-72519126D01*
X156319923Y-72519126D02*
X156319923Y-72337697D01*
X156319923Y-72337697D02*
X156283637Y-72265126D01*
X156283637Y-72265126D02*
X156247352Y-72228840D01*
X156247352Y-72228840D02*
X156174780Y-72192554D01*
X156174780Y-72192554D02*
X155993352Y-72192554D01*
X155993352Y-72192554D02*
X155920780Y-72228840D01*
X155920780Y-72228840D02*
X155884495Y-72265126D01*
X155884495Y-72265126D02*
X155848209Y-72337697D01*
X155848209Y-72337697D02*
X155848209Y-72519126D01*
X155848209Y-72519126D02*
X155884495Y-72591697D01*
X155884495Y-72591697D02*
X155920780Y-72627983D01*
X133205923Y-89591554D02*
X133205923Y-89228697D01*
X132988209Y-89664125D02*
X133750209Y-89410125D01*
X133750209Y-89410125D02*
X132988209Y-89156125D01*
X133750209Y-88756982D02*
X133750209Y-88684411D01*
X133750209Y-88684411D02*
X133713923Y-88611839D01*
X133713923Y-88611839D02*
X133677637Y-88575554D01*
X133677637Y-88575554D02*
X133605066Y-88539268D01*
X133605066Y-88539268D02*
X133459923Y-88502982D01*
X133459923Y-88502982D02*
X133278495Y-88502982D01*
X133278495Y-88502982D02*
X133133352Y-88539268D01*
X133133352Y-88539268D02*
X133060780Y-88575554D01*
X133060780Y-88575554D02*
X133024495Y-88611839D01*
X133024495Y-88611839D02*
X132988209Y-88684411D01*
X132988209Y-88684411D02*
X132988209Y-88756982D01*
X132988209Y-88756982D02*
X133024495Y-88829554D01*
X133024495Y-88829554D02*
X133060780Y-88865839D01*
X133060780Y-88865839D02*
X133133352Y-88902125D01*
X133133352Y-88902125D02*
X133278495Y-88938411D01*
X133278495Y-88938411D02*
X133459923Y-88938411D01*
X133459923Y-88938411D02*
X133605066Y-88902125D01*
X133605066Y-88902125D02*
X133677637Y-88865839D01*
X133677637Y-88865839D02*
X133713923Y-88829554D01*
X133713923Y-88829554D02*
X133750209Y-88756982D01*
D12*
X118524460Y-82419429D02*
X118524460Y-83580572D01*
X119105031Y-83000000D02*
X117943888Y-83000000D01*
D11*
X161690209Y-89627839D02*
X161690209Y-89192411D01*
X160928209Y-89410125D02*
X161690209Y-89410125D01*
X161690209Y-89010982D02*
X160928209Y-88502982D01*
X161690209Y-88502982D02*
X160928209Y-89010982D01*
X160588142Y-75573295D02*
X160442999Y-75573295D01*
X160442999Y-75573295D02*
X160370428Y-75609581D01*
X160370428Y-75609581D02*
X160297856Y-75682152D01*
X160297856Y-75682152D02*
X160261571Y-75827295D01*
X160261571Y-75827295D02*
X160261571Y-76081295D01*
X160261571Y-76081295D02*
X160297856Y-76226438D01*
X160297856Y-76226438D02*
X160370428Y-76299010D01*
X160370428Y-76299010D02*
X160442999Y-76335295D01*
X160442999Y-76335295D02*
X160588142Y-76335295D01*
X160588142Y-76335295D02*
X160660714Y-76299010D01*
X160660714Y-76299010D02*
X160733285Y-76226438D01*
X160733285Y-76226438D02*
X160769571Y-76081295D01*
X160769571Y-76081295D02*
X160769571Y-75827295D01*
X160769571Y-75827295D02*
X160733285Y-75682152D01*
X160733285Y-75682152D02*
X160660714Y-75609581D01*
X160660714Y-75609581D02*
X160588142Y-75573295D01*
X159608428Y-75827295D02*
X159608428Y-76335295D01*
X159934999Y-75827295D02*
X159934999Y-76226438D01*
X159934999Y-76226438D02*
X159898713Y-76299010D01*
X159898713Y-76299010D02*
X159826142Y-76335295D01*
X159826142Y-76335295D02*
X159717285Y-76335295D01*
X159717285Y-76335295D02*
X159644713Y-76299010D01*
X159644713Y-76299010D02*
X159608428Y-76262724D01*
X159354427Y-75827295D02*
X159064141Y-75827295D01*
X159245570Y-75573295D02*
X159245570Y-76226438D01*
X159245570Y-76226438D02*
X159209284Y-76299010D01*
X159209284Y-76299010D02*
X159136713Y-76335295D01*
X159136713Y-76335295D02*
X159064141Y-76335295D01*
X157830427Y-76335295D02*
X158265856Y-76335295D01*
X158048141Y-76335295D02*
X158048141Y-75573295D01*
X158048141Y-75573295D02*
X158120713Y-75682152D01*
X158120713Y-75682152D02*
X158193284Y-75754724D01*
X158193284Y-75754724D02*
X158265856Y-75791010D01*
X159898713Y-76807735D02*
X159463285Y-76807735D01*
X159680999Y-77569735D02*
X159680999Y-76807735D01*
X159209285Y-77569735D02*
X159209285Y-76807735D01*
X159209285Y-76807735D02*
X158918999Y-76807735D01*
X158918999Y-76807735D02*
X158846428Y-76844021D01*
X158846428Y-76844021D02*
X158810142Y-76880307D01*
X158810142Y-76880307D02*
X158773856Y-76952878D01*
X158773856Y-76952878D02*
X158773856Y-77061735D01*
X158773856Y-77061735D02*
X158810142Y-77134307D01*
X158810142Y-77134307D02*
X158846428Y-77170592D01*
X158846428Y-77170592D02*
X158918999Y-77206878D01*
X158918999Y-77206878D02*
X159209285Y-77206878D01*
X122828209Y-89210553D02*
X123191066Y-89464553D01*
X122828209Y-89645982D02*
X123590209Y-89645982D01*
X123590209Y-89645982D02*
X123590209Y-89355696D01*
X123590209Y-89355696D02*
X123553923Y-89283125D01*
X123553923Y-89283125D02*
X123517637Y-89246839D01*
X123517637Y-89246839D02*
X123445066Y-89210553D01*
X123445066Y-89210553D02*
X123336209Y-89210553D01*
X123336209Y-89210553D02*
X123263637Y-89246839D01*
X123263637Y-89246839D02*
X123227352Y-89283125D01*
X123227352Y-89283125D02*
X123191066Y-89355696D01*
X123191066Y-89355696D02*
X123191066Y-89645982D01*
X122864495Y-88920268D02*
X122828209Y-88811411D01*
X122828209Y-88811411D02*
X122828209Y-88629982D01*
X122828209Y-88629982D02*
X122864495Y-88557411D01*
X122864495Y-88557411D02*
X122900780Y-88521125D01*
X122900780Y-88521125D02*
X122973352Y-88484839D01*
X122973352Y-88484839D02*
X123045923Y-88484839D01*
X123045923Y-88484839D02*
X123118495Y-88521125D01*
X123118495Y-88521125D02*
X123154780Y-88557411D01*
X123154780Y-88557411D02*
X123191066Y-88629982D01*
X123191066Y-88629982D02*
X123227352Y-88775125D01*
X123227352Y-88775125D02*
X123263637Y-88847696D01*
X123263637Y-88847696D02*
X123299923Y-88883982D01*
X123299923Y-88883982D02*
X123372495Y-88920268D01*
X123372495Y-88920268D02*
X123445066Y-88920268D01*
X123445066Y-88920268D02*
X123517637Y-88883982D01*
X123517637Y-88883982D02*
X123553923Y-88847696D01*
X123553923Y-88847696D02*
X123590209Y-88775125D01*
X123590209Y-88775125D02*
X123590209Y-88593696D01*
X123590209Y-88593696D02*
X123553923Y-88484839D01*
X123590209Y-88267125D02*
X123590209Y-87831697D01*
X122828209Y-88049411D02*
X123590209Y-88049411D01*
D12*
X166673825Y-84835428D02*
X166746397Y-84762856D01*
X166746397Y-84762856D02*
X166818968Y-84617714D01*
X166818968Y-84617714D02*
X166818968Y-84254856D01*
X166818968Y-84254856D02*
X166746397Y-84109714D01*
X166746397Y-84109714D02*
X166673825Y-84037142D01*
X166673825Y-84037142D02*
X166528682Y-83964571D01*
X166528682Y-83964571D02*
X166383540Y-83964571D01*
X166383540Y-83964571D02*
X166165825Y-84037142D01*
X166165825Y-84037142D02*
X165294968Y-84907999D01*
X165294968Y-84907999D02*
X165294968Y-83964571D01*
D11*
X139025285Y-84852515D02*
X139025285Y-84090515D01*
X139025285Y-84090515D02*
X138843856Y-84090515D01*
X138843856Y-84090515D02*
X138734999Y-84126801D01*
X138734999Y-84126801D02*
X138662428Y-84199372D01*
X138662428Y-84199372D02*
X138626142Y-84271944D01*
X138626142Y-84271944D02*
X138589856Y-84417087D01*
X138589856Y-84417087D02*
X138589856Y-84525944D01*
X138589856Y-84525944D02*
X138626142Y-84671087D01*
X138626142Y-84671087D02*
X138662428Y-84743658D01*
X138662428Y-84743658D02*
X138734999Y-84816230D01*
X138734999Y-84816230D02*
X138843856Y-84852515D01*
X138843856Y-84852515D02*
X139025285Y-84852515D01*
X137864142Y-84852515D02*
X138299571Y-84852515D01*
X138081856Y-84852515D02*
X138081856Y-84090515D01*
X138081856Y-84090515D02*
X138154428Y-84199372D01*
X138154428Y-84199372D02*
X138226999Y-84271944D01*
X138226999Y-84271944D02*
X138299571Y-84308230D01*
X137138428Y-84852515D02*
X137573857Y-84852515D01*
X137356142Y-84852515D02*
X137356142Y-84090515D01*
X137356142Y-84090515D02*
X137428714Y-84199372D01*
X137428714Y-84199372D02*
X137501285Y-84271944D01*
X137501285Y-84271944D02*
X137573857Y-84308230D01*
X153234141Y-85352515D02*
X153488141Y-84989658D01*
X153669570Y-85352515D02*
X153669570Y-84590515D01*
X153669570Y-84590515D02*
X153379284Y-84590515D01*
X153379284Y-84590515D02*
X153306713Y-84626801D01*
X153306713Y-84626801D02*
X153270427Y-84663087D01*
X153270427Y-84663087D02*
X153234141Y-84735658D01*
X153234141Y-84735658D02*
X153234141Y-84844515D01*
X153234141Y-84844515D02*
X153270427Y-84917087D01*
X153270427Y-84917087D02*
X153306713Y-84953372D01*
X153306713Y-84953372D02*
X153379284Y-84989658D01*
X153379284Y-84989658D02*
X153669570Y-84989658D01*
X152617284Y-85316230D02*
X152689856Y-85352515D01*
X152689856Y-85352515D02*
X152834999Y-85352515D01*
X152834999Y-85352515D02*
X152907570Y-85316230D01*
X152907570Y-85316230D02*
X152943856Y-85243658D01*
X152943856Y-85243658D02*
X152943856Y-84953372D01*
X152943856Y-84953372D02*
X152907570Y-84880801D01*
X152907570Y-84880801D02*
X152834999Y-84844515D01*
X152834999Y-84844515D02*
X152689856Y-84844515D01*
X152689856Y-84844515D02*
X152617284Y-84880801D01*
X152617284Y-84880801D02*
X152580999Y-84953372D01*
X152580999Y-84953372D02*
X152580999Y-85025944D01*
X152580999Y-85025944D02*
X152943856Y-85098515D01*
X152326998Y-84844515D02*
X152145570Y-85352515D01*
X152145570Y-85352515D02*
X151964141Y-84844515D01*
X151129571Y-84663087D02*
X151093285Y-84626801D01*
X151093285Y-84626801D02*
X151020714Y-84590515D01*
X151020714Y-84590515D02*
X150839285Y-84590515D01*
X150839285Y-84590515D02*
X150766714Y-84626801D01*
X150766714Y-84626801D02*
X150730428Y-84663087D01*
X150730428Y-84663087D02*
X150694142Y-84735658D01*
X150694142Y-84735658D02*
X150694142Y-84808230D01*
X150694142Y-84808230D02*
X150730428Y-84917087D01*
X150730428Y-84917087D02*
X151165856Y-85352515D01*
X151165856Y-85352515D02*
X150694142Y-85352515D01*
X128670209Y-89627839D02*
X128670209Y-89156125D01*
X128670209Y-89156125D02*
X128379923Y-89410125D01*
X128379923Y-89410125D02*
X128379923Y-89301268D01*
X128379923Y-89301268D02*
X128343637Y-89228697D01*
X128343637Y-89228697D02*
X128307352Y-89192411D01*
X128307352Y-89192411D02*
X128234780Y-89156125D01*
X128234780Y-89156125D02*
X128053352Y-89156125D01*
X128053352Y-89156125D02*
X127980780Y-89192411D01*
X127980780Y-89192411D02*
X127944495Y-89228697D01*
X127944495Y-89228697D02*
X127908209Y-89301268D01*
X127908209Y-89301268D02*
X127908209Y-89518982D01*
X127908209Y-89518982D02*
X127944495Y-89591554D01*
X127944495Y-89591554D02*
X127980780Y-89627839D01*
X128670209Y-88938411D02*
X127908209Y-88684411D01*
X127908209Y-88684411D02*
X128670209Y-88430411D01*
D14*
X160338095Y-79926880D02*
X160338095Y-78826880D01*
X160338095Y-78826880D02*
X159971428Y-79612595D01*
X159971428Y-79612595D02*
X159604761Y-78826880D01*
X159604761Y-78826880D02*
X159604761Y-79926880D01*
X159080952Y-79926880D02*
X159080952Y-79193547D01*
X159080952Y-78826880D02*
X159133333Y-78879261D01*
X159133333Y-78879261D02*
X159080952Y-78931642D01*
X159080952Y-78931642D02*
X159028571Y-78879261D01*
X159028571Y-78879261D02*
X159080952Y-78826880D01*
X159080952Y-78826880D02*
X159080952Y-78931642D01*
X158557142Y-79193547D02*
X158557142Y-79926880D01*
X158557142Y-79298309D02*
X158504761Y-79245928D01*
X158504761Y-79245928D02*
X158399999Y-79193547D01*
X158399999Y-79193547D02*
X158242856Y-79193547D01*
X158242856Y-79193547D02*
X158138094Y-79245928D01*
X158138094Y-79245928D02*
X158085713Y-79350690D01*
X158085713Y-79350690D02*
X158085713Y-79926880D01*
X157561904Y-79926880D02*
X157561904Y-79193547D01*
X157561904Y-78826880D02*
X157614285Y-78879261D01*
X157614285Y-78879261D02*
X157561904Y-78931642D01*
X157561904Y-78931642D02*
X157509523Y-78879261D01*
X157509523Y-78879261D02*
X157561904Y-78826880D01*
X157561904Y-78826880D02*
X157561904Y-78931642D01*
X157090475Y-79874500D02*
X156933332Y-79926880D01*
X156933332Y-79926880D02*
X156671427Y-79926880D01*
X156671427Y-79926880D02*
X156566665Y-79874500D01*
X156566665Y-79874500D02*
X156514284Y-79822119D01*
X156514284Y-79822119D02*
X156461903Y-79717357D01*
X156461903Y-79717357D02*
X156461903Y-79612595D01*
X156461903Y-79612595D02*
X156514284Y-79507833D01*
X156514284Y-79507833D02*
X156566665Y-79455452D01*
X156566665Y-79455452D02*
X156671427Y-79403071D01*
X156671427Y-79403071D02*
X156880951Y-79350690D01*
X156880951Y-79350690D02*
X156985713Y-79298309D01*
X156985713Y-79298309D02*
X157038094Y-79245928D01*
X157038094Y-79245928D02*
X157090475Y-79141166D01*
X157090475Y-79141166D02*
X157090475Y-79036404D01*
X157090475Y-79036404D02*
X157038094Y-78931642D01*
X157038094Y-78931642D02*
X156985713Y-78879261D01*
X156985713Y-78879261D02*
X156880951Y-78826880D01*
X156880951Y-78826880D02*
X156619046Y-78826880D01*
X156619046Y-78826880D02*
X156461903Y-78879261D01*
X156042856Y-79874500D02*
X155885713Y-79926880D01*
X155885713Y-79926880D02*
X155623808Y-79926880D01*
X155623808Y-79926880D02*
X155519046Y-79874500D01*
X155519046Y-79874500D02*
X155466665Y-79822119D01*
X155466665Y-79822119D02*
X155414284Y-79717357D01*
X155414284Y-79717357D02*
X155414284Y-79612595D01*
X155414284Y-79612595D02*
X155466665Y-79507833D01*
X155466665Y-79507833D02*
X155519046Y-79455452D01*
X155519046Y-79455452D02*
X155623808Y-79403071D01*
X155623808Y-79403071D02*
X155833332Y-79350690D01*
X155833332Y-79350690D02*
X155938094Y-79298309D01*
X155938094Y-79298309D02*
X155990475Y-79245928D01*
X155990475Y-79245928D02*
X156042856Y-79141166D01*
X156042856Y-79141166D02*
X156042856Y-79036404D01*
X156042856Y-79036404D02*
X155990475Y-78931642D01*
X155990475Y-78931642D02*
X155938094Y-78879261D01*
X155938094Y-78879261D02*
X155833332Y-78826880D01*
X155833332Y-78826880D02*
X155571427Y-78826880D01*
X155571427Y-78826880D02*
X155414284Y-78879261D01*
X154733332Y-78826880D02*
X154523808Y-78826880D01*
X154523808Y-78826880D02*
X154419046Y-78879261D01*
X154419046Y-78879261D02*
X154314284Y-78984023D01*
X154314284Y-78984023D02*
X154261903Y-79193547D01*
X154261903Y-79193547D02*
X154261903Y-79560214D01*
X154261903Y-79560214D02*
X154314284Y-79769738D01*
X154314284Y-79769738D02*
X154419046Y-79874500D01*
X154419046Y-79874500D02*
X154523808Y-79926880D01*
X154523808Y-79926880D02*
X154733332Y-79926880D01*
X154733332Y-79926880D02*
X154838094Y-79874500D01*
X154838094Y-79874500D02*
X154942856Y-79769738D01*
X154942856Y-79769738D02*
X154995237Y-79560214D01*
X154995237Y-79560214D02*
X154995237Y-79193547D01*
X154995237Y-79193547D02*
X154942856Y-78984023D01*
X154942856Y-78984023D02*
X154838094Y-78879261D01*
X154838094Y-78879261D02*
X154733332Y-78826880D01*
X160390476Y-80713642D02*
X160338095Y-80661261D01*
X160338095Y-80661261D02*
X160233333Y-80608880D01*
X160233333Y-80608880D02*
X159971428Y-80608880D01*
X159971428Y-80608880D02*
X159866666Y-80661261D01*
X159866666Y-80661261D02*
X159814285Y-80713642D01*
X159814285Y-80713642D02*
X159761904Y-80818404D01*
X159761904Y-80818404D02*
X159761904Y-80923166D01*
X159761904Y-80923166D02*
X159814285Y-81080309D01*
X159814285Y-81080309D02*
X160442857Y-81708880D01*
X160442857Y-81708880D02*
X159761904Y-81708880D01*
X157876190Y-81708880D02*
X158504762Y-81708880D01*
X158190476Y-81708880D02*
X158190476Y-80608880D01*
X158190476Y-80608880D02*
X158295238Y-80766023D01*
X158295238Y-80766023D02*
X158400000Y-80870785D01*
X158400000Y-80870785D02*
X158504762Y-80923166D01*
X157404762Y-81604119D02*
X157352381Y-81656500D01*
X157352381Y-81656500D02*
X157404762Y-81708880D01*
X157404762Y-81708880D02*
X157457143Y-81656500D01*
X157457143Y-81656500D02*
X157404762Y-81604119D01*
X157404762Y-81604119D02*
X157404762Y-81708880D01*
X156357142Y-80608880D02*
X156880952Y-80608880D01*
X156880952Y-80608880D02*
X156933333Y-81132690D01*
X156933333Y-81132690D02*
X156880952Y-81080309D01*
X156880952Y-81080309D02*
X156776190Y-81027928D01*
X156776190Y-81027928D02*
X156514285Y-81027928D01*
X156514285Y-81027928D02*
X156409523Y-81080309D01*
X156409523Y-81080309D02*
X156357142Y-81132690D01*
X156357142Y-81132690D02*
X156304761Y-81237452D01*
X156304761Y-81237452D02*
X156304761Y-81499357D01*
X156304761Y-81499357D02*
X156357142Y-81604119D01*
X156357142Y-81604119D02*
X156409523Y-81656500D01*
X156409523Y-81656500D02*
X156514285Y-81708880D01*
X156514285Y-81708880D02*
X156776190Y-81708880D01*
X156776190Y-81708880D02*
X156880952Y-81656500D01*
X156880952Y-81656500D02*
X156933333Y-81604119D01*
X155885714Y-81394595D02*
X155361904Y-81394595D01*
X155990476Y-81708880D02*
X155623809Y-80608880D01*
X155623809Y-80608880D02*
X155257142Y-81708880D01*
X153476190Y-81708880D02*
X154104762Y-81708880D01*
X153790476Y-81708880D02*
X153790476Y-80608880D01*
X153790476Y-80608880D02*
X153895238Y-80766023D01*
X153895238Y-80766023D02*
X154000000Y-80870785D01*
X154000000Y-80870785D02*
X154104762Y-80923166D01*
X153057143Y-80713642D02*
X153004762Y-80661261D01*
X153004762Y-80661261D02*
X152900000Y-80608880D01*
X152900000Y-80608880D02*
X152638095Y-80608880D01*
X152638095Y-80608880D02*
X152533333Y-80661261D01*
X152533333Y-80661261D02*
X152480952Y-80713642D01*
X152480952Y-80713642D02*
X152428571Y-80818404D01*
X152428571Y-80818404D02*
X152428571Y-80923166D01*
X152428571Y-80923166D02*
X152480952Y-81080309D01*
X152480952Y-81080309D02*
X153109524Y-81708880D01*
X153109524Y-81708880D02*
X152428571Y-81708880D01*
X152114286Y-80608880D02*
X151747619Y-81708880D01*
X151747619Y-81708880D02*
X151380952Y-80608880D01*
X150176191Y-81708880D02*
X150176191Y-80608880D01*
X150176191Y-80608880D02*
X149914286Y-80608880D01*
X149914286Y-80608880D02*
X149757143Y-80661261D01*
X149757143Y-80661261D02*
X149652381Y-80766023D01*
X149652381Y-80766023D02*
X149600000Y-80870785D01*
X149600000Y-80870785D02*
X149547619Y-81080309D01*
X149547619Y-81080309D02*
X149547619Y-81237452D01*
X149547619Y-81237452D02*
X149600000Y-81446976D01*
X149600000Y-81446976D02*
X149652381Y-81551738D01*
X149652381Y-81551738D02*
X149757143Y-81656500D01*
X149757143Y-81656500D02*
X149914286Y-81708880D01*
X149914286Y-81708880D02*
X150176191Y-81708880D01*
X149076191Y-81708880D02*
X149076191Y-80975547D01*
X149076191Y-80608880D02*
X149128572Y-80661261D01*
X149128572Y-80661261D02*
X149076191Y-80713642D01*
X149076191Y-80713642D02*
X149023810Y-80661261D01*
X149023810Y-80661261D02*
X149076191Y-80608880D01*
X149076191Y-80608880D02*
X149076191Y-80713642D01*
X148552381Y-81708880D02*
X148552381Y-80975547D01*
X148552381Y-81080309D02*
X148500000Y-81027928D01*
X148500000Y-81027928D02*
X148395238Y-80975547D01*
X148395238Y-80975547D02*
X148238095Y-80975547D01*
X148238095Y-80975547D02*
X148133333Y-81027928D01*
X148133333Y-81027928D02*
X148080952Y-81132690D01*
X148080952Y-81132690D02*
X148080952Y-81708880D01*
X148080952Y-81132690D02*
X148028571Y-81027928D01*
X148028571Y-81027928D02*
X147923809Y-80975547D01*
X147923809Y-80975547D02*
X147766666Y-80975547D01*
X147766666Y-80975547D02*
X147661905Y-81027928D01*
X147661905Y-81027928D02*
X147609524Y-81132690D01*
X147609524Y-81132690D02*
X147609524Y-81708880D01*
X147085714Y-81708880D02*
X147085714Y-80975547D01*
X147085714Y-81080309D02*
X147033333Y-81027928D01*
X147033333Y-81027928D02*
X146928571Y-80975547D01*
X146928571Y-80975547D02*
X146771428Y-80975547D01*
X146771428Y-80975547D02*
X146666666Y-81027928D01*
X146666666Y-81027928D02*
X146614285Y-81132690D01*
X146614285Y-81132690D02*
X146614285Y-81708880D01*
X146614285Y-81132690D02*
X146561904Y-81027928D01*
X146561904Y-81027928D02*
X146457142Y-80975547D01*
X146457142Y-80975547D02*
X146299999Y-80975547D01*
X146299999Y-80975547D02*
X146195238Y-81027928D01*
X146195238Y-81027928D02*
X146142857Y-81132690D01*
X146142857Y-81132690D02*
X146142857Y-81708880D01*
X145147618Y-81708880D02*
X145147618Y-81132690D01*
X145147618Y-81132690D02*
X145199999Y-81027928D01*
X145199999Y-81027928D02*
X145304761Y-80975547D01*
X145304761Y-80975547D02*
X145514285Y-80975547D01*
X145514285Y-80975547D02*
X145619047Y-81027928D01*
X145147618Y-81656500D02*
X145252380Y-81708880D01*
X145252380Y-81708880D02*
X145514285Y-81708880D01*
X145514285Y-81708880D02*
X145619047Y-81656500D01*
X145619047Y-81656500D02*
X145671428Y-81551738D01*
X145671428Y-81551738D02*
X145671428Y-81446976D01*
X145671428Y-81446976D02*
X145619047Y-81342214D01*
X145619047Y-81342214D02*
X145514285Y-81289833D01*
X145514285Y-81289833D02*
X145252380Y-81289833D01*
X145252380Y-81289833D02*
X145147618Y-81237452D01*
X144623809Y-81708880D02*
X144623809Y-80608880D01*
X144623809Y-81027928D02*
X144519047Y-80975547D01*
X144519047Y-80975547D02*
X144309523Y-80975547D01*
X144309523Y-80975547D02*
X144204761Y-81027928D01*
X144204761Y-81027928D02*
X144152380Y-81080309D01*
X144152380Y-81080309D02*
X144099999Y-81185071D01*
X144099999Y-81185071D02*
X144099999Y-81499357D01*
X144099999Y-81499357D02*
X144152380Y-81604119D01*
X144152380Y-81604119D02*
X144204761Y-81656500D01*
X144204761Y-81656500D02*
X144309523Y-81708880D01*
X144309523Y-81708880D02*
X144519047Y-81708880D01*
X144519047Y-81708880D02*
X144623809Y-81656500D01*
X143471428Y-81708880D02*
X143576190Y-81656500D01*
X143576190Y-81656500D02*
X143628571Y-81551738D01*
X143628571Y-81551738D02*
X143628571Y-80608880D01*
X142633333Y-81656500D02*
X142738095Y-81708880D01*
X142738095Y-81708880D02*
X142947619Y-81708880D01*
X142947619Y-81708880D02*
X143052381Y-81656500D01*
X143052381Y-81656500D02*
X143104762Y-81551738D01*
X143104762Y-81551738D02*
X143104762Y-81132690D01*
X143104762Y-81132690D02*
X143052381Y-81027928D01*
X143052381Y-81027928D02*
X142947619Y-80975547D01*
X142947619Y-80975547D02*
X142738095Y-80975547D01*
X142738095Y-80975547D02*
X142633333Y-81027928D01*
X142633333Y-81027928D02*
X142580952Y-81132690D01*
X142580952Y-81132690D02*
X142580952Y-81237452D01*
X142580952Y-81237452D02*
X143104762Y-81342214D01*
X141061905Y-80608880D02*
X140852381Y-80608880D01*
X140852381Y-80608880D02*
X140747619Y-80661261D01*
X140747619Y-80661261D02*
X140642857Y-80766023D01*
X140642857Y-80766023D02*
X140590476Y-80975547D01*
X140590476Y-80975547D02*
X140590476Y-81342214D01*
X140590476Y-81342214D02*
X140642857Y-81551738D01*
X140642857Y-81551738D02*
X140747619Y-81656500D01*
X140747619Y-81656500D02*
X140852381Y-81708880D01*
X140852381Y-81708880D02*
X141061905Y-81708880D01*
X141061905Y-81708880D02*
X141166667Y-81656500D01*
X141166667Y-81656500D02*
X141271429Y-81551738D01*
X141271429Y-81551738D02*
X141323810Y-81342214D01*
X141323810Y-81342214D02*
X141323810Y-80975547D01*
X141323810Y-80975547D02*
X141271429Y-80766023D01*
X141271429Y-80766023D02*
X141166667Y-80661261D01*
X141166667Y-80661261D02*
X141061905Y-80608880D01*
X139647619Y-80975547D02*
X139647619Y-81708880D01*
X140119048Y-80975547D02*
X140119048Y-81551738D01*
X140119048Y-81551738D02*
X140066667Y-81656500D01*
X140066667Y-81656500D02*
X139961905Y-81708880D01*
X139961905Y-81708880D02*
X139804762Y-81708880D01*
X139804762Y-81708880D02*
X139700000Y-81656500D01*
X139700000Y-81656500D02*
X139647619Y-81604119D01*
X139280953Y-80975547D02*
X138861905Y-80975547D01*
X139123810Y-80608880D02*
X139123810Y-81551738D01*
X139123810Y-81551738D02*
X139071429Y-81656500D01*
X139071429Y-81656500D02*
X138966667Y-81708880D01*
X138966667Y-81708880D02*
X138861905Y-81708880D01*
X138495239Y-80975547D02*
X138495239Y-82075547D01*
X138495239Y-81027928D02*
X138390477Y-80975547D01*
X138390477Y-80975547D02*
X138180953Y-80975547D01*
X138180953Y-80975547D02*
X138076191Y-81027928D01*
X138076191Y-81027928D02*
X138023810Y-81080309D01*
X138023810Y-81080309D02*
X137971429Y-81185071D01*
X137971429Y-81185071D02*
X137971429Y-81499357D01*
X137971429Y-81499357D02*
X138023810Y-81604119D01*
X138023810Y-81604119D02*
X138076191Y-81656500D01*
X138076191Y-81656500D02*
X138180953Y-81708880D01*
X138180953Y-81708880D02*
X138390477Y-81708880D01*
X138390477Y-81708880D02*
X138495239Y-81656500D01*
X137028572Y-80975547D02*
X137028572Y-81708880D01*
X137500001Y-80975547D02*
X137500001Y-81551738D01*
X137500001Y-81551738D02*
X137447620Y-81656500D01*
X137447620Y-81656500D02*
X137342858Y-81708880D01*
X137342858Y-81708880D02*
X137185715Y-81708880D01*
X137185715Y-81708880D02*
X137080953Y-81656500D01*
X137080953Y-81656500D02*
X137028572Y-81604119D01*
X136661906Y-80975547D02*
X136242858Y-80975547D01*
X136504763Y-80608880D02*
X136504763Y-81551738D01*
X136504763Y-81551738D02*
X136452382Y-81656500D01*
X136452382Y-81656500D02*
X136347620Y-81708880D01*
X136347620Y-81708880D02*
X136242858Y-81708880D01*
X135928573Y-81656500D02*
X135823811Y-81708880D01*
X135823811Y-81708880D02*
X135614287Y-81708880D01*
X135614287Y-81708880D02*
X135509525Y-81656500D01*
X135509525Y-81656500D02*
X135457144Y-81551738D01*
X135457144Y-81551738D02*
X135457144Y-81499357D01*
X135457144Y-81499357D02*
X135509525Y-81394595D01*
X135509525Y-81394595D02*
X135614287Y-81342214D01*
X135614287Y-81342214D02*
X135771430Y-81342214D01*
X135771430Y-81342214D02*
X135876192Y-81289833D01*
X135876192Y-81289833D02*
X135928573Y-81185071D01*
X135928573Y-81185071D02*
X135928573Y-81132690D01*
X135928573Y-81132690D02*
X135876192Y-81027928D01*
X135876192Y-81027928D02*
X135771430Y-80975547D01*
X135771430Y-80975547D02*
X135614287Y-80975547D01*
X135614287Y-80975547D02*
X135509525Y-81027928D01*
X159761904Y-83490880D02*
X160390476Y-83490880D01*
X160076190Y-83490880D02*
X160076190Y-82390880D01*
X160076190Y-82390880D02*
X160180952Y-82548023D01*
X160180952Y-82548023D02*
X160285714Y-82652785D01*
X160285714Y-82652785D02*
X160390476Y-82705166D01*
X157876190Y-83490880D02*
X158504762Y-83490880D01*
X158190476Y-83490880D02*
X158190476Y-82390880D01*
X158190476Y-82390880D02*
X158295238Y-82548023D01*
X158295238Y-82548023D02*
X158400000Y-82652785D01*
X158400000Y-82652785D02*
X158504762Y-82705166D01*
X157457143Y-82495642D02*
X157404762Y-82443261D01*
X157404762Y-82443261D02*
X157300000Y-82390880D01*
X157300000Y-82390880D02*
X157038095Y-82390880D01*
X157038095Y-82390880D02*
X156933333Y-82443261D01*
X156933333Y-82443261D02*
X156880952Y-82495642D01*
X156880952Y-82495642D02*
X156828571Y-82600404D01*
X156828571Y-82600404D02*
X156828571Y-82705166D01*
X156828571Y-82705166D02*
X156880952Y-82862309D01*
X156880952Y-82862309D02*
X157509524Y-83490880D01*
X157509524Y-83490880D02*
X156828571Y-83490880D01*
X156514286Y-82390880D02*
X156147619Y-83490880D01*
X156147619Y-83490880D02*
X155780952Y-82390880D01*
X154576191Y-83490880D02*
X154576191Y-82390880D01*
X154104762Y-83438500D02*
X154000000Y-83490880D01*
X154000000Y-83490880D02*
X153790476Y-83490880D01*
X153790476Y-83490880D02*
X153685714Y-83438500D01*
X153685714Y-83438500D02*
X153633333Y-83333738D01*
X153633333Y-83333738D02*
X153633333Y-83281357D01*
X153633333Y-83281357D02*
X153685714Y-83176595D01*
X153685714Y-83176595D02*
X153790476Y-83124214D01*
X153790476Y-83124214D02*
X153947619Y-83124214D01*
X153947619Y-83124214D02*
X154052381Y-83071833D01*
X154052381Y-83071833D02*
X154104762Y-82967071D01*
X154104762Y-82967071D02*
X154104762Y-82914690D01*
X154104762Y-82914690D02*
X154052381Y-82809928D01*
X154052381Y-82809928D02*
X153947619Y-82757547D01*
X153947619Y-82757547D02*
X153790476Y-82757547D01*
X153790476Y-82757547D02*
X153685714Y-82809928D01*
X153004762Y-83490880D02*
X153109524Y-83438500D01*
X153109524Y-83438500D02*
X153161905Y-83386119D01*
X153161905Y-83386119D02*
X153214286Y-83281357D01*
X153214286Y-83281357D02*
X153214286Y-82967071D01*
X153214286Y-82967071D02*
X153161905Y-82862309D01*
X153161905Y-82862309D02*
X153109524Y-82809928D01*
X153109524Y-82809928D02*
X153004762Y-82757547D01*
X153004762Y-82757547D02*
X152847619Y-82757547D01*
X152847619Y-82757547D02*
X152742857Y-82809928D01*
X152742857Y-82809928D02*
X152690476Y-82862309D01*
X152690476Y-82862309D02*
X152638095Y-82967071D01*
X152638095Y-82967071D02*
X152638095Y-83281357D01*
X152638095Y-83281357D02*
X152690476Y-83386119D01*
X152690476Y-83386119D02*
X152742857Y-83438500D01*
X152742857Y-83438500D02*
X152847619Y-83490880D01*
X152847619Y-83490880D02*
X153004762Y-83490880D01*
X152009524Y-83490880D02*
X152114286Y-83438500D01*
X152114286Y-83438500D02*
X152166667Y-83333738D01*
X152166667Y-83333738D02*
X152166667Y-82390880D01*
X151119048Y-83490880D02*
X151119048Y-82914690D01*
X151119048Y-82914690D02*
X151171429Y-82809928D01*
X151171429Y-82809928D02*
X151276191Y-82757547D01*
X151276191Y-82757547D02*
X151485715Y-82757547D01*
X151485715Y-82757547D02*
X151590477Y-82809928D01*
X151119048Y-83438500D02*
X151223810Y-83490880D01*
X151223810Y-83490880D02*
X151485715Y-83490880D01*
X151485715Y-83490880D02*
X151590477Y-83438500D01*
X151590477Y-83438500D02*
X151642858Y-83333738D01*
X151642858Y-83333738D02*
X151642858Y-83228976D01*
X151642858Y-83228976D02*
X151590477Y-83124214D01*
X151590477Y-83124214D02*
X151485715Y-83071833D01*
X151485715Y-83071833D02*
X151223810Y-83071833D01*
X151223810Y-83071833D02*
X151119048Y-83019452D01*
X150752382Y-82757547D02*
X150333334Y-82757547D01*
X150595239Y-82390880D02*
X150595239Y-83333738D01*
X150595239Y-83333738D02*
X150542858Y-83438500D01*
X150542858Y-83438500D02*
X150438096Y-83490880D01*
X150438096Y-83490880D02*
X150333334Y-83490880D01*
X149547620Y-83438500D02*
X149652382Y-83490880D01*
X149652382Y-83490880D02*
X149861906Y-83490880D01*
X149861906Y-83490880D02*
X149966668Y-83438500D01*
X149966668Y-83438500D02*
X150019049Y-83333738D01*
X150019049Y-83333738D02*
X150019049Y-82914690D01*
X150019049Y-82914690D02*
X149966668Y-82809928D01*
X149966668Y-82809928D02*
X149861906Y-82757547D01*
X149861906Y-82757547D02*
X149652382Y-82757547D01*
X149652382Y-82757547D02*
X149547620Y-82809928D01*
X149547620Y-82809928D02*
X149495239Y-82914690D01*
X149495239Y-82914690D02*
X149495239Y-83019452D01*
X149495239Y-83019452D02*
X150019049Y-83124214D01*
X148552382Y-83490880D02*
X148552382Y-82390880D01*
X148552382Y-83438500D02*
X148657144Y-83490880D01*
X148657144Y-83490880D02*
X148866668Y-83490880D01*
X148866668Y-83490880D02*
X148971430Y-83438500D01*
X148971430Y-83438500D02*
X149023811Y-83386119D01*
X149023811Y-83386119D02*
X149076192Y-83281357D01*
X149076192Y-83281357D02*
X149076192Y-82967071D01*
X149076192Y-82967071D02*
X149023811Y-82862309D01*
X149023811Y-82862309D02*
X148971430Y-82809928D01*
X148971430Y-82809928D02*
X148866668Y-82757547D01*
X148866668Y-82757547D02*
X148657144Y-82757547D01*
X148657144Y-82757547D02*
X148552382Y-82809928D01*
X147347621Y-82390880D02*
X146719049Y-82390880D01*
X147033335Y-83490880D02*
X147033335Y-82390880D01*
X146352383Y-83490880D02*
X146352383Y-82757547D01*
X146352383Y-82967071D02*
X146300002Y-82862309D01*
X146300002Y-82862309D02*
X146247621Y-82809928D01*
X146247621Y-82809928D02*
X146142859Y-82757547D01*
X146142859Y-82757547D02*
X146038097Y-82757547D01*
X145671431Y-83490880D02*
X145671431Y-82757547D01*
X145671431Y-82390880D02*
X145723812Y-82443261D01*
X145723812Y-82443261D02*
X145671431Y-82495642D01*
X145671431Y-82495642D02*
X145619050Y-82443261D01*
X145619050Y-82443261D02*
X145671431Y-82390880D01*
X145671431Y-82390880D02*
X145671431Y-82495642D01*
X144676192Y-82757547D02*
X144676192Y-83648023D01*
X144676192Y-83648023D02*
X144728573Y-83752785D01*
X144728573Y-83752785D02*
X144780954Y-83805166D01*
X144780954Y-83805166D02*
X144885716Y-83857547D01*
X144885716Y-83857547D02*
X145042859Y-83857547D01*
X145042859Y-83857547D02*
X145147621Y-83805166D01*
X144676192Y-83438500D02*
X144780954Y-83490880D01*
X144780954Y-83490880D02*
X144990478Y-83490880D01*
X144990478Y-83490880D02*
X145095240Y-83438500D01*
X145095240Y-83438500D02*
X145147621Y-83386119D01*
X145147621Y-83386119D02*
X145200002Y-83281357D01*
X145200002Y-83281357D02*
X145200002Y-82967071D01*
X145200002Y-82967071D02*
X145147621Y-82862309D01*
X145147621Y-82862309D02*
X145095240Y-82809928D01*
X145095240Y-82809928D02*
X144990478Y-82757547D01*
X144990478Y-82757547D02*
X144780954Y-82757547D01*
X144780954Y-82757547D02*
X144676192Y-82809928D01*
X143680954Y-82757547D02*
X143680954Y-83648023D01*
X143680954Y-83648023D02*
X143733335Y-83752785D01*
X143733335Y-83752785D02*
X143785716Y-83805166D01*
X143785716Y-83805166D02*
X143890478Y-83857547D01*
X143890478Y-83857547D02*
X144047621Y-83857547D01*
X144047621Y-83857547D02*
X144152383Y-83805166D01*
X143680954Y-83438500D02*
X143785716Y-83490880D01*
X143785716Y-83490880D02*
X143995240Y-83490880D01*
X143995240Y-83490880D02*
X144100002Y-83438500D01*
X144100002Y-83438500D02*
X144152383Y-83386119D01*
X144152383Y-83386119D02*
X144204764Y-83281357D01*
X144204764Y-83281357D02*
X144204764Y-82967071D01*
X144204764Y-82967071D02*
X144152383Y-82862309D01*
X144152383Y-82862309D02*
X144100002Y-82809928D01*
X144100002Y-82809928D02*
X143995240Y-82757547D01*
X143995240Y-82757547D02*
X143785716Y-82757547D01*
X143785716Y-82757547D02*
X143680954Y-82809928D01*
X142738097Y-83438500D02*
X142842859Y-83490880D01*
X142842859Y-83490880D02*
X143052383Y-83490880D01*
X143052383Y-83490880D02*
X143157145Y-83438500D01*
X143157145Y-83438500D02*
X143209526Y-83333738D01*
X143209526Y-83333738D02*
X143209526Y-82914690D01*
X143209526Y-82914690D02*
X143157145Y-82809928D01*
X143157145Y-82809928D02*
X143052383Y-82757547D01*
X143052383Y-82757547D02*
X142842859Y-82757547D01*
X142842859Y-82757547D02*
X142738097Y-82809928D01*
X142738097Y-82809928D02*
X142685716Y-82914690D01*
X142685716Y-82914690D02*
X142685716Y-83019452D01*
X142685716Y-83019452D02*
X143209526Y-83124214D01*
X142214288Y-83490880D02*
X142214288Y-82757547D01*
X142214288Y-82967071D02*
X142161907Y-82862309D01*
X142161907Y-82862309D02*
X142109526Y-82809928D01*
X142109526Y-82809928D02*
X142004764Y-82757547D01*
X142004764Y-82757547D02*
X141900002Y-82757547D01*
X140695241Y-83490880D02*
X140695241Y-82390880D01*
X140171431Y-82757547D02*
X140171431Y-83490880D01*
X140171431Y-82862309D02*
X140119050Y-82809928D01*
X140119050Y-82809928D02*
X140014288Y-82757547D01*
X140014288Y-82757547D02*
X139857145Y-82757547D01*
X139857145Y-82757547D02*
X139752383Y-82809928D01*
X139752383Y-82809928D02*
X139700002Y-82914690D01*
X139700002Y-82914690D02*
X139700002Y-83490880D01*
X139176193Y-82757547D02*
X139176193Y-83857547D01*
X139176193Y-82809928D02*
X139071431Y-82757547D01*
X139071431Y-82757547D02*
X138861907Y-82757547D01*
X138861907Y-82757547D02*
X138757145Y-82809928D01*
X138757145Y-82809928D02*
X138704764Y-82862309D01*
X138704764Y-82862309D02*
X138652383Y-82967071D01*
X138652383Y-82967071D02*
X138652383Y-83281357D01*
X138652383Y-83281357D02*
X138704764Y-83386119D01*
X138704764Y-83386119D02*
X138757145Y-83438500D01*
X138757145Y-83438500D02*
X138861907Y-83490880D01*
X138861907Y-83490880D02*
X139071431Y-83490880D01*
X139071431Y-83490880D02*
X139176193Y-83438500D01*
X137709526Y-82757547D02*
X137709526Y-83490880D01*
X138180955Y-82757547D02*
X138180955Y-83333738D01*
X138180955Y-83333738D02*
X138128574Y-83438500D01*
X138128574Y-83438500D02*
X138023812Y-83490880D01*
X138023812Y-83490880D02*
X137866669Y-83490880D01*
X137866669Y-83490880D02*
X137761907Y-83438500D01*
X137761907Y-83438500D02*
X137709526Y-83386119D01*
X137342860Y-82757547D02*
X136923812Y-82757547D01*
X137185717Y-82390880D02*
X137185717Y-83333738D01*
X137185717Y-83333738D02*
X137133336Y-83438500D01*
X137133336Y-83438500D02*
X137028574Y-83490880D01*
X137028574Y-83490880D02*
X136923812Y-83490880D01*
D12*
X118524460Y-78719429D02*
X118524460Y-79880572D01*
D11*
X140825923Y-89591554D02*
X140825923Y-89228697D01*
X140608209Y-89664125D02*
X141370209Y-89410125D01*
X141370209Y-89410125D02*
X140608209Y-89156125D01*
X141370209Y-88974696D02*
X141370209Y-88502982D01*
X141370209Y-88502982D02*
X141079923Y-88756982D01*
X141079923Y-88756982D02*
X141079923Y-88648125D01*
X141079923Y-88648125D02*
X141043637Y-88575554D01*
X141043637Y-88575554D02*
X141007352Y-88539268D01*
X141007352Y-88539268D02*
X140934780Y-88502982D01*
X140934780Y-88502982D02*
X140753352Y-88502982D01*
X140753352Y-88502982D02*
X140680780Y-88539268D01*
X140680780Y-88539268D02*
X140644495Y-88575554D01*
X140644495Y-88575554D02*
X140608209Y-88648125D01*
X140608209Y-88648125D02*
X140608209Y-88865839D01*
X140608209Y-88865839D02*
X140644495Y-88938411D01*
X140644495Y-88938411D02*
X140680780Y-88974696D01*
D15*
X157242850Y-76327000D02*
G75*
G03*
X157242850Y-76327000I-1450000J0D01*
G01*
X134957500Y-73800000D02*
X134357500Y-73800000D01*
X136157500Y-74350000D02*
X136157500Y-74950000D01*
X133657500Y-74450000D02*
X133657500Y-77250000D01*
X135857500Y-74650000D02*
X136157500Y-74350000D01*
X135857500Y-74650000D02*
X136157500Y-74950000D01*
X135657500Y-77250000D02*
X135657500Y-74450000D01*
X134357500Y-77900000D02*
X134957500Y-77900000D01*
X135657500Y-74500000D02*
G75*
G03*
X134957500Y-73800000I-699999J1D01*
G01*
X134357500Y-73800000D02*
G75*
G03*
X133657500Y-74500000I-1J-699999D01*
G01*
X134957500Y-77900000D02*
G75*
G03*
X135657500Y-77200000I0J700000D01*
G01*
X133657500Y-77200000D02*
G75*
G03*
X134357500Y-77900000I700000J0D01*
G01*
X135207500Y-83450000D02*
X134607500Y-83450000D01*
X136407500Y-84000000D02*
X136407500Y-84600000D01*
X133907500Y-84100000D02*
X133907500Y-86900000D01*
X136107500Y-84300000D02*
X136407500Y-84000000D01*
X136107500Y-84300000D02*
X136407500Y-84600000D01*
X135907500Y-86900000D02*
X135907500Y-84100000D01*
X134607500Y-87550000D02*
X135207500Y-87550000D01*
X135907500Y-84150000D02*
G75*
G03*
X135207500Y-83450000I-699999J1D01*
G01*
X134607500Y-83450000D02*
G75*
G03*
X133907500Y-84150000I-1J-699999D01*
G01*
X135207500Y-87550000D02*
G75*
G03*
X135907500Y-86850000I0J700000D01*
G01*
X133907500Y-86850000D02*
G75*
G03*
X134607500Y-87550000I700000J0D01*
G01*
X131150000Y-83450000D02*
X130550000Y-83450000D01*
X132350000Y-84000000D02*
X132350000Y-84600000D01*
X129850000Y-84100000D02*
X129850000Y-86900000D01*
X132050000Y-84300000D02*
X132350000Y-84000000D01*
X132050000Y-84300000D02*
X132350000Y-84600000D01*
X131850000Y-86900000D02*
X131850000Y-84100000D01*
X130550000Y-87550000D02*
X131150000Y-87550000D01*
X131850000Y-84150000D02*
G75*
G03*
X131150000Y-83450000I-699999J1D01*
G01*
X130550000Y-83450000D02*
G75*
G03*
X129850000Y-84150000I-1J-699999D01*
G01*
X131150000Y-87550000D02*
G75*
G03*
X131850000Y-86850000I0J700000D01*
G01*
X129850000Y-86850000D02*
G75*
G03*
X130550000Y-87550000I700000J0D01*
G01*
X157275000Y-85400000D02*
G75*
G03*
X157275000Y-85400000I-1450000J0D01*
G01*
G36*
X150678969Y-78250397D02*
G01*
X150767847Y-78273270D01*
X150855066Y-78301802D01*
X150922633Y-78329673D01*
X150952554Y-78350566D01*
X150940033Y-78375305D01*
X150889647Y-78398370D01*
X150816892Y-78416630D01*
X150816892Y-78986295D01*
X150817661Y-79160715D01*
X150821528Y-79350079D01*
X150829370Y-79492228D01*
X150841976Y-79592863D01*
X150860139Y-79657686D01*
X150884649Y-79692399D01*
X150916297Y-79702703D01*
X150936958Y-79707856D01*
X150959910Y-79745608D01*
X150952626Y-79764612D01*
X150918954Y-79779160D01*
X150848492Y-79786493D01*
X150731081Y-79788513D01*
X150651828Y-79787670D01*
X150562650Y-79781963D01*
X150515832Y-79769505D01*
X150502253Y-79748709D01*
X150520087Y-79718002D01*
X150573762Y-79690957D01*
X150645271Y-79673009D01*
X150645271Y-78958464D01*
X150645451Y-78799231D01*
X150646131Y-78619869D01*
X150647245Y-78467140D01*
X150648715Y-78348686D01*
X150650467Y-78272152D01*
X150652422Y-78245181D01*
X150678969Y-78250397D01*
G37*
G36*
X149008508Y-77192789D02*
G01*
X149013273Y-77293321D01*
X148975071Y-77406962D01*
X148889952Y-77506740D01*
X148850245Y-77532067D01*
X148743531Y-77557406D01*
X148629376Y-77538843D01*
X148526243Y-77477844D01*
X148495105Y-77447446D01*
X148445262Y-77369511D01*
X148422046Y-77264090D01*
X148420596Y-77248584D01*
X148543300Y-77248584D01*
X148550293Y-77349223D01*
X148582163Y-77424320D01*
X148598106Y-77439446D01*
X148671310Y-77467692D01*
X148756350Y-77463939D01*
X148825775Y-77427797D01*
X148850567Y-77395256D01*
X148885500Y-77299971D01*
X148892513Y-77192789D01*
X148868018Y-77101429D01*
X148838927Y-77063528D01*
X148762248Y-77021940D01*
X148675536Y-77024322D01*
X148598651Y-77072786D01*
X148559993Y-77147784D01*
X148543300Y-77248584D01*
X148420596Y-77248584D01*
X148417071Y-77210878D01*
X148421299Y-77145686D01*
X148449664Y-77092129D01*
X148511468Y-77025379D01*
X148548406Y-76989456D01*
X148605580Y-76945718D01*
X148660536Y-76931314D01*
X148736779Y-76937030D01*
X148761754Y-76941258D01*
X148878800Y-76989783D01*
X148961896Y-77072673D01*
X149007801Y-77177872D01*
X149008508Y-77192789D01*
G37*
G36*
X149972443Y-78787175D02*
G01*
X150031326Y-78811771D01*
X150150586Y-78889085D01*
X150253607Y-78988806D01*
X150320590Y-79093510D01*
X150333180Y-79129341D01*
X150355593Y-79260160D01*
X150354305Y-79401390D01*
X150328726Y-79522068D01*
X150304130Y-79574734D01*
X150210985Y-79693439D01*
X150087500Y-79778286D01*
X150038855Y-79794684D01*
X149915048Y-79804955D01*
X149780994Y-79784862D01*
X149660931Y-79736761D01*
X149603711Y-79693052D01*
X149574662Y-79648275D01*
X149582372Y-79617582D01*
X149629843Y-79612930D01*
X149657958Y-79617227D01*
X149739212Y-79627104D01*
X149836796Y-79637006D01*
X149888940Y-79641084D01*
X149962055Y-79638690D01*
X150014566Y-79616366D01*
X150070326Y-79566958D01*
X150128107Y-79487978D01*
X150171125Y-79369167D01*
X150183705Y-79240521D01*
X150166457Y-79116969D01*
X150119991Y-79013443D01*
X150044917Y-78944874D01*
X150009868Y-78927834D01*
X149933611Y-78905470D01*
X149858754Y-78914994D01*
X149761593Y-78957461D01*
X149740372Y-78967700D01*
X149655302Y-78990880D01*
X149604071Y-78968146D01*
X149586937Y-78899583D01*
X149600979Y-78852083D01*
X149658763Y-78801645D01*
X149748889Y-78771403D01*
X149857926Y-78765275D01*
X149972443Y-78787175D01*
G37*
G36*
X148180173Y-74574031D02*
G01*
X148225239Y-74634011D01*
X148279086Y-74701541D01*
X148355634Y-74753720D01*
X148405465Y-74780970D01*
X148439446Y-74821962D01*
X148428579Y-74855075D01*
X148371284Y-74868694D01*
X148299775Y-74868694D01*
X148299775Y-75254842D01*
X148299490Y-75363235D01*
X148297329Y-75489608D01*
X148291896Y-75575906D01*
X148281851Y-75632516D01*
X148265855Y-75669818D01*
X148242568Y-75698198D01*
X148242215Y-75698551D01*
X148158119Y-75746082D01*
X148047191Y-75746265D01*
X147906784Y-75699106D01*
X147864299Y-75678239D01*
X147809540Y-75637859D01*
X147802380Y-75600146D01*
X147824762Y-75572649D01*
X147871700Y-75584308D01*
X147919502Y-75601516D01*
X147998265Y-75612387D01*
X148016009Y-75611411D01*
X148061965Y-75593388D01*
X148094063Y-75547129D01*
X148114398Y-75465458D01*
X148125064Y-75341197D01*
X148128154Y-75167169D01*
X148128154Y-74868694D01*
X147985136Y-74868694D01*
X147933684Y-74867888D01*
X147867863Y-74863557D01*
X147842118Y-74856731D01*
X147839900Y-74845121D01*
X147824755Y-74799524D01*
X147821221Y-74786809D01*
X147831429Y-74766409D01*
X147876635Y-74756730D01*
X147967882Y-74754279D01*
X148128371Y-74754279D01*
X148121112Y-74664430D01*
X148121625Y-74614409D01*
X148142452Y-74568426D01*
X148180173Y-74574031D01*
G37*
G36*
X143482102Y-74578030D02*
G01*
X143529529Y-74641342D01*
X143529994Y-74642154D01*
X143590261Y-74711919D01*
X143665396Y-74758358D01*
X143716225Y-74783350D01*
X143748979Y-74822255D01*
X143737576Y-74854957D01*
X143680293Y-74868694D01*
X143608784Y-74868694D01*
X143608784Y-75236683D01*
X143608640Y-75310960D01*
X143606716Y-75444165D01*
X143601348Y-75536400D01*
X143591028Y-75598940D01*
X143574248Y-75643061D01*
X143549501Y-75680039D01*
X143498374Y-75728046D01*
X143413634Y-75754777D01*
X143411031Y-75754737D01*
X143335162Y-75742422D01*
X143250234Y-75713625D01*
X143172355Y-75676065D01*
X143117630Y-75637458D01*
X143102166Y-75605525D01*
X143111868Y-75590975D01*
X143154702Y-75580902D01*
X143235294Y-75600134D01*
X143324087Y-75602344D01*
X143378281Y-75571500D01*
X143388747Y-75553506D01*
X143410078Y-75477720D01*
X143425711Y-75368233D01*
X143434303Y-75241448D01*
X143434509Y-75113770D01*
X143424985Y-75001604D01*
X143405505Y-74871703D01*
X143271422Y-74863048D01*
X143210197Y-74856851D01*
X143150486Y-74838152D01*
X143127834Y-74804335D01*
X143126533Y-74795267D01*
X143135386Y-74769375D01*
X143176248Y-74757273D01*
X143261631Y-74754279D01*
X143332341Y-74753259D01*
X143383487Y-74744033D01*
X143405440Y-74717239D01*
X143413898Y-74663520D01*
X143420783Y-74619140D01*
X143445212Y-74570752D01*
X143482102Y-74578030D01*
G37*
G36*
X148030188Y-76616311D02*
G01*
X148128953Y-76658012D01*
X148208279Y-76739307D01*
X148253474Y-76846818D01*
X148280080Y-76919492D01*
X148321327Y-76973085D01*
X148342853Y-76989526D01*
X148355729Y-77011308D01*
X148321228Y-77029283D01*
X148299578Y-77043235D01*
X148282003Y-77079509D01*
X148273431Y-77147963D01*
X148271172Y-77261052D01*
X148271554Y-77310569D01*
X148277023Y-77409632D01*
X148290497Y-77465928D01*
X148313913Y-77489818D01*
X148333620Y-77500415D01*
X148345248Y-77524675D01*
X148334377Y-77529499D01*
X148282997Y-77536951D01*
X148207947Y-77542077D01*
X148129382Y-77544126D01*
X148067462Y-77542344D01*
X148042343Y-77535980D01*
X148058918Y-77514429D01*
X148100828Y-77470344D01*
X148122099Y-77446007D01*
X148144332Y-77399094D01*
X148152784Y-77329635D01*
X148150884Y-77220510D01*
X148149641Y-77193224D01*
X148143318Y-77102387D01*
X148131937Y-77053174D01*
X148110362Y-77032858D01*
X148073455Y-77028713D01*
X148026957Y-77020271D01*
X147992412Y-76992511D01*
X148005828Y-76966071D01*
X148072305Y-76956757D01*
X148092610Y-76956656D01*
X148141154Y-76949996D01*
X148155354Y-76920705D01*
X148147236Y-76851962D01*
X148135888Y-76795072D01*
X148105890Y-76725851D01*
X148057829Y-76703107D01*
X147983119Y-76719933D01*
X147948773Y-76731856D01*
X147902443Y-76737136D01*
X147880871Y-76713121D01*
X147875031Y-76666929D01*
X147911546Y-76627100D01*
X147997225Y-76613513D01*
X148030188Y-76616311D01*
G37*
G36*
X152293720Y-75052802D02*
G01*
X152301166Y-75068561D01*
X152328169Y-75222415D01*
X152316124Y-75375536D01*
X152266576Y-75516404D01*
X152181070Y-75633496D01*
X152061149Y-75715288D01*
X151948495Y-75747804D01*
X151792530Y-75741929D01*
X151623409Y-75681338D01*
X151618976Y-75679106D01*
X151541908Y-75632108D01*
X151490405Y-75586332D01*
X151469452Y-75550142D01*
X151484033Y-75531899D01*
X151539133Y-75539965D01*
X151576505Y-75551469D01*
X151705983Y-75587311D01*
X151799486Y-75603548D01*
X151870802Y-75601690D01*
X151933718Y-75583251D01*
X151945682Y-75577909D01*
X152040888Y-75504203D01*
X152107436Y-75397090D01*
X152132551Y-75276295D01*
X152132658Y-75183333D01*
X151474775Y-75183333D01*
X151474775Y-75108996D01*
X151475445Y-75092967D01*
X151493860Y-75016781D01*
X151676639Y-75016781D01*
X151677505Y-75051131D01*
X151680147Y-75052378D01*
X151722788Y-75059452D01*
X151804639Y-75067607D01*
X151910980Y-75075318D01*
X152027116Y-75080495D01*
X152099249Y-75074948D01*
X152127387Y-75052802D01*
X152118126Y-75008587D01*
X152078066Y-74936836D01*
X152063716Y-74915399D01*
X151984447Y-74844998D01*
X151892308Y-74823543D01*
X151799385Y-74854599D01*
X151749438Y-74899767D01*
X151704440Y-74960162D01*
X151676639Y-75016781D01*
X151493860Y-75016781D01*
X151500632Y-74988764D01*
X151552506Y-74880493D01*
X151617727Y-74797244D01*
X151679152Y-74755102D01*
X151801340Y-74719386D01*
X151935371Y-74724938D01*
X152065664Y-74770188D01*
X152176639Y-74853568D01*
X152233572Y-74925498D01*
X152293720Y-75052802D01*
G37*
G36*
X148938032Y-74705373D02*
G01*
X148949663Y-74709611D01*
X149014096Y-74730916D01*
X149097699Y-74756767D01*
X149107250Y-74759762D01*
X149177086Y-74792549D01*
X149212170Y-74828243D01*
X149207244Y-74856929D01*
X149157053Y-74868694D01*
X149155479Y-74868698D01*
X149132521Y-74871815D01*
X149117106Y-74886891D01*
X149108041Y-74922971D01*
X149104131Y-74989101D01*
X149104181Y-75094326D01*
X149106997Y-75247691D01*
X149107467Y-75269906D01*
X149111103Y-75416792D01*
X149115767Y-75516934D01*
X149123192Y-75579619D01*
X149135107Y-75614138D01*
X149153245Y-75629779D01*
X149179336Y-75635829D01*
X149219345Y-75650437D01*
X149243694Y-75685886D01*
X149232512Y-75705754D01*
X149192071Y-75718431D01*
X149113082Y-75724955D01*
X148986262Y-75726802D01*
X148860615Y-75725006D01*
X148781193Y-75718562D01*
X148740368Y-75705987D01*
X148728829Y-75685796D01*
X148748659Y-75655646D01*
X148807489Y-75635740D01*
X148886149Y-75626689D01*
X148894245Y-75338561D01*
X148896714Y-75221111D01*
X148894952Y-75124444D01*
X148886226Y-75059625D01*
X148868513Y-75013000D01*
X148839790Y-74970912D01*
X148796657Y-74923906D01*
X148745913Y-74902886D01*
X148668317Y-74908810D01*
X148619313Y-74914802D01*
X148563489Y-74908147D01*
X148532123Y-74875269D01*
X148520605Y-74846027D01*
X148527278Y-74784075D01*
X148574137Y-74741523D01*
X148649632Y-74725611D01*
X148742210Y-74743582D01*
X148755622Y-74750971D01*
X148806461Y-74797050D01*
X148861648Y-74865147D01*
X148934424Y-74968806D01*
X148915091Y-74828978D01*
X148912200Y-74807420D01*
X148905968Y-74734776D01*
X148913882Y-74704519D01*
X148938032Y-74705373D01*
G37*
G36*
X148220238Y-79102354D02*
G01*
X148223458Y-79108967D01*
X148253443Y-79255760D01*
X148247985Y-79404856D01*
X148206507Y-79544935D01*
X148128428Y-79664676D01*
X148013172Y-79752759D01*
X147974886Y-79770552D01*
X147878204Y-79803890D01*
X147798767Y-79817117D01*
X147763724Y-79813594D01*
X147680362Y-79791004D01*
X147587537Y-79754031D01*
X147501326Y-79710334D01*
X147437809Y-79667572D01*
X147413063Y-79633402D01*
X147423203Y-79590547D01*
X147461675Y-79582200D01*
X147536347Y-79611767D01*
X147660876Y-79650422D01*
X147793890Y-79653149D01*
X147909217Y-79619252D01*
X147928885Y-79606798D01*
X147998972Y-79530800D01*
X148050744Y-79428206D01*
X148070946Y-79323270D01*
X148070596Y-79309232D01*
X148058934Y-79271030D01*
X148019747Y-79249458D01*
X147938238Y-79234631D01*
X147850766Y-79226038D01*
X147725139Y-79219102D01*
X147598007Y-79216441D01*
X147390484Y-79216441D01*
X147411602Y-79122807D01*
X147414342Y-79111136D01*
X147429736Y-79072123D01*
X147613289Y-79072123D01*
X147614104Y-79087850D01*
X147625265Y-79111069D01*
X147658805Y-79123938D01*
X147726328Y-79129458D01*
X147839440Y-79130631D01*
X147907039Y-79130391D01*
X147992968Y-79127554D01*
X148038378Y-79119169D01*
X148054068Y-79102354D01*
X148050841Y-79074227D01*
X148036467Y-79036549D01*
X147979571Y-78957426D01*
X147903594Y-78897162D01*
X147827881Y-78873198D01*
X147774512Y-78884794D01*
X147697825Y-78932588D01*
X147637643Y-79001002D01*
X147613289Y-79072123D01*
X147429736Y-79072123D01*
X147474255Y-78959298D01*
X147565830Y-78849614D01*
X147682515Y-78785782D01*
X147817758Y-78771499D01*
X147965005Y-78810466D01*
X148059475Y-78867567D01*
X148158609Y-78975796D01*
X148220238Y-79102354D01*
G37*
G36*
X145858096Y-75033819D02*
G01*
X145877015Y-75077704D01*
X145897072Y-75255271D01*
X145896386Y-75287660D01*
X145865653Y-75457419D01*
X145790428Y-75593791D01*
X145672290Y-75693693D01*
X145587433Y-75731210D01*
X145435518Y-75750705D01*
X145275740Y-75717736D01*
X145115421Y-75633099D01*
X145080999Y-75605954D01*
X145052683Y-75564861D01*
X145070713Y-75542646D01*
X145128943Y-75542997D01*
X145221226Y-75569604D01*
X145278858Y-75588266D01*
X145421234Y-75602253D01*
X145542157Y-75565954D01*
X145636098Y-75481888D01*
X145697530Y-75352573D01*
X145704693Y-75327661D01*
X145720112Y-75265546D01*
X145718605Y-75224420D01*
X145692117Y-75199959D01*
X145632591Y-75187840D01*
X145531974Y-75183739D01*
X145382208Y-75183333D01*
X145326531Y-75183348D01*
X145194225Y-75182244D01*
X145108490Y-75175941D01*
X145061346Y-75159966D01*
X145044814Y-75129850D01*
X145050915Y-75081118D01*
X145058848Y-75053669D01*
X145244231Y-75053669D01*
X145246663Y-75054655D01*
X145288259Y-75060581D01*
X145369261Y-75067922D01*
X145475169Y-75075318D01*
X145530668Y-75078559D01*
X145620863Y-75081473D01*
X145670851Y-75076443D01*
X145692292Y-75061286D01*
X145696847Y-75033819D01*
X145694694Y-75018337D01*
X145662216Y-74955252D01*
X145604310Y-74887565D01*
X145538582Y-74833552D01*
X145482640Y-74811486D01*
X145443533Y-74815936D01*
X145352550Y-74863799D01*
X145280282Y-74958010D01*
X145275165Y-74968076D01*
X145249681Y-75025824D01*
X145244231Y-75053669D01*
X145058848Y-75053669D01*
X145071670Y-75009301D01*
X145129991Y-74888447D01*
X145226556Y-74791623D01*
X145346289Y-74733877D01*
X145477472Y-74718457D01*
X145608389Y-74748610D01*
X145727325Y-74827583D01*
X145813996Y-74931522D01*
X145858096Y-75033819D01*
G37*
G36*
X153781069Y-74411036D02*
G01*
X153748762Y-74426626D01*
X153750991Y-74969450D01*
X153752426Y-75133835D01*
X153757187Y-75314336D01*
X153766116Y-75448276D01*
X153780247Y-75541782D01*
X153800613Y-75600984D01*
X153828247Y-75632011D01*
X153864182Y-75640991D01*
X153884741Y-75646867D01*
X153906081Y-75686357D01*
X153906039Y-75688231D01*
X153898972Y-75704586D01*
X153874297Y-75715833D01*
X153824102Y-75722573D01*
X153740474Y-75725409D01*
X153615502Y-75724945D01*
X153441273Y-75721783D01*
X153266629Y-75717324D01*
X153133550Y-75711533D01*
X153037020Y-75703238D01*
X152966572Y-75691149D01*
X152911738Y-75673977D01*
X152862050Y-75650433D01*
X152703797Y-75537913D01*
X152580149Y-75385509D01*
X152503404Y-75203508D01*
X152484191Y-75054617D01*
X152707066Y-75054617D01*
X152714058Y-75156667D01*
X152759629Y-75327365D01*
X152847776Y-75460352D01*
X152978938Y-75556441D01*
X153026097Y-75577045D01*
X153140695Y-75604086D01*
X153292385Y-75612387D01*
X153299887Y-75612374D01*
X153401857Y-75609547D01*
X153479013Y-75602733D01*
X153515166Y-75593318D01*
X153516482Y-75590619D01*
X153522122Y-75546061D01*
X153526999Y-75455116D01*
X153530831Y-75326653D01*
X153533337Y-75169540D01*
X153534235Y-74992643D01*
X153534235Y-74411036D01*
X153355462Y-74411195D01*
X153201150Y-74418206D01*
X153066033Y-74445566D01*
X152959269Y-74498264D01*
X152866770Y-74581200D01*
X152776318Y-74709419D01*
X152722197Y-74865559D01*
X152707066Y-75054617D01*
X152484191Y-75054617D01*
X152476809Y-74997410D01*
X152484393Y-74882151D01*
X152535959Y-74695385D01*
X152633278Y-74539028D01*
X152772836Y-74417974D01*
X152951117Y-74337116D01*
X153004937Y-74325715D01*
X153107446Y-74313526D01*
X153236056Y-74304390D01*
X153378889Y-74298481D01*
X153524066Y-74295972D01*
X153659710Y-74297034D01*
X153773940Y-74301844D01*
X153854880Y-74310574D01*
X153890650Y-74323397D01*
X153891239Y-74324479D01*
X153878240Y-74354383D01*
X153827980Y-74388399D01*
X153781069Y-74411036D01*
G37*
G36*
X144783829Y-78801999D02*
G01*
X144867906Y-78812922D01*
X144895946Y-78835039D01*
X144885735Y-78858010D01*
X144840199Y-78887037D01*
X144824243Y-78892050D01*
X144805941Y-78901633D01*
X144798816Y-78920631D01*
X144804682Y-78957862D01*
X144825351Y-79022145D01*
X144862637Y-79122297D01*
X144918353Y-79267137D01*
X144949182Y-79343918D01*
X144990495Y-79436117D01*
X145022607Y-79494975D01*
X145040385Y-79510268D01*
X145044330Y-79505148D01*
X145070879Y-79452071D01*
X145105198Y-79364166D01*
X145142601Y-79256148D01*
X145178398Y-79142732D01*
X145207904Y-79038635D01*
X145226429Y-78958571D01*
X145229288Y-78917255D01*
X145215770Y-78896425D01*
X145166195Y-78873198D01*
X145143909Y-78868228D01*
X145131369Y-78839116D01*
X145143431Y-78829078D01*
X145198073Y-78815156D01*
X145280860Y-78806173D01*
X145374811Y-78802563D01*
X145462944Y-78804761D01*
X145528278Y-78813200D01*
X145553829Y-78828315D01*
X145536447Y-78865696D01*
X145493787Y-78919122D01*
X145483963Y-78931856D01*
X145446525Y-78998149D01*
X145396905Y-79102389D01*
X145340404Y-79233053D01*
X145282324Y-79378623D01*
X145264323Y-79425724D01*
X145211156Y-79567213D01*
X145176034Y-79668264D01*
X145156655Y-79738914D01*
X145150720Y-79789200D01*
X145155928Y-79829160D01*
X145169979Y-79868832D01*
X145212358Y-79956496D01*
X145268023Y-80044647D01*
X145322018Y-80107675D01*
X145364133Y-80131757D01*
X145408019Y-80142719D01*
X145444652Y-80188381D01*
X145437070Y-80250553D01*
X145415108Y-80280593D01*
X145359215Y-80301918D01*
X145293528Y-80272564D01*
X145225088Y-80194397D01*
X145215717Y-80179077D01*
X145175949Y-80104288D01*
X145119670Y-79989777D01*
X145051362Y-79844991D01*
X144975511Y-79679376D01*
X144896601Y-79502378D01*
X144862245Y-79424906D01*
X144787591Y-79261104D01*
X144719780Y-79118292D01*
X144662720Y-79004375D01*
X144620314Y-78927258D01*
X144596468Y-78894848D01*
X144551206Y-78857282D01*
X144559245Y-78827398D01*
X144617991Y-78807784D01*
X144724325Y-78800736D01*
X144783829Y-78801999D01*
G37*
G36*
X150183679Y-75502678D02*
G01*
X150172432Y-75569268D01*
X150117677Y-75665502D01*
X150034384Y-75726338D01*
X149990431Y-75737617D01*
X149875796Y-75727137D01*
X149745824Y-75668218D01*
X149733689Y-75660817D01*
X149681874Y-75633496D01*
X149654448Y-75638883D01*
X149630746Y-75678894D01*
X149619321Y-75697723D01*
X149555521Y-75741284D01*
X149466740Y-75741756D01*
X149363844Y-75698347D01*
X149311743Y-75658472D01*
X149289386Y-75616767D01*
X149316001Y-75594044D01*
X149389435Y-75598684D01*
X149472523Y-75616933D01*
X149472523Y-75335547D01*
X149649789Y-75335547D01*
X149658577Y-75412935D01*
X149674796Y-75482045D01*
X149709280Y-75535315D01*
X149774913Y-75572183D01*
X149789426Y-75578171D01*
X149850331Y-75601381D01*
X149879206Y-75609069D01*
X149890854Y-75605393D01*
X149937312Y-75592674D01*
X149974829Y-75565662D01*
X150005982Y-75505355D01*
X150006640Y-75502678D01*
X150006517Y-75434932D01*
X149960317Y-75379048D01*
X149924239Y-75354856D01*
X149847775Y-75317778D01*
X149764780Y-75288177D01*
X149694311Y-75272436D01*
X149655422Y-75276936D01*
X149651919Y-75284582D01*
X149649789Y-75335547D01*
X149472523Y-75335547D01*
X149472523Y-75255234D01*
X149474773Y-75111825D01*
X149481277Y-74983141D01*
X149491131Y-74887026D01*
X149503429Y-74835788D01*
X149514518Y-74817502D01*
X149592871Y-74749210D01*
X149702206Y-74718188D01*
X149830931Y-74725976D01*
X149967456Y-74774116D01*
X150032474Y-74812979D01*
X150104869Y-74875642D01*
X150149926Y-74938516D01*
X150163596Y-74992267D01*
X150141835Y-75027561D01*
X150080594Y-75035064D01*
X150027436Y-75019170D01*
X149991705Y-74968806D01*
X149974349Y-74911905D01*
X149921039Y-74856890D01*
X149828609Y-74840090D01*
X149813553Y-74840415D01*
X149718524Y-74865618D01*
X149662511Y-74932066D01*
X149644145Y-75041256D01*
X149644669Y-75079420D01*
X149654840Y-75132126D01*
X149690041Y-75160818D01*
X149765710Y-75183569D01*
X149832000Y-75201474D01*
X149993925Y-75257988D01*
X150104349Y-75321168D01*
X150167502Y-75393977D01*
X150187613Y-75479383D01*
X150183679Y-75502678D01*
G37*
G36*
X152152676Y-79130631D02*
G01*
X152192023Y-79228319D01*
X152254929Y-79380344D01*
X152304591Y-79493706D01*
X152344093Y-79574420D01*
X152376515Y-79628501D01*
X152404939Y-79661963D01*
X152432447Y-79680820D01*
X152462120Y-79691087D01*
X152508734Y-79712633D01*
X152533109Y-79748709D01*
X152525854Y-79764777D01*
X152489268Y-79778949D01*
X152413651Y-79786368D01*
X152289978Y-79788513D01*
X152170167Y-79786752D01*
X152095012Y-79780187D01*
X152057227Y-79767058D01*
X152046847Y-79745608D01*
X152051387Y-79725674D01*
X152086250Y-79702703D01*
X152137528Y-79691037D01*
X152166014Y-79645829D01*
X152162428Y-79561973D01*
X152127517Y-79434617D01*
X152064221Y-79245045D01*
X151563008Y-79245045D01*
X151503224Y-79445791D01*
X151488199Y-79497746D01*
X151464092Y-79600901D01*
X151462925Y-79663451D01*
X151485762Y-79694388D01*
X151533670Y-79702703D01*
X151565481Y-79710496D01*
X151589190Y-79745608D01*
X151589054Y-79748726D01*
X151576220Y-79768577D01*
X151535577Y-79780739D01*
X151457348Y-79786841D01*
X151331757Y-79788513D01*
X151217170Y-79787018D01*
X151131929Y-79780843D01*
X151087255Y-79768604D01*
X151074325Y-79748944D01*
X151084978Y-79723205D01*
X151131384Y-79694453D01*
X151154753Y-79684006D01*
X151181238Y-79658726D01*
X151210231Y-79613596D01*
X151244230Y-79542846D01*
X151285729Y-79440705D01*
X151337225Y-79301405D01*
X151401215Y-79119174D01*
X151406085Y-79104936D01*
X151617793Y-79104936D01*
X151617875Y-79105679D01*
X151646698Y-79118277D01*
X151717357Y-79127226D01*
X151815288Y-79130631D01*
X152012783Y-79130631D01*
X151920155Y-78894651D01*
X151902610Y-78849846D01*
X151861575Y-78744161D01*
X151830147Y-78661974D01*
X151814029Y-78618140D01*
X151810627Y-78616526D01*
X151791142Y-78644826D01*
X151760170Y-78708777D01*
X151722992Y-78795282D01*
X151684886Y-78891246D01*
X151651132Y-78983573D01*
X151627008Y-79059168D01*
X151617793Y-79104936D01*
X151406085Y-79104936D01*
X151480195Y-78888245D01*
X151660699Y-78356490D01*
X151755347Y-78364563D01*
X151849995Y-78372635D01*
X152072382Y-78930405D01*
X152112794Y-79031617D01*
X152152676Y-79130631D01*
G37*
G36*
X151260248Y-75582694D02*
G01*
X151260248Y-76141554D01*
X151324606Y-76150694D01*
X151364616Y-76165302D01*
X151388964Y-76200751D01*
X151377782Y-76220619D01*
X151337341Y-76233296D01*
X151258353Y-76239820D01*
X151131532Y-76241667D01*
X151046856Y-76240842D01*
X150946092Y-76235318D01*
X150890901Y-76223722D01*
X150874100Y-76205032D01*
X150874172Y-76203495D01*
X150900489Y-76168703D01*
X150959910Y-76136008D01*
X150981873Y-76127432D01*
X151018114Y-76106544D01*
X151037144Y-76072733D01*
X151044500Y-76011240D01*
X151045721Y-75907303D01*
X151045721Y-75710988D01*
X150930674Y-75721960D01*
X150874113Y-75725345D01*
X150697851Y-75705815D01*
X150552861Y-75640914D01*
X150443474Y-75534436D01*
X150374019Y-75390179D01*
X150366207Y-75334906D01*
X150532327Y-75334906D01*
X150537608Y-75408199D01*
X150556351Y-75459734D01*
X150592270Y-75507761D01*
X150616238Y-75531598D01*
X150697709Y-75586248D01*
X150786830Y-75620783D01*
X150859798Y-75624788D01*
X150899060Y-75615403D01*
X150967061Y-75600042D01*
X151045721Y-75582694D01*
X151045721Y-74931497D01*
X150955642Y-74900095D01*
X150942237Y-74895540D01*
X150825747Y-74871259D01*
X150731104Y-74888794D01*
X150639695Y-74951153D01*
X150636670Y-74953864D01*
X150588070Y-75003038D01*
X150559711Y-75053355D01*
X150544711Y-75123504D01*
X150536187Y-75232172D01*
X150532327Y-75334906D01*
X150366207Y-75334906D01*
X150348828Y-75211937D01*
X150349434Y-75175221D01*
X150377635Y-75011525D01*
X150442837Y-74880406D01*
X150538336Y-74786769D01*
X150657426Y-74735519D01*
X150793402Y-74731561D01*
X150939561Y-74779799D01*
X151045721Y-74833923D01*
X151045721Y-74763114D01*
X151051187Y-74718563D01*
X151067308Y-74701839D01*
X151083559Y-74708633D01*
X151142711Y-74732586D01*
X151224628Y-74765316D01*
X151271873Y-74787344D01*
X151331166Y-74827608D01*
X151361561Y-74864589D01*
X151356719Y-74888962D01*
X151310304Y-74891400D01*
X151301377Y-74890700D01*
X151287145Y-74897109D01*
X151276621Y-74919541D01*
X151269251Y-74964860D01*
X151264482Y-75039928D01*
X151261761Y-75151611D01*
X151260534Y-75306772D01*
X151260248Y-75512275D01*
X151260248Y-75582694D01*
G37*
G36*
X144745777Y-74745515D02*
G01*
X144835881Y-74778137D01*
X144901994Y-74812161D01*
X144914144Y-74838630D01*
X144873687Y-74858747D01*
X144867069Y-74860637D01*
X144826844Y-74883919D01*
X144800436Y-74929762D01*
X144786114Y-75006723D01*
X144782147Y-75123361D01*
X144786802Y-75288231D01*
X144790782Y-75369373D01*
X144799134Y-75473410D01*
X144811778Y-75540285D01*
X144831647Y-75582748D01*
X144861677Y-75613551D01*
X144904305Y-75656379D01*
X144924550Y-75695632D01*
X144903008Y-75711331D01*
X144829803Y-75722801D01*
X144710023Y-75726802D01*
X144652334Y-75726311D01*
X144559156Y-75721012D01*
X144509899Y-75708543D01*
X144495496Y-75687232D01*
X144506218Y-75661435D01*
X144552703Y-75632703D01*
X144564540Y-75629011D01*
X144585330Y-75614369D01*
X144598590Y-75582936D01*
X144605993Y-75524607D01*
X144609210Y-75429282D01*
X144609910Y-75286858D01*
X144609910Y-74955973D01*
X144525520Y-74912334D01*
X144514943Y-74907270D01*
X144423862Y-74879867D01*
X144324587Y-74868694D01*
X144298523Y-74869387D01*
X144235549Y-74882416D01*
X144193304Y-74918464D01*
X144167958Y-74986014D01*
X144155681Y-75093550D01*
X144152643Y-75249553D01*
X144154077Y-75362305D01*
X144161423Y-75481453D01*
X144176945Y-75559246D01*
X144202801Y-75604909D01*
X144241152Y-75627669D01*
X144271544Y-75644435D01*
X144295271Y-75685824D01*
X144291601Y-75699048D01*
X144262173Y-75715703D01*
X144195124Y-75724336D01*
X144080744Y-75726802D01*
X143998392Y-75725819D01*
X143918064Y-75719812D01*
X143877454Y-75706528D01*
X143866217Y-75683896D01*
X143870812Y-75663953D01*
X143906062Y-75640991D01*
X143916889Y-75640197D01*
X143943804Y-75625411D01*
X143962148Y-75585743D01*
X143973408Y-75513126D01*
X143979073Y-75399494D01*
X143980631Y-75236781D01*
X143982189Y-75127209D01*
X143993699Y-74967894D01*
X144017826Y-74855063D01*
X144056245Y-74782363D01*
X144110629Y-74743444D01*
X144150230Y-74732416D01*
X144265348Y-74725809D01*
X144388052Y-74743687D01*
X144489036Y-74782990D01*
X144548127Y-74818062D01*
X144590793Y-74835325D01*
X144607216Y-74819847D01*
X144609910Y-74770317D01*
X144609910Y-74700544D01*
X144745777Y-74745515D01*
G37*
G36*
X146198082Y-76868229D02*
G01*
X146317192Y-76941750D01*
X146412050Y-77055805D01*
X146473573Y-77205626D01*
X146525213Y-77333177D01*
X146612293Y-77438527D01*
X146722156Y-77503599D01*
X146845144Y-77522861D01*
X146971597Y-77490783D01*
X146976547Y-77488369D01*
X147071478Y-77414848D01*
X147128724Y-77316472D01*
X147145910Y-77207539D01*
X147120659Y-77102349D01*
X147050597Y-77015203D01*
X146960467Y-76968651D01*
X146861878Y-76961413D01*
X146774600Y-76993270D01*
X146712248Y-77059025D01*
X146688439Y-77153478D01*
X146699538Y-77234104D01*
X146745909Y-77293884D01*
X146832775Y-77315809D01*
X146889365Y-77325048D01*
X146920498Y-77349350D01*
X146900983Y-77374332D01*
X146831149Y-77385811D01*
X146764498Y-77376765D01*
X146682536Y-77330028D01*
X146632358Y-77254443D01*
X146615367Y-77162426D01*
X146632968Y-77066392D01*
X146686565Y-76978757D01*
X146777561Y-76911935D01*
X146800776Y-76901992D01*
X146921137Y-76882247D01*
X147033016Y-76910881D01*
X147125922Y-76980607D01*
X147189360Y-77084139D01*
X147212838Y-77214191D01*
X147203497Y-77309222D01*
X147150164Y-77437379D01*
X147052177Y-77530835D01*
X146912500Y-77585923D01*
X146902703Y-77587891D01*
X146765676Y-77586404D01*
X146630725Y-77537584D01*
X146516494Y-77447928D01*
X146485253Y-77400635D01*
X146442607Y-77313130D01*
X146402399Y-77210302D01*
X146334027Y-77067144D01*
X146240332Y-76962808D01*
X146129445Y-76907453D01*
X146006984Y-76903819D01*
X145878569Y-76954650D01*
X145834226Y-76987047D01*
X145762466Y-77083726D01*
X145741076Y-77198892D01*
X145773233Y-77321475D01*
X145832388Y-77403391D01*
X145920556Y-77457623D01*
X146017117Y-77467881D01*
X146108435Y-77433131D01*
X146180877Y-77352342D01*
X146197733Y-77313095D01*
X146199838Y-77223869D01*
X146154652Y-77151182D01*
X146069010Y-77109849D01*
X146027967Y-77098813D01*
X145987702Y-77074047D01*
X145996302Y-77052058D01*
X146055692Y-77042567D01*
X146103082Y-77050589D01*
X146184477Y-77100037D01*
X146245124Y-77179724D01*
X146268919Y-77272296D01*
X146253593Y-77350339D01*
X146193633Y-77440748D01*
X146101518Y-77504620D01*
X145991448Y-77528829D01*
X145921013Y-77521756D01*
X145812139Y-77475634D01*
X145733291Y-77396062D01*
X145686649Y-77294189D01*
X145674397Y-77181162D01*
X145698714Y-77068129D01*
X145761782Y-76966238D01*
X145865784Y-76886636D01*
X145923446Y-76861858D01*
X146063806Y-76840009D01*
X146198082Y-76868229D01*
G37*
G36*
X149167857Y-78248071D02*
G01*
X149231633Y-78264556D01*
X149319508Y-78289306D01*
X149353607Y-78300221D01*
X149427801Y-78334169D01*
X149463208Y-78366771D01*
X149455080Y-78391323D01*
X149398671Y-78401117D01*
X149384766Y-78402442D01*
X149370228Y-78411788D01*
X149359606Y-78436230D01*
X149352287Y-78482785D01*
X149347659Y-78558473D01*
X149345111Y-78670312D01*
X149344031Y-78825321D01*
X149343807Y-79030518D01*
X149343807Y-79046501D01*
X149343976Y-79247846D01*
X149344954Y-79399854D01*
X149347462Y-79509887D01*
X149352220Y-79585305D01*
X149359949Y-79633468D01*
X149371369Y-79661736D01*
X149387201Y-79677471D01*
X149408165Y-79688033D01*
X149449198Y-79714383D01*
X149472523Y-79752391D01*
X149472394Y-79754427D01*
X149449068Y-79774072D01*
X149381248Y-79785080D01*
X149262763Y-79788513D01*
X149249980Y-79788479D01*
X149147353Y-79785592D01*
X149070207Y-79778972D01*
X149034400Y-79769910D01*
X149032801Y-79767508D01*
X149044108Y-79734333D01*
X149086840Y-79685465D01*
X149095008Y-79677783D01*
X149124235Y-79644806D01*
X149142664Y-79605333D01*
X149152767Y-79546689D01*
X149157016Y-79456196D01*
X149157883Y-79321179D01*
X149157883Y-79022734D01*
X149064922Y-78978776D01*
X149035194Y-78965116D01*
X148905273Y-78919580D01*
X148810131Y-78917572D01*
X148744739Y-78962035D01*
X148704069Y-79055910D01*
X148683092Y-79202140D01*
X148677900Y-79379957D01*
X148692250Y-79529992D01*
X148726394Y-79634084D01*
X148779506Y-79688079D01*
X148803667Y-79699999D01*
X148834819Y-79730459D01*
X148811057Y-79754931D01*
X148733925Y-79772579D01*
X148604968Y-79782566D01*
X148518881Y-79784837D01*
X148438098Y-79782108D01*
X148397032Y-79771042D01*
X148385586Y-79750147D01*
X148395229Y-79724609D01*
X148440455Y-79695026D01*
X148455977Y-79689233D01*
X148474055Y-79670969D01*
X148486415Y-79633086D01*
X148494621Y-79566188D01*
X148500233Y-79460877D01*
X148504813Y-79307758D01*
X148508098Y-79191715D01*
X148513515Y-79071780D01*
X148521646Y-78990047D01*
X148534396Y-78935464D01*
X148553670Y-78896977D01*
X148581373Y-78863533D01*
X148649699Y-78807952D01*
X148720120Y-78774238D01*
X148745880Y-78770042D01*
X148849986Y-78779308D01*
X148969550Y-78818826D01*
X149083903Y-78882448D01*
X149167243Y-78940965D01*
X149148503Y-78592442D01*
X149148052Y-78583971D01*
X149142372Y-78451603D01*
X149140191Y-78343514D01*
X149141571Y-78270640D01*
X149146572Y-78243919D01*
X149167857Y-78248071D01*
G37*
G36*
X150972903Y-76850682D02*
G01*
X151088665Y-76892866D01*
X151184731Y-76967503D01*
X151250294Y-77071641D01*
X151274550Y-77202328D01*
X151268209Y-77290568D01*
X151239932Y-77359225D01*
X151177298Y-77431576D01*
X151112872Y-77483890D01*
X150996950Y-77529358D01*
X150879112Y-77521742D01*
X150769081Y-77460355D01*
X150769072Y-77460348D01*
X150707767Y-77376198D01*
X150684761Y-77274664D01*
X150700731Y-77175065D01*
X150756353Y-77096721D01*
X150814865Y-77063034D01*
X150882679Y-77044601D01*
X150937411Y-77046513D01*
X150959910Y-77071171D01*
X150950105Y-77087400D01*
X150904746Y-77099775D01*
X150841609Y-77116373D01*
X150787462Y-77172009D01*
X150762245Y-77251145D01*
X150770531Y-77337406D01*
X150816892Y-77414414D01*
X150846262Y-77438882D01*
X150938735Y-77471077D01*
X151039490Y-77452576D01*
X151137313Y-77384430D01*
X151192165Y-77321439D01*
X151213346Y-77262888D01*
X151209046Y-77181985D01*
X151187308Y-77091279D01*
X151123928Y-76994365D01*
X151015526Y-76927494D01*
X150905323Y-76905882D01*
X150784444Y-76928559D01*
X150675517Y-76991786D01*
X150591696Y-77087690D01*
X150546136Y-77208402D01*
X150528558Y-77280400D01*
X150455179Y-77423330D01*
X150340891Y-77531750D01*
X150339117Y-77532907D01*
X150233996Y-77574592D01*
X150108644Y-77587198D01*
X149986389Y-77571008D01*
X149890561Y-77526303D01*
X149847438Y-77488038D01*
X149765410Y-77372903D01*
X149731711Y-77246651D01*
X149747905Y-77120151D01*
X149815552Y-77004276D01*
X149819027Y-77000359D01*
X149926640Y-76914935D01*
X150045251Y-76885233D01*
X150172788Y-76911789D01*
X150251669Y-76957701D01*
X150311842Y-77041190D01*
X150330631Y-77160409D01*
X150328665Y-77191633D01*
X150290883Y-77291741D01*
X150213749Y-77360351D01*
X150108734Y-77385811D01*
X150049305Y-77378060D01*
X150022165Y-77355059D01*
X150043915Y-77329784D01*
X150113622Y-77315652D01*
X150158239Y-77308816D01*
X150230847Y-77265631D01*
X150265409Y-77195038D01*
X150257629Y-77110871D01*
X150203215Y-77026965D01*
X150117261Y-76969799D01*
X150024297Y-76957316D01*
X149937148Y-76985236D01*
X149865082Y-77045666D01*
X149817368Y-77130712D01*
X149803273Y-77232480D01*
X149832066Y-77343076D01*
X149845965Y-77369517D01*
X149931303Y-77466464D01*
X150042108Y-77518175D01*
X150166722Y-77521372D01*
X150293488Y-77472780D01*
X150337262Y-77441369D01*
X150427238Y-77330191D01*
X150485838Y-77173028D01*
X150516253Y-77091555D01*
X150563617Y-77008126D01*
X150615501Y-76948363D01*
X150725516Y-76875479D01*
X150848252Y-76843902D01*
X150972903Y-76850682D01*
G37*
G36*
X147006685Y-78772109D02*
G01*
X147069772Y-78792892D01*
X147152654Y-78818478D01*
X147162204Y-78821474D01*
X147231888Y-78854210D01*
X147267122Y-78889909D01*
X147262555Y-78918623D01*
X147212838Y-78930405D01*
X147198458Y-78931204D01*
X147178590Y-78940712D01*
X147166042Y-78968816D01*
X147159145Y-79025169D01*
X147156231Y-79119422D01*
X147155631Y-79261227D01*
X147158243Y-79421931D01*
X147168237Y-79553951D01*
X147187052Y-79640672D01*
X147216089Y-79688215D01*
X147256750Y-79702703D01*
X147276268Y-79707674D01*
X147298649Y-79745608D01*
X147291364Y-79764612D01*
X147257693Y-79779160D01*
X147187230Y-79786493D01*
X147069820Y-79788513D01*
X146992585Y-79787711D01*
X146902358Y-79782056D01*
X146854831Y-79769653D01*
X146840991Y-79748944D01*
X146849955Y-79724711D01*
X146894323Y-79695428D01*
X146939618Y-79656892D01*
X146967121Y-79567448D01*
X146976297Y-79426082D01*
X146967336Y-79231597D01*
X146947796Y-78990779D01*
X146836607Y-78946290D01*
X146773954Y-78922855D01*
X146694782Y-78905044D01*
X146637262Y-78916797D01*
X146583559Y-78959009D01*
X146563105Y-78982980D01*
X146544053Y-79023085D01*
X146532898Y-79083458D01*
X146527658Y-79176401D01*
X146526352Y-79314215D01*
X146526685Y-79399329D01*
X146530112Y-79531430D01*
X146538902Y-79619236D01*
X146555070Y-79671328D01*
X146580633Y-79696289D01*
X146617606Y-79702703D01*
X146649240Y-79709333D01*
X146662323Y-79738457D01*
X146644132Y-79754287D01*
X146573303Y-79772379D01*
X146455399Y-79782768D01*
X146362932Y-79783675D01*
X146273945Y-79775119D01*
X146226821Y-79757562D01*
X146226661Y-79733260D01*
X146278563Y-79704473D01*
X146354730Y-79675515D01*
X146354730Y-79012999D01*
X146227158Y-78956568D01*
X146194881Y-78943260D01*
X146075896Y-78916261D01*
X145987069Y-78937042D01*
X145929265Y-79005460D01*
X145920158Y-79034474D01*
X145907225Y-79122018D01*
X145899809Y-79238222D01*
X145897977Y-79365973D01*
X145901800Y-79488158D01*
X145911345Y-79587663D01*
X145926682Y-79647376D01*
X145952282Y-79680024D01*
X145998191Y-79702703D01*
X146017710Y-79707674D01*
X146040091Y-79745608D01*
X146035175Y-79762078D01*
X146005143Y-79778144D01*
X145938721Y-79786266D01*
X145825563Y-79788513D01*
X145767874Y-79788022D01*
X145674696Y-79782724D01*
X145625440Y-79770255D01*
X145611036Y-79748944D01*
X145621758Y-79723147D01*
X145668244Y-79694415D01*
X145680452Y-79690579D01*
X145701075Y-79675796D01*
X145714227Y-79644114D01*
X145721568Y-79585457D01*
X145724757Y-79489750D01*
X145725451Y-79346917D01*
X145726490Y-79238968D01*
X145735012Y-79076384D01*
X145754257Y-78958278D01*
X145786770Y-78876624D01*
X145835093Y-78823392D01*
X145901773Y-78790556D01*
X145999547Y-78774796D01*
X146133137Y-78798632D01*
X146286988Y-78871630D01*
X146350647Y-78905726D01*
X146384561Y-78910310D01*
X146402136Y-78886087D01*
X146402612Y-78884907D01*
X146439653Y-78841693D01*
X146503302Y-78798817D01*
X146583987Y-78773032D01*
X146713963Y-78782705D01*
X146862444Y-78846402D01*
X146955406Y-78899872D01*
X146955406Y-78826268D01*
X146964290Y-78774918D01*
X146995334Y-78767985D01*
X147006685Y-78772109D01*
G37*
G36*
X147435739Y-74710397D02*
G01*
X147498826Y-74731180D01*
X147581708Y-74756767D01*
X147591259Y-74759762D01*
X147661099Y-74792551D01*
X147696179Y-74828244D01*
X147691243Y-74856929D01*
X147641038Y-74868694D01*
X147618573Y-74871024D01*
X147602158Y-74884440D01*
X147592456Y-74918167D01*
X147588203Y-74981422D01*
X147588133Y-75083423D01*
X147590981Y-75233390D01*
X147594285Y-75366721D01*
X147598993Y-75475811D01*
X147606413Y-75546331D01*
X147618386Y-75588266D01*
X147636751Y-75611600D01*
X147663345Y-75626321D01*
X147704378Y-75652671D01*
X147727703Y-75690679D01*
X147726353Y-75696875D01*
X147696604Y-75714186D01*
X147622948Y-75723819D01*
X147498874Y-75726802D01*
X147397520Y-75725436D01*
X147319929Y-75719122D01*
X147280823Y-75705911D01*
X147270045Y-75683896D01*
X147279264Y-75659902D01*
X147323597Y-75640991D01*
X147332841Y-75640085D01*
X147373087Y-75603617D01*
X147396798Y-75513561D01*
X147404036Y-75369505D01*
X147394863Y-75171039D01*
X147376218Y-74928470D01*
X147250196Y-74885530D01*
X147226692Y-74878085D01*
X147111084Y-74860776D01*
X147023975Y-74882076D01*
X146973609Y-74940351D01*
X146973009Y-74942033D01*
X146964677Y-74996541D01*
X146959077Y-75090969D01*
X146956228Y-75209141D01*
X146956152Y-75334880D01*
X146958869Y-75452011D01*
X146964401Y-75544359D01*
X146972768Y-75595746D01*
X146990525Y-75619961D01*
X147044277Y-75640991D01*
X147074787Y-75648501D01*
X147098424Y-75683896D01*
X147093765Y-75700037D01*
X147064170Y-75716299D01*
X146998232Y-75724524D01*
X146885585Y-75726802D01*
X146805109Y-75724891D01*
X146708049Y-75714210D01*
X146657596Y-75695637D01*
X146657260Y-75670879D01*
X146710554Y-75641645D01*
X146737424Y-75630359D01*
X146759901Y-75612239D01*
X146773606Y-75579206D01*
X146780707Y-75520685D01*
X146783377Y-75426104D01*
X146783784Y-75284888D01*
X146783784Y-74955973D01*
X146695562Y-74910352D01*
X146678576Y-74901952D01*
X146558399Y-74865229D01*
X146455034Y-74872925D01*
X146378649Y-74924583D01*
X146376730Y-74926988D01*
X146351501Y-74970607D01*
X146336030Y-75031862D01*
X146328259Y-75123906D01*
X146326127Y-75259891D01*
X146326522Y-75314600D01*
X146334139Y-75465350D01*
X146352527Y-75566463D01*
X146383094Y-75623243D01*
X146427246Y-75640991D01*
X146446764Y-75645963D01*
X146469145Y-75683896D01*
X146464229Y-75700367D01*
X146434197Y-75716432D01*
X146367775Y-75724554D01*
X146254618Y-75726802D01*
X146196928Y-75726311D01*
X146103750Y-75721012D01*
X146054494Y-75708543D01*
X146040091Y-75687232D01*
X146049741Y-75662364D01*
X146094959Y-75633315D01*
X146110768Y-75627364D01*
X146128724Y-75608930D01*
X146141005Y-75570791D01*
X146149164Y-75503573D01*
X146154751Y-75397901D01*
X146159317Y-75244399D01*
X146159368Y-75242401D01*
X146163779Y-75089616D01*
X146169303Y-74982834D01*
X146178033Y-74910987D01*
X146192061Y-74863003D01*
X146213479Y-74827810D01*
X146244380Y-74794339D01*
X146295664Y-74754844D01*
X146408655Y-74720377D01*
X146540651Y-74734065D01*
X146684031Y-74795883D01*
X146747451Y-74832145D01*
X146793834Y-74851711D01*
X146819392Y-74845026D01*
X146839704Y-74813892D01*
X146848497Y-74799578D01*
X146919584Y-74743277D01*
X147022442Y-74720680D01*
X147144210Y-74732780D01*
X147272024Y-74780567D01*
X147384460Y-74839172D01*
X147384460Y-74765062D01*
X147393412Y-74713164D01*
X147424388Y-74706273D01*
X147435739Y-74710397D01*
G37*
%LPC*%
D16*
X119370725Y-72029269D03*
D17*
X133340725Y-70759269D03*
X135880725Y-70759269D03*
X138420725Y-70759269D03*
X140960725Y-70759269D03*
X143500725Y-70759269D03*
X146040725Y-70759269D03*
X148580725Y-70759269D03*
X151120725Y-70759269D03*
X153660725Y-70759269D03*
X156200725Y-70759269D03*
X158740725Y-70759269D03*
X161280725Y-70759269D03*
D18*
X165090725Y-90444269D03*
D19*
X120954800Y-82956400D03*
X120954800Y-79456400D03*
D16*
X119370725Y-89809269D03*
D20*
X126492000Y-72771000D03*
X129032000Y-72771000D03*
D17*
X161280725Y-91079269D03*
X158740725Y-91079269D03*
X156200725Y-91079269D03*
X153660725Y-91079269D03*
X151120725Y-91079269D03*
X148580725Y-91079269D03*
X146040725Y-91079269D03*
X143500725Y-91079269D03*
X140960725Y-91079269D03*
X138420725Y-91079269D03*
X135880725Y-91079269D03*
X133340725Y-91079269D03*
X130800725Y-91079269D03*
X128260725Y-91079269D03*
X125720725Y-91079269D03*
X123180725Y-91079269D03*
D19*
X163682400Y-77424400D03*
X163682400Y-80924400D03*
X163682400Y-84424400D03*
D18*
X165090725Y-71394269D03*
D21*
X155792850Y-76327000D03*
D22*
X134657500Y-74550000D03*
D23*
X134657500Y-75850000D03*
D24*
X134657500Y-77150000D03*
D22*
X134907500Y-84200000D03*
D23*
X134907500Y-85500000D03*
D24*
X134907500Y-86800000D03*
D22*
X130850000Y-84200000D03*
D23*
X130850000Y-85500000D03*
D24*
X130850000Y-86800000D03*
D21*
X155825000Y-85400000D03*
M02*
