M48
; DRILL file {KiCad 7.0.1} date Fri Jun  2 18:52:19 2023
; FORMAT={-:-/ absolute / metric / decimal}
; #@! TF.CreationDate,2023-06-02T18:52:19-05:00
; #@! TF.GenerationSoftware,Kicad,Pcbnew,7.0.1
; #@! TF.FileFunction,Plated,1,2,PTH
FMAT,2
METRIC
; #@! TA.AperFunction,Plated,PTH,ViaDrill
T1C0.400
; #@! TA.AperFunction,Plated,PTH,ComponentDrill
T2C1.000
; #@! TA.AperFunction,Plated,PTH,ComponentDrill
T3C1.300
; #@! TA.AperFunction,Plated,PTH,ComponentDrill
T4C2.700
%
G90
G05
T1
X131.1Y-74.784
X131.1Y-78.35
X132.083Y-78.529
X132.25Y-83.024
X134.2Y-83.024
X136.45Y-83.024
X136.625Y-85.95
X139.178Y-75.328
X141.0Y-77.0
X141.0Y-85.0
X142.5Y-77.0
X142.5Y-85.0
X155.793Y-76.327
X155.8Y-85.425
X163.5Y-74.5
X163.5Y-87.0
X165.5Y-74.5
X165.5Y-87.0
T2
X123.181Y-91.079
X125.721Y-91.079
X128.261Y-91.079
X130.801Y-91.079
X133.341Y-70.759
X133.341Y-91.079
X135.881Y-70.759
X135.881Y-91.079
X138.421Y-70.759
X138.421Y-91.079
X140.961Y-70.759
X140.961Y-91.079
X143.501Y-70.759
X143.501Y-91.079
X146.041Y-70.759
X146.041Y-91.079
X148.581Y-70.759
X148.581Y-91.079
X151.121Y-70.759
X151.121Y-91.079
X153.661Y-70.759
X153.661Y-91.079
X156.201Y-70.759
X156.201Y-91.079
X158.741Y-70.759
X158.741Y-91.079
X161.281Y-70.759
X161.281Y-91.079
T3
X120.955Y-79.456
X120.955Y-82.956
X126.492Y-72.771
X129.032Y-72.771
X163.682Y-77.424
X163.682Y-80.924
X163.682Y-84.424
T4
X119.371Y-72.029
X119.371Y-89.809
T0
M30
